<?xml version="1.0" encoding="UTF-8" standalone="no"?>
<!-- Created with Inkscape (http://www.inkscape.org/) -->

<svg
   xmlns:dc="http://purl.org/dc/elements/1.1/"
   xmlns:cc="http://creativecommons.org/ns#"
   xmlns:rdf="http://www.w3.org/1999/02/22-rdf-syntax-ns#"
   xmlns:svg="http://www.w3.org/2000/svg"
   xmlns="http://www.w3.org/2000/svg"
   xmlns:sodipodi="http://sodipodi.sourceforge.net/DTD/sodipodi-0.dtd"
   xmlns:inkscape="http://www.inkscape.org/namespaces/inkscape"
   width="50"
   height="50"
   id="svg3235"
   version="1.1"
   inkscape:version="0.48.3.1 r9886"
   sodipodi:docname="parrillada.svg">
  <defs
     id="defs3237" />
  <sodipodi:namedview
     id="base"
     pagecolor="#ffffff"
     bordercolor="#666666"
     borderopacity="1.0"
     inkscape:pageopacity="0.0"
     inkscape:pageshadow="2"
     inkscape:zoom="0.98994949"
     inkscape:cx="13.371408"
     inkscape:cy="22.51252"
     inkscape:document-units="px"
     inkscape:current-layer="layer1"
     showgrid="false"
     inkscape:window-width="1871"
     inkscape:window-height="1056"
     inkscape:window-x="1729"
     inkscape:window-y="24"
     inkscape:window-maximized="1" />
  <metadata
     id="metadata3240">
    <rdf:RDF>
      <cc:Work
         rdf:about="">
        <dc:format>image/svg+xml</dc:format>
        <dc:type
           rdf:resource="http://purl.org/dc/dcmitype/StillImage" />
        <dc:title></dc:title>
      </cc:Work>
    </rdf:RDF>
  </metadata>
  <g
     inkscape:label="Layer 1"
     inkscape:groupmode="layer"
     id="layer1"
     transform="translate(0,-1002.3622)">
    <path
       style="fill:#333333"
       inkscape:connector-curvature="0"
       d="m 32.206661,1032.3261 c 3.508,-1.519 5.753,-4.348 5.753,-7.335 0,-1.185 -5.824,-1.779 -11.675,-1.785 v 0 c -0.014,0 -0.026,0 -0.042,0 -0.013,0 -0.025,0 -0.039,0 v 0 c -5.851,0.01 -11.676,0.601 -11.676,1.785 0,2.987 2.243,5.816 5.755,7.335 0.882,0.782 0.653,1.678 0.138,2.425 -0.384,0.205 -0.6,0.42 -0.6,0.625 0,0.119 0.072,0.245 0.211,0.372 0.393,0.468 1.418,0.857 2.951,1.081 0.938,0.172 2.029,0.283 3.197,0.283 0.021,0 0.041,0 0.062,0 0.022,0 0.044,0 0.065,0 1.167,0 2.259,-0.111 3.196,-0.283 1.534,-0.224 2.56,-0.613 2.951,-1.081 0.139,-0.127 0.212,-0.253 0.212,-0.372 0,-0.205 -0.215,-0.42 -0.6,-0.625 -0.512,-0.747 -0.74,-1.642 0.141,-2.425 z m -5.886,-6.185 c -5.807,0 -10.588,-0.846 -10.588,-1.36 0,-0.516 4.704,-0.934 10.51,-0.936 5.81,0 10.512,0.42 10.512,0.936 0,0.519 -4.626,1.359 -10.434,1.36 z"
       id="path177"
       inkscape:export-filename="/home/proxectos/geozzy/distModules/rextEatAndDrink/classes/view/categoryIcon/furancho.svg.png"
       inkscape:export-xdpi="90"
       inkscape:export-ydpi="90" />
  </g>
</svg>
