<?xml version="1.0" encoding="UTF-8" standalone="no"?>
<!-- Created with Inkscape (http://www.inkscape.org/) -->

<svg
   xmlns:dc="http://purl.org/dc/elements/1.1/"
   xmlns:cc="http://creativecommons.org/ns#"
   xmlns:rdf="http://www.w3.org/1999/02/22-rdf-syntax-ns#"
   xmlns:svg="http://www.w3.org/2000/svg"
   xmlns="http://www.w3.org/2000/svg"
   xmlns:sodipodi="http://sodipodi.sourceforge.net/DTD/sodipodi-0.dtd"
   xmlns:inkscape="http://www.inkscape.org/namespaces/inkscape"
   width="32px"
   height="32px"
   id="svg3166"
   version="1.1"
   inkscape:version="0.48.3.1 r9886"
   sodipodi:docname="rinconeshistoricos.svg">
  <defs
     id="defs3168" />
  <sodipodi:namedview
     id="base"
     pagecolor="#ffffff"
     bordercolor="#666666"
     borderopacity="1.0"
     inkscape:pageopacity="0.0"
     inkscape:pageshadow="2"
     inkscape:zoom="11.197802"
     inkscape:cx="16"
     inkscape:cy="16"
     inkscape:current-layer="layer1"
     showgrid="true"
     inkscape:grid-bbox="true"
     inkscape:document-units="px"
     inkscape:window-width="1871"
     inkscape:window-height="1056"
     inkscape:window-x="1729"
     inkscape:window-y="24"
     inkscape:window-maximized="1" />
  <metadata
     id="metadata3171">
    <rdf:RDF>
      <cc:Work
         rdf:about="">
        <dc:format>image/svg+xml</dc:format>
        <dc:type
           rdf:resource="http://purl.org/dc/dcmitype/StillImage" />
        <dc:title></dc:title>
      </cc:Work>
    </rdf:RDF>
  </metadata>
  <g
     id="layer1"
     inkscape:label="Layer 1"
     inkscape:groupmode="layer">
    <path
       style="fill:#020202"
       inkscape:connector-curvature="0"
       d="m 23.958,18.895 c 4.68,-2.027 7.674,-5.802 7.674,-9.786 0,-1.582 -7.771,-2.374 -15.576,-2.383 V 6.724 c -0.018,0 -0.035,0.002 -0.055,0.002 -0.018,0 -0.035,-0.002 -0.053,-0.002 V 6.726 C 8.139,6.735 0.368,7.529 0.368,9.109 c 0,3.984 2.994,7.759 7.676,9.786 1.178,1.043 0.873,2.235 0.186,3.233 -0.514,0.272 -0.801,0.562 -0.801,0.835 0,0.158 0.098,0.325 0.281,0.496 0.525,0.624 1.893,1.144 3.938,1.439 1.25,0.229 2.709,0.378 4.268,0.378 0.027,0 0.055,0 0.082,-0.005 0.031,0.005 0.059,0.005 0.088,0.005 1.557,0 3.012,-0.147 4.264,-0.378 2.047,-0.298 3.414,-0.815 3.936,-1.439 0.186,-0.171 0.281,-0.338 0.281,-0.496 0,-0.272 -0.285,-0.562 -0.799,-0.835 -0.681,-0.995 -0.99,-2.19 0.19,-3.233 z M 16.105,10.641 C 8.355,10.64 1.98,9.511 1.98,8.827 c 0,-0.688 6.273,-1.244 14.021,-1.248 7.75,0.004 14.023,0.562 14.023,1.248 10e-4,0.692 -6.173,1.813 -13.919,1.814 z"
       id="path183" />
  </g>
</svg>
