<?xml version="1.0" encoding="UTF-8" standalone="no"?>
<!-- Created with Inkscape (http://www.inkscape.org/) -->

<svg
   xmlns:dc="http://purl.org/dc/elements/1.1/"
   xmlns:cc="http://creativecommons.org/ns#"
   xmlns:rdf="http://www.w3.org/1999/02/22-rdf-syntax-ns#"
   xmlns:svg="http://www.w3.org/2000/svg"
   xmlns="http://www.w3.org/2000/svg"
   xmlns:sodipodi="http://sodipodi.sourceforge.net/DTD/sodipodi-0.dtd"
   xmlns:inkscape="http://www.inkscape.org/namespaces/inkscape"
   width="360"
   height="360"
   viewBox="0 0 360 360.00001"
   id="svg4379"
   version="1.1"
   inkscape:version="0.91 r13725"
   sodipodi:docname="marisqueria.svg">
  <defs
     id="defs4381" />
  <sodipodi:namedview
     id="base"
     pagecolor="#ffffff"
     bordercolor="#666666"
     borderopacity="1.0"
     inkscape:pageopacity="0.0"
     inkscape:pageshadow="2"
     inkscape:zoom="1.2877717"
     inkscape:cx="245.71429"
     inkscape:cy="145.71429"
     inkscape:document-units="px"
     inkscape:current-layer="layer1"
     showgrid="false"
     units="px"
     inkscape:window-width="1600"
     inkscape:window-height="873"
     inkscape:window-x="1911"
     inkscape:window-y="-9"
     inkscape:window-maximized="1" />
  <metadata
     id="metadata4384">
    <rdf:RDF>
      <cc:Work
         rdf:about="">
        <dc:format>image/svg+xml</dc:format>
        <dc:type
           rdf:resource="http://purl.org/dc/dcmitype/StillImage" />
        <dc:title></dc:title>
      </cc:Work>
    </rdf:RDF>
  </metadata>
  <g
     inkscape:label="Capa 1"
     inkscape:groupmode="layer"
     id="layer1"
     transform="translate(0,-692.36216)">
    <g
       id="g4165"
       transform="matrix(8.6207864,0,0,8.6207864,800.28662,-7083.6397)">
      <path
         id="path199"
         d="m -73.028846,939.54474 10.023,0 c -0.027,-0.264 -0.068,-0.528 -0.072,-0.8 -0.006,-0.469 0.209,-0.975 0.145,-1.439 -0.066,-0.488 -0.25,-0.812 -0.225,-1.339 0.018,-0.332 0.018,-0.654 0.057,-0.988 0.086,-0.757 0.246,-1.49 0.363,-2.236 0.227,-1.423 1.17,-2.278 2.041,-3.446 0.258,-0.345 0.707,-1.285 0.619,-1.767 0.148,-0.2 0.33,-0.385 0.521,-0.564 0.578,-0.247 1.209,-0.981 1.469,-1.695 0.205,-0.403 0.27,-0.794 0.209,-1.251 0.189,-0.401 0.113,-0.841 0.006,-1.271 -0.133,-0.54 -0.189,-1.087 -0.35,-1.623 -0.367,-1.233 -1.014,-2.389 -1.377,-3.624 -0.363,-1.235 -0.594,-2.5 -1.229,-3.662 -0.445,-0.818 -1.17,-1.467 -1.793,-2.178 -0.211,-0.497 -0.488,-0.912 -0.861,-0.913 -0.104,0.101 -0.092,-0.003 -0.539,0.085 -0.502,-0.05 -1.004,0.326 -1.438,0.572 -0.064,0.037 -0.123,0.07 -0.18,0.101 -0.188,0.103 -0.229,0.229 -0.398,0.336 -0.25,0.153 -0.418,0.311 -0.684,0.433 -0.307,0.143 -0.566,0.296 -0.77,0.508 -0.014,0.006 -0.027,0.012 -0.037,0.016 -0.5,0.187 -0.932,0.419 -1.34,0.737 -0.814,0.64 -1.551,1.451 -2.008,2.329 -0.551,1.054 -1.182,2.208 -1.334,3.377 -0.084,0.652 -0.109,1.371 0.053,2.02 0.09,0.354 0.23,0.765 0.324,1.152 l 0.018,0.407 0.062,-0.003 c 0.014,0.087 0.021,0.169 0.021,0.248 l 0.033,0.015 c -0.016,0 -0.031,0 -0.043,0 l -0.021,0.186 0.068,0.097 c -0.084,0.382 -0.027,0.873 0.178,1.203 0.193,0.319 0.246,0.392 0.447,0.696 0.146,0.219 -0.062,1.217 -0.006,1.46 0.182,0.807 0.271,1.767 0.188,2.577 -0.039,0.38 -0.156,0.792 -0.135,1.176 0.016,0.277 -0.094,0.396 -0.213,0.704 -0.205,0.533 -0.211,1.06 -0.432,1.581 -0.215,0.506 -0.096,1.121 -0.184,1.683 -0.125,0.792 -0.283,1.433 -0.662,2.169 -0.324,0.634 -0.943,1.273 -1.021,1.983 -0.054,0.515 0.184,0.704 0.507,0.948 z m 8.408,-16.347 c -0.672,-0.078 -1.439,-0.271 -1.877,-0.557 l -0.266,-0.309 c -0.254,-0.302 -0.354,-0.513 -0.312,-0.667 0.031,-0.115 0.156,-0.219 0.373,-0.308 0.268,-0.108 0.566,-0.147 0.887,-0.189 0.283,-0.037 0.576,-0.075 0.859,-0.167 -0.014,0.396 0.1,0.777 0.209,1.15 0.107,0.363 0.211,0.71 0.193,1.051 -0.019,0 -0.043,-10e-4 -0.066,-0.004 z m 6.322,1.786 c -0.166,0.657 -0.771,1.435 -1.309,1.712 -0.145,-0.508 -0.328,-1.022 -0.531,-1.479 0.795,-0.215 1.369,-0.803 1.645,-1.217 l 0.02,0.066 0.021,0.025 c 0.252,0.254 0.224,0.625 0.154,0.893 z m -3.039,-11.226 c 0.717,1.126 0.939,2.441 1.285,3.679 0.328,1.169 0.9,2.265 1.303,3.413 0.188,0.535 0.262,1.068 0.375,1.613 0,0.004 0,0.005 0,0.007 -0.41,-0.898 -0.963,-1.736 -1.268,-2.681 -0.359,-1.025 -0.623,-2.085 -1.025,-3.157 -0.488,-1.168 -0.943,-2.206 -1.432,-3.375 -0.061,-0.159 -0.129,-0.417 -0.217,-0.709 0.358,0.382 0.702,0.774 0.979,1.21 z m -1.141,3.702 c 0.006,0.002 0.01,0.004 0.016,0.005 l 0.062,0.01 0.223,-0.15 c 0.152,0.6 0.521,1.133 0.883,1.649 0.309,0.44 0.627,0.897 0.791,1.379 l 0.053,0.157 c 0.162,0.479 0.332,0.974 0.57,1.446 l 0.613,1.239 c -0.123,0.054 -0.281,0.134 -0.467,0.226 -0.518,0.256 -1.383,0.682 -1.701,0.646 -0.014,-0.002 -0.023,-0.004 -0.031,-0.007 -1.951,-0.619 -1.963,-1.05 -1.98,-1.708 -0.008,-0.225 -0.014,-0.479 -0.094,-0.771 -0.221,-0.798 -0.068,-1.605 0.088,-2.304 0.314,-1.386 0.709,-1.847 0.974,-1.817 z m -5.927,0.773 c 0.02,-0.11 0.039,-0.208 0.053,-0.282 0.033,-0.221 0.08,-0.436 0.123,-0.643 0.092,-0.454 0.182,-0.879 0.188,-1.355 0,-0.222 -0.008,-0.449 -0.016,-0.672 -0.023,-0.643 0.291,-1.269 0.492,-1.843 0.168,-0.483 0.498,-0.717 0.979,-0.938 0.279,-0.129 0.469,-0.298 0.715,-0.449 0.168,-0.104 0.205,-0.229 0.389,-0.328 0.055,-0.032 0.115,-0.064 0.18,-0.104 0.381,-0.216 0.865,-0.583 1.268,-0.536 0.027,0.004 0.057,0.01 0.084,0.018 0.117,0.033 0.205,0.111 0.266,0.24 0.07,0.145 0.053,0.306 0.035,0.476 -0.004,0.032 -0.006,0.062 -0.01,0.096 -0.094,0.256 0.008,0.578 0.098,0.867 0.035,0.107 0.066,0.205 0.084,0.289 0.043,0.209 0.096,0.417 0.148,0.617 0.094,0.37 0.184,0.721 0.221,1.085 0.012,0.123 0.049,0.279 0.086,0.446 0.074,0.336 0.166,0.754 0.086,0.962 -0.082,0.196 -0.363,0.351 -0.635,0.5 -0.152,0.083 -0.293,0.161 -0.41,0.248 -0.682,0.517 -1.125,1.212 -1.553,1.885 -0.086,0.137 -0.174,0.272 -0.262,0.407 -0.324,0.49 -0.639,0.905 -1.193,0.993 -0.34,0.057 -1.205,0.07 -1.365,-0.042 -0.378,-0.265 -0.157,-1.395 -0.051,-1.937 z m -3.334,2.471 c -0.541,-0.845 -0.08,-2.609 0.295,-3.444 0.322,-0.712 0.822,-1.357 1.186,-2.068 l 1.166,-1.19 c -0.117,1.35 -0.25,2.348 -0.322,3.696 -0.035,0.675 0.424,1.734 -0.314,2.179 -0.59,0.353 -1.4,0.424 -2.011,0.827 z m 0.578,1.842 c -0.146,0 -0.279,0 -0.379,0.002 l -0.023,-0.525 c 0.393,-0.382 1.854,-1.419 2.328,-1.531 0.006,0 0.012,0 0.018,0 0.289,0.034 0.818,1.147 0.885,1.615 -0.08,0.038 -0.262,0.097 -0.375,0.133 -0.219,0.07 -0.312,0.104 -0.359,0.138 -0.238,0.164 -1.492,0.166 -2.095,0.168 z"
         style="fill:#020202"
         inkscape:connector-curvature="0" />
      <path
         id="path223"
         d="m -70.958846,937.35074 c -0.148,-0.445 -0.1,-0.992 -0.305,-1.419 -0.211,-0.443 -1.475,-5.667 -1.609,-6.176 -0.088,-0.321 -0.186,-0.628 -0.25,-0.957 -0.146,-0.747 -0.217,-1.495 -0.334,-2.24 -0.221,-1.427 0.418,-2.529 0.895,-3.906 0.139,-0.406 0.279,-1.438 0.047,-1.87 0.084,-0.233 0.201,-0.466 0.326,-0.697 0.477,-0.41 0.854,-1.303 0.883,-2.062 0.072,-0.446 0.016,-0.839 -0.182,-1.255 0.057,-0.441 -0.148,-0.836 -0.383,-1.214 -0.293,-0.475 -0.512,-0.978 -0.828,-1.438 -0.727,-1.064 -1.693,-1.967 -2.416,-3.035 -0.723,-1.065 -1.326,-2.196 -2.285,-3.112 -0.676,-0.644 -1.562,-1.038 -2.371,-1.525 -0.354,-0.409 -0.742,-0.718 -1.1,-0.604 -0.068,0.125 -0.088,0.023 -0.484,0.241 -0.496,0.106 -0.859,0.619 -1.199,0.985 -0.049,0.055 -0.096,0.104 -0.139,0.147 -0.146,0.155 -0.15,0.288 -0.279,0.442 -0.189,0.226 -0.305,0.425 -0.52,0.621 -0.246,0.229 -0.447,0.453 -0.576,0.718 -0.014,0.01 -0.021,0.02 -0.031,0.025 -0.42,0.328 -0.76,0.684 -1.051,1.111 -0.58,0.854 -1.035,1.854 -1.203,2.829 -0.201,1.171 -0.451,2.464 -0.238,3.622 0.117,0.646 0.312,1.339 0.664,1.908 0.193,0.312 0.451,0.659 0.66,0.997 l 0.143,0.384 0.059,-0.021 c 0.037,0.077 0.07,0.152 0.098,0.229 l 0.033,0.003 c -0.014,0.006 -0.027,0.011 -0.041,0.017 l 0.037,0.182 0.092,0.071 c 0.037,0.39 0.242,0.839 0.537,1.092 0.281,0.244 0.354,0.298 0.641,0.526 0.205,0.164 0.311,1.177 0.438,1.394 0.42,0.712 0.799,1.602 0.967,2.396 0.076,0.375 0.094,0.803 0.229,1.16 0.098,0.26 0.033,0.407 0.014,0.735 -0.033,0.57 0.121,1.073 0.07,1.638 -0.049,0.548 0.25,1.097 0.334,1.658 0.125,0.79 1.162,6.419 1.025,7.235 -0.072,0.433 -0.238,0.898 -0.33,1.357 l 8.678,0 c 0.586,-0.364 1.186,-0.679 1.824,-0.817 -0.105,-0.48 -0.38,-0.901 -0.54,-1.375 z m -6.951,-29.3 c 1.027,0.854 1.641,2.041 2.348,3.111 0.668,1.014 1.547,1.883 2.279,2.854 0.344,0.452 0.576,0.938 0.85,1.424 0.002,0.002 0.002,0.003 0.002,0.006 -0.664,-0.729 -1.447,-1.36 -2.023,-2.166 -0.656,-0.867 -1.229,-1.795 -1.938,-2.694 -0.822,-0.966 -1.57,-1.814 -2.393,-2.778 -0.105,-0.134 -0.252,-0.358 -0.424,-0.611 0.455,0.256 0.902,0.522 1.299,0.854 z m -7.789,9.786 c -0.771,-0.639 -0.873,-2.461 -0.77,-3.37 0.088,-0.776 0.367,-1.544 0.496,-2.333 l 0.75,-1.487 c 0.299,1.32 0.479,2.311 0.818,3.62 0.172,0.652 0.932,1.521 0.363,2.171 -0.45,0.514 -1.198,0.83 -1.657,1.399 z m 3.353,0.539 c -0.186,0.135 -0.264,0.194 -0.301,0.24 -0.172,0.229 -1.367,0.614 -1.941,0.8 -0.141,0.045 -0.266,0.084 -0.359,0.116 l -0.182,-0.491 c 0.256,-0.483 1.332,-1.918 1.75,-2.168 0.006,-0.002 0.012,-0.006 0.016,-0.006 0.285,-0.057 1.129,0.841 1.336,1.268 -0.069,0.06 -0.221,0.17 -0.319,0.241 z m 1.018,-2.455 c -0.309,0.156 -1.127,0.436 -1.314,0.377 -0.436,-0.14 -0.568,-1.279 -0.637,-1.831 -0.014,-0.109 -0.025,-0.207 -0.037,-0.284 -0.031,-0.222 -0.055,-0.439 -0.076,-0.648 -0.049,-0.461 -0.094,-0.893 -0.236,-1.351 -0.064,-0.208 -0.145,-0.425 -0.219,-0.633 -0.219,-0.604 -0.107,-1.296 -0.092,-1.905 0.012,-0.512 0.258,-0.835 0.646,-1.192 0.229,-0.208 0.355,-0.426 0.543,-0.646 0.129,-0.149 0.127,-0.279 0.27,-0.431 0.043,-0.046 0.09,-0.097 0.143,-0.152 0.297,-0.32 0.646,-0.817 1.041,-0.896 0.029,-0.007 0.061,-0.009 0.086,-0.01 0.123,-0.004 0.23,0.044 0.326,0.148 0.111,0.115 0.145,0.272 0.18,0.441 0.006,0.03 0.014,0.062 0.02,0.095 -0.014,0.273 0.186,0.547 0.357,0.794 0.064,0.093 0.125,0.178 0.168,0.253 0.105,0.186 0.219,0.364 0.328,0.541 0.203,0.323 0.395,0.629 0.541,0.965 0.051,0.113 0.131,0.254 0.219,0.399 0.176,0.298 0.391,0.667 0.373,0.891 -0.016,0.212 -0.236,0.443 -0.449,0.671 -0.117,0.125 -0.23,0.239 -0.314,0.36 -0.494,0.699 -0.703,1.496 -0.904,2.268 -0.043,0.157 -0.082,0.312 -0.125,0.468 -0.164,0.565 -0.336,1.056 -0.838,1.308 z m 3.168,2.12 c -0.662,0.134 -1.455,0.183 -1.957,0.045 l -0.344,-0.213 c -0.334,-0.209 -0.494,-0.38 -0.502,-0.539 -0.008,-0.122 0.082,-0.259 0.26,-0.407 0.225,-0.185 0.496,-0.312 0.785,-0.45 0.26,-0.122 0.525,-0.247 0.77,-0.422 0.109,0.381 0.334,0.71 0.551,1.03 0.213,0.314 0.416,0.612 0.504,0.943 -0.022,0.005 -0.044,0.01 -0.067,0.013 z m 0.859,-1.162 c -0.074,-0.213 -0.158,-0.452 -0.324,-0.707 -0.451,-0.691 -0.555,-1.51 -0.617,-2.221 -0.123,-1.416 0.113,-1.976 0.375,-2.026 0.006,0 0.01,-0.001 0.018,-0.002 l 0.059,-0.012 0.168,-0.21 c 0.326,0.524 0.844,0.92 1.346,1.304 0.426,0.326 0.869,0.663 1.172,1.07 l 0.1,0.136 c 0.301,0.404 0.613,0.825 0.982,1.202 l 0.963,0.994 c -0.1,0.089 -0.229,0.213 -0.377,0.357 -0.414,0.398 -1.107,1.067 -1.422,1.132 -0.014,0.003 -0.023,0.004 -0.033,0.003 -2.049,0.009 -2.193,-0.399 -2.41,-1.02 z m 2.608,2.526 c -0.176,-0.287 -0.232,-0.474 -0.182,-0.599 0.041,-0.093 0.158,-0.163 0.352,-0.21 0.234,-0.061 0.49,-0.059 0.76,-0.049 0.188,0.002 0.385,-0.002 0.58,-0.021 0.627,-0.451 0.977,-1.13 1.105,-1.587 l 0.035,0.06 0.033,0.018 c 0.314,0.163 0.4,0.523 0.416,0.801 0.043,0.676 -0.297,1.601 -0.725,2.028 -0.225,-0.337 -0.475,-0.663 -0.729,-0.97 0.004,0.209 0.021,0.417 0.051,0.621 0.047,0.314 0.09,0.616 0.033,0.902 -0.018,-0.004 -0.037,-0.01 -0.055,-0.012 -0.551,-0.149 -1.166,-0.407 -1.494,-0.696 l -0.18,-0.286 z"
         style="fill:#020202"
         inkscape:connector-curvature="0" />
    </g>
  </g>
</svg>
