<?xml version="1.0" encoding="UTF-8" standalone="no"?>
<!-- Created with Inkscape (http://www.inkscape.org/) -->

<svg
   xmlns:dc="http://purl.org/dc/elements/1.1/"
   xmlns:cc="http://creativecommons.org/ns#"
   xmlns:rdf="http://www.w3.org/1999/02/22-rdf-syntax-ns#"
   xmlns:svg="http://www.w3.org/2000/svg"
   xmlns="http://www.w3.org/2000/svg"
   xmlns:sodipodi="http://sodipodi.sourceforge.net/DTD/sodipodi-0.dtd"
   xmlns:inkscape="http://www.inkscape.org/namespaces/inkscape"
   width="32px"
   height="32px"
   id="svg3166"
   version="1.1"
   inkscape:version="0.48.3.1 r9886"
   sodipodi:docname="parrillada.svg">
  <defs
     id="defs3168" />
  <sodipodi:namedview
     id="base"
     pagecolor="#ffffff"
     bordercolor="#666666"
     borderopacity="1.0"
     inkscape:pageopacity="0.0"
     inkscape:pageshadow="2"
     inkscape:zoom="11.197802"
     inkscape:cx="16"
     inkscape:cy="16"
     inkscape:current-layer="layer1"
     showgrid="true"
     inkscape:grid-bbox="true"
     inkscape:document-units="px"
     inkscape:window-width="1871"
     inkscape:window-height="1056"
     inkscape:window-x="1729"
     inkscape:window-y="24"
     inkscape:window-maximized="1" />
  <metadata
     id="metadata3171">
    <rdf:RDF>
      <cc:Work
         rdf:about="">
        <dc:format>image/svg+xml</dc:format>
        <dc:type
           rdf:resource="http://purl.org/dc/dcmitype/StillImage" />
        <dc:title></dc:title>
      </cc:Work>
    </rdf:RDF>
  </metadata>
  <g
     id="layer1"
     inkscape:label="Layer 1"
     inkscape:groupmode="layer">
    <g
       transform="translate(-283.16308,-407.477)"
       id="g3272">
      <path
         style="fill:#020202"
         inkscape:connector-curvature="0"
         id="path199"
         d="m 298.352,439.478 h 10.023 c -0.027,-0.264 -0.068,-0.528 -0.072,-0.8 -0.006,-0.469 0.209,-0.975 0.145,-1.439 -0.066,-0.488 -0.25,-0.812 -0.225,-1.339 0.018,-0.332 0.018,-0.654 0.057,-0.988 0.086,-0.757 0.246,-1.49 0.363,-2.236 0.227,-1.423 1.17,-2.278 2.041,-3.446 0.258,-0.345 0.707,-1.285 0.619,-1.767 0.148,-0.2 0.33,-0.385 0.521,-0.564 0.578,-0.247 1.209,-0.981 1.469,-1.695 0.205,-0.403 0.27,-0.794 0.209,-1.251 0.189,-0.401 0.113,-0.841 0.006,-1.271 -0.133,-0.54 -0.189,-1.087 -0.35,-1.623 -0.367,-1.233 -1.014,-2.389 -1.377,-3.624 -0.363,-1.235 -0.594,-2.5 -1.229,-3.662 -0.445,-0.818 -1.17,-1.467 -1.793,-2.178 -0.211,-0.497 -0.488,-0.912 -0.861,-0.913 -0.104,0.101 -0.092,-0.003 -0.539,0.085 -0.502,-0.05 -1.004,0.326 -1.438,0.572 -0.064,0.037 -0.123,0.07 -0.18,0.101 -0.188,0.103 -0.229,0.229 -0.398,0.336 -0.25,0.153 -0.418,0.311 -0.684,0.433 -0.307,0.143 -0.566,0.296 -0.77,0.508 -0.014,0.006 -0.027,0.012 -0.037,0.016 -0.5,0.187 -0.932,0.419 -1.34,0.737 -0.814,0.64 -1.551,1.451 -2.008,2.329 -0.551,1.054 -1.182,2.208 -1.334,3.377 -0.084,0.652 -0.109,1.371 0.053,2.02 0.09,0.354 0.23,0.765 0.324,1.152 l 0.018,0.407 0.062,-0.003 c 0.014,0.087 0.021,0.169 0.021,0.248 l 0.033,0.015 c -0.016,0 -0.031,0 -0.043,0 l -0.021,0.186 0.068,0.097 c -0.084,0.382 -0.027,0.873 0.178,1.203 0.193,0.319 0.246,0.392 0.447,0.696 0.146,0.219 -0.062,1.217 -0.006,1.46 0.182,0.807 0.271,1.767 0.188,2.577 -0.039,0.38 -0.156,0.792 -0.135,1.176 0.016,0.277 -0.094,0.396 -0.213,0.704 -0.205,0.533 -0.211,1.06 -0.432,1.581 -0.215,0.506 -0.096,1.121 -0.184,1.683 -0.125,0.792 -0.283,1.433 -0.662,2.169 -0.324,0.634 -0.943,1.273 -1.021,1.983 -0.054,0.515 0.184,0.704 0.507,0.948 z m 8.408,-16.347 c -0.672,-0.078 -1.439,-0.271 -1.877,-0.557 l -0.266,-0.309 c -0.254,-0.302 -0.354,-0.513 -0.312,-0.667 0.031,-0.115 0.156,-0.219 0.373,-0.308 0.268,-0.108 0.566,-0.147 0.887,-0.189 0.283,-0.037 0.576,-0.075 0.859,-0.167 -0.014,0.396 0.1,0.777 0.209,1.15 0.107,0.363 0.211,0.71 0.193,1.051 -0.019,0 -0.043,-10e-4 -0.066,-0.004 z m 6.322,1.786 c -0.166,0.657 -0.771,1.435 -1.309,1.712 -0.145,-0.508 -0.328,-1.022 -0.531,-1.479 0.795,-0.215 1.369,-0.803 1.645,-1.217 l 0.02,0.066 0.021,0.025 c 0.252,0.254 0.224,0.625 0.154,0.893 z m -3.039,-11.226 c 0.717,1.126 0.939,2.441 1.285,3.679 0.328,1.169 0.9,2.265 1.303,3.413 0.188,0.535 0.262,1.068 0.375,1.613 0,0.004 0,0.005 0,0.007 -0.41,-0.898 -0.963,-1.736 -1.268,-2.681 -0.359,-1.025 -0.623,-2.085 -1.025,-3.157 -0.488,-1.168 -0.943,-2.206 -1.432,-3.375 -0.061,-0.159 -0.129,-0.417 -0.217,-0.709 0.358,0.382 0.702,0.774 0.979,1.21 z m -1.141,3.702 c 0.006,0.002 0.01,0.004 0.016,0.005 l 0.062,0.01 0.223,-0.15 c 0.152,0.6 0.521,1.133 0.883,1.649 0.309,0.44 0.627,0.897 0.791,1.379 l 0.053,0.157 c 0.162,0.479 0.332,0.974 0.57,1.446 l 0.613,1.239 c -0.123,0.054 -0.281,0.134 -0.467,0.226 -0.518,0.256 -1.383,0.682 -1.701,0.646 -0.014,-0.002 -0.023,-0.004 -0.031,-0.007 -1.951,-0.619 -1.963,-1.05 -1.98,-1.708 -0.008,-0.225 -0.014,-0.479 -0.094,-0.771 -0.221,-0.798 -0.068,-1.605 0.088,-2.304 0.314,-1.386 0.709,-1.847 0.974,-1.817 z m -5.927,0.773 c 0.02,-0.11 0.039,-0.208 0.053,-0.282 0.033,-0.221 0.08,-0.436 0.123,-0.643 0.092,-0.454 0.182,-0.879 0.188,-1.355 0,-0.222 -0.008,-0.449 -0.016,-0.672 -0.023,-0.643 0.291,-1.269 0.492,-1.843 0.168,-0.483 0.498,-0.717 0.979,-0.938 0.279,-0.129 0.469,-0.298 0.715,-0.449 0.168,-0.104 0.205,-0.229 0.389,-0.328 0.055,-0.032 0.115,-0.064 0.18,-0.104 0.381,-0.216 0.865,-0.583 1.268,-0.536 0.027,0.004 0.057,0.01 0.084,0.018 0.117,0.033 0.205,0.111 0.266,0.24 0.07,0.145 0.053,0.306 0.035,0.476 -0.004,0.032 -0.006,0.062 -0.01,0.096 -0.094,0.256 0.008,0.578 0.098,0.867 0.035,0.107 0.066,0.205 0.084,0.289 0.043,0.209 0.096,0.417 0.148,0.617 0.094,0.37 0.184,0.721 0.221,1.085 0.012,0.123 0.049,0.279 0.086,0.446 0.074,0.336 0.166,0.754 0.086,0.962 -0.082,0.196 -0.363,0.351 -0.635,0.5 -0.152,0.083 -0.293,0.161 -0.41,0.248 -0.682,0.517 -1.125,1.212 -1.553,1.885 -0.086,0.137 -0.174,0.272 -0.262,0.407 -0.324,0.49 -0.639,0.905 -1.193,0.993 -0.34,0.057 -1.205,0.07 -1.365,-0.042 -0.378,-0.265 -0.157,-1.395 -0.051,-1.937 z m -3.334,2.471 c -0.541,-0.845 -0.08,-2.609 0.295,-3.444 0.322,-0.712 0.822,-1.357 1.186,-2.068 l 1.166,-1.19 c -0.117,1.35 -0.25,2.348 -0.322,3.696 -0.035,0.675 0.424,1.734 -0.314,2.179 -0.59,0.353 -1.4,0.424 -2.011,0.827 z m 0.578,1.842 c -0.146,0 -0.279,0 -0.379,0.002 l -0.023,-0.525 c 0.393,-0.382 1.854,-1.419 2.328,-1.531 0.006,0 0.012,0 0.018,0 0.289,0.034 0.818,1.147 0.885,1.615 -0.08,0.038 -0.262,0.097 -0.375,0.133 -0.219,0.07 -0.312,0.104 -0.359,0.138 -0.238,0.164 -1.492,0.166 -2.095,0.168 z" />
      <path
         style="fill:#020202"
         inkscape:connector-curvature="0"
         id="path223"
         d="m 299.61788,437.39617 c -0.14043,-0.42222 -0.0949,-0.94123 -0.28939,-1.34638 -0.2002,-0.42033 -1.39952,-5.37699 -1.52666,-5.85995 -0.0835,-0.30457 -0.17648,-0.59586 -0.23721,-0.90802 -0.13853,-0.70878 -0.20589,-1.4185 -0.31691,-2.12537 -0.20969,-1.35398 0.39661,-2.39958 0.8492,-3.70612 0.13189,-0.38522 0.26472,-1.36441 0.0446,-1.7743 0.0797,-0.22108 0.19071,-0.44215 0.30931,-0.66133 0.45259,-0.38902 0.8103,-1.23632 0.83782,-1.95648 0.0683,-0.42318 0.0152,-0.79606 -0.17269,-1.19078 0.0541,-0.41843 -0.14043,-0.79321 -0.3634,-1.15187 -0.27801,-0.45069 -0.4858,-0.92795 -0.78563,-1.36441 -0.68979,-1.00955 -1.60636,-1.86634 -2.29236,-2.87969 -0.686,-1.0105 -1.25814,-2.08362 -2.16807,-2.95274 -0.6414,-0.61105 -1.48206,-0.98488 -2.24966,-1.44696 -0.33589,-0.38807 -0.70403,-0.68126 -1.04371,-0.57309 -0.0645,0.1186 -0.0835,0.0218 -0.45923,0.22866 -0.47062,0.10058 -0.81504,0.58733 -1.13764,0.9346 -0.0465,0.0522 -0.0911,0.0987 -0.13189,0.13948 -0.13853,0.14706 -0.14232,0.27326 -0.26472,0.41938 -0.17933,0.21443 -0.28939,0.40325 -0.49339,0.58922 -0.23341,0.21728 -0.42413,0.42982 -0.54653,0.68125 -0.0133,0.009 -0.0199,0.019 -0.0294,0.0237 -0.39851,0.31122 -0.72111,0.649 -0.99722,1.05415 -0.55031,0.8103 -0.98203,1.75912 -1.14143,2.68423 -0.19072,1.11107 -0.42792,2.3379 -0.22582,3.43664 0.11101,0.61295 0.29603,1.27048 0.63002,1.81036 0.18312,0.29604 0.42792,0.62528 0.62622,0.94598 l 0.13568,0.36435 0.056,-0.0199 c 0.0351,0.0731 0.0664,0.14422 0.093,0.21728 l 0.0313,0.003 c -0.0133,0.006 -0.0256,0.0104 -0.0389,0.0161 l 0.0351,0.17269 0.0873,0.0674 c 0.0351,0.37004 0.22961,0.79606 0.50952,1.03611 0.26662,0.23152 0.33588,0.28275 0.60819,0.49909 0.19451,0.1556 0.29509,1.11676 0.41559,1.32266 0.39851,0.67556 0.75811,1.52002 0.91751,2.27339 0.0721,0.35581 0.0892,0.7619 0.21729,1.10063 0.093,0.2467 0.0313,0.38618 0.0133,0.69739 -0.0313,0.54083 0.11481,1.01809 0.0664,1.55418 -0.0465,0.51995 0.2372,1.04086 0.3169,1.57315 0.11861,0.74957 1.10254,6.09051 0.97255,6.86475 -0.0683,0.41085 -0.22582,0.85205 -0.31311,1.28756 h 8.23391 c 0.55601,-0.34537 1.1253,-0.64425 1.73066,-0.77519 -0.0996,-0.45544 -0.36056,-0.85489 -0.51237,-1.30464 z m -6.59529,-27.80059 c 0.97445,0.8103 1.55703,1.93656 2.22785,2.9518 0.63381,0.96211 1.46783,1.78664 2.16237,2.70795 0.32639,0.42887 0.54652,0.89 0.8065,1.35113 0.002,0.002 0.002,0.003 0.002,0.006 -0.63002,-0.6917 -1.37295,-1.2904 -1.91948,-2.05516 -0.62243,-0.82263 -1.1661,-1.70314 -1.83882,-2.55613 -0.77993,-0.91657 -1.48966,-1.72117 -2.27054,-2.63584 -0.0996,-0.12714 -0.2391,-0.33968 -0.4023,-0.57973 0.43171,0.24289 0.85584,0.49528 1.23252,0.81029 z m -7.3904,9.28521 c -0.73155,-0.6063 -0.82833,-2.33506 -0.7306,-3.19754 0.0835,-0.73629 0.34822,-1.46499 0.47062,-2.21361 l 0.71162,-1.41091 c 0.2837,1.25245 0.45449,2.19274 0.77614,3.43475 0.1632,0.61864 0.88431,1.44317 0.34442,2.0599 -0.42697,0.4877 -1.13669,0.78753 -1.5722,1.32741 z m 3.18141,0.51142 c -0.17648,0.12809 -0.25049,0.18407 -0.28559,0.22772 -0.1632,0.21728 -1.29705,0.58257 -1.84168,0.75906 -0.13378,0.0427 -0.25238,0.0797 -0.34062,0.11006 l -0.17269,-0.46587 c 0.2429,-0.45829 1.26384,-1.81985 1.66044,-2.05706 0.006,-0.002 0.0114,-0.006 0.0152,-0.006 0.27041,-0.0541 1.07122,0.79796 1.26763,1.20311 -0.0655,0.0569 -0.20969,0.1613 -0.30268,0.22867 z m 0.96591,-2.32937 c -0.29319,0.14802 -1.06933,0.41369 -1.24676,0.35771 -0.41369,-0.13284 -0.53893,-1.21355 -0.6044,-1.7373 -0.0133,-0.10342 -0.0237,-0.19641 -0.0351,-0.26947 -0.0294,-0.21064 -0.0522,-0.41653 -0.0721,-0.61484 -0.0465,-0.43741 -0.0892,-0.8473 -0.22392,-1.28186 -0.0607,-0.19736 -0.13758,-0.40325 -0.2078,-0.60061 -0.20779,-0.57309 -0.10152,-1.22968 -0.0873,-1.80751 0.0114,-0.4858 0.2448,-0.79227 0.61294,-1.131 0.21729,-0.19736 0.33684,-0.4042 0.51522,-0.61294 0.12239,-0.14138 0.1205,-0.26472 0.25618,-0.40895 0.0408,-0.0436 0.0854,-0.092 0.13568,-0.14422 0.2818,-0.30362 0.61294,-0.77519 0.98773,-0.85015 0.0275,-0.007 0.0579,-0.009 0.0816,-0.009 0.1167,-0.004 0.21823,0.0417 0.30931,0.14042 0.10532,0.10912 0.13758,0.25808 0.17079,0.41843 0.006,0.0285 0.0133,0.0588 0.019,0.0901 -0.0133,0.25903 0.17648,0.51901 0.33873,0.75337 0.0607,0.0882 0.1186,0.16889 0.1594,0.24005 0.0996,0.17649 0.2078,0.34538 0.31122,0.51332 0.19261,0.30647 0.37478,0.59681 0.51331,0.91562 0.0484,0.10721 0.1243,0.241 0.2078,0.37858 0.16699,0.28275 0.37099,0.63286 0.35391,0.8454 -0.0152,0.20115 -0.22393,0.42033 -0.42602,0.63666 -0.11102,0.11861 -0.21823,0.22677 -0.29794,0.34158 -0.46872,0.66323 -0.66702,1.41944 -0.85773,2.15194 -0.0408,0.14896 -0.0778,0.29603 -0.11861,0.44405 -0.15561,0.53608 -0.3188,1.00196 -0.79511,1.24106 z m 3.00588,2.01151 c -0.62813,0.12714 -1.38055,0.17364 -1.85686,0.0427 l -0.32639,-0.2021 c -0.31691,-0.19831 -0.46872,-0.36056 -0.47631,-0.51142 -0.008,-0.11576 0.0778,-0.24574 0.24669,-0.38617 0.21349,-0.17553 0.47062,-0.29603 0.74483,-0.42697 0.2467,-0.11576 0.49813,-0.23436 0.7306,-0.40041 0.10342,0.36151 0.3169,0.67367 0.5228,0.97729 0.2021,0.29793 0.39471,0.58068 0.47821,0.89475 -0.0209,0.005 -0.0417,0.009 -0.0636,0.0123 z m 0.81504,-1.10253 c -0.0702,-0.2021 -0.14992,-0.42887 -0.30742,-0.67082 -0.42792,-0.65564 -0.5266,-1.43273 -0.58543,-2.10735 -0.1167,-1.34353 0.10722,-1.87488 0.35581,-1.92232 0.006,0 0.009,-9.5e-4 0.0171,-0.002 l 0.056,-0.0114 0.1594,-0.19925 c 0.30932,0.49718 0.80081,0.87292 1.27712,1.23726 0.4042,0.30932 0.82453,0.62908 1.11203,1.01525 l 0.0949,0.12904 c 0.2856,0.38332 0.58163,0.78278 0.93175,1.14049 l 0.91372,0.94313 c -0.0949,0.0845 -0.21729,0.2021 -0.35771,0.33873 -0.39282,0.37763 -1.05035,1.0124 -1.34923,1.07407 -0.0133,0.003 -0.0218,0.004 -0.0313,0.003 -1.94415,0.009 -2.08078,-0.37858 -2.28667,-0.9678 z m 2.47453,2.39673 c -0.16699,-0.27231 -0.22012,-0.44974 -0.17268,-0.56835 0.0389,-0.0882 0.14991,-0.15466 0.33398,-0.19925 0.22203,-0.0579 0.46493,-0.056 0.72111,-0.0465 0.17838,0.002 0.3653,-0.002 0.55032,-0.0199 0.59491,-0.42792 0.927,-1.07217 1.04845,-1.50579 l 0.0332,0.0569 0.0313,0.0171 c 0.29794,0.15466 0.37953,0.49624 0.39472,0.76001 0.0408,0.64141 -0.28181,1.51907 -0.6879,1.92422 -0.21349,-0.31975 -0.4507,-0.62907 -0.6917,-0.92036 0.004,0.1983 0.0199,0.39566 0.0484,0.58922 0.0446,0.29793 0.0854,0.58448 0.0313,0.85584 -0.0171,-0.004 -0.0351,-0.009 -0.0522,-0.0114 -0.5228,-0.14138 -1.10633,-0.38618 -1.41755,-0.66039 l -0.17079,-0.27136 z" />
    </g>
  </g>
</svg>
