<?xml version="1.0" encoding="UTF-8" standalone="no"?>
<!-- Created with Inkscape (http://www.inkscape.org/) -->

<svg
   xmlns:dc="http://purl.org/dc/elements/1.1/"
   xmlns:cc="http://creativecommons.org/ns#"
   xmlns:rdf="http://www.w3.org/1999/02/22-rdf-syntax-ns#"
   xmlns:svg="http://www.w3.org/2000/svg"
   xmlns="http://www.w3.org/2000/svg"
   xmlns:sodipodi="http://sodipodi.sourceforge.net/DTD/sodipodi-0.dtd"
   xmlns:inkscape="http://www.inkscape.org/namespaces/inkscape"
   width="50"
   height="50"
   id="svg3235"
   version="1.1"
   inkscape:version="0.48.3.1 r9886"
   sodipodi:docname="pulpeira.svg">
  <defs
     id="defs3237" />
  <sodipodi:namedview
     id="base"
     pagecolor="#ffffff"
     bordercolor="#666666"
     borderopacity="1.0"
     inkscape:pageopacity="0.0"
     inkscape:pageshadow="2"
     inkscape:zoom="0.98994949"
     inkscape:cx="13.371408"
     inkscape:cy="22.51252"
     inkscape:document-units="px"
     inkscape:current-layer="layer1"
     showgrid="false"
     inkscape:window-width="1871"
     inkscape:window-height="1056"
     inkscape:window-x="1729"
     inkscape:window-y="24"
     inkscape:window-maximized="1" />
  <metadata
     id="metadata3240">
    <rdf:RDF>
      <cc:Work
         rdf:about="">
        <dc:format>image/svg+xml</dc:format>
        <dc:type
           rdf:resource="http://purl.org/dc/dcmitype/StillImage" />
        <dc:title></dc:title>
      </cc:Work>
    </rdf:RDF>
  </metadata>
  <g
     inkscape:label="Layer 1"
     inkscape:groupmode="layer"
     id="layer1"
     transform="translate(0,-1002.3622)">
    <g
       transform="translate(-169.34999,600.19428)"
       id="g181"
       inkscape:export-filename="/home/proxectos/geozzy/distModules/rextEatAndDrink/classes/view/categoryIcon/marisqueria.svg.png"
       inkscape:export-xdpi="90"
       inkscape:export-ydpi="90">
      <path
         style="fill:#333333"
         inkscape:connector-curvature="0"
         d="m 206.958,425.227 c 0.164,-0.346 0.098,-0.726 0.006,-1.097 -0.115,-0.465 -0.164,-0.937 -0.302,-1.398 -0.316,-1.063 -0.874,-2.059 -1.187,-3.123 -0.313,-1.065 -0.512,-2.154 -1.059,-3.156 -0.385,-0.705 -1.008,-1.264 -1.545,-1.876 -0.182,-0.429 -0.421,-0.785 -0.742,-0.786 -0.09,0.085 -0.079,-0.003 -0.464,0.072 -0.434,-0.042 -0.865,0.281 -1.24,0.493 -0.055,0.032 -0.106,0.061 -0.153,0.086 -0.162,0.089 -0.197,0.197 -0.344,0.29 -0.215,0.133 -0.36,0.268 -0.589,0.373 -0.264,0.122 -0.488,0.254 -0.663,0.438 -0.012,0.005 -0.022,0.01 -0.031,0.013 -0.432,0.16 -0.804,0.36 -1.155,0.636 -0.701,0.55 -1.337,1.251 -1.73,2.008 -0.474,0.908 -1.019,1.902 -1.147,2.91 -0.073,0.562 -0.096,1.18 0.044,1.739 0.077,0.306 0.198,0.659 0.28,0.993 l 0.015,0.352 0.055,-0.003 c 0.011,0.074 0.018,0.146 0.019,0.213 l 0.028,0.014 c -0.013,0 -0.026,0 -0.038,0 l -0.019,0.159 0.059,0.083 c -0.072,0.329 -0.022,0.752 0.152,1.036 0.168,0.275 0.214,0.338 0.386,0.601 0.126,0.188 -0.053,1.048 -0.005,1.258 0.157,0.694 0.235,1.521 0.163,2.221 -0.034,0.327 -0.136,0.683 -0.117,1.013 0.013,0.239 -0.079,0.343 -0.183,0.606 -0.176,0.46 -0.182,0.913 -0.372,1.363 -0.185,0.436 -0.083,0.965 -0.158,1.449 -0.107,0.683 -0.244,1.232 -0.57,1.868 -0.28,0.546 -0.813,1.098 -0.881,1.71 -0.065,0.604 0.327,0.69 0.736,1.067 0.602,0.553 0.756,0.655 1.659,0.489 0.732,-0.134 1.436,-0.197 2.188,-0.201 1.505,-0.008 3.003,-0.094 4.504,0.048 0.046,-0.42 -0.072,-0.838 -0.078,-1.27 -0.004,-0.403 0.18,-0.84 0.124,-1.242 -0.059,-0.42 -0.215,-0.699 -0.193,-1.153 0.015,-0.285 0.015,-0.563 0.049,-0.852 0.075,-0.651 0.212,-1.283 0.313,-1.927 0.193,-1.226 1.006,-1.964 1.758,-2.97 0.222,-0.297 0.609,-1.108 0.533,-1.522 0.128,-0.171 0.285,-0.331 0.449,-0.486 0.499,-0.213 1.042,-0.846 1.267,-1.46 0.175,-0.35 0.23,-0.686 0.178,-1.079 z m -2.98,-8.841 c 0.618,0.971 0.811,2.105 1.107,3.171 0.283,1.008 0.776,1.952 1.123,2.941 0.162,0.461 0.226,0.921 0.322,1.391 0,0.003 0.001,0.004 0.001,0.006 -0.354,-0.774 -0.829,-1.497 -1.093,-2.31 -0.31,-0.885 -0.535,-1.796 -0.884,-2.721 -0.421,-1.009 -0.812,-1.902 -1.232,-2.909 -0.052,-0.138 -0.112,-0.36 -0.188,-0.612 0.309,0.33 0.606,0.667 0.844,1.043 z m -6.027,7.194 c -0.07,0.032 -0.226,0.083 -0.323,0.114 -0.188,0.062 -0.269,0.091 -0.311,0.119 -0.202,0.142 -1.283,0.144 -1.803,0.146 -0.127,0 -0.24,0 -0.327,10e-4 l -0.019,-0.452 c 0.337,-0.329 1.595,-1.223 2.005,-1.319 0.005,0 0.01,0 0.015,0 0.249,0.029 0.705,0.988 0.763,1.391 z m -2.681,-4.177 c 0.277,-0.614 0.708,-1.17 1.021,-1.784 l 1.005,-1.024 c -0.103,1.161 -0.216,2.022 -0.278,3.186 -0.031,0.581 0.364,1.494 -0.271,1.877 -0.506,0.306 -1.205,0.368 -1.73,0.714 -0.468,-0.727 -0.071,-2.249 0.253,-2.969 z m 5.88,5.118 0,0 c -0.579,-0.067 -1.24,-0.235 -1.617,-0.479 l -0.227,-0.265 c -0.219,-0.261 -0.306,-0.442 -0.271,-0.575 0.027,-0.1 0.136,-0.188 0.322,-0.265 0.23,-0.094 0.489,-0.128 0.763,-0.163 0.244,-0.033 0.497,-0.065 0.74,-0.145 -0.011,0.341 0.087,0.67 0.181,0.991 0.094,0.313 0.181,0.611 0.167,0.906 -0.018,-0.002 -0.039,-0.003 -0.058,-0.005 z m 0.547,-5.405 c -0.588,0.445 -0.969,1.044 -1.337,1.624 -0.075,0.118 -0.15,0.235 -0.227,0.351 -0.278,0.424 -0.548,0.781 -1.026,0.857 -0.294,0.047 -1.04,0.06 -1.179,-0.037 -0.32,-0.229 -0.131,-1.201 -0.041,-1.669 0.018,-0.095 0.034,-0.178 0.046,-0.243 0.03,-0.189 0.07,-0.375 0.107,-0.554 0.08,-0.391 0.157,-0.757 0.161,-1.168 0.001,-0.191 -0.007,-0.388 -0.014,-0.579 -0.021,-0.554 0.251,-1.093 0.425,-1.588 0.146,-0.417 0.43,-0.618 0.843,-0.809 0.242,-0.111 0.403,-0.257 0.616,-0.388 0.143,-0.091 0.175,-0.198 0.333,-0.283 0.048,-0.027 0.1,-0.056 0.156,-0.088 0.327,-0.187 0.744,-0.502 1.091,-0.463 0.024,0.004 0.049,0.008 0.072,0.015 0.101,0.029 0.176,0.097 0.229,0.207 0.061,0.125 0.046,0.264 0.031,0.41 -0.004,0.027 -0.006,0.054 -0.01,0.082 -0.081,0.221 0.008,0.498 0.085,0.748 0.03,0.093 0.057,0.177 0.071,0.249 0.038,0.18 0.083,0.358 0.129,0.531 0.081,0.319 0.157,0.621 0.19,0.935 0.01,0.106 0.041,0.241 0.073,0.385 0.064,0.29 0.145,0.65 0.073,0.83 -0.069,0.17 -0.312,0.302 -0.547,0.431 -0.128,0.073 -0.25,0.139 -0.35,0.214 z m 2.196,6.152 c -0.011,-0.002 -0.02,-0.002 -0.027,-0.005 -1.68,-0.534 -1.689,-0.905 -1.705,-1.473 -0.007,-0.192 -0.012,-0.411 -0.081,-0.662 -0.188,-0.688 -0.06,-1.386 0.076,-1.985 0.271,-1.194 0.612,-1.592 0.84,-1.566 0.006,10e-4 0.01,0.002 0.014,0.003 l 0.053,0.009 0.191,-0.129 c 0.131,0.516 0.45,0.976 0.761,1.421 0.266,0.381 0.54,0.774 0.682,1.188 l 0.046,0.136 c 0.141,0.413 0.286,0.839 0.491,1.247 l 0.528,1.068 c -0.104,0.046 -0.242,0.115 -0.402,0.193 -0.446,0.22 -1.192,0.586 -1.467,0.555 z m 2.705,0.792 c -0.144,0.566 -0.666,1.236 -1.128,1.476 -0.124,-0.438 -0.283,-0.882 -0.458,-1.274 0.685,-0.184 1.18,-0.691 1.418,-1.048 l 0.015,0.058 0.021,0.022 c 0.215,0.216 0.191,0.535 0.132,0.766 z"
         id="path183" />
      <path
         style="fill:#333333"
         inkscape:connector-curvature="0"
         d="m 195.232,418.98 c 0.051,-0.38 -0.128,-0.72 -0.328,-1.046 -0.253,-0.409 -0.443,-0.843 -0.715,-1.24 -0.625,-0.918 -1.459,-1.694 -2.081,-2.614 -0.622,-0.92 -1.144,-1.894 -1.969,-2.683 -0.581,-0.554 -1.345,-0.896 -2.044,-1.314 -0.305,-0.354 -0.64,-0.62 -0.947,-0.522 -0.061,0.108 -0.075,0.021 -0.419,0.209 -0.426,0.092 -0.739,0.533 -1.031,0.849 -0.043,0.047 -0.083,0.09 -0.118,0.127 -0.129,0.136 -0.131,0.249 -0.243,0.382 -0.163,0.193 -0.261,0.366 -0.445,0.536 -0.214,0.196 -0.387,0.391 -0.499,0.617 -0.01,0.009 -0.019,0.018 -0.026,0.022 -0.362,0.283 -0.654,0.589 -0.905,0.957 -0.5,0.738 -0.893,1.599 -1.037,2.438 -0.173,1.01 -0.389,2.123 -0.206,3.122 0.102,0.558 0.269,1.154 0.573,1.645 0.166,0.268 0.389,0.567 0.568,0.859 l 0.123,0.331 0.05,-0.019 c 0.032,0.066 0.061,0.132 0.083,0.196 l 0.029,0.003 c -0.011,0.005 -0.023,0.009 -0.035,0.013 l 0.032,0.157 0.079,0.061 c 0.032,0.336 0.208,0.724 0.462,0.941 0.243,0.21 0.305,0.257 0.55,0.453 0.178,0.142 0.269,1.014 0.378,1.201 0.361,0.613 0.688,1.379 0.832,2.065 0.067,0.322 0.08,0.691 0.197,0.999 0.085,0.224 0.028,0.353 0.012,0.634 -0.028,0.492 0.105,0.925 0.061,1.412 -0.042,0.471 0.216,0.944 0.29,1.428 0.106,0.683 1,5.531 0.882,6.234 -0.102,0.607 -0.44,1.296 -0.317,1.897 0.121,0.596 0.521,0.561 1.025,0.793 0.743,0.345 0.751,-0.463 1.561,-0.895 0.655,-0.352 1.646,1.088 2.361,0.854 1.431,-0.467 2.66,-1.86 4.134,-2.184 -0.085,-0.413 -0.322,-0.776 -0.46,-1.185 -0.129,-0.384 -0.086,-0.855 -0.263,-1.223 -0.183,-0.382 -1.271,-4.883 -1.388,-5.321 -0.075,-0.276 -0.159,-0.54 -0.214,-0.825 -0.128,-0.643 -0.188,-1.288 -0.289,-1.93 -0.189,-1.229 0.36,-2.179 0.77,-3.365 0.121,-0.351 0.242,-1.241 0.042,-1.611 0.071,-0.203 0.172,-0.402 0.281,-0.602 0.41,-0.354 0.734,-1.122 0.761,-1.776 0.062,-0.382 0.013,-0.721 -0.157,-1.08 z m -5.53,-7.511 c 0.882,0.735 1.411,1.759 2.02,2.682 0.575,0.873 1.333,1.623 1.965,2.459 0.295,0.39 0.495,0.809 0.731,1.227 0.001,0.002 0.002,0.003 0.002,0.005 -0.572,-0.629 -1.247,-1.173 -1.744,-1.866 -0.565,-0.747 -1.058,-1.547 -1.671,-2.322 -0.706,-0.831 -1.352,-1.563 -2.06,-2.394 -0.091,-0.115 -0.217,-0.31 -0.365,-0.526 0.392,0.219 0.779,0.449 1.122,0.735 z m -3.551,8.688 c -0.059,0.053 -0.189,0.148 -0.274,0.209 -0.16,0.114 -0.228,0.167 -0.259,0.207 -0.148,0.197 -1.179,0.529 -1.673,0.688 -0.122,0.038 -0.228,0.072 -0.311,0.101 l -0.155,-0.424 c 0.22,-0.417 1.147,-1.652 1.507,-1.868 0.005,-0.002 0.01,-0.005 0.014,-0.005 0.246,-0.048 0.973,0.726 1.151,1.092 z m -3.826,-3.161 c 0.077,-0.67 0.318,-1.33 0.429,-2.011 l 0.645,-1.282 c 0.256,1.139 0.411,1.991 0.706,3.119 0.147,0.564 0.803,1.312 0.312,1.873 -0.388,0.443 -1.034,0.717 -1.429,1.207 -0.666,-0.551 -0.753,-2.122 -0.663,-2.906 z m 7.161,3.081 0,0 c -0.572,0.114 -1.254,0.156 -1.689,0.039 l -0.296,-0.185 c -0.288,-0.18 -0.426,-0.327 -0.433,-0.465 -0.006,-0.104 0.069,-0.222 0.225,-0.351 0.192,-0.159 0.428,-0.27 0.677,-0.388 0.224,-0.105 0.453,-0.214 0.663,-0.363 0.094,0.328 0.287,0.611 0.474,0.888 0.185,0.271 0.358,0.528 0.436,0.813 -0.019,0.005 -0.038,0.009 -0.057,0.012 z m -1.127,-5.312 c -0.427,0.603 -0.606,1.289 -0.78,1.953 -0.035,0.136 -0.071,0.27 -0.108,0.403 -0.137,0.488 -0.283,0.911 -0.716,1.13 -0.267,0.135 -0.974,0.374 -1.134,0.324 -0.375,-0.12 -0.491,-1.104 -0.549,-1.578 -0.011,-0.096 -0.021,-0.18 -0.031,-0.245 -0.028,-0.19 -0.047,-0.379 -0.065,-0.56 -0.042,-0.396 -0.081,-0.769 -0.204,-1.163 -0.057,-0.18 -0.124,-0.366 -0.189,-0.545 -0.188,-0.521 -0.093,-1.116 -0.079,-1.642 0.011,-0.441 0.222,-0.721 0.556,-1.028 0.197,-0.179 0.308,-0.366 0.468,-0.557 0.111,-0.13 0.109,-0.241 0.233,-0.371 0.037,-0.039 0.077,-0.084 0.121,-0.132 0.257,-0.276 0.557,-0.704 0.898,-0.772 0.025,-0.005 0.05,-0.007 0.073,-0.008 0.105,-0.003 0.197,0.037 0.281,0.128 0.096,0.1 0.124,0.235 0.154,0.381 0.006,0.026 0.012,0.053 0.017,0.081 -0.011,0.235 0.159,0.472 0.309,0.686 0.056,0.078 0.107,0.151 0.145,0.216 0.091,0.16 0.188,0.316 0.282,0.467 0.176,0.279 0.341,0.542 0.468,0.832 0.043,0.098 0.113,0.219 0.188,0.345 0.15,0.256 0.336,0.574 0.323,0.766 -0.014,0.183 -0.206,0.383 -0.388,0.579 -0.103,0.106 -0.199,0.205 -0.273,0.31 z m 3.968,5.189 c -0.012,0.003 -0.021,0.004 -0.028,0.003 -1.764,0.005 -1.886,-0.347 -2.072,-0.881 -0.064,-0.183 -0.137,-0.39 -0.279,-0.608 -0.39,-0.598 -0.479,-1.301 -0.532,-1.914 -0.106,-1.22 0.098,-1.702 0.323,-1.747 0.004,0 0.008,-0.001 0.014,-0.002 l 0.051,-0.009 0.146,-0.181 c 0.28,0.451 0.725,0.793 1.156,1.122 0.368,0.282 0.75,0.573 1.011,0.923 l 0.085,0.116 c 0.26,0.35 0.528,0.712 0.848,1.037 l 0.829,0.857 c -0.086,0.077 -0.196,0.184 -0.325,0.308 -0.358,0.345 -0.957,0.922 -1.227,0.976 z m 2.817,-0.07 c 0.035,0.583 -0.258,1.38 -0.627,1.748 -0.251,-0.378 -0.538,-0.753 -0.823,-1.072 0.596,-0.385 0.912,-1.017 1.031,-1.431 l 0.03,0.051 0.028,0.014 c 0.271,0.14 0.345,0.452 0.361,0.69 z"
         id="path185" />
    </g>
  </g>
</svg>
