<?xml version="1.0" encoding="UTF-8" standalone="no"?>
<!-- Created with Inkscape (http://www.inkscape.org/) -->

<svg
   xmlns:dc="http://purl.org/dc/elements/1.1/"
   xmlns:cc="http://creativecommons.org/ns#"
   xmlns:rdf="http://www.w3.org/1999/02/22-rdf-syntax-ns#"
   xmlns:svg="http://www.w3.org/2000/svg"
   xmlns="http://www.w3.org/2000/svg"
   xmlns:sodipodi="http://sodipodi.sourceforge.net/DTD/sodipodi-0.dtd"
   xmlns:inkscape="http://www.inkscape.org/namespaces/inkscape"
   width="32px"
   height="32px"
   id="svg3166"
   version="1.1"
   inkscape:version="0.48.3.1 r9886"
   sodipodi:docname="xamoneria.svg">
  <defs
     id="defs3168" />
  <sodipodi:namedview
     id="base"
     pagecolor="#ffffff"
     bordercolor="#666666"
     borderopacity="1.0"
     inkscape:pageopacity="0.0"
     inkscape:pageshadow="2"
     inkscape:zoom="11.197802"
     inkscape:cx="16"
     inkscape:cy="16"
     inkscape:current-layer="layer1"
     showgrid="true"
     inkscape:grid-bbox="true"
     inkscape:document-units="px"
     inkscape:window-width="1871"
     inkscape:window-height="1056"
     inkscape:window-x="1729"
     inkscape:window-y="24"
     inkscape:window-maximized="1" />
  <metadata
     id="metadata3171">
    <rdf:RDF>
      <cc:Work
         rdf:about="">
        <dc:format>image/svg+xml</dc:format>
        <dc:type
           rdf:resource="http://purl.org/dc/dcmitype/StillImage" />
        <dc:title></dc:title>
      </cc:Work>
    </rdf:RDF>
  </metadata>
  <g
     id="layer1"
     inkscape:label="Layer 1"
     inkscape:groupmode="layer">
    <g
       id="g185"
       transform="matrix(0.85176608,0,0,0.85176608,-238.63803,-136.4146)">
      <path
         d="m 313.996,170.95 c 0.002,-1.715 -0.461,-7.751 -1.156,-9.999 -0.094,-0.45 -0.369,-0.7 -0.828,-0.646 -0.395,0.045 -0.658,0.471 -0.66,0.858 -0.002,-0.004 -0.002,-0.002 -0.002,0.011 l 0.002,7.046 c 0,0.566 -0.842,1.162 -1.232,1.162 -0.393,0 -1.191,-0.595 -1.379,-1.162 l -0.021,-7.033 c 0,0.002 0,0 0,-0.021 0,-0.479 -0.988,-1.011 -1.467,-1.011 -0.48,0 -1.402,0.529 -1.402,1.011 0.004,0.021 0,0.023 0,0.021 l -0.021,7.033 c -0.188,0.566 -1.121,1.162 -1.516,1.162 -0.395,0 -1.096,-0.595 -1.096,-1.162 l 0.002,-7.046 c 0,-0.013 0,-0.015 0,-0.011 -0.004,-0.385 -0.27,-0.81 -0.664,-0.858 -0.457,-0.054 -0.732,0.196 -0.828,0.646 -0.693,2.247 -1.156,8.284 -1.156,9.999 0,2.789 3.225,4.169 5.207,5.116 l -1,21.658 h 6.01 l -1,-21.658 c 1.984,-0.946 4.207,-2.326 4.207,-5.116 z"
         id="path187"
         inkscape:connector-curvature="0"
         style="fill:#020202" />
      <path
         d="m 290.562,160.425 c -5.127,0.256 -6.652,5.904 -6.652,9.526 0,2.789 2.408,5.17 4.395,6.117 l -1,21.656 h 6.625 l -1,-21.574 c 2.084,-0.887 4.426,-3.367 4.426,-6.242 -0.002,-3.62 -1.989,-9.548 -6.794,-9.483 z"
         id="path189"
         inkscape:connector-curvature="0"
         style="fill:#020202" />
    </g>
  </g>
</svg>
