<?xml version="1.0" encoding="UTF-8" standalone="no"?>
<!-- Created with Inkscape (http://www.inkscape.org/) -->

<svg
   xmlns:dc="http://purl.org/dc/elements/1.1/"
   xmlns:cc="http://creativecommons.org/ns#"
   xmlns:rdf="http://www.w3.org/1999/02/22-rdf-syntax-ns#"
   xmlns:svg="http://www.w3.org/2000/svg"
   xmlns="http://www.w3.org/2000/svg"
   xmlns:sodipodi="http://sodipodi.sourceforge.net/DTD/sodipodi-0.dtd"
   xmlns:inkscape="http://www.inkscape.org/namespaces/inkscape"
   width="360"
   height="360"
   viewBox="0 0 360 360.00001"
   id="svg4379"
   version="1.1"
   inkscape:version="0.91 r13725"
   sodipodi:docname="churrasqueria.svg">
  <defs
     id="defs4381" />
  <sodipodi:namedview
     id="base"
     pagecolor="#ffffff"
     bordercolor="#666666"
     borderopacity="1.0"
     inkscape:pageopacity="0.0"
     inkscape:pageshadow="2"
     inkscape:zoom="1.2877717"
     inkscape:cx="245.71429"
     inkscape:cy="145.71429"
     inkscape:document-units="px"
     inkscape:current-layer="layer1"
     showgrid="false"
     units="px"
     inkscape:window-width="1600"
     inkscape:window-height="873"
     inkscape:window-x="1911"
     inkscape:window-y="-9"
     inkscape:window-maximized="1" />
  <metadata
     id="metadata4384">
    <rdf:RDF>
      <cc:Work
         rdf:about="">
        <dc:format>image/svg+xml</dc:format>
        <dc:type
           rdf:resource="http://purl.org/dc/dcmitype/StillImage" />
        <dc:title></dc:title>
      </cc:Work>
    </rdf:RDF>
  </metadata>
  <g
     inkscape:label="Capa 1"
     inkscape:groupmode="layer"
     id="layer1"
     transform="translate(0,-692.36216)">
    <g
       transform="matrix(6.6394333,0,0,6.6394333,-1806.6549,-2455.3921)"
       id="g159">
      <g
         id="g161">
        <rect
           style="fill:#020202"
           x="282.35699"
           y="510.599"
           width="33.191002"
           height="1.5"
           id="rect163" />
        <rect
           style="fill:#020202"
           x="317.63599"
           y="506.32001"
           transform="matrix(-0.5175,-0.8557,0.8557,-0.5175,47.0328,1045.8091)"
           width="1.498"
           height="6.6479998"
           id="rect165" />
        <rect
           style="fill:#020202"
           x="276.20401"
           y="508.896"
           transform="matrix(-0.8561,-0.5169,0.5169,-0.8561,255.4043,1090.415)"
           width="6.651"
           height="1.499"
           id="rect167" />
        <rect
           style="fill:#020202"
           x="281.60901"
           y="511.349"
           width="1.5"
           height="4.1479998"
           id="rect169" />
        <rect
           style="fill:#020202"
           x="314.79901"
           y="511.349"
           width="1.5"
           height="4.1479998"
           id="rect171" />
      </g>
      <g
         id="g173">
        <path
           style="fill:#020202"
           inkscape:connector-curvature="0"
           d="m 301.445,489.903 c 0.801,0.126 1.512,0.802 1.881,1.582 0.375,0.789 0.516,1.646 0.527,2.479 0.002,0.207 0.006,0.417 -0.004,0.623 l -0.006,0.155 -0.021,0.179 -0.033,0.286 c -0.07,0.44 -0.18,0.894 -0.312,1.286 -0.271,0.814 -0.664,1.52 -0.986,2.179 -0.338,0.655 -0.605,1.271 -0.785,1.9 -0.049,0.146 -0.086,0.341 -0.119,0.455 -0.027,0.183 -0.07,0.394 -0.088,0.554 -0.031,0.308 -0.074,0.656 -0.074,0.986 -0.031,1.324 0.561,2.608 1.709,3.747 -0.771,-0.203 -1.506,-0.614 -2.105,-1.24 -0.592,-0.629 -0.998,-1.475 -1.152,-2.332 -0.098,-0.434 -0.129,-0.854 -0.121,-1.312 0,-0.224 0.016,-0.393 0.021,-0.592 0.027,-0.264 0.043,-0.45 0.084,-0.677 0.15,-0.869 0.49,-1.679 0.85,-2.392 0.361,-0.712 0.734,-1.345 1.014,-1.964 0.154,-0.317 0.258,-0.604 0.352,-0.914 l 0.123,-0.516 c 0.045,-0.174 0.076,-0.347 0.111,-0.521 0.109,-0.695 0.189,-1.397 0.092,-2.074 -0.081,-0.676 -0.356,-1.335 -0.958,-1.877 z"
           id="path175" />
        <path
           style="fill:#020202"
           inkscape:connector-curvature="0"
           d="m 307.148,489.903 c 0.801,0.127 1.51,0.802 1.881,1.582 0.375,0.789 0.516,1.646 0.529,2.479 0,0.208 0.004,0.418 -0.004,0.624 l -0.008,0.155 -0.021,0.179 -0.033,0.286 c -0.068,0.44 -0.18,0.894 -0.312,1.286 -0.271,0.814 -0.664,1.52 -0.986,2.179 -0.338,0.655 -0.605,1.271 -0.787,1.9 -0.047,0.146 -0.084,0.34 -0.117,0.455 -0.027,0.183 -0.07,0.394 -0.088,0.554 -0.031,0.308 -0.074,0.656 -0.074,0.986 -0.031,1.324 0.561,2.608 1.707,3.747 -0.77,-0.203 -1.506,-0.614 -2.105,-1.24 -0.59,-0.629 -0.996,-1.475 -1.15,-2.332 -0.098,-0.435 -0.129,-0.854 -0.121,-1.312 0,-0.224 0.016,-0.393 0.021,-0.592 0.027,-0.264 0.043,-0.451 0.084,-0.677 0.15,-0.869 0.49,-1.68 0.85,-2.392 0.361,-0.712 0.734,-1.345 1.014,-1.964 0.152,-0.317 0.258,-0.604 0.352,-0.914 l 0.123,-0.516 c 0.045,-0.174 0.076,-0.347 0.111,-0.521 0.109,-0.694 0.188,-1.397 0.092,-2.074 -0.081,-0.677 -0.356,-1.336 -0.958,-1.878 z"
           id="path177" />
        <path
           style="fill:#020202"
           inkscape:connector-curvature="0"
           d="m 290.039,489.903 c 0.801,0.126 1.51,0.802 1.881,1.581 0.375,0.79 0.518,1.647 0.529,2.479 0.002,0.208 0.006,0.417 -0.004,0.623 l -0.008,0.155 -0.021,0.18 -0.033,0.286 c -0.068,0.44 -0.178,0.894 -0.312,1.286 -0.271,0.814 -0.664,1.52 -0.986,2.179 -0.338,0.655 -0.605,1.27 -0.787,1.899 -0.047,0.146 -0.084,0.341 -0.117,0.456 -0.027,0.183 -0.07,0.394 -0.09,0.554 -0.029,0.308 -0.074,0.656 -0.072,0.986 -0.031,1.324 0.561,2.608 1.707,3.747 -0.77,-0.203 -1.506,-0.615 -2.105,-1.24 -0.592,-0.629 -0.996,-1.475 -1.152,-2.332 -0.098,-0.435 -0.127,-0.854 -0.121,-1.312 0,-0.223 0.016,-0.393 0.021,-0.591 0.027,-0.264 0.043,-0.451 0.084,-0.677 0.15,-0.87 0.488,-1.68 0.85,-2.391 0.361,-0.713 0.734,-1.346 1.014,-1.965 0.152,-0.317 0.258,-0.604 0.352,-0.914 l 0.123,-0.516 c 0.045,-0.174 0.076,-0.347 0.111,-0.521 0.107,-0.694 0.188,-1.396 0.092,-2.073 -0.079,-0.678 -0.356,-1.337 -0.956,-1.879 z"
           id="path179" />
        <path
           style="fill:#020202"
           inkscape:connector-curvature="0"
           d="m 295.742,489.903 c 0.801,0.126 1.512,0.802 1.881,1.582 0.375,0.789 0.516,1.646 0.529,2.479 0,0.207 0.006,0.417 -0.004,0.623 l -0.008,0.155 -0.021,0.179 -0.033,0.286 c -0.07,0.44 -0.178,0.894 -0.312,1.286 -0.271,0.814 -0.664,1.52 -0.986,2.179 -0.338,0.655 -0.605,1.27 -0.785,1.899 -0.049,0.146 -0.086,0.341 -0.119,0.456 -0.027,0.183 -0.068,0.395 -0.088,0.554 -0.031,0.308 -0.074,0.656 -0.074,0.986 -0.029,1.324 0.561,2.608 1.707,3.747 -0.77,-0.203 -1.506,-0.614 -2.104,-1.24 -0.592,-0.629 -0.998,-1.475 -1.152,-2.332 -0.098,-0.435 -0.129,-0.854 -0.121,-1.312 0,-0.224 0.016,-0.393 0.021,-0.592 0.027,-0.263 0.043,-0.45 0.082,-0.677 0.152,-0.869 0.492,-1.679 0.85,-2.392 0.363,-0.712 0.736,-1.345 1.016,-1.964 0.152,-0.317 0.258,-0.604 0.352,-0.914 l 0.123,-0.516 c 0.045,-0.174 0.076,-0.347 0.111,-0.521 0.107,-0.695 0.188,-1.397 0.092,-2.074 -0.08,-0.676 -0.357,-1.335 -0.957,-1.877 z"
           id="path181" />
      </g>
    </g>
  </g>
</svg>
