<?xml version="1.0" encoding="UTF-8" standalone="no"?>
<!-- Created with Inkscape (http://www.inkscape.org/) -->

<svg
   xmlns:dc="http://purl.org/dc/elements/1.1/"
   xmlns:cc="http://creativecommons.org/ns#"
   xmlns:rdf="http://www.w3.org/1999/02/22-rdf-syntax-ns#"
   xmlns:svg="http://www.w3.org/2000/svg"
   xmlns="http://www.w3.org/2000/svg"
   xmlns:sodipodi="http://sodipodi.sourceforge.net/DTD/sodipodi-0.dtd"
   xmlns:inkscape="http://www.inkscape.org/namespaces/inkscape"
   width="50"
   height="50"
   id="svg3235"
   version="1.1"
   inkscape:version="0.48.3.1 r9886"
   sodipodi:docname="marisqueria.svg">
  <defs
     id="defs3237" />
  <sodipodi:namedview
     id="base"
     pagecolor="#ffffff"
     bordercolor="#666666"
     borderopacity="1.0"
     inkscape:pageopacity="0.0"
     inkscape:pageshadow="2"
     inkscape:zoom="0.98994949"
     inkscape:cx="13.371408"
     inkscape:cy="22.51252"
     inkscape:document-units="px"
     inkscape:current-layer="layer1"
     showgrid="false"
     inkscape:window-width="1871"
     inkscape:window-height="1056"
     inkscape:window-x="1729"
     inkscape:window-y="24"
     inkscape:window-maximized="1" />
  <metadata
     id="metadata3240">
    <rdf:RDF>
      <cc:Work
         rdf:about="">
        <dc:format>image/svg+xml</dc:format>
        <dc:type
           rdf:resource="http://purl.org/dc/dcmitype/StillImage" />
        <dc:title></dc:title>
      </cc:Work>
    </rdf:RDF>
  </metadata>
  <g
     inkscape:label="Layer 1"
     inkscape:groupmode="layer"
     id="layer1"
     transform="translate(0,-1002.3622)">
    <path
       style="fill:#333333"
       inkscape:connector-curvature="0"
       d="m 39.631415,1020.7122 -15.229,-8.62 c -0.263,-0.148 -0.594,-0.056 -0.742,0.208 l -8.19,14.466 c -0.234,-0.064 -0.493,0.034 -0.619,0.256 l -0.14,0.247 c -0.149,0.263 -0.057,0.597 0.205,0.745 l 7.136,4.039 -0.432,0.761 c -0.141,0.252 -0.062,0.567 0.177,0.724 -0.04,0.035 -0.077,0.079 -0.105,0.129 l -1.108,1.959 -0.242,-0.137 c -0.266,-0.15 -0.598,-0.058 -0.746,0.206 l -2.794,4.936 c -0.149,0.262 -0.057,0.595 0.207,0.744 l 1.325,0.749 c 0.261,0.148 0.594,0.057 0.742,-0.205 l 2.795,-4.938 c 0.147,-0.263 0.055,-0.595 -0.206,-0.743 l -0.243,-0.139 1.108,-1.959 c 0.029,-0.048 0.047,-0.103 0.056,-0.155 0.257,0.123 0.57,0.029 0.714,-0.222 l 0.431,-0.762 7.135,4.038 c 0.263,0.148 0.596,0.056 0.744,-0.207 l 0.139,-0.247 c 0.126,-0.223 0.079,-0.495 -0.099,-0.664 l 8.188,-14.466 c 0.147,-0.262 0.054,-0.594 -0.207,-0.743 z m -22.323,6.599 c -0.297,-0.167 -0.463,-0.436 -0.368,-0.601 l 7.298,-12.895 c 0.093,-0.164 0.409,-0.161 0.705,0.01 0.299,0.168 0.462,0.438 0.369,0.603 l -7.298,12.892 c -0.094,0.165 -0.409,0.163 -0.706,-0.01 z m 2.181,1.235 c -0.295,-0.168 -0.461,-0.438 -0.366,-0.602 l 7.296,-12.892 c 0.094,-0.166 0.409,-0.162 0.706,0 0.297,0.168 0.461,0.438 0.368,0.602 l -7.298,12.894 c -0.093,0.165 -0.409,0.162 -0.706,-0.01 z m 2.89,1.241 c -0.095,0.166 -0.41,0.162 -0.707,-0.01 -0.296,-0.167 -0.461,-0.436 -0.368,-0.602 l 7.297,-12.894 c 0.094,-0.163 0.408,-0.16 0.706,0.01 0.295,0.168 0.461,0.438 0.369,0.602 l -7.297,12.894 z m 1.476,1.229 c -0.296,-0.168 -0.462,-0.436 -0.368,-0.603 l 7.298,-12.892 c 0.093,-0.165 0.409,-0.162 0.705,0.01 0.297,0.167 0.463,0.437 0.37,0.602 l -7.298,12.894 c -0.095,0.164 -0.41,0.159 -0.707,-0.01 z m 2.181,1.237 c -0.296,-0.17 -0.46,-0.438 -0.368,-0.604 l 7.299,-12.893 c 0.094,-0.165 0.409,-0.161 0.707,0.01 0.297,0.168 0.462,0.437 0.369,0.603 l -7.3,12.892 c -0.094,0.163 -0.408,0.162 -0.707,-0.01 z m 2.184,1.234 c -0.296,-0.168 -0.463,-0.436 -0.369,-0.602 l 7.299,-12.893 c 0.093,-0.163 0.41,-0.163 0.705,0 0.297,0.168 0.462,0.438 0.367,0.602 l -7.298,12.894 c -0.092,0.165 -0.407,0.162 -0.704,-0.01 z m 10.186,-11.653 -7.299,12.894 c -0.095,0.166 -0.41,0.161 -0.706,-0.01 -0.297,-0.167 -0.461,-0.437 -0.368,-0.603 l 7.298,-12.893 c 0.094,-0.164 0.41,-0.162 0.707,0.01 0.296,0.169 0.46,0.437 0.368,0.602 z"
       id="path179"
       inkscape:export-filename="/home/proxectos/geozzy/distModules/rextEatAndDrink/classes/view/categoryIcon/parrillada.svg.png"
       inkscape:export-xdpi="90"
       inkscape:export-ydpi="90" />
  </g>
</svg>
