<?xml version="1.0" encoding="UTF-8" standalone="no"?>
<!-- Created with Inkscape (http://www.inkscape.org/) -->

<svg
   xmlns:dc="http://purl.org/dc/elements/1.1/"
   xmlns:cc="http://creativecommons.org/ns#"
   xmlns:rdf="http://www.w3.org/1999/02/22-rdf-syntax-ns#"
   xmlns:svg="http://www.w3.org/2000/svg"
   xmlns="http://www.w3.org/2000/svg"
   xmlns:sodipodi="http://sodipodi.sourceforge.net/DTD/sodipodi-0.dtd"
   xmlns:inkscape="http://www.inkscape.org/namespaces/inkscape"
   width="32px"
   height="32px"
   id="svg3166"
   version="1.1"
   inkscape:version="0.48.3.1 r9886"
   sodipodi:docname="marisqueria.svg">
  <defs
     id="defs3168" />
  <sodipodi:namedview
     id="base"
     pagecolor="#ffffff"
     bordercolor="#666666"
     borderopacity="1.0"
     inkscape:pageopacity="0.0"
     inkscape:pageshadow="2"
     inkscape:zoom="11.197802"
     inkscape:cx="16"
     inkscape:cy="16"
     inkscape:current-layer="layer1"
     showgrid="true"
     inkscape:grid-bbox="true"
     inkscape:document-units="px"
     inkscape:window-width="1871"
     inkscape:window-height="1056"
     inkscape:window-x="1729"
     inkscape:window-y="24"
     inkscape:window-maximized="1" />
  <metadata
     id="metadata3171">
    <rdf:RDF>
      <cc:Work
         rdf:about="">
        <dc:format>image/svg+xml</dc:format>
        <dc:type
           rdf:resource="http://purl.org/dc/dcmitype/StillImage" />
        <dc:title></dc:title>
      </cc:Work>
    </rdf:RDF>
  </metadata>
  <g
     id="layer1"
     inkscape:label="Layer 1"
     inkscape:groupmode="layer">
    <path
       d="m 31.799925,15.446909 c -0.099,-0.49421 -0.2144,-0.96208 -0.3852,-1.45993 l -0.0763,-0.21258 c -0.0182,-0.0409 -0.0227,-0.0609 -0.0264,-0.0763 l -0.0318,-0.1072 c 0.0163,0.0345 -0.0427,-0.0999 -0.0481,-0.11992 l -0.0618,-0.15807 c -0.0836,-0.21531 -0.17534,-0.43062 -0.26982,-0.64048 -0.38701,-0.84307 -0.86396,-1.66161 -1.4245,-2.42292 -0.37066,-0.4996597 -0.78038,-0.9702597 -1.22099,-1.4126897 0.0654,-0.13899 0.11356,-0.28798 0.14354,-0.44515 0.11356,-0.58597 -0.0518,-1.20465 -0.45424,-1.69886 -0.37975,-0.46423 -0.93301,-0.78856 -1.55987,-0.91121 -0.72406,-0.13899 -1.42086,0.002 -1.95141,0.34704 -1.07383,-0.51056 -2.21488,-0.89485 -3.40135,-1.1256 0.0318,-0.15445 0.0463,-0.30798 0.0318,-0.46242 -0.11356,-1.1228801 -1.42995,-1.8805601 -3.00798,-1.7252101 -1.26733,0.12537 -2.29391,0.80855 -2.55192,1.6979501 -0.0481,0.17262 -0.0636,0.35613 -0.0554,0.53147 -0.14899,0.0318 -0.29798,0.0609 -0.44515,0.10084 -0.24802,0.0591 -0.49331,0.12718 -0.74314,0.19895 -0.12083,0.0372 -0.24347,0.0754 -0.36157,0.11538 l -0.18261,0.06 -0.21077,0.0754 -0.21622,0.0845 -0.11901,0.0409 -0.10265,0.0354 c -0.0618,0.03 -0.089,0.04 -0.10085,0.0472 -0.009,-0.007 -0.0127,-0.0154 -0.0191,-0.02 -0.79674,-0.9212 -2.44018,-0.76131 -3.7474904,0.36975 -0.59959,0.5142 -1.03476,1.15832 -1.221,1.80697 -0.10265,0.35158 -0.12627,0.68409 -0.0781,0.99206 -0.70771,0.63503 -1.36636,1.3327397 -1.96232,2.0822397 -1.18375,-0.4924 -2.68638,0.407 -3.45132,2.08224 -0.10629,0.22258 -0.18987,0.4506 -0.2571,0.68045 -0.38156,1.32729 -0.10266,2.55465 0.67591,3.13789 -0.12446,0.41972 -0.23621,0.8458 -0.32615,1.27369 -0.16352,0.76676 -0.27708,1.54987 -0.33704,2.33571 -0.90303,0.12355 -1.67161,0.91029 -2.01047,2.08768 -0.15989,0.54782 -0.31979,1.18012 -0.17534,1.78244 0.51057,2.16037 1.082,2.00775 1.30276,3.10973 0.0799,0.39701 -0.23802,0.79038 -0.15807,0.87033 1.01659,1.01659 8.56152,1.32275 11.1516004,-0.55236 0.29616,-0.2144 -0.27709,-1.5208 -0.45969,-1.83604 0.19714,-0.30161 0.3534,-0.6323 0.45424,-0.99115 0.17897,-0.61868 0.19532,-1.28641 0.0481,-1.92235 -0.26074,-1.09744 -0.96844,-1.96686 -1.88419,-2.45017 0.0182,-0.37884 0.0482,-0.75313 0.10811,-1.12379 0.0354,-0.22076 0.0781,-0.4388 0.12809,-0.65411 0.89032,-0.37883 1.62164,-1.15286 1.91417,-2.16672 l 0.0145,-0.0454 c 0.15989,-0.58687 0.15807,-1.19192 0.005,-1.76063 0.28526,-0.35431 0.59233,-0.68772 0.92665,-0.99388 0.13445,-0.12446 0.27345,-0.24347 0.41336,-0.35885 0.25346,0.0345 0.51056,0.0372 0.77221,9.1e-4 0.80219,-0.10084 1.52261,-0.51057 2.03136,-1.14741 0.14536,-0.18079 0.26437,-0.37339 0.36339,-0.57598 0.72224,-0.20804 1.4672,-0.31706 2.21942,-0.30525 2.12948,0.0163 4.23352,0.98389 5.64621,2.59008 0.35158,0.39973 0.66319,0.83762 0.92756,1.30549 0.26982,0.47241 0.48058,0.94573 0.62321,1.45084 0.28345,1.00296 0.29799,2.09041 0.0373,3.11064 -0.2571,1.02022 -0.79128,1.97504 -1.52443,2.7318 -0.36884,0.37884 -0.78583,0.71134 -1.24189,0.98116 -0.46151,0.27436 -0.93483,0.48059 -1.43903,0.60051 -1.00297,0.24619 -2.09405,0.14263 -3.04523,-0.28254 -0.95663,-0.42245 -1.76064,-1.16195 -2.26394,-2.08678 -0.5042,-0.90122 -0.61776,-1.98322 -0.30888,-2.96619 0.30525,-0.98298 1.02749,-1.82514 1.9605,-2.26939 l -0.46151,-0.9857 c -0.65501,0.16716 -1.30094,0.4824 -1.86692,0.93846 -0.56417,0.45697 -1.04294,1.05293 -1.38907,1.74247 -0.3534,0.68772 -0.55508,1.47719 -0.58688,2.29391 -0.0145,0.407 0.0109,0.82127 0.0818,1.23644 0.0191,0.10811 0.03,0.19896 0.0654,0.3207 l 0.0836,0.3216 0.0245,0.11083 0.0127,0.0545 c 0.0445,0.10448 0.0264,0.07 0.0445,0.11266 0.0263,0.0945 0.06,0.18896 0.0945,0.28526 0.56235,1.51262 1.69613,2.89169 3.18877,3.78655 1.48718,0.91211 3.35138,1.3073 5.20741,1.07291 0.92756,-0.11083 1.86511,-0.41245 2.64549,-0.76676 0.814,-0.35975 1.58076,-0.85488 2.28211,-1.43994 1.40178,-1.17466 2.51104,-2.74815 3.15333,-4.54058 0.65956,-1.79062 0.81673,-3.81472 0.44062,-5.7734 z M 3.6960746,25.466539 c -0.18988,0.6532 -0.54963,1.09654 -0.91575,1.11925 -0.57144,0.0391 -1.27551,-0.92301 -1.37362,-2.26666 -0.0318,-0.45969 0.0127,-0.91211 0.12991,-1.31275 0.18987,-0.65592 0.54872,-1.09381 0.91575,-1.12107 0.57143,-0.0382 1.27369,0.92302 1.3718,2.26666 0.03,0.4606 -0.0127,0.91666 -0.12809,1.31457 z m 1.97776,-11.46775 c -0.0482,0.16716 -0.10993,0.33251 -0.18624,0.49331 -0.2362,0.52328 -0.59415,0.97025 -0.97934,1.221 -0.28345,0.18987 -0.54963,0.24801 -0.72769,0.16897 -0.31616,-0.14354 -0.49513,-0.8358 -0.24529,-1.70885 0.0482,-0.16534 0.1081,-0.3316 0.18078,-0.4933 0.46696,-1.01024 1.30276,-1.57713 1.71067,-1.38907 0.31525,0.14172 0.49785,0.83671 0.24711,1.70794 z m 5.3927404,9.40459 c 0.0972,0.40973 0.089,0.83762 -0.0264,1.2319 -0.23075,0.79402 -0.85033,1.39634 -1.6180004,1.57894 -1.20646,0.28345 -2.43473,-0.51056 -2.73453,-1.77789 -0.0954,-0.40791 -0.0854,-0.8349 0.0245,-1.2319 0.23076,-0.79038 0.85307,-1.39452 1.62346,-1.57803 1.20646,-0.28254 2.4329104,0.51329 2.7308904,1.77698 z m 0.29435,-7.11249 -0.007,0.0291 c -0.2998,1.03294 -1.34455,1.65071 -2.3311604,1.3818 -1.00296,-0.27345 -1.58439,-1.35727 -1.29549,-2.40566 l 0.007,-0.0272 c 0.2998,-1.03204 1.34455,-1.6498 2.3293504,-1.38089 0.48058,0.13264 0.88213,0.45333 1.12651,0.90121 0.25256,0.45424 0.31434,0.98752 0.1708,1.50172 z m 0.5896,-9.0393797 c -0.11174,0.39337 -0.40245,0.8149 -0.80037,1.15558 -0.38519,0.33342 -0.83398,0.55781 -1.2300804,0.62231 -0.28345,0.0427 -0.50421,9.1e-4 -0.60505,-0.11537 -0.0945,-0.10811 -0.10629,-0.32342 -0.0318,-0.58052 0.11356,-0.39338 0.40609,-0.81582 0.8021904,-1.15741 0.7822,-0.675 1.62346,-0.75222 1.83513,-0.50875 0.0936,0.11084 0.10448,0.32615 0.03,0.58416 z m 4.13541,3.6675297 c -0.0654,0.22621 -0.17534,0.43516 -0.32433,0.62231 -0.29071,0.36249 -0.69771,0.59415 -1.1465,0.65047 -0.43971,0.0563 -0.86942,-0.0591 -1.20465,-0.32796 -0.50966,-0.40881 -0.71497,-1.09199 -0.52873,-1.7461 0.0672,-0.2234797 0.17715,-0.4342497 0.32614,-0.6204897 0.28526,-0.36248 0.69408,-0.59505 1.14287,-0.65138 0.4397,-0.0563 0.87123,0.0609 1.21009,0.33069 0.50239,0.407 0.71316,1.0928997 0.52511,1.7424597 z m 0.7186,-5.9587197 c -0.0263,-0.24075 0.47877,-0.70317 1.38725,-0.79311 0.90122,-0.0899 1.49446,0.278 1.51717,0.50784 0.004,0.02 -0.002,0.0445 -0.007,0.0709 -0.0709,0.24347 -0.55872,0.64138 -1.3818,0.72042 -0.90303,0.0872 -1.49172,-0.28072 -1.51535,-0.50602 z m 5.30917,3.80744 c -0.11175,0.39065 -0.37611,0.71043 -0.74132,0.90212 -0.70953,0.3779297 -1.58258,0.13264 -1.93961,-0.54327 -0.16171,-0.30616 -0.19896,-0.66228 -0.0972,-1.00478 0.11356,-0.38792 0.37611,-0.70771 0.74496,-0.90303 0.34613,-0.18351 0.7395,-0.22894 1.11289,-0.12174 0.35885,0.1063 0.65501,0.34159 0.82308,0.66501 0.16262,0.30798 0.19351,0.66501 0.0972,1.00569 z m 4.95212,-0.63866 c -0.004,0.0191 -0.007,0.0345 -0.0109,0.0518 -0.11901,0.40428 -0.67772,0.64684 -1.24734,0.5351 -0.30888,-0.06 -0.5887,-0.21986 -0.76494,-0.43607 -0.0872,-0.10448 -0.22531,-0.32342 -0.17716,-0.57871 0.0945,-0.44152 0.6632,-0.70043 1.25825,-0.58687 0.3107,0.0609 0.59051,0.22076 0.76857,0.43697 0.0872,0.10721 0.22167,0.3207 0.17352,0.5778 z"
       id="path197"
       inkscape:connector-curvature="0"
       style="fill:#020202" />
  </g>
</svg>
