<?xml version="1.0" encoding="UTF-8" standalone="no"?>
<!-- Created with Inkscape (http://www.inkscape.org/) -->

<svg
   xmlns:dc="http://purl.org/dc/elements/1.1/"
   xmlns:cc="http://creativecommons.org/ns#"
   xmlns:rdf="http://www.w3.org/1999/02/22-rdf-syntax-ns#"
   xmlns:svg="http://www.w3.org/2000/svg"
   xmlns="http://www.w3.org/2000/svg"
   xmlns:sodipodi="http://sodipodi.sourceforge.net/DTD/sodipodi-0.dtd"
   xmlns:inkscape="http://www.inkscape.org/namespaces/inkscape"
   width="360"
   height="360"
   viewBox="0 0 360 360.00001"
   id="svg4379"
   version="1.1"
   inkscape:version="0.91 r13725"
   sodipodi:docname="pulperia.svg">
  <defs
     id="defs4381" />
  <sodipodi:namedview
     id="base"
     pagecolor="#ffffff"
     bordercolor="#666666"
     borderopacity="1.0"
     inkscape:pageopacity="0.0"
     inkscape:pageshadow="2"
     inkscape:zoom="1.2877717"
     inkscape:cx="245.71429"
     inkscape:cy="145.71429"
     inkscape:document-units="px"
     inkscape:current-layer="layer1"
     showgrid="false"
     units="px"
     inkscape:window-width="1600"
     inkscape:window-height="873"
     inkscape:window-x="1911"
     inkscape:window-y="-9"
     inkscape:window-maximized="1" />
  <metadata
     id="metadata4384">
    <rdf:RDF>
      <cc:Work
         rdf:about="">
        <dc:format>image/svg+xml</dc:format>
        <dc:type
           rdf:resource="http://purl.org/dc/dcmitype/StillImage" />
        <dc:title></dc:title>
      </cc:Work>
    </rdf:RDF>
  </metadata>
  <g
     inkscape:label="Capa 1"
     inkscape:groupmode="layer"
     id="layer1"
     transform="translate(0,-692.36216)">
    <path
       inkscape:connector-curvature="0"
       style="fill:#020202"
       d="m 327.48273,866.5268 c -0.91415,-4.56232 -1.97925,-8.88145 -3.55594,-13.47733 l -0.70448,-1.96248 c -0.16773,-0.37739 -0.20967,-0.5619 -0.24321,-0.70447 l -0.29354,-0.98963 c 0.15097,0.31869 -0.39417,-0.92254 -0.44449,-1.10704 l -0.57029,-1.45927 c -0.77158,-1.98764 -1.61863,-3.97527 -2.49084,-5.9126 -3.57271,-7.7828 -7.9757,-15.33917 -13.15025,-22.36718 -3.42176,-4.61266 -7.20414,-8.95694 -11.27166,-13.04124 0.60383,-1.28315 1.04833,-2.65857 1.32509,-4.10945 1.04832,-5.40939 -0.47804,-11.1207 -4.19332,-15.68304 -3.50562,-4.28558 -8.61309,-7.27961 -14.39988,-8.4118 -6.68416,-1.28317 -13.11671,0.0168 -18.01452,3.2037 -9.91301,-4.7133 -20.44665,-8.26085 -31.3996,-10.39106 0.29352,-1.42573 0.42771,-2.84307 0.29352,-4.26881 -1.04832,-10.36589 -13.20058,-17.36035 -27.76818,-15.92623 -11.69937,1.15735 -21.17629,7.46411 -23.55809,15.67464 -0.4445,1.59346 -0.58707,3.28756 -0.51159,4.90619 -1.37541,0.29352 -2.75082,0.5619 -4.10946,0.93092 -2.28956,0.54513 -4.55395,1.17412 -6.86028,1.83667 -1.11542,0.34385 -2.24761,0.69609 -3.33788,1.0651 l -1.68571,0.55352 -1.94571,0.69609 -1.99602,0.77996 -1.09866,0.3774 -0.94769,0.32708 c -0.57029,0.27676 -0.82189,0.36902 -0.93091,0.4361 -0.0838,-0.0671 -0.11741,-0.14257 -0.17612,-0.1845 -7.35509,-8.50406 -22.52654,-7.02801 -34.59493,3.41337 -5.53518,4.74683 -9.55238,10.69297 -11.27164,16.68103 -0.9477,3.24564 -1.16575,6.31516 -0.72126,9.15822 -6.5332,5.86227 -12.613516,12.30322 -18.115158,19.2222 -10.927801,-4.54556 -24.799315,3.75722 -31.860873,19.2222 -0.981237,2.05473 -1.752809,4.15977 -2.373421,6.28159 -3.522392,12.2529 -0.947691,23.58326 6.239665,28.96749 -1.14897,3.87463 -2.180528,7.80797 -3.010806,11.75808 -1.509596,7.07832 -2.557927,14.30761 -3.111446,21.56207 -8.336327,1.14058 -15.431431,8.40342 -18.55965,19.27251 -1.47605,5.05715 -2.9521,10.89426 -1.618624,16.4546 4.713296,19.94346 9.988498,18.5345 12.026453,28.7075 0.738025,3.66497 -2.197302,7.29638 -1.459277,8.0344 9.384658,9.38467 79.035767,12.21099 102.946097,-5.09907 2.73404,-1.97925 -2.55793,-14.03926 -4.24364,-16.94942 1.8199,-2.78437 3.2624,-5.8371 4.19332,-9.14983 1.65217,-5.71131 1.80313,-11.8755 0.44449,-17.74615 -2.40696,-10.13106 -8.94016,-18.15709 -17.3939,-22.61879 0.16773,-3.49722 0.44449,-6.95252 0.998,-10.37428 0.32708,-2.03795 0.72126,-4.05075 1.18253,-6.03838 8.21891,-3.49724 14.97016,-10.64266 17.67066,-20.00216 l 0.13419,-0.41933 c 1.47605,-5.41778 1.45927,-11.00328 0.0503,-16.25332 2.6334,-3.27079 5.46809,-6.3487 8.55437,-9.175 1.24123,-1.14897 2.52439,-2.24761 3.81594,-3.31272 2.33987,0.31869 4.71329,0.34385 7.12864,0.008 7.40541,-0.93091 14.05603,-4.71329 18.75254,-10.59234 1.34187,-1.66894 2.44052,-3.4469 3.35467,-5.31713 6.66738,-1.92054 13.54443,-2.92694 20.48857,-2.81791 19.6583,0.15096 39.08178,9.08273 52.12301,23.91032 3.24564,3.69013 6.12227,7.7325 8.56277,12.05162 2.49084,4.36106 4.43654,8.7305 5.75325,13.39347 2.61663,9.25887 2.75081,19.29768 0.34385,28.71588 -2.37343,9.41821 -7.30477,18.23258 -14.0728,25.21866 -3.40497,3.49723 -7.25445,6.56674 -11.46455,9.05758 -4.26041,2.53276 -8.62985,4.43653 -13.28444,5.54357 -9.25886,2.27279 -19.33122,1.3167 -28.11204,-2.60825 -8.83115,-3.89978 -16.25333,-10.72651 -20.89953,-19.26412 -4.65459,-8.31956 -5.70293,-18.30806 -2.85146,-27.38241 2.81791,-9.07435 9.4853,-16.84877 18.09839,-20.94984 l -4.26042,-9.09952 c -6.04677,1.54314 -12.00968,4.45331 -17.23457,8.66341 -5.2081,4.21848 -9.62787,9.72012 -12.82317,16.08559 -3.26241,6.34869 -5.12425,13.63669 -5.41779,21.17628 -0.13417,3.75723 0.10061,7.58153 0.7548,11.41423 0.17613,0.99801 0.27676,1.83668 0.60384,2.96049 l 0.77158,2.96887 0.22644,1.02317 0.1174,0.5032 c 0.41096,0.96447 0.24322,0.64577 0.41096,1.03995 0.24321,0.87221 0.55351,1.74442 0.87221,2.6334 5.19134,13.96377 15.65787,26.6947 29.43713,34.95555 13.72894,8.42019 30.93834,12.06838 48.07226,9.90463 8.56277,-1.02317 17.21779,-3.80754 24.42192,-7.07833 7.51444,-3.32111 14.59276,-7.89183 21.06725,-13.29284 12.9406,-10.84394 23.1807,-25.36961 29.11006,-41.91646 6.08871,-16.53008 7.53959,-35.21554 4.06753,-53.29715 z M 68.041787,959.02314 c -1.752809,6.03 -5.073921,10.12269 -8.45374,10.33235 -5.275201,0.36062 -11.774854,-8.52083 -12.680611,-20.92468 -0.293533,-4.24364 0.117412,-8.4202 1.19929,-12.11871 1.75281,-6.05516 5.065535,-10.09752 8.453741,-10.34912 5.275201,-0.35224 11.75808,8.52084 12.663838,20.92468 0.276759,4.25203 -0.117413,8.46213 -1.182518,12.13548 z M 86.299519,853.1585 c -0.444493,1.54313 -1.014784,3.06951 -1.719263,4.55394 -2.180528,4.83071 -5.484868,8.95695 -9.040807,11.27166 -2.616633,1.7528 -5.073921,2.28955 -6.717703,1.55991 -2.918554,-1.32509 -4.570723,-7.71572 -2.264395,-15.77528 0.444491,-1.52637 0.998011,-3.06113 1.668943,-4.55395 4.310736,-9.32596 12.026452,-14.55922 15.792057,-12.82318 2.910166,1.30831 4.595882,7.7241 2.281168,15.7669 z m 49.783141,86.81857 c 0.89737,3.78238 0.82189,7.73248 -0.24322,11.37229 -2.1302,7.32993 -7.8499,12.89028 -14.93661,14.57599 -11.13747,2.61663 -22.47622,-4.71329 -25.243817,-16.41267 -0.880594,-3.7656 -0.788345,-7.70732 0.226446,-11.37229 2.130201,-7.29638 7.875051,-12.8735 14.986941,-14.56761 11.13747,-2.60825 22.45944,4.73846 25.21026,16.40429 z m 2.71727,-65.65907 -0.0671,0.26838 c -2.76759,9.53561 -12.41224,15.23853 -21.52014,12.75609 -9.25885,-2.52438 -14.62631,-12.52965 -11.95936,-22.20785 l 0.0671,-0.25159 c 2.76759,-9.52724 12.41223,-15.23015 21.50336,-12.74771 4.43654,1.22445 8.14343,4.18494 10.39944,8.31956 2.33149,4.19332 2.90178,9.11628 1.57669,13.86312 z m 5.44293,-83.44714 c -1.03156,3.63142 -3.71528,7.52282 -7.38863,10.66782 -3.55594,3.07789 -7.69895,5.14939 -11.35552,5.74485 -2.61663,0.39417 -4.65459,0.008 -5.58551,-1.06511 -0.87221,-0.998 -0.98124,-2.98564 -0.29353,-5.35906 1.04833,-3.63142 3.74883,-7.53121 7.40541,-10.68459 7.22091,-6.23128 14.98694,-6.94414 16.94103,-4.69653 0.86382,1.02318 0.96447,3.01081 0.27675,5.39262 z m 38.17602,33.8569 c -0.60384,2.08827 -1.61862,4.0172 -2.99403,5.74485 -2.68372,3.34627 -6.44095,5.48487 -10.58395,6.00484 -4.05913,0.51997 -8.02602,-0.54513 -11.12069,-3.02758 -4.70491,-3.77399 -6.6003,-10.08075 -4.88104,-16.11914 0.62062,-2.06311 1.63541,-4.00882 3.01081,-5.72808 2.63341,-3.34627 6.40741,-5.49325 10.55041,-6.01322 4.05913,-0.51997 8.04279,0.56191 11.17101,3.05273 4.63782,3.75723 6.58352,10.08914 4.84748,16.0856 z m 6.63384,-55.00802 c -0.24321,-2.22247 4.41977,-6.49127 12.80641,-7.32154 8.31955,-0.83029 13.79604,2.56631 14.0057,4.68813 0.0335,0.18451 -0.0168,0.41094 -0.0671,0.65416 -0.65416,2.24762 -5.15779,5.92097 -12.75609,6.65061 -8.33633,0.80511 -13.77088,-2.59148 -13.98893,-4.67136 z m 49.01157,35.14844 c -1.03156,3.60625 -3.47207,6.55836 -6.84351,8.32794 -6.54997,3.48884 -14.60953,1.22445 -17.90548,-5.01522 -1.49283,-2.8263 -1.83668,-6.11386 -0.89737,-9.27563 1.04832,-3.58109 3.47206,-6.5332 6.87705,-8.33632 3.1953,-1.69411 6.82673,-2.11344 10.27363,-1.12382 3.31273,0.98123 6.04678,3.15338 7.59831,6.13903 1.50121,2.84307 1.78636,6.13902 0.89737,9.28402 z m 45.71561,-5.89581 c -0.0335,0.17611 -0.0671,0.31868 -0.1006,0.47803 -1.09866,3.73206 -6.25645,5.9713 -11.51487,4.93974 -2.85146,-0.55352 -5.43455,-2.02958 -7.06156,-4.02559 -0.80511,-0.96447 -2.07988,-2.98565 -1.6354,-5.3423 0.87221,-4.0759 6.12225,-6.4661 11.61551,-5.41777 2.86824,0.5619 5.45132,2.03795 7.0951,4.03398 0.80512,0.98962 2.04635,2.96048 1.60185,5.33391 z"
       id="path197" />
  </g>
</svg>
