<?xml version="1.0" encoding="UTF-8" standalone="no"?>
<!-- Created with Inkscape (http://www.inkscape.org/) -->

<svg
   xmlns:dc="http://purl.org/dc/elements/1.1/"
   xmlns:cc="http://creativecommons.org/ns#"
   xmlns:rdf="http://www.w3.org/1999/02/22-rdf-syntax-ns#"
   xmlns:svg="http://www.w3.org/2000/svg"
   xmlns="http://www.w3.org/2000/svg"
   xmlns:sodipodi="http://sodipodi.sourceforge.net/DTD/sodipodi-0.dtd"
   xmlns:inkscape="http://www.inkscape.org/namespaces/inkscape"
   width="50"
   height="50"
   id="svg3235"
   version="1.1"
   inkscape:version="0.48.3.1 r9886"
   sodipodi:docname="xamoneria.svg">
  <defs
     id="defs3237" />
  <sodipodi:namedview
     id="base"
     pagecolor="#ffffff"
     bordercolor="#666666"
     borderopacity="1.0"
     inkscape:pageopacity="0.0"
     inkscape:pageshadow="2"
     inkscape:zoom="0.98994949"
     inkscape:cx="13.371408"
     inkscape:cy="22.51252"
     inkscape:document-units="px"
     inkscape:current-layer="layer1"
     showgrid="false"
     inkscape:window-width="1871"
     inkscape:window-height="1056"
     inkscape:window-x="1729"
     inkscape:window-y="24"
     inkscape:window-maximized="1" />
  <metadata
     id="metadata3240">
    <rdf:RDF>
      <cc:Work
         rdf:about="">
        <dc:format>image/svg+xml</dc:format>
        <dc:type
           rdf:resource="http://purl.org/dc/dcmitype/StillImage" />
        <dc:title></dc:title>
      </cc:Work>
    </rdf:RDF>
  </metadata>
  <g
     inkscape:label="Layer 1"
     inkscape:groupmode="layer"
     id="layer1"
     transform="translate(0,-1002.3622)">
    <g
       transform="translate(-169.77056,686.33661)"
       id="g135"
       inkscape:export-filename="/home/proxectos/geozzy/distModules/rextEatAndDrink/classes/view/categoryIcon/pulpeira.svg.png"
       inkscape:export-xdpi="90"
       inkscape:export-ydpi="90">
      <path
         style="fill:#333333"
         inkscape:connector-curvature="0"
         d="m 195.497,343.357 c 0.094,-0.23 0.198,-0.455 0.312,-0.674 0.244,0 0.492,-0.034 0.734,-0.108 0.421,-0.126 0.809,-0.364 1.116,-0.683 0.532,-0.556 0.768,-1.282 0.707,-1.985 0.222,-0.13 0.449,-0.25 0.683,-0.353 0.139,-0.063 0.28,-0.119 0.422,-0.17 0.548,0.37 1.259,0.503 1.947,0.295 l 0.031,-0.009 c 0.395,-0.125 0.74,-0.35 1.011,-0.648 0.306,0.033 0.611,0.086 0.908,0.163 0.121,0.031 0.241,0.066 0.358,0.104 0.074,0.157 0.168,0.305 0.284,0.441 0.354,0.422 0.854,0.684 1.409,0.739 0.155,0.016 0.311,0.013 0.463,-0.004 0.386,0.335 0.725,0.723 0.995,1.157 0.777,1.223 1.003,2.785 0.605,4.186 -0.098,0.351 -0.232,0.69 -0.401,1.015 -0.171,0.328 -0.364,0.624 -0.6,0.892 -0.471,0.532 -1.088,0.942 -1.768,1.17 -0.679,0.23 -1.421,0.278 -2.126,0.138 -0.353,-0.071 -0.698,-0.188 -1.021,-0.348 -0.327,-0.162 -0.62,-0.357 -0.874,-0.602 -0.513,-0.482 -0.857,-1.145 -0.965,-1.846 -0.111,-0.702 0.013,-1.437 0.357,-2.067 0.328,-0.622 0.905,-1.087 1.584,-1.271 0.672,-0.188 1.422,-0.087 2.021,0.283 l 0.394,-0.627 c -0.338,-0.314 -0.757,-0.566 -1.228,-0.723 -0.471,-0.153 -0.989,-0.207 -1.511,-0.151 -0.523,0.053 -1.049,0.229 -1.529,0.513 -0.239,0.143 -0.466,0.311 -0.678,0.504 -0.053,0.051 -0.102,0.092 -0.159,0.155 l -0.153,0.167 -0.054,0.056 -0.025,0.027 c -0.044,0.063 -0.029,0.04 -0.049,0.067 -0.043,0.05 -0.085,0.104 -0.128,0.16 -0.658,0.88 -1.027,2.039 -0.987,3.224 0.025,1.188 0.49,2.401 1.312,3.377 0.406,0.489 0.927,0.915 1.415,1.229 0.508,0.332 1.074,0.588 1.667,0.773 1.19,0.368 2.5,0.421 3.765,0.126 1.268,-0.282 2.483,-0.941 3.466,-1.879 0.245,-0.24 0.472,-0.48 0.694,-0.761 l 0.093,-0.123 c 0.019,-0.024 0.028,-0.035 0.035,-0.042 l 0.049,-0.059 c -0.014,0.023 0.043,-0.062 0.051,-0.071 l 0.068,-0.095 c 0.091,-0.127 0.181,-0.258 0.267,-0.391 0.34,-0.532 0.632,-1.108 0.859,-1.711 0.149,-0.397 0.267,-0.806 0.357,-1.221 0.103,-0.014 0.206,-0.042 0.307,-0.083 0.377,-0.15 0.671,-0.475 0.805,-0.887 0.125,-0.388 0.105,-0.826 -0.056,-1.229 -0.187,-0.465 -0.526,-0.811 -0.921,-0.986 -0.103,-0.803 -0.305,-1.598 -0.612,-2.363 0.101,-0.04 0.194,-0.087 0.276,-0.153 0.602,-0.48 0.547,-1.515 -0.123,-2.358 -0.541,-0.679 -1.312,-1.015 -1.916,-0.833 -0.118,0.036 -0.229,0.093 -0.325,0.166 -0.074,-0.075 -0.146,-0.148 -0.223,-0.219 -0.126,-0.12 -0.255,-0.235 -0.389,-0.351 -0.066,-0.056 -0.133,-0.111 -0.2,-0.166 l -0.103,-0.082 -0.121,-0.092 -0.128,-0.093 -0.067,-0.053 -0.059,-0.047 c -0.039,-0.024 -0.056,-0.036 -0.064,-0.041 0.001,-0.008 0.004,-0.012 0.006,-0.018 0.232,-0.795 -0.467,-1.678 -1.597,-2.008 -0.516,-0.153 -1.046,-0.164 -1.486,-0.029 -0.238,0.071 -0.438,0.181 -0.597,0.321 -0.624,-0.169 -1.267,-0.289 -1.915,-0.353 -0.156,-0.858 -1.228,-1.385 -2.468,-1.206 -0.165,0.023 -0.329,0.059 -0.485,0.106 -0.901,0.271 -1.5,0.885 -1.544,1.547 -0.288,0.083 -0.571,0.177 -0.853,0.283 -0.498,0.19 -0.987,0.414 -1.46,0.671 -0.406,-0.473 -1.139,-0.62 -1.938,-0.378 -0.372,0.111 -0.748,0.305 -1.086,0.558 -1.136,0.851 -1.563,2.134 -0.976,2.917 0.046,0.06 0.098,0.117 0.152,0.168 -0.001,0.001 -0.003,0.004 -0.005,0.007 l -0.086,0.112 -0.093,0.126 -0.088,0.126 -0.046,0.062 c -0.188,0.265 -0.356,0.526 -0.523,0.8 -0.206,0.336 -0.397,0.684 -0.575,1.039 1.619,1.242 3.421,2.192 5.399,2.68 z m 5.672,-4.57 -0.02,0.007 c -0.701,0.21 -1.441,-0.159 -1.652,-0.823 -0.214,-0.674 0.19,-1.407 0.897,-1.63 l 0.02,-0.005 c 0.7,-0.21 1.44,0.159 1.651,0.823 0.102,0.325 0.067,0.672 -0.098,0.978 -0.168,0.31 -0.452,0.542 -0.798,0.65 z m 7.083,1.971 c 0.114,-0.206 0.307,-0.358 0.538,-0.428 0.265,-0.079 0.544,-0.047 0.793,0.093 0.233,0.13 0.405,0.34 0.48,0.591 0.073,0.245 0.047,0.5 -0.076,0.717 -0.114,0.208 -0.307,0.358 -0.539,0.428 -0.265,0.081 -0.545,0.048 -0.79,-0.091 -0.477,-0.266 -0.66,-0.856 -0.406,-1.31 z m -3.792,-2.436 c 0.045,-0.442 0.36,-0.812 0.804,-0.946 0.152,-0.044 0.313,-0.06 0.475,-0.043 0.314,0.032 0.597,0.177 0.796,0.414 0.195,0.232 0.286,0.521 0.258,0.813 -0.046,0.44 -0.361,0.812 -0.803,0.945 -0.154,0.046 -0.314,0.06 -0.476,0.044 -0.315,-0.032 -0.599,-0.179 -0.798,-0.415 -0.194,-0.231 -0.286,-0.519 -0.256,-0.812 z m 7.453,6.121 c -0.03,0.088 -0.102,0.245 -0.268,0.312 -0.011,0.005 -0.021,0.008 -0.032,0.013 -0.275,0.083 -0.62,-0.148 -0.768,-0.515 -0.078,-0.2 -0.092,-0.419 -0.032,-0.601 0.027,-0.088 0.102,-0.247 0.267,-0.313 0.286,-0.111 0.646,0.121 0.799,0.501 0.079,0.202 0.092,0.423 0.034,0.603 z m -2.247,-6.729 c 0.128,-0.104 0.581,0.014 0.967,0.501 0.386,0.482 0.395,0.957 0.271,1.055 -0.011,0.01 -0.025,0.016 -0.043,0.021 -0.166,0.05 -0.573,-0.082 -0.923,-0.522 -0.385,-0.485 -0.395,-0.959 -0.272,-1.055 z m -3.752,-3.026 c 0.675,0.199 1.029,0.65 0.968,0.862 -0.028,0.095 -0.147,0.181 -0.321,0.234 -0.267,0.081 -0.616,0.07 -0.959,-0.031 -0.333,-0.097 -0.628,-0.27 -0.81,-0.474 -0.129,-0.145 -0.188,-0.288 -0.158,-0.389 0.026,-0.094 0.146,-0.18 0.319,-0.231 0.267,-0.082 0.618,-0.071 0.961,0.029 z m -6.424,-1.16 c 0.111,-0.035 0.229,-0.062 0.349,-0.08 0.75,-0.108 1.384,0.162 1.428,0.465 0.033,0.232 -0.297,0.593 -0.888,0.772 -0.113,0.035 -0.229,0.06 -0.35,0.077 -0.388,0.058 -0.775,0.017 -1.062,-0.109 -0.214,-0.092 -0.346,-0.223 -0.365,-0.355 -0.034,-0.232 0.297,-0.591 0.888,-0.77 z m -2.499,7.722 c -0.198,0.208 -0.446,0.359 -0.714,0.439 -0.538,0.163 -1.114,0.031 -1.502,-0.343 -0.61,-0.586 -0.608,-1.582 0.005,-2.221 0.199,-0.206 0.446,-0.358 0.716,-0.441 0.536,-0.16 1.112,-0.027 1.502,0.345 0.608,0.586 0.606,1.582 -0.007,2.221 z m -4.094,-5.188 c 0.25,-0.189 0.526,-0.331 0.798,-0.413 0.445,-0.134 0.829,-0.09 0.979,0.109 0.234,0.313 -0.056,1.072 -0.79,1.623 -0.252,0.188 -0.527,0.332 -0.8,0.414 -0.442,0.133 -0.828,0.092 -0.978,-0.11 -0.232,-0.313 0.056,-1.073 0.791,-1.623 z"
         id="path137" />
      <g
         id="g139">
        <path
           style="fill:#333333"
           inkscape:connector-curvature="0"
           d="m 185.246,343.477 c 0.022,-0.16 0.125,-0.296 0.295,-0.399 0.027,0.014 0.054,0.028 0.082,0.042 v 0.041 c 0,0.041 0.024,0.087 0.062,0.107 0.034,0.017 0.066,0.035 0.098,0.053 -0.121,0.059 -0.199,0.131 -0.208,0.202 -0.028,0.199 0.434,0.555 1.223,0.664 0.138,0.02 0.278,0.031 0.413,0.031 l 0,0 c 0.562,0 0.922,-0.171 0.945,-0.335 0.011,-0.083 -0.069,-0.204 -0.238,-0.32 0.003,-0.004 0.004,-0.006 0.005,-0.008 0.062,-0.095 0.146,-0.156 0.231,-0.222 0.002,-0.003 0.002,-0.004 0.004,-0.007 0.237,0.18 0.354,0.391 0.326,0.603 -0.054,0.376 -0.553,0.621 -1.273,0.621 l 0,0 c -0.151,0 -0.305,-0.011 -0.46,-0.034 -0.923,-0.129 -1.57,-0.576 -1.505,-1.039 z"
           id="path141" />
        <path
           style="fill:#333333;stroke:#ffffff;stroke-width:10;stroke-linecap:round;stroke-miterlimit:10"
           inkscape:connector-curvature="0"
           stroke-miterlimit="10"
           d="M 178.135,347.71"
           id="path143" />
        <path
           style="fill:#333333;stroke:#ffffff;stroke-width:10;stroke-linecap:round;stroke-miterlimit:10"
           inkscape:connector-curvature="0"
           stroke-miterlimit="10"
           d="M 178.135,346.469"
           id="path145" />
        <path
           style="fill:#333333"
           inkscape:connector-curvature="0"
           d="m 185.774,348.337 c 0.005,0.038 0.012,0.079 0.015,0.119 0.003,0.037 0.022,0.066 0.047,0.087 -0.046,0.091 -0.093,0.183 -0.14,0.276 -0.011,-0.024 -0.028,-0.043 -0.051,-0.055 0.012,-0.049 0.025,-0.099 0.038,-0.146 0.013,-0.05 0.027,-0.099 0.041,-0.149 0.016,-0.044 0.033,-0.089 0.05,-0.132 z"
           id="path147" />
        <path
           style="fill:#333333"
           inkscape:connector-curvature="0"
           d="m 184.418,346.888 c 0.077,0.065 0.15,0.134 0.223,0.2 0,0.006 0.001,0.009 0.003,0.014 -0.125,-0.116 -0.256,-0.218 -0.391,-0.303 0.042,0.014 0.085,0.025 0.129,0.037 0.006,0.017 0.018,0.036 0.036,0.052 z"
           id="path149" />
        <path
           style="fill:#333333"
           inkscape:connector-curvature="0"
           d="m 183.471,351.547 c 0.047,-0.015 0.084,-0.052 0.084,-0.114 v -0.143 c 0.083,10e-4 0.172,-0.009 0.259,-0.042 0.441,-0.15 0.801,-0.662 0.919,-1.304 0.097,-0.528 0.026,-0.986 -0.205,-1.328 -0.128,-0.192 -0.305,-0.342 -0.519,-0.449 -0.017,-0.098 -0.034,-0.194 -0.041,-0.293 -0.003,-0.031 -0.014,-0.055 -0.03,-0.073 -0.003,-0.024 -0.009,-0.05 -0.012,-0.076 0.386,0.132 0.698,0.361 0.914,0.68 0.287,0.422 0.378,0.979 0.262,1.606 -0.141,0.773 -0.6,1.397 -1.167,1.593 -0.122,0.041 -0.243,0.062 -0.363,0.062 -0.039,0 -0.081,-0.002 -0.119,-0.007 0.01,-0.018 0.017,-0.036 0.017,-0.062 v -0.05 z"
           id="path151" />
        <path
           style="fill:#333333"
           inkscape:connector-curvature="0"
           d="m 178.205,349.146 c 0,-0.003 -0.001,-0.003 -0.001,-0.004 0.025,-0.015 0.044,-0.04 0.052,-0.075 0.047,-0.221 0.068,-0.443 0.08,-0.667 0.029,-0.136 0.06,-0.314 0.089,-0.549 0.004,-0.036 0.008,-0.064 0.012,-0.091 0.109,-0.818 0.018,-1.533 -0.093,-1.788 v -0.462 c 0.025,0.003 0.049,0.008 0.072,0.018 0.542,0.204 0.464,1.755 0.394,2.281 -0.003,0.025 -0.008,0.055 -0.012,0.087 -0.067,0.547 -0.167,1.142 -0.515,1.272 -0.021,0.009 -0.046,0.015 -0.073,0.02 -0.001,-0.012 -0.002,-0.026 -0.005,-0.042 z"
           id="path153" />
        <path
           style="fill:#333333"
           inkscape:connector-curvature="0"
           d="m 178.159,350.814 c 0.022,0.002 0.044,0.002 0.065,0.002 0.007,0 0.014,0 0.019,0 0.018,0.006 0.035,0.013 0.055,0.018 0.089,0.021 0.183,0.029 0.278,0.029 0.324,0 0.616,-0.116 0.876,-0.215 0.134,-0.055 0.217,-0.083 0.267,-0.098 0.01,0.004 0.019,0.005 0.027,0.007 0.104,0.028 0.213,0.012 0.306,-0.042 0.167,0.106 0.342,0.208 0.529,0.307 0.528,1.346 1.895,2.264 2.845,2.264 h 0.013 c 0.73,-0.005 1.416,-0.293 1.96,-0.817 0.777,0.105 1.562,0.157 2.333,0.157 4.704,0 8.425,-1.897 8.674,-4.367 0.062,-0.073 0.096,-0.165 0.096,-0.265 v -2.703 c 0.151,-1.204 -0.691,-2.44 -2.375,-3.483 -1.597,-0.991 -3.791,-1.716 -6.179,-2.042 -0.891,-0.122 -1.779,-0.185 -2.639,-0.185 -3.974,0 -6.823,1.303 -7.088,3.238 -0.014,0.109 -0.021,0.216 -0.018,0.322 -0.042,0.066 -0.066,0.141 -0.066,0.219 v 0.69 c -1.047,0.135 -1.708,1.776 -1.8,3.325 -0.088,1.434 0.58,3.564 1.822,3.639 z m 3.029,-1.112 c -10e-4,-0.067 0.001,-0.133 0.006,-0.2 0,-0.011 0.001,-0.025 0.002,-0.037 0.003,-0.062 0.009,-0.125 0.016,-0.188 0.003,-0.014 0.005,-0.025 0.005,-0.038 0.008,-0.061 0.02,-0.123 0.03,-0.183 10e-4,-0.003 10e-4,-0.008 0.002,-0.012 0.014,-0.063 0.029,-0.129 0.045,-0.192 0.002,-0.009 0.004,-0.019 0.007,-0.028 0.184,-0.685 0.581,-1.279 1.095,-1.616 l 0,0 c 0.051,-0.032 0.103,-0.064 0.156,-0.091 0.002,-0.001 0.005,-0.004 0.008,-0.005 0.053,-0.027 0.105,-0.052 0.16,-0.075 0,0 0.001,0 0.001,-10e-4 0.197,-0.079 0.403,-0.119 0.612,-0.122 h 0.015 c 0.959,0 1.856,0.857 2.172,1.946 0.002,0.007 0.003,0.013 0.005,0.02 0.008,0.028 0.015,0.056 0.022,0.084 0.005,0.015 0.009,0.032 0.013,0.047 0.004,0.021 0.009,0.043 0.012,0.064 0.006,0.023 0.011,0.044 0.015,0.068 0.003,0.015 0.005,0.033 0.008,0.051 0.005,0.025 0.011,0.053 0.014,0.08 0.002,0.014 0.003,0.03 0.005,0.047 0.003,0.026 0.006,0.055 0.01,0.082 0.002,0.021 0.003,0.041 0.005,0.062 0.001,0.021 0.003,0.045 0.004,0.068 0.002,0.042 0.004,0.087 0.004,0.131 0.001,0.044 0,0.087 -0.002,0.133 0,0.022 -0.002,0.043 -0.003,0.067 -0.001,0.019 -0.002,0.04 -0.003,0.061 -0.002,0.027 -0.005,0.057 -0.01,0.085 -0.001,0.015 -0.002,0.029 -0.003,0.043 -0.005,0.03 -0.008,0.061 -0.014,0.092 -0.002,0.013 -0.003,0.024 -0.004,0.034 -0.006,0.033 -0.013,0.064 -0.019,0.096 -0.002,0.008 -0.003,0.02 -0.005,0.029 -0.007,0.032 -0.015,0.062 -0.022,0.094 -0.002,0.012 -0.005,0.02 -0.008,0.03 -0.007,0.03 -0.016,0.059 -0.024,0.089 -0.003,0.011 -0.006,0.022 -0.01,0.034 -0.007,0.028 -0.018,0.053 -0.027,0.08 -0.005,0.015 -0.009,0.027 -0.014,0.042 -0.008,0.024 -0.018,0.047 -0.027,0.072 -0.006,0.017 -0.013,0.03 -0.019,0.046 -0.008,0.022 -0.018,0.042 -0.027,0.064 -0.007,0.017 -0.017,0.036 -0.025,0.054 -0.007,0.018 -0.017,0.033 -0.025,0.051 -0.009,0.021 -0.021,0.043 -0.031,0.063 -0.009,0.014 -0.016,0.027 -0.023,0.041 -0.014,0.024 -0.026,0.049 -0.042,0.073 -0.005,0.009 -0.012,0.018 -0.017,0.028 -0.018,0.027 -0.035,0.054 -0.052,0.082 -0.004,0.008 -0.007,0.013 -0.013,0.019 -0.019,0.03 -0.041,0.059 -0.062,0.088 -0.002,0.002 -0.004,0.005 -0.007,0.007 -0.024,0.034 -0.046,0.065 -0.073,0.094 0,0.001 -0.001,0.001 -0.001,0.002 -0.026,0.033 -0.053,0.065 -0.082,0.095 l 0,0 c -0.409,0.452 -0.945,0.703 -1.51,0.706 h -0.006 c -0.613,0 -1.738,-0.76 -2.113,-1.847 -0.001,-0.003 -0.002,-0.007 -0.003,-0.013 -0.057,-0.169 -0.094,-0.34 -0.112,-0.509 0,-0.01 -0.001,-0.018 -0.002,-0.025 -0.006,-0.055 -0.009,-0.108 -0.009,-0.162 l 0,0 z m 2.159,-3.45 -0.022,10e-4 c -0.258,0.001 -0.51,-0.122 -0.753,-0.042 -0.008,-0.005 -0.018,-0.009 -0.027,-0.012 l -0.057,-0.024 c -0.088,-0.038 -0.175,-0.076 -0.26,-0.115 l -0.053,-0.024 c -0.08,-0.036 -0.157,-0.073 -0.233,-0.111 -0.01,-0.003 -0.019,-0.009 -0.027,-0.013 -0.033,-0.016 -0.062,-0.032 -0.092,-0.046 -0.062,-0.032 -0.125,-0.062 -0.185,-0.096 l -0.025,-0.013 c -0.052,-0.027 -0.101,-0.053 -0.151,-0.083 -0.04,-0.022 -0.08,-0.045 -0.12,-0.065 l -0.002,-10e-4 c -0.046,-0.027 -0.092,-0.054 -0.138,-0.08 -0.043,-0.026 -0.087,-0.052 -0.129,-0.079 -0.062,-0.037 -0.124,-0.076 -0.184,-0.113 l -0.043,-0.028 c -0.069,-0.045 -0.136,-0.09 -0.201,-0.136 -0.001,-0.001 -0.002,-0.002 -0.003,-0.002 l -0.021,-0.017 c -0.577,-0.409 -1.01,-0.843 -1.279,-1.272 -0.003,-0.007 -0.008,-0.013 -0.011,-0.02 -0.02,-0.032 -0.039,-0.063 -0.057,-0.097 -0.005,-0.009 -0.011,-0.019 -0.015,-0.027 -0.018,-0.035 -0.035,-0.066 -0.05,-0.099 -0.01,-0.02 -0.019,-0.042 -0.028,-0.061 -0.004,-0.013 -0.01,-0.022 -0.014,-0.035 -0.033,-0.079 -0.06,-0.156 -0.081,-0.233 0,-0.001 0,-0.002 -0.002,-0.004 -0.052,-0.196 -0.066,-0.389 -0.041,-0.574 0.2,-1.46 2.836,-2.523 6.269,-2.523 0.822,0 1.673,0.06 2.527,0.178 2.278,0.31 4.356,0.994 5.855,1.925 1.382,0.856 2.106,1.837 1.989,2.693 -0.007,0.045 -0.015,0.089 -0.025,0.134 -0.002,0.009 -0.005,0.019 -0.007,0.026 -0.01,0.037 -0.02,0.072 -0.032,0.108 -0.001,0.004 -0.006,0.011 -0.007,0.016 -0.014,0.039 -0.03,0.078 -0.048,0.117 0,0 0,0.002 -0.001,0.002 -0.502,1.075 -2.387,1.869 -4.879,2.071 -0.133,0.011 -0.27,0.019 -0.405,0.026 -0.019,10e-4 -0.038,10e-4 -0.058,0.003 -0.475,0.023 -0.968,0.026 -1.464,0.006 -0.114,-0.003 -0.227,-0.01 -0.343,-0.014 l -0.046,-0.003 c -0.025,-10e-4 -0.049,-0.002 -0.074,-0.005 -0.129,-0.008 -0.258,-0.017 -0.389,-0.028 -0.005,0 -0.011,-0.002 -0.019,-0.002 l -0.081,-0.008 c -0.12,-0.01 -0.238,-0.021 -0.356,-0.035 l -0.119,-0.012 c 0,0 -0.002,0 -0.003,-0.001 -0.146,-0.015 -0.293,-0.034 -0.44,-0.055 -0.158,-0.02 -0.313,-0.043 -0.47,-0.069 -0.048,-0.009 -0.093,-0.017 -0.14,-0.024 -0.113,-0.019 -0.225,-0.038 -0.335,-0.059 -0.049,-0.01 -0.099,-0.02 -0.148,-0.028 m -8.632,0.056 c 0.086,-1.416 0.681,-2.558 1.115,-2.558 0.005,0 0.011,0 0.016,0 0.22,0.013 0.473,0.324 0.658,0.811 0.21,0.556 0.312,1.27 0.274,1.91 -0.09,1.489 -0.602,2.601 -1.001,2.601 -0.005,0 -0.009,0 -0.015,0 -0.5,-0.032 -1.125,-1.466 -1.047,-2.764 z"
           id="path155" />
      </g>
    </g>
  </g>
</svg>
