<?xml version="1.0" encoding="UTF-8" standalone="no"?>
<!-- Created with Inkscape (http://www.inkscape.org/) -->

<svg
   xmlns:dc="http://purl.org/dc/elements/1.1/"
   xmlns:cc="http://creativecommons.org/ns#"
   xmlns:rdf="http://www.w3.org/1999/02/22-rdf-syntax-ns#"
   xmlns:svg="http://www.w3.org/2000/svg"
   xmlns="http://www.w3.org/2000/svg"
   xmlns:sodipodi="http://sodipodi.sourceforge.net/DTD/sodipodi-0.dtd"
   xmlns:inkscape="http://www.inkscape.org/namespaces/inkscape"
   width="32px"
   height="32px"
   id="svg3166"
   version="1.1"
   inkscape:version="0.48.3.1 r9886"
   sodipodi:docname="pulpeira.svg">
  <defs
     id="defs3168" />
  <sodipodi:namedview
     id="base"
     pagecolor="#ffffff"
     bordercolor="#666666"
     borderopacity="1.0"
     inkscape:pageopacity="0.0"
     inkscape:pageshadow="2"
     inkscape:zoom="11.197802"
     inkscape:cx="16"
     inkscape:cy="16"
     inkscape:current-layer="layer1"
     showgrid="true"
     inkscape:grid-bbox="true"
     inkscape:document-units="px"
     inkscape:window-width="1871"
     inkscape:window-height="1056"
     inkscape:window-x="1729"
     inkscape:window-y="24"
     inkscape:window-maximized="1" />
  <metadata
     id="metadata3171">
    <rdf:RDF>
      <cc:Work
         rdf:about="">
        <dc:format>image/svg+xml</dc:format>
        <dc:type
           rdf:resource="http://purl.org/dc/dcmitype/StillImage" />
        <dc:title></dc:title>
      </cc:Work>
    </rdf:RDF>
  </metadata>
  <g
     id="layer1"
     inkscape:label="Layer 1"
     inkscape:groupmode="layer">
    <g
       id="g3300"
       transform="matrix(0.70207521,0,0,0.70207521,-193.88734,-167.42107)">
      <path
         id="path191"
         d="M 296.779,276.032"
         stroke-miterlimit="10"
         inkscape:connector-curvature="0"
         style="fill:#020202;stroke:#e63641;stroke-linecap:round;stroke-linejoin:round;stroke-miterlimit:10" />
      <path
         id="path193"
         d="m 300.277,279.303 c -0.115,-1.039 -0.172,-1.558 -0.201,-1.824 -0.047,-0.102 -0.061,-0.221 -0.029,-0.338 0.16,-0.612 0.1,-1.212 0.035,-1.849 -0.059,-0.585 -0.119,-1.191 -0.016,-1.846 0.355,-2.25 0.4,-4.024 0.156,-6.124 -0.162,-1.419 -0.975,-3.619 -1.691,-5.058 l -2.344,-4.725 c -0.037,-0.076 -0.049,-0.156 -0.045,-0.234 -0.842,-1.522 -1.592,-3.028 -1.76,-4.824 -0.105,-1.121 -0.652,-2.475 -0.098,-3.632 1.074,-2.234 0.523,-2.477 1.406,-3.424 1.312,-1.41 1.521,-3.26 1.529,-3.637 -0.074,-0.027 -1.027,0.741 -1.09,0.697 -0.441,0.258 -0.801,1.066 -0.943,1.247 0,-0.117 -0.412,-0.702 -0.781,-1.257 l -0.076,0.092 -0.426,-0.922 c 0,0 0,0 0,-0.001 -0.016,-0.032 -0.037,-0.07 -0.047,-0.097 -0.02,0.004 0.008,0.043 0.045,0.096 -0.188,-0.382 -0.98,0.235 -0.631,0.997 l -0.531,1.852 c 0.008,1.239 -1.17,2.482 -1.684,5.345 l -0.154,1.203 c -0.059,0.595 0.031,1.251 -0.07,1.97 -0.699,4.935 -2.623,9.9 -4.117,15.383 -0.699,2.569 -1.586,6.574 -0.152,9.491 0.812,1.65 3.004,4.774 4.656,5.812 1.102,0.689 2.961,0.264 4.943,-0.458 2.156,-0.784 3.568,-1.49 4.246,-2.738 -0.03,-0.317 -0.079,-0.749 -0.13,-1.197 z m -4.107,-2.854 0.174,-0.327 c 0.215,-0.39 0.418,-0.762 0.643,-1.13 0.143,-0.238 0.451,-0.311 0.686,-0.17 0.236,0.143 0.312,0.45 0.17,0.687 -0.215,0.356 -0.412,0.716 -0.609,1.076 l -0.092,0.168 c 0,0.001 -0.092,0.174 -0.092,0.175 -0.09,0.167 -0.262,0.261 -0.438,0.261 -0.082,0 -0.164,-0.02 -0.24,-0.061 -0.245,-0.133 -0.335,-0.437 -0.202,-0.679 z m 2.197,1.753 c -0.025,0.054 -0.057,0.098 -0.102,0.14 -0.236,0.222 -0.719,0.627 -1.023,0.735 -0.055,0.02 -0.111,0.029 -0.166,0.029 -0.207,0 -0.398,-0.128 -0.473,-0.333 -0.092,-0.259 0.043,-0.543 0.301,-0.637 0.076,-0.034 0.342,-0.216 0.625,-0.474 0.012,-0.02 0.021,-0.038 0.027,-0.046 0.162,-0.224 0.475,-0.273 0.697,-0.112 0.227,0.162 0.276,0.474 0.114,0.698 z m 0.326,-8.26 c -0.133,0.315 -0.205,0.505 -0.213,0.566 0.006,0.067 -0.002,0.097 -0.023,0.162 -0.025,0.08 -0.057,0.161 -0.088,0.236 l -0.064,0.175 c -0.074,0.198 -0.264,0.325 -0.469,0.325 -0.023,0 -0.051,-0.002 -0.074,-0.005 -0.234,-0.035 -0.412,-0.229 -0.426,-0.465 l -0.014,-0.306 c -0.006,-0.171 0.074,-0.327 0.201,-0.423 0.045,-0.158 0.123,-0.359 0.248,-0.653 0.105,-0.255 0.398,-0.374 0.654,-0.267 0.255,0.108 0.374,0.401 0.268,0.655 z"
         inkscape:connector-curvature="0"
         style="fill:#020202" />
      <path
         id="path195"
         d="m 309.939,259.765 c 0.191,0.155 0.371,0.322 0.535,0.503 -2.459,-2.47 -2.459,-4.883 -4.234,-7.297 -3.547,-4.827 0.889,-9.654 1.426,-14.505 -0.303,0.411 -2.652,1.747 -2.832,2.247 0.406,-0.417 -0.365,-1.417 -0.365,-2.222 -1.773,2.414 -1.773,4.827 -2.988,7.042 l -0.775,5.642 -2.527,8.125 1.25,2.519 c 0.756,1.516 1.615,3.854 1.791,5.388 0.254,2.196 0.207,4.048 -0.162,6.395 -0.084,0.528 -0.033,1.044 0.021,1.591 0.064,0.648 0.133,1.316 -0.023,2.039 0.02,0.159 0.121,1.085 0.219,1.961 0.01,0.089 0.02,0.156 0.027,0.236 l 0.031,0.107 c 1.996,1.062 5.982,-0.267 7.746,-1.275 1.877,-1.076 2.312,-2.233 2.451,-4.176 0.249,-3.49 1.831,-11.352 -1.591,-14.32 z m 0.069,5.174 c -0.016,0.167 -0.293,3.187 -0.533,5.797 -0.391,4.271 -0.391,4.271 -0.848,4.271 -0.143,0 -0.275,-0.061 -0.371,-0.165 -0.084,-0.092 -0.129,-0.212 -0.129,-0.336 0,-0.016 0,-0.033 0.002,-0.049 0.006,-0.059 0.168,-1.816 0.35,-3.812 0.576,-6.263 0.576,-6.263 1.033,-6.263 0.275,0 0.5,0.224 0.5,0.5 0,0.019 -0.002,0.038 -0.004,0.057 z"
         inkscape:connector-curvature="0"
         style="fill:#020202" />
    </g>
  </g>
</svg>
