<?xml version="1.0" encoding="UTF-8" standalone="no"?>
<!-- Created with Inkscape (http://www.inkscape.org/) -->

<svg
   xmlns:dc="http://purl.org/dc/elements/1.1/"
   xmlns:cc="http://creativecommons.org/ns#"
   xmlns:rdf="http://www.w3.org/1999/02/22-rdf-syntax-ns#"
   xmlns:svg="http://www.w3.org/2000/svg"
   xmlns="http://www.w3.org/2000/svg"
   xmlns:sodipodi="http://sodipodi.sourceforge.net/DTD/sodipodi-0.dtd"
   xmlns:inkscape="http://www.inkscape.org/namespaces/inkscape"
   width="50"
   height="50"
   id="svg3235"
   version="1.1"
   inkscape:version="0.48.3.1 r9886"
   sodipodi:docname="meson.svg">
  <defs
     id="defs3237" />
  <sodipodi:namedview
     id="base"
     pagecolor="#ffffff"
     bordercolor="#666666"
     borderopacity="1.0"
     inkscape:pageopacity="0.0"
     inkscape:pageshadow="2"
     inkscape:zoom="0.98994949"
     inkscape:cx="13.371408"
     inkscape:cy="22.51252"
     inkscape:document-units="px"
     inkscape:current-layer="layer1"
     showgrid="false"
     inkscape:window-width="1871"
     inkscape:window-height="1056"
     inkscape:window-x="1729"
     inkscape:window-y="24"
     inkscape:window-maximized="1" />
  <metadata
     id="metadata3240">
    <rdf:RDF>
      <cc:Work
         rdf:about="">
        <dc:format>image/svg+xml</dc:format>
        <dc:type
           rdf:resource="http://purl.org/dc/dcmitype/StillImage" />
        <dc:title></dc:title>
      </cc:Work>
    </rdf:RDF>
  </metadata>
  <g
     inkscape:label="Layer 1"
     inkscape:groupmode="layer"
     id="layer1"
     transform="translate(0,-1002.3622)">
    <g
       transform="translate(-170.11878,765.39473)"
       id="g187"
       inkscape:export-filename="/home/proxectos/geozzy/distModules/rextEatAndDrink/classes/view/categoryIcon/xamoneria.svg.png"
       inkscape:export-xdpi="90"
       inkscape:export-ydpi="90">
      <path
         style="fill:#333333"
         inkscape:connector-curvature="0"
         d="m 195.333,260.245 0.797,0.138 c 0.169,0.069 0.34,0.13 0.51,0.193 0.254,0.093 0.502,0.185 0.729,0.288 0.147,0.067 0.291,0.148 0.432,0.229 0.287,0.162 0.558,0.316 0.858,0.348 0.261,0.009 0.502,-0.118 0.72,-0.285 -0.063,-0.029 -0.125,-0.06 -0.188,-0.09 -0.272,-0.142 -0.537,-0.331 -0.783,-0.562 l -0.105,-0.1 c -0.245,-0.233 -0.456,-0.434 -0.748,-0.474 -0.159,-0.021 -0.338,0.034 -0.527,0.093 -0.072,0.024 -0.144,0.046 -0.214,0.063 -0.201,0.053 -0.414,0.061 -0.648,0.026 -0.175,-0.026 -0.33,-0.09 -0.476,-0.163 -0.103,0.049 -0.234,0.028 -0.312,0.018 -0.016,-0.002 -0.038,-0.007 -0.063,-0.013 0.045,0.033 0.092,0.066 0.142,0.097 l -0.124,0.194 z"
         id="path189" />
      <path
         style="fill:#333333"
         inkscape:connector-curvature="0"
         d="m 198.708,262.368 c -0.158,-0.01 -0.353,-0.023 -0.631,-0.204 -0.089,-0.029 -0.275,-0.121 -0.512,-0.243 0.542,0.468 1.325,0.909 1.744,1.145 l 0.312,0.178 c 0.081,0.046 0.162,0.093 0.243,0.139 l -0.111,-0.135 c -0.037,-0.048 -0.077,-0.099 -0.12,-0.146 -0.093,-0.048 -0.204,-0.175 -0.471,-0.526 l -0.454,-0.208 z"
         id="path191" />
      <path
         style="fill:#333333"
         inkscape:connector-curvature="0"
         d="m 200.303,262.35 0.045,0.039 0.082,0.211 c 0.332,0.306 0.778,0.516 1.21,0.717 0.17,0.081 0.338,0.16 0.498,0.242 0.641,0.333 1.232,0.78 1.804,1.21 0.207,0.156 0.413,0.312 0.621,0.461 0.188,0.134 0.372,0.271 0.557,0.409 0.203,0.151 0.407,0.303 0.612,0.449 0.086,0.061 0.175,0.137 0.264,0.211 0.08,0.068 0.197,0.168 0.284,0.222 0.006,-0.046 0.011,-0.099 0.019,-0.154 0.035,-0.304 0.064,-0.52 0.115,-0.663 -0.388,-0.507 -0.872,-0.999 -1.475,-1.498 -0.516,-0.424 -1.097,-0.828 -1.889,-1.311 l -0.344,-0.212 c -0.485,-0.303 -0.988,-0.615 -1.503,-0.833 -0.191,-0.08 -0.387,-0.152 -0.584,-0.222 -0.056,0.033 -0.118,0.064 -0.181,0.096 -0.15,0.074 -0.279,0.137 -0.333,0.241 -0.031,0.063 -0.023,0.148 0.026,0.253 0.06,0.041 0.118,0.086 0.172,0.132 z"
         id="path193" />
      <path
         style="fill:#333333"
         inkscape:connector-curvature="0"
         d="m 205.422,266.721 c -0.31,-0.125 -0.578,-0.327 -0.811,-0.51 -0.317,-0.251 -0.66,-0.492 -0.993,-0.723 -0.166,-0.115 -0.333,-0.233 -0.497,-0.352 -0.125,-0.089 -0.249,-0.182 -0.372,-0.273 l -0.156,-0.115 c 0.006,0.021 0.012,0.042 0.016,0.057 0.085,0.313 0.253,0.614 0.416,0.907 l 0.026,0.047 c 0.173,0.313 0.359,0.618 0.545,0.922 l 0.079,0.129 c 0.027,0.046 0.058,0.091 0.088,0.139 0.082,0.125 0.174,0.265 0.234,0.415 0.253,0.104 1.226,0.287 1.512,0.237 0.038,-0.123 0.015,-0.484 -0.054,-0.823 -0.012,-0.02 -0.024,-0.04 -0.033,-0.057 z"
         id="path195" />
      <path
         style="fill:#333333"
         inkscape:connector-curvature="0"
         d="m 214.173,273.65 h -7.696 c 0.966,-0.637 1.736,-1.673 2.196,-3.235 0.743,-2.528 0.815,-3.972 -1.517,-5.335 -0.023,-0.014 -0.045,-0.026 -0.067,-0.041 0.016,0.017 0.032,0.03 0.049,0.048 -0.838,-0.833 -2.013,-1.089 -2.921,-1.843 -1.589,-1.32 -2.996,-2.246 -4.826,-3.151 -1.225,-0.607 -3.02,-1.334 -4.354,-1.072 0.216,-0.045 0.441,-0.066 0.672,-0.082 -2.074,-0.556 -4.282,-0.732 -6.385,-1.022 -1.989,-0.275 -3.889,-0.491 -5.688,-1.421 -0.931,-0.48 -2.28,-0.812 -2.899,-1.712 -1.197,-1.745 -1.671,-1.528 -1.958,-2.527 -0.425,-1.489 -1.596,-1.586 -1.889,-1.774 -0.059,0.032 -0.122,0.055 -0.187,0.07 -0.027,0.396 0.421,1.01 0.488,1.184 -0.153,-0.093 -0.844,-0.277 -1.312,-0.403 -0.031,0.06 -0.07,0.116 -0.118,0.166 0.27,0.565 0.571,1.98 0.761,2.097 0.976,0.6 1.341,1.925 3.322,3.633 l -0.34,-0.001 v 16.423 h -4.479 l 0.006,1.169 h 39.146 l -0.004,-1.171 z m -18.939,-14.322 c 1.77,-0.311 3.558,1.019 5.074,1.699 1.275,0.571 2.109,1.15 3.204,2.061 0.804,0.667 1.898,0.793 2.65,1.519 0.751,0.723 0.688,1.254 0.814,2.22 0.245,1.878 -4.209,1.569 -4.578,1.269 -0.712,-0.575 -1.409,-0.981 -2.197,-1.44 -1.505,-0.875 -2.277,-2.044 -3.487,-3.188 -0.348,-0.328 -0.838,-0.719 -1.286,-1.14 0.142,0.09 0.286,0.177 0.437,0.267 0.171,0.1 0.342,0.204 0.509,0.311 0.423,0.273 0.789,0.606 1.144,0.929 0.128,0.115 0.256,0.232 0.386,0.344 0.917,0.799 1.931,1.614 3.135,2.167 l 0.174,0.083 c 0.345,0.167 1.077,0.507 1.389,0.413 -0.006,-0.007 -0.011,-0.016 -0.016,-0.025 l -0.03,-0.049 c -0.237,-0.393 -0.484,-0.797 -0.702,-1.215 l -0.021,-0.042 c -0.108,-0.206 -0.229,-0.437 -0.293,-0.679 -0.346,-0.011 -0.693,-0.133 -1.023,-0.258 -0.53,-0.205 -1.026,-0.489 -1.506,-0.765 l -0.239,-0.137 c -0.407,-0.231 -0.827,-0.47 -1.21,-0.785 l -2.584,-2.131 c -0.247,-0.136 -0.456,-0.287 -0.639,-0.453 0.082,-0.34 0.347,-0.67 0.895,-0.975 z m -13.021,-0.413 c 4.249,2.542 6.407,6.427 9.933,10.012 1.67,1.697 4.542,3.685 7.454,4.76 l -18.896,0.103 v -15.878 c 0.439,0.324 0.933,0.658 1.509,1.003 z"
         id="path197" />
    </g>
  </g>
</svg>
