<?xml version="1.0" encoding="UTF-8" standalone="no"?>
<svg
   xmlns:dc="http://purl.org/dc/elements/1.1/"
   xmlns:cc="http://creativecommons.org/ns#"
   xmlns:rdf="http://www.w3.org/1999/02/22-rdf-syntax-ns#"
   xmlns:svg="http://www.w3.org/2000/svg"
   xmlns="http://www.w3.org/2000/svg"
   xmlns:sodipodi="http://sodipodi.sourceforge.net/DTD/sodipodi-0.dtd"
   xmlns:inkscape="http://www.inkscape.org/namespaces/inkscape"
   width="400.10001"
   height="500"
   viewBox="0 0 1333.6667 1666.6693"
   version="1.2"
   id="svg3336"
   inkscape:version="0.48.4 r9939"
   sodipodi:docname="aMariñaLucense.svg">
  <metadata
     id="metadata3436">
    <rdf:RDF>
      <cc:Work
         rdf:about="">
        <dc:format>image/svg+xml</dc:format>
        <dc:type
           rdf:resource="http://purl.org/dc/dcmitype/StillImage" />
        <dc:title>BISBARRAS</dc:title>
      </cc:Work>
    </rdf:RDF>
  </metadata>
  <sodipodi:namedview
     pagecolor="#ffffff"
     bordercolor="#666666"
     borderopacity="1"
     objecttolerance="10"
     gridtolerance="10"
     guidetolerance="10"
     inkscape:pageopacity="0.01960784"
     inkscape:pageshadow="2"
     inkscape:window-width="1873"
     inkscape:window-height="1056"
     id="namedview3434"
     showgrid="false"
     inkscape:zoom="1.543472"
     inkscape:cx="227.35113"
     inkscape:cy="264.8299"
     inkscape:window-x="47"
     inkscape:window-y="24"
     inkscape:window-maximized="1"
     inkscape:current-layer="svg3336" />
  <title
     id="title3338">BISBARRAS</title>
  <desc
     id="desc3340">Generated with Qt</desc>
  <defs
     id="defs3342" />
  <g
     style="font-size:32.5px;font-style:normal;font-weight:400;fill:none;stroke:#000000;stroke-width:1;stroke-linecap:square;stroke-linejoin:bevel;stroke-opacity:1;font-family:MS Shell Dlg 2"
     id="g3346"
     font-style="normal"
     font-weight="400"
     font-size="32.5"
     transform="translate(271.82266,-1121.8036)" />
  <g
     style="font-size:32.5px;font-style:normal;font-weight:400;fill:none;stroke:#000000;stroke-width:1;stroke-linecap:square;stroke-linejoin:bevel;stroke-opacity:1;font-family:MS Shell Dlg 2"
     id="g3348"
     font-style="normal"
     font-weight="400"
     font-size="32.5"
     transform="matrix(11.8081,0,0,11.8081,271.82266,-1121.8036)" />
  <g
     style="font-size:32.5px;font-style:normal;font-weight:400;fill:#ffffff;fill-opacity:1;fill-rule:evenodd;stroke:none;font-family:MS Shell Dlg 2"
     id="g3350"
     font-style="normal"
     font-weight="400"
     font-size="32.5"
     transform="matrix(0.999751,0,0,0.999751,271.82266,-1121.8036)" />
  <g
     style="font-size:32.5px;font-style:normal;font-weight:400;fill:none;stroke:#000000;stroke-width:1;stroke-linecap:square;stroke-linejoin:bevel;stroke-opacity:1;font-family:MS Shell Dlg 2"
     id="g3354"
     font-style="normal"
     font-weight="400"
     font-size="32.5"
     transform="matrix(11.8081,0,0,11.8081,271.82266,-1121.8036)" />
  <g
     style="font-size:32.5px;font-style:normal;font-weight:400;fill:none;stroke:#000000;stroke-width:1;stroke-linecap:square;stroke-linejoin:bevel;stroke-opacity:1;font-family:MS Shell Dlg 2"
     id="g3356"
     font-style="normal"
     font-weight="400"
     font-size="32.5"
     transform="matrix(11.8081,0,0,11.8081,271.82266,-1121.8036)" />
  <g
     style="font-size:32.5px;font-style:normal;font-weight:400;fill:none;stroke:#000000;stroke-width:1;stroke-linecap:square;stroke-linejoin:bevel;stroke-opacity:1;font-family:MS Shell Dlg 2"
     id="g3358"
     font-style="normal"
     font-weight="400"
     font-size="32.5"
     transform="matrix(11.8081,0,0,11.8081,306.93866,-1058.8735)" />
  <g
     style="font-size:32.5px;font-style:normal;font-weight:400;fill:none;stroke:#000000;stroke-width:1;stroke-linecap:square;stroke-linejoin:bevel;stroke-opacity:1;font-family:MS Shell Dlg 2"
     id="g3360"
     font-style="normal"
     font-weight="400"
     font-size="32.5"
     transform="matrix(11.8081,0,0,11.8081,306.93866,-1058.8735)" />
  <g
     style="font-size:32.5px;font-style:normal;font-weight:400;fill:#ffffff;fill-opacity:1;fill-rule:evenodd;stroke:none;font-family:MS Shell Dlg 2"
     id="g3362"
     font-style="normal"
     font-weight="400"
     font-size="32.5"
     transform="matrix(11.8081,0,0,11.8081,306.93866,-1058.8735)" />
  <g
     style="font-size:32.5px;font-style:normal;font-weight:400;fill:none;stroke:#000000;stroke-width:1;stroke-linecap:square;stroke-linejoin:bevel;stroke-opacity:1;font-family:MS Shell Dlg 2"
     id="g3366"
     font-style="normal"
     font-weight="400"
     font-size="32.5"
     transform="matrix(11.8081,0,0,11.8081,306.93866,-1058.8735)" />
  <g
     style="font-size:32.5px;font-style:normal;font-weight:400;fill:#000000;fill-opacity:0;fill-rule:evenodd;stroke:none;font-family:MS Shell Dlg 2"
     id="g3368"
     font-style="normal"
     font-weight="400"
     font-size="32.5"
     transform="matrix(0.999751,0,0,0.999751,306.93866,-1058.8735)">
    <path
       style="fill-rule:evenodd"
       inkscape:connector-curvature="0"
       id="path3370"
       d="m 0,0 3438,0 0,2354 L 0,2354 0,0"
       vector-effect="non-scaling-stroke" />
  </g>
  <path
     vector-effect="none"
     d="m 1114.601,466.73946 -0.1485,7.69007 -1.6472,3.54675 0.837,2.34942 -1.5256,0.0959 -0.8776,7.58253 2.9366,11.86357 8.6948,11.75395 5.7919,2.03433 6.528,9.63743 1.4513,-1.05484 -0.034,-4.63035 3.4495,-0.54796 3.7805,10.09634 4.0368,-0.90415 2.9703,4.21252 7.1285,-1.35623 2.8422,10.80871 -4.2529,5.56875 -3.1188,8.00722 3.3887,10.99364 5.5625,2.49326 1.924,6.58934 7.3447,2.36311 1.3569,-0.7192 0.6141,-4.15772 3.5847,-2.26038 4.7187,1.21238 8.0332,-9.11685 7.7835,-1.10278 1.5122,-2.39737 -1.9172,-4.04814 4.3136,-5.16461 1.0869,-7.82912 2.9771,-2.03433 -1.6068,6.56879 4.5904,-1.54803 2.7476,6.46605 7.7699,3.78785 1.1341,5.85642 7.0612,9.11 -1.4515,1.86996 -1.3568,11.08268 -13.0152,9.46618 -4.4757,4.79475 -2.8353,6.3907 -10.5242,-0.37674 -10.038,11.8567 -3.6118,-5.43859 -5.0358,0.13014 -2.0792,-3.13713 -1.053,4.20567 -5.0496,2.45902 0.6345,5.1646 -3.3819,0.15755 0.7829,2.81519 -4.8739,1.54803 -0.9519,2.55491 3.038,3.30838 -1.3097,1.35621 0.1012,9.88402 -2.0927,-0.29455 -1.5458,3.06864 -4.3878,-7.09621 -2.1401,7.58939 -2.1805,-0.82197 -2.6462,2.04123 -0.1215,5.30155 5.3329,3.26728 0.8911,6.6921 2.3628,0.0273 1.6741,4.97284 6.1026,3.5892 -1.0261,-2.98642 3.7602,-0.51371 -2.7881,-2.85633 1.188,-9.5141 -2.0319,-2.60974 1.6202,-1.81513 -1.8834,-2.81521 3.031,-1.64391 0.3848,-4.94543 4.901,2.78779 2.7542,13.58965 3.7397,1.64391 0.7899,2.73299 4.1044,2.07548 5.4477,7.24686 7.6958,1.45213 6.1093,-2.24669 7.5809,5.08246 13.103,16.57612 0.6817,10.80865 -3.3685,8.22639 2.8284,7.63055 5.3939,0.82879 -11.0643,0.47261 1.8699,5.21256 5.0495,5.39748 2.4775,5.93867 0.81,7.52084 5.1778,3.9317 -2.2952,2.26724 -7.2367,-4.07552 -2.3492,-2.87001 3.1256,-2.55492 -17.4504,5.28791 8.4383,22.58322 2.2883,3.42485 3.1864,0.67808 -1.2961,2.69874 1.7753,3.07549 -5.1709,2.96587 -1.35,5.22628 -5.8799,4.28105 -1.0531,2.02744 2.2075,2.15084 0.2362,2.94532 -1.593,3.65772 -10.8483,6.34961 -2.8488,3.46589 0.324,4.35634 -18.3009,15.56924 -5.2453,-0.41786 -2.9903,-6.91814 -2.8624,-1.76032 -3.8816,4.83582 0.5265,5.63727 -2.8352,0.51372 1.7484,5.33581 -1.7821,2.95224 -5.0428,4.05496 -3.004,-5.08246 -9.613,1.89049 -4.9954,5.98663 0.7899,2.61653 -3.6116,-0.75344 -4.0571,7.1373 -4.0638,3.55495 5.1034,6.68525 1.1071,5.61665 7.5809,7.04831 -0.8707,2.21928 2.2074,2.13708 -4.1112,3.75357 5.3263,1.35621 2.6259,4.45227 -4.0571,0.6713 -2.2008,-2.17131 -13.5552,8.02769 0.7021,18.26797 -2.1736,4.39751 2.6935,5.01395 4.4486,1.36301 0.324,2.05488 -6.3456,7.22647 -3.2334,0.7877 -0.5671,7.5963 -3.1796,4.5138 -3.4023,-4.2878 1.7889,-10.2539 -3.3145,-4.20578 0.7089,-5.05498 -6.6831,-2.13031 -3.3012,-7.55511 -2.9094,-0.44525 -4.0706,2.78788 -3.2471,-0.17813 -2.0455,4.21256 -6.2713,1.76713 -5.1035,8.85659 -5.4208,-0.6644 -8.9445,2.7194 -3.0783,7.8223 -8.3167,2.7193 -6.197,8.4866 -8.4856,3.6646 -1.2218,4.8769 -9.7479,1.1027 -7.3919,4.0209 -12.2862,-6.4113 3.3213,-2.281 -2.1264,-5.9317 9.7952,-7.7881 -1.1139,-4.0001 3.4901,-1.6027 2.2817,-6.4251 -1.8969,-6.062 -5.9002,-6.30847 -0.9247,-5.38386 -4.7931,-3.04114 -2.2073,-4.64415 -6.8383,-4.15766 -15.16197,5.04814 -3.11199,-1.0343 -8.72864,-6.11672 0.99922,-2.15762 -1.97797,-3.1166 -2.18046,-10.49358 -9.02558,3.41794 -2.0251,5.04134 -6.71008,7.26741 -8.99862,-0.97262 -3.78711,-5.12349 4.05709,-6.39757 -2.88923,-6.78802 -4.67145,-5.00018 -14.59487,-6.30849 -13.04889,-9.7676 -1.16785,-10.40457 8.93111,-5.88386 5.96748,-0.53426 3.96931,0.83566 2.82857,4.87006 18.46294,4.98653 4.40147,-0.32872 5.65021,-5.42495 5.17774,-1.06169 3.63849,6.84276 5.50854,0.63705 -0.39833,-8.50038 -1.01259,-2.72615 -2.86891,-1.26037 1.52562,-11.27449 -0.89789,-4.71254 -3.32803,-1.04113 -1.97787,-6.52768 7.86436,-1.00002 3.44283,2.89736 8.03322,-9.4251 10.23397,-4.19877 0.44554,-2.50697 3.18618,0.93836 10.13944,-4.39061 9.694,0.95212 6.2847,-7.08248 8.4316,-2.91114 8.2762,-6.31535 -0.7561,-2.17132 5.2588,-10.17855 -1.3164,-4.87691 7.7159,-8.65112 -4.5431,-17.70623 -0.7493,-6.23319 1.3703,-7.93872 -4.1787,-4.73311 3.8885,-2.50011 -0.068,-1.77401 17.8149,-4.36321 5.9879,-10.5553 0.5535,-11.77449 2.4572,-9.45936 -3.6724,-5.04813 -10.2137,1.55484 0.2161,-3.30152 -1.8768,0.32194 -3.6992,-8.78121 -4.1787,2.18503 -4.2057,13.36359 -4.8536,2.15762 -6.494,-1.36993 -5.8529,-7.80168 -3.5103,-9.50731 -2.7879,-15.54177 -4.3947,-5.91125 -3.3483,-10.6991 -4.2866,-30.05618 6.6223,-15.22669 2.6395,-0.47264 6.143,-7.63734 0.014,-3.65084 3.0379,-4.6646 -3.2875,-7.16471 7.5876,-2.5138 5.279,-5.81534 -5.522,-15.37055 2.2817,-1.80146 -4.4218,-15.90484 5.036,1.23979 5.6098,-2.96588 0.4118,-9.33604 8.3437,-3.30152 4.3947,2.17818 0.095,-4.24677 -2.4167,0.8562 1.026,-8.34969 -1.6133,-4.46595 24.4169,-5.603 2.9028,0.79455 4.3338,5.16463 2.788,-3.48647 0.709,-5.22626 4.8604,-10.89776 0.054,-6.07836 4.0367,1.90077 6.0014,-1.42403 0.027,-1.82543 8.2493,-1.98912 2.167,-3.39674 2.9297,-0.7829 3.6453,1.01374 -2.1264,3.06452"
     id="path3386"
     inkscape:connector-curvature="0"
     style="font-size:medium;font-style:normal;font-weight:400;fill:#5ab780;fill-opacity:0.94117856;fill-rule:evenodd;stroke:#000000;stroke-width:2.08817314999999981;stroke-linecap:square;stroke-linejoin:bevel;stroke-opacity:1;font-family:MS Shell Dlg 2" />
  <g
     style="font-size:32.5px;font-style:normal;font-weight:400;fill:none;stroke:#000000;stroke-width:1;stroke-linecap:square;stroke-linejoin:bevel;stroke-opacity:1;font-family:MS Shell Dlg 2"
     id="g3412"
     font-style="normal"
     font-weight="400"
     font-size="32.5"
     transform="matrix(11.8081,0,0,11.8081,306.93866,-1058.8735)" />
  <g
     style="font-size:32.5px;font-style:normal;font-weight:400;fill:none;stroke:#000000;stroke-width:1;stroke-linecap:square;stroke-linejoin:bevel;stroke-opacity:1;font-family:MS Shell Dlg 2"
     id="g3414"
     font-style="normal"
     font-weight="400"
     font-size="32.5"
     transform="matrix(11.8081,0,0,11.8081,306.93866,-1058.8735)" />
  <g
     style="font-size:32.5px;font-style:normal;font-weight:400;fill:none;stroke:#000000;stroke-width:1;stroke-linecap:square;stroke-linejoin:bevel;stroke-opacity:1;font-family:MS Shell Dlg 2"
     id="g3416"
     font-style="normal"
     font-weight="400"
     font-size="32.5"
     transform="matrix(11.8081,0,0,11.8081,306.93866,-1058.8735)" />
  <g
     style="font-size:32.5px;font-style:normal;font-weight:400;fill:none;stroke:#000000;stroke-width:1;stroke-linecap:square;stroke-linejoin:bevel;stroke-opacity:1;font-family:MS Shell Dlg 2"
     id="g3418"
     font-style="normal"
     font-weight="400"
     font-size="32.5"
     transform="translate(271.82266,-1121.8036)" />
  <g
     style="font-size:32.5px;font-style:normal;font-weight:400;fill:none;stroke:#000000;stroke-width:1;stroke-linecap:square;stroke-linejoin:bevel;stroke-opacity:1;font-family:MS Shell Dlg 2"
     id="g3420"
     font-style="normal"
     font-weight="400"
     font-size="32.5"
     transform="matrix(11.8081,0,0,11.8081,306.93866,-1058.8735)" />
  <g
     style="font-size:32.5px;font-style:normal;font-weight:400;fill:none;stroke:#000000;stroke-width:1;stroke-linecap:square;stroke-linejoin:bevel;stroke-opacity:1;font-family:MS Shell Dlg 2"
     id="g3422"
     font-style="normal"
     font-weight="400"
     font-size="32.5"
     transform="matrix(11.8081,0,0,11.8081,306.93866,-1058.8735)" />
  <g
     style="font-size:32.5px;font-style:normal;font-weight:400;fill:none;stroke:#000000;stroke-width:1;stroke-linecap:square;stroke-linejoin:bevel;stroke-opacity:1;font-family:MS Shell Dlg 2"
     id="g3424"
     font-style="normal"
     font-weight="400"
     font-size="32.5"
     transform="matrix(11.8081,0,0,11.8081,306.93866,-1058.8735)" />
  <g
     style="font-size:32.5px;font-style:normal;font-weight:400;fill:none;stroke:#000000;stroke-width:1;stroke-linecap:square;stroke-linejoin:bevel;stroke-opacity:1;font-family:MS Shell Dlg 2"
     id="g3426"
     font-style="normal"
     font-weight="400"
     font-size="32.5"
     transform="matrix(11.8081,0,0,11.8081,306.93866,-1058.8735)" />
  <g
     style="font-size:32.5px;font-style:normal;font-weight:400;fill:none;stroke:#000000;stroke-width:1;stroke-linecap:square;stroke-linejoin:bevel;stroke-opacity:1;font-family:MS Shell Dlg 2"
     id="g3428"
     font-style="normal"
     font-weight="400"
     font-size="32.5"
     transform="matrix(11.8081,0,0,11.8081,271.82266,-1121.8036)" />
  <g
     style="font-size:32.5px;font-style:normal;font-weight:400;fill:none;stroke:#000000;stroke-width:1;stroke-linecap:square;stroke-linejoin:bevel;stroke-opacity:1;font-family:MS Shell Dlg 2"
     id="g3430"
     font-style="normal"
     font-weight="400"
     font-size="32.5"
     transform="matrix(11.8081,0,0,11.8081,271.82266,-1121.8036)" />
  <g
     style="font-size:32.5px;font-style:normal;font-weight:400;fill:none;stroke:#000000;stroke-width:1;stroke-linecap:square;stroke-linejoin:bevel;stroke-opacity:1;font-family:MS Shell Dlg 2"
     id="g3432"
     font-style="normal"
     font-weight="400"
     font-size="32.5"
     transform="translate(271.82266,-1121.8036)" />
</svg>
