<?xml version="1.0" encoding="UTF-8" standalone="no"?>
<svg
   xmlns:dc="http://purl.org/dc/elements/1.1/"
   xmlns:cc="http://creativecommons.org/ns#"
   xmlns:rdf="http://www.w3.org/1999/02/22-rdf-syntax-ns#"
   xmlns:svg="http://www.w3.org/2000/svg"
   xmlns="http://www.w3.org/2000/svg"
   xmlns:sodipodi="http://sodipodi.sourceforge.net/DTD/sodipodi-0.dtd"
   xmlns:inkscape="http://www.inkscape.org/namespaces/inkscape"
   width="400.10001"
   height="500"
   viewBox="0 0 1333.6667 1666.6693"
   version="1.2"
   id="svg3336"
   inkscape:version="0.48.4 r9939"
   sodipodi:docname="terrasDePontevedra.svg">
  <metadata
     id="metadata3436">
    <rdf:RDF>
      <cc:Work
         rdf:about="">
        <dc:format>image/svg+xml</dc:format>
        <dc:type
           rdf:resource="http://purl.org/dc/dcmitype/StillImage" />
        <dc:title>BISBARRAS</dc:title>
      </cc:Work>
    </rdf:RDF>
  </metadata>
  <sodipodi:namedview
     pagecolor="#ffffff"
     bordercolor="#666666"
     borderopacity="1"
     objecttolerance="10"
     gridtolerance="10"
     guidetolerance="10"
     inkscape:pageopacity="0.01960784"
     inkscape:pageshadow="2"
     inkscape:window-width="1873"
     inkscape:window-height="1056"
     id="namedview3434"
     showgrid="false"
     inkscape:zoom="1.543472"
     inkscape:cx="227.35113"
     inkscape:cy="264.8299"
     inkscape:window-x="47"
     inkscape:window-y="24"
     inkscape:window-maximized="1"
     inkscape:current-layer="svg3336" />
  <title
     id="title3338">BISBARRAS</title>
  <desc
     id="desc3340">Generated with Qt</desc>
  <defs
     id="defs3342" />
  <g
     style="font-size:32.5px;font-style:normal;font-weight:400;fill:none;stroke:#000000;stroke-width:1;stroke-linecap:square;stroke-linejoin:bevel;stroke-opacity:1;font-family:MS Shell Dlg 2"
     id="g3346"
     font-style="normal"
     font-weight="400"
     font-size="32.5"
     transform="translate(271.82266,-1121.8036)" />
  <g
     style="font-size:32.5px;font-style:normal;font-weight:400;fill:none;stroke:#000000;stroke-width:1;stroke-linecap:square;stroke-linejoin:bevel;stroke-opacity:1;font-family:MS Shell Dlg 2"
     id="g3348"
     font-style="normal"
     font-weight="400"
     font-size="32.5"
     transform="matrix(11.8081,0,0,11.8081,271.82266,-1121.8036)" />
  <g
     style="font-size:32.5px;font-style:normal;font-weight:400;fill:#ffffff;fill-opacity:1;fill-rule:evenodd;stroke:none;font-family:MS Shell Dlg 2"
     id="g3350"
     font-style="normal"
     font-weight="400"
     font-size="32.5"
     transform="matrix(0.999751,0,0,0.999751,271.82266,-1121.8036)" />
  <g
     style="font-size:32.5px;font-style:normal;font-weight:400;fill:none;stroke:#000000;stroke-width:1;stroke-linecap:square;stroke-linejoin:bevel;stroke-opacity:1;font-family:MS Shell Dlg 2"
     id="g3354"
     font-style="normal"
     font-weight="400"
     font-size="32.5"
     transform="matrix(11.8081,0,0,11.8081,271.82266,-1121.8036)" />
  <g
     style="font-size:32.5px;font-style:normal;font-weight:400;fill:none;stroke:#000000;stroke-width:1;stroke-linecap:square;stroke-linejoin:bevel;stroke-opacity:1;font-family:MS Shell Dlg 2"
     id="g3356"
     font-style="normal"
     font-weight="400"
     font-size="32.5"
     transform="matrix(11.8081,0,0,11.8081,271.82266,-1121.8036)" />
  <g
     style="font-size:32.5px;font-style:normal;font-weight:400;fill:none;stroke:#000000;stroke-width:1;stroke-linecap:square;stroke-linejoin:bevel;stroke-opacity:1;font-family:MS Shell Dlg 2"
     id="g3358"
     font-style="normal"
     font-weight="400"
     font-size="32.5"
     transform="matrix(11.8081,0,0,11.8081,306.93866,-1058.8735)" />
  <g
     style="font-size:32.5px;font-style:normal;font-weight:400;fill:none;stroke:#000000;stroke-width:1;stroke-linecap:square;stroke-linejoin:bevel;stroke-opacity:1;font-family:MS Shell Dlg 2"
     id="g3360"
     font-style="normal"
     font-weight="400"
     font-size="32.5"
     transform="matrix(11.8081,0,0,11.8081,306.93866,-1058.8735)" />
  <g
     style="font-size:32.5px;font-style:normal;font-weight:400;fill:#ffffff;fill-opacity:1;fill-rule:evenodd;stroke:none;font-family:MS Shell Dlg 2"
     id="g3362"
     font-style="normal"
     font-weight="400"
     font-size="32.5"
     transform="matrix(11.8081,0,0,11.8081,306.93866,-1058.8735)" />
  <g
     style="font-size:32.5px;font-style:normal;font-weight:400;fill:none;stroke:#000000;stroke-width:1;stroke-linecap:square;stroke-linejoin:bevel;stroke-opacity:1;font-family:MS Shell Dlg 2"
     id="g3366"
     font-style="normal"
     font-weight="400"
     font-size="32.5"
     transform="matrix(11.8081,0,0,11.8081,306.93866,-1058.8735)" />
  <g
     style="font-size:32.5px;font-style:normal;font-weight:400;fill:#000000;fill-opacity:0;fill-rule:evenodd;stroke:none;font-family:MS Shell Dlg 2"
     id="g3368"
     font-style="normal"
     font-weight="400"
     font-size="32.5"
     transform="matrix(0.999751,0,0,0.999751,306.93866,-1058.8735)">
    <path
       style="fill-rule:evenodd"
       inkscape:connector-curvature="0"
       id="path3370"
       d="m 0,0 3438,0 0,2354 L 0,2354 0,0"
       vector-effect="non-scaling-stroke" />
  </g>
  <path
     vector-effect="none"
     d="m 357.33322,821.14933 16.2346,12.50061 -3.18898,2.63022 0.12894,3.44539 -2.73197,-0.95212 -0.19982,3.22622 7.92725,-1.22611 1.88405,-5.54821 12.53595,9.56205 3.29903,-2.97956 1.36094,2.78095 4.41959,0.22602 -0.05,3.4865 4.99615,5.25368 -3.62917,14.39787 -5.59082,5.9934 -5.29583,0.0206 -5.83999,5.17838 -13.10093,-0.38361 -7.13811,12.15809 -11.68129,9.84975 -8.29509,33.33024 17.2255,10.4525 -6.39757,15.0145 5.03594,3.1371 8.04817,-3.6646 1.36905,7.603 -7.93406,6.8976 1.75917,3.0139 -3.38405,8.4046 1.57085,6.4728 -2.94119,3.5549 -3.55089,-1.3836 -4.21504,9.26751 -7.17591,6.4661 -5.03792,11.8636 -6.10531,-0.6302 -4.10302,12.6513 -0.0965,14.1993 -5.80419,2.178 -1.53442,4.0003 -3.47665,-4.829 -15.37788,-3.3152 -1.44597,2.9384 -2.49366,-0.7877 1.40755,2.0413 -3.08101,4.7057 -3.01759,-1.3084 -2.97424,2.8768 -4.49658,-8.0551 -4.07065,-0.021 -2.85419,-8.7605 -7.67746,-2.2743 1.37846,-4.0548 -2.03053,-2.0139 2.74475,0.1714 -1.0106,-4.2263 3.15126,-3.466 -6.29768,-13.6306 -12.58249,-3.3905 -6.56762,7.2605 -8.38629,-8.0621 3.7952,-3.7947 -0.78644,-6.78791 12.42314,3.1303 6.9342,-3.2604 1.64446,-3.781 1.30758,3.1575 3.03036,-4.3425 -1.03621,-2.9248 -2.74007,2.5275 0.22545,-3.9181 9.26859,-4.3904 -1.13075,4.007 2.54771,-2.3153 4.50667,0.5206 -2.00825,0.3631 2.45249,1.0411 -1.53986,8.1442 2.16492,6.8976 -7.60116,6.66471 1.56886,8.8428 4.90224,-1.8424 1.66812,-4.014 2.32018,1.2604 1.01191,-3.4249 1.3164,3.4797 2.39174,-3.7536 1.46891,3.459 1.98203,-2.3905 5.68671,4.918 -0.48204,-10.0826 -5.79607,-1.6714 3.15998,-2.76041 -2.01102,-6.6714 2.85824,-6.973 2.82441,3.9933 6.95859,-6.6989 -2.16828,-1.4384 -1.96918,3.007 -2.65705,-2.9316 1.03486,-2.5961 -2.59491,-0.6027 0.81071,-3.5619 1.68693,1.959 -1.76997,-2.774 2.17917,-0.8288 1.19211,-9.6854 -6.92207,6.74 0.54479,2.1233 -1.33669,-1.9795 1.59252,-4.4864 -1.25159,-7.9661 0.87087,0.3013 0.7925,-0.2056 -3.95861,-7.1714 -2.56851,-0.4795 2.50239,-6.3291 4.03759,2.2878 0.42862,3.4248 2.61925,-4.8495 -6.61757,-2.5823 1.50127,-0.5549 -0.54142,-6.8771 2.91695,-3.1918 7.26436,2.5481 3.25985,-4.29476 2.99661,2.03436 -1.56144,-2.91803 5.04077,-2.8083 1.22379,-7.0825 2.17778,3.47964 4.10508,0.44516 2.02251,-4.39742 -1.77005,-1.06168 2.35048,-0.12331 -5.88247,-7.67158 11.25001,-17.34326 5.9932,-4.51387 1.50397,-8.12369 4.53032,-3.64394 2.28645,-7.41815 -2.04814,-3.45225 1.28472,-2.57547 -2.8245,-0.15752 2.01509,6.69896 -1.26713,2.62337 -5.02385,5.56191 -1.84013,-0.98632 -1.068,10.26755 -5.31611,1.74668 -5.32489,-3.48644 -3.99772,7.00712 -7.7679,3.66457 -14.21883,-6.25375 6.08703,-12.68544 -7.48369,-0.3562 -5.45998,-12.56905 -1.81925,-0.62332 2.24854,16.75416 -5.61912,-2.84262 0.43534,3.97283 -4.37367,8.41815 10.68752,7.59628 -1.13471,3.80154 -5.57935,-1.459 -3.08715,2.48641 -1.53571,7.21268 2.34108,2.8425 0.27818,2.82207 -5.08532,-0.87672 -1.05168,2.2878 -0.29433,-3.88376 -6.02361,-2.96589 -2.10549,2.80839 -1.54993,-1.84266 2.25669,-1.50684 -0.87416,-3.22614 6.59533,-7.45925 -5.50239,-4.60978 -7.07331,-0.37675 1.10778,-1.81512 0.90589,0.66436 0.57855,-0.42465 0.74996,-1.14388 -3.69661,0.78085 -0.68245,7.01397 -13.29872,11.46628 0.698,6.04827 -1.79294,-3.72626 -1.64446,1.75355 2.73064,7.06189 5.26611,1.73987 0.15935,4.67139 -5.54971,0.27405 0.37873,1.13019 -1.85911,2.45217 -0.28149,-2.1782 -8.51729,-0.0551 -3.96799,10.1786 -13.08946,3.1302 3.50694,12.528 -5.85211,9.3086 -6.77154,2.7604 1.99751,7.3908 -3.4347,-6.0276 -4.14016,3.952 -5.22228,-2.7055 -0.84788,1.5001 -3.51235,0.7672 0.81481,-11.9458 4.86448,-4.4797 0.40032,-3.8563 -9.09239,-15.4663 -8.57937,-1.5686 -3.73917,3.1918 1.0099,2.9248 -8.11221,-5.2194 0.0256,-2.3357 4.44528,-0.028 2.414,-3.94547 -2.35594,-6.43177 1.583,-2.68509 6.10526,-0.71913 4.80576,3.20558 5.06499,-6.82221 5.8798,-0.65073 -0.0459,-2.89057 2.21016,2.3015 7.73756,-2.28773 3.54069,-6.58935 -4.13678,-2.3152 14.42877,-8.71271 0.98627,2.07541 3.25717,-13.41841 3.08432,-0.67128 3.13638,-24.8778 5.09804,-6.67841 7.01794,1.39048 4.55057,-6.87702 -1.07402,-4.3632 12.785,-3.7331 7.27242,2.80837 3.54683,-3.38366 23.47126,10.24699 5.75619,-3.72616 3.55011,0.9315 12.14108,-18.47339 19.50246,7.29483 13.09885,-12.71978 5.70561,1.91104"
     id="path3380"
     inkscape:connector-curvature="0"
     style="font-size:medium;font-style:normal;font-weight:400;fill:#5ab780;fill-opacity:0.94117856;fill-rule:evenodd;stroke:#000000;stroke-width:2.08817314999999981;stroke-linecap:square;stroke-linejoin:bevel;stroke-opacity:1;font-family:MS Shell Dlg 2" />
  <g
     style="font-size:32.5px;font-style:normal;font-weight:400;fill:none;stroke:#000000;stroke-width:1;stroke-linecap:square;stroke-linejoin:bevel;stroke-opacity:1;font-family:MS Shell Dlg 2"
     id="g3412"
     font-style="normal"
     font-weight="400"
     font-size="32.5"
     transform="matrix(11.8081,0,0,11.8081,306.93866,-1058.8735)" />
  <g
     style="font-size:32.5px;font-style:normal;font-weight:400;fill:none;stroke:#000000;stroke-width:1;stroke-linecap:square;stroke-linejoin:bevel;stroke-opacity:1;font-family:MS Shell Dlg 2"
     id="g3414"
     font-style="normal"
     font-weight="400"
     font-size="32.5"
     transform="matrix(11.8081,0,0,11.8081,306.93866,-1058.8735)" />
  <g
     style="font-size:32.5px;font-style:normal;font-weight:400;fill:none;stroke:#000000;stroke-width:1;stroke-linecap:square;stroke-linejoin:bevel;stroke-opacity:1;font-family:MS Shell Dlg 2"
     id="g3416"
     font-style="normal"
     font-weight="400"
     font-size="32.5"
     transform="matrix(11.8081,0,0,11.8081,306.93866,-1058.8735)" />
  <g
     style="font-size:32.5px;font-style:normal;font-weight:400;fill:none;stroke:#000000;stroke-width:1;stroke-linecap:square;stroke-linejoin:bevel;stroke-opacity:1;font-family:MS Shell Dlg 2"
     id="g3418"
     font-style="normal"
     font-weight="400"
     font-size="32.5"
     transform="translate(271.82266,-1121.8036)" />
  <g
     style="font-size:32.5px;font-style:normal;font-weight:400;fill:none;stroke:#000000;stroke-width:1;stroke-linecap:square;stroke-linejoin:bevel;stroke-opacity:1;font-family:MS Shell Dlg 2"
     id="g3420"
     font-style="normal"
     font-weight="400"
     font-size="32.5"
     transform="matrix(11.8081,0,0,11.8081,306.93866,-1058.8735)" />
  <g
     style="font-size:32.5px;font-style:normal;font-weight:400;fill:none;stroke:#000000;stroke-width:1;stroke-linecap:square;stroke-linejoin:bevel;stroke-opacity:1;font-family:MS Shell Dlg 2"
     id="g3422"
     font-style="normal"
     font-weight="400"
     font-size="32.5"
     transform="matrix(11.8081,0,0,11.8081,306.93866,-1058.8735)" />
  <g
     style="font-size:32.5px;font-style:normal;font-weight:400;fill:none;stroke:#000000;stroke-width:1;stroke-linecap:square;stroke-linejoin:bevel;stroke-opacity:1;font-family:MS Shell Dlg 2"
     id="g3424"
     font-style="normal"
     font-weight="400"
     font-size="32.5"
     transform="matrix(11.8081,0,0,11.8081,306.93866,-1058.8735)" />
  <g
     style="font-size:32.5px;font-style:normal;font-weight:400;fill:none;stroke:#000000;stroke-width:1;stroke-linecap:square;stroke-linejoin:bevel;stroke-opacity:1;font-family:MS Shell Dlg 2"
     id="g3426"
     font-style="normal"
     font-weight="400"
     font-size="32.5"
     transform="matrix(11.8081,0,0,11.8081,306.93866,-1058.8735)" />
  <g
     style="font-size:32.5px;font-style:normal;font-weight:400;fill:none;stroke:#000000;stroke-width:1;stroke-linecap:square;stroke-linejoin:bevel;stroke-opacity:1;font-family:MS Shell Dlg 2"
     id="g3428"
     font-style="normal"
     font-weight="400"
     font-size="32.5"
     transform="matrix(11.8081,0,0,11.8081,271.82266,-1121.8036)" />
  <g
     style="font-size:32.5px;font-style:normal;font-weight:400;fill:none;stroke:#000000;stroke-width:1;stroke-linecap:square;stroke-linejoin:bevel;stroke-opacity:1;font-family:MS Shell Dlg 2"
     id="g3430"
     font-style="normal"
     font-weight="400"
     font-size="32.5"
     transform="matrix(11.8081,0,0,11.8081,271.82266,-1121.8036)" />
  <g
     style="font-size:32.5px;font-style:normal;font-weight:400;fill:none;stroke:#000000;stroke-width:1;stroke-linecap:square;stroke-linejoin:bevel;stroke-opacity:1;font-family:MS Shell Dlg 2"
     id="g3432"
     font-style="normal"
     font-weight="400"
     font-size="32.5"
     transform="translate(271.82266,-1121.8036)" />
</svg>
