<?xml version="1.0" encoding="UTF-8" standalone="no"?>
<svg
   xmlns:dc="http://purl.org/dc/elements/1.1/"
   xmlns:cc="http://creativecommons.org/ns#"
   xmlns:rdf="http://www.w3.org/1999/02/22-rdf-syntax-ns#"
   xmlns:svg="http://www.w3.org/2000/svg"
   xmlns="http://www.w3.org/2000/svg"
   xmlns:sodipodi="http://sodipodi.sourceforge.net/DTD/sodipodi-0.dtd"
   xmlns:inkscape="http://www.inkscape.org/namespaces/inkscape"
   width="358.14319"
   height="382.65875"
   viewBox="0 0 1193.8112 1275.5312"
   version="1.2"
   id="svg3336"
   inkscape:version="0.48.4 r9939"
   sodipodi:docname="oRibeiro.svg">
  <metadata
     id="metadata3436">
    <rdf:RDF>
      <cc:Work
         rdf:about="">
        <dc:format>image/svg+xml</dc:format>
        <dc:type
           rdf:resource="http://purl.org/dc/dcmitype/StillImage" />
        <dc:title>BISBARRAS</dc:title>
      </cc:Work>
    </rdf:RDF>
  </metadata>
  <sodipodi:namedview
     pagecolor="#ffffff"
     bordercolor="#666666"
     borderopacity="1"
     objecttolerance="10"
     gridtolerance="10"
     guidetolerance="10"
     inkscape:pageopacity="0.01960784"
     inkscape:pageshadow="2"
     inkscape:window-width="1873"
     inkscape:window-height="1056"
     id="namedview3434"
     showgrid="false"
     inkscape:zoom="1.543472"
     inkscape:cx="24.975658"
     inkscape:cy="140.27471"
     inkscape:window-x="47"
     inkscape:window-y="24"
     inkscape:window-maximized="1"
     inkscape:current-layer="svg3336"
     fit-margin-top="0"
     fit-margin-left="0"
     fit-margin-right="0"
     fit-margin-bottom="0" />
  <title
     id="title3338">BISBARRAS</title>
  <desc
     id="desc3340">Generated with Qt</desc>
  <defs
     id="defs3342" />
  <g
     style="font-size:32.5px;font-style:normal;font-weight:400;fill:none;stroke:#000000;stroke-width:1;stroke-linecap:square;stroke-linejoin:bevel;stroke-opacity:1;font-family:MS Shell Dlg 2"
     id="g3346"
     font-style="normal"
     font-weight="400"
     font-size="32.5"
     transform="translate(196.47815,-1269.533)" />
  <g
     style="font-size:32.5px;font-style:normal;font-weight:400;fill:none;stroke:#000000;stroke-width:1;stroke-linecap:square;stroke-linejoin:bevel;stroke-opacity:1;font-family:MS Shell Dlg 2"
     id="g3348"
     font-style="normal"
     font-weight="400"
     font-size="32.5"
     transform="matrix(11.8081,0,0,11.8081,196.47815,-1269.533)" />
  <g
     style="font-size:32.5px;font-style:normal;font-weight:400;fill:#ffffff;fill-opacity:1;fill-rule:evenodd;stroke:none;font-family:MS Shell Dlg 2"
     id="g3350"
     font-style="normal"
     font-weight="400"
     font-size="32.5"
     transform="matrix(0.999751,0,0,0.999751,196.47815,-1269.533)" />
  <g
     style="font-size:32.5px;font-style:normal;font-weight:400;fill:none;stroke:#000000;stroke-width:1;stroke-linecap:square;stroke-linejoin:bevel;stroke-opacity:1;font-family:MS Shell Dlg 2"
     id="g3354"
     font-style="normal"
     font-weight="400"
     font-size="32.5"
     transform="matrix(11.8081,0,0,11.8081,196.47815,-1269.533)" />
  <g
     style="font-size:32.5px;font-style:normal;font-weight:400;fill:none;stroke:#000000;stroke-width:1;stroke-linecap:square;stroke-linejoin:bevel;stroke-opacity:1;font-family:MS Shell Dlg 2"
     id="g3356"
     font-style="normal"
     font-weight="400"
     font-size="32.5"
     transform="matrix(11.8081,0,0,11.8081,196.47815,-1269.533)" />
  <g
     style="font-size:32.5px;font-style:normal;font-weight:400;fill:none;stroke:#000000;stroke-width:1;stroke-linecap:square;stroke-linejoin:bevel;stroke-opacity:1;font-family:MS Shell Dlg 2"
     id="g3358"
     font-style="normal"
     font-weight="400"
     font-size="32.5"
     transform="matrix(11.8081,0,0,11.8081,231.59415,-1206.6029)" />
  <g
     style="font-size:32.5px;font-style:normal;font-weight:400;fill:none;stroke:#000000;stroke-width:1;stroke-linecap:square;stroke-linejoin:bevel;stroke-opacity:1;font-family:MS Shell Dlg 2"
     id="g3360"
     font-style="normal"
     font-weight="400"
     font-size="32.5"
     transform="matrix(11.8081,0,0,11.8081,231.59415,-1206.6029)" />
  <g
     style="font-size:32.5px;font-style:normal;font-weight:400;fill:#ffffff;fill-opacity:1;fill-rule:evenodd;stroke:none;font-family:MS Shell Dlg 2"
     id="g3362"
     font-style="normal"
     font-weight="400"
     font-size="32.5"
     transform="matrix(11.8081,0,0,11.8081,231.59415,-1206.6029)" />
  <g
     style="font-size:32.5px;font-style:normal;font-weight:400;fill:none;stroke:#000000;stroke-width:1;stroke-linecap:square;stroke-linejoin:bevel;stroke-opacity:1;font-family:MS Shell Dlg 2"
     id="g3366"
     font-style="normal"
     font-weight="400"
     font-size="32.5"
     transform="matrix(11.8081,0,0,11.8081,231.59415,-1206.6029)" />
  <g
     style="font-size:32.5px;font-style:normal;font-weight:400;fill:#000000;fill-opacity:0;fill-rule:evenodd;stroke:none;font-family:MS Shell Dlg 2"
     id="g3368"
     font-style="normal"
     font-weight="400"
     font-size="32.5"
     transform="matrix(0.999751,0,0,0.999751,231.59415,-1206.6029)">
    <path
       style="fill-rule:evenodd"
       inkscape:connector-curvature="0"
       id="path3370"
       d="m 0,0 3438,0 0,2354 L 0,2354 0,0"
       vector-effect="non-scaling-stroke" />
  </g>
  <path
     vector-effect="none"
     d="m 446.10699,916.10217 8.3235,3.9112 2.56531,6.0756 -3.53061,2.7124 0.16874,4.4661 6.27128,0.8012 2.77453,2.4249 9.49144,14.2403 10.62547,1.7124 -2.63953,18.4666 -2.45052,2.2879 3.86135,18.8226 6.56163,4.8153 4.0841,0.2056 1.99145,4.78103 3.68587,2.8973 8.05343,-1.8288 4.03016,-5.54823 19.33373,0.2534 -5.0292,5.68523 0.42532,2.5686 4.37438,2.4796 -1.05307,3.7125 -8.60029,2.8495 -4.25292,4.9865 5.84604,-0.5068 2.40322,4.9248 -1.39063,4.5687 0.68176,5.918 6.7372,3.0276 -2.22776,5.2194 -3.89509,1.3083 -2.80818,7.8292 -9.6872,3.0891 0.2295,3.2468 -2.98373,4.7741 -5.24524,1.7604 -2.45725,3.2261 -4.02336,-0.2259 -4.5701,-3.7811 -5.02248,1.6303 -1.66069,2.2603 -0.76281,7.5416 -7.31763,-1.2195 -12.01619,11.2815 -10.30819,2.2878 -1.39063,7.4797 -3.01067,3.7947 -5.21823,-0.7123 -4.92122,-3.2399 -4.54319,0.1165 -3.30775,0.8356 -4.84693,7.3976 -4.25974,1.1849 -1.5188,-3.226 -5.0765,0.034 -6.83835,4.6647 -4.25966,0.541 -7.00037,-6.788 -37.26344,2.8426 -2.45924,2.5069 1.54788,6.3633 -14.50838,8.3087 -17.53062,-2.3768 -17.99782,4.0412 -5.50918,7.1784 -5.89532,4.3221 -2.68002,18.0556 -7.87191,7.7126 -15.8241,6.5209 -12.44748,8.0005 -2.98918,3.9865 0.99645,6.2879 -1.25564,5.7399 -3.2916,4.4867 -14.81825,10.973 -17.86482,8.9045 -3.68111,3.2124 -2.03528,6.973 -5.869,6.3701 -10.59648,4.418 -4.11043,-7.5209 0.17615,-6.3976 2.67123,-3.6165 -1.77947,-0.9932 2.6442,-0.1849 -3.69588,-0.8562 2.42074,-4.5482 -3.71822,-5.5619 0.50965,-8.4455 -1.71467,-4.5894 1.44735,-5.096 -0.82964,-4.2674 1.30149,-0.6438 -1.57963,-5.6853 0.0487,-15.802 4.56882,-9.6991 -5.0171,-7.8839 1.25229,-0.7535 -0.25114,-5.2468 -1.55875,-1.2741 2.43832,-1.9384 0.98631,-6.8564 -2.96757,-2.0822 1.11791,-4.651 -1.75183,-0.2945 -2.9581,-9.9389 -0.0432,-6.1852 1.84695,-3.5275 -3.22071,-18.3433 5.00967,-1.3083 3.3982,1.5344 5.49572,-2.5345 2.96821,-4.0686 4.91441,-0.7192 0.24236,-3.5618 4.00988,2.2056 -2.89398,2.3769 2.94663,2.8493 2.95068,0.1302 1.46288,2.1576 3.23964,-1.2467 1.09424,-1.7603 -1.64645,-3.0961 3.51507,-3.5344 0.32944,-7.007 -4.62216,-5.5961 -9.24364,-1.281 -0.5826,-4.5962 5.33975,-0.8082 3.7506,3.3768 4.36971,-2.726 4.12054,-14.672 -1.24813,-5.6372 5.79469,-1.9247 0.67987,-1.7879 1.25822,1.0755 0.42327,-2.9659 8.76505,-2.9385 1.09087,-6.1647 -0.80941,-4.9523 3.66835,-3.4179 1.27445,1.5 5.91086,-1.6713 -3.00065,-0.068 -0.76756,-3.5002 5.26009,-2.2672 -0.98696,2.6233 3.24638,-1.1028 0.44761,0.918 2.40788,-0.9864 -3.04718,2.1439 -2.84677,-0.9247 1.00923,3.4454 4.63502,-0.3973 3.81742,-9.0689 0.23019,2.1644 1.89286,-2.0617 -1.56006,-0.096 2.5295,-1.89733 -0.89927,1.2055 7.69981,-0.3904 0.50828,-5.4659 2.24864,-0.2056 -0.77894,-2.8356 1.9758,-2.9934 3.63729,-0.8905 -0.69257,1.459 2.72793,1.2192 0.37795,-1.7809 1.7275,0.5069 5.85822,-5.651 2.43964,-7.4113 9.781,-6.5002 7.9968,3.0139 1.62617,-2.144 1.67071,0.8699 -0.56559,-2.1234 1.04367,2.2878 5.0967,-0.3837 -4.64107,-1.9863 2.27021,-2.3015 -0.76082,-1.1986 -0.0328,-0.4248 1.17934,1.0685 0.0837,-3.7261 -3.15724,-5.0344 -2.31076,-0.1577 3.62777,-1.8835 1.23131,-6.836 2.23379,-2.6713 -2.11633,-2.2879 1.81113,-3.8631 -1.24743,-3.6509 1.37509,-2.1234 8.28361,0.5891 2.00429,-1.4863 2.10416,2.3837 7.28933,-17.2886 5.70829,5.0756 4.57357,14.5554 2.98443,-2.1849 3.59136,1.3356 0.87286,2.3974 12.40087,-6.8223 6.3658,0.4728 4.50271,2.4179 0.43199,2.9727 8.95804,-8.7743 -0.35103,-4.1716 3.14584,-3.2672 8.71508,2.5891 1.6808,9.2676 2.05901,1.6371 7.25687,-2.329 0.96538,-1.8493 3.11872,1.959 0.72234,-7.1648 5.73125,-5.4523 22.83058,-3.6919"
     id="path3374"
     inkscape:connector-curvature="0"
     style="font-size:medium;font-style:normal;font-weight:400;fill:#cccccc;fill-opacity:1;fill-rule:evenodd;stroke:#000000;stroke-width:2.08817314999999981;stroke-linecap:square;stroke-linejoin:bevel;stroke-opacity:1;font-family:MS Shell Dlg 2" />
  <g
     style="font-size:32.5px;font-style:normal;font-weight:400;fill:none;stroke:#000000;stroke-width:1;stroke-linecap:square;stroke-linejoin:bevel;stroke-opacity:1;font-family:MS Shell Dlg 2"
     id="g3412"
     font-style="normal"
     font-weight="400"
     font-size="32.5"
     transform="matrix(11.8081,0,0,11.8081,231.59415,-1206.6029)" />
  <g
     style="font-size:32.5px;font-style:normal;font-weight:400;fill:none;stroke:#000000;stroke-width:1;stroke-linecap:square;stroke-linejoin:bevel;stroke-opacity:1;font-family:MS Shell Dlg 2"
     id="g3414"
     font-style="normal"
     font-weight="400"
     font-size="32.5"
     transform="matrix(11.8081,0,0,11.8081,231.59415,-1206.6029)" />
  <g
     style="font-size:32.5px;font-style:normal;font-weight:400;fill:none;stroke:#000000;stroke-width:1;stroke-linecap:square;stroke-linejoin:bevel;stroke-opacity:1;font-family:MS Shell Dlg 2"
     id="g3416"
     font-style="normal"
     font-weight="400"
     font-size="32.5"
     transform="matrix(11.8081,0,0,11.8081,231.59415,-1206.6029)" />
  <g
     style="font-size:32.5px;font-style:normal;font-weight:400;fill:none;stroke:#000000;stroke-width:1;stroke-linecap:square;stroke-linejoin:bevel;stroke-opacity:1;font-family:MS Shell Dlg 2"
     id="g3418"
     font-style="normal"
     font-weight="400"
     font-size="32.5"
     transform="translate(196.47815,-1269.533)" />
  <g
     style="font-size:32.5px;font-style:normal;font-weight:400;fill:none;stroke:#000000;stroke-width:1;stroke-linecap:square;stroke-linejoin:bevel;stroke-opacity:1;font-family:MS Shell Dlg 2"
     id="g3420"
     font-style="normal"
     font-weight="400"
     font-size="32.5"
     transform="matrix(11.8081,0,0,11.8081,231.59415,-1206.6029)" />
  <g
     style="font-size:32.5px;font-style:normal;font-weight:400;fill:none;stroke:#000000;stroke-width:1;stroke-linecap:square;stroke-linejoin:bevel;stroke-opacity:1;font-family:MS Shell Dlg 2"
     id="g3422"
     font-style="normal"
     font-weight="400"
     font-size="32.5"
     transform="matrix(11.8081,0,0,11.8081,231.59415,-1206.6029)" />
  <g
     style="font-size:32.5px;font-style:normal;font-weight:400;fill:none;stroke:#000000;stroke-width:1;stroke-linecap:square;stroke-linejoin:bevel;stroke-opacity:1;font-family:MS Shell Dlg 2"
     id="g3424"
     font-style="normal"
     font-weight="400"
     font-size="32.5"
     transform="matrix(11.8081,0,0,11.8081,231.59415,-1206.6029)" />
  <g
     style="font-size:32.5px;font-style:normal;font-weight:400;fill:none;stroke:#000000;stroke-width:1;stroke-linecap:square;stroke-linejoin:bevel;stroke-opacity:1;font-family:MS Shell Dlg 2"
     id="g3426"
     font-style="normal"
     font-weight="400"
     font-size="32.5"
     transform="matrix(11.8081,0,0,11.8081,231.59415,-1206.6029)" />
  <g
     style="font-size:32.5px;font-style:normal;font-weight:400;fill:none;stroke:#000000;stroke-width:1;stroke-linecap:square;stroke-linejoin:bevel;stroke-opacity:1;font-family:MS Shell Dlg 2"
     id="g3428"
     font-style="normal"
     font-weight="400"
     font-size="32.5"
     transform="matrix(11.8081,0,0,11.8081,196.47815,-1269.533)" />
  <g
     style="font-size:32.5px;font-style:normal;font-weight:400;fill:none;stroke:#000000;stroke-width:1;stroke-linecap:square;stroke-linejoin:bevel;stroke-opacity:1;font-family:MS Shell Dlg 2"
     id="g3430"
     font-style="normal"
     font-weight="400"
     font-size="32.5"
     transform="matrix(11.8081,0,0,11.8081,196.47815,-1269.533)" />
  <g
     style="font-size:32.5px;font-style:normal;font-weight:400;fill:none;stroke:#000000;stroke-width:1;stroke-linecap:square;stroke-linejoin:bevel;stroke-opacity:1;font-family:MS Shell Dlg 2"
     id="g3432"
     font-style="normal"
     font-weight="400"
     font-size="32.5"
     transform="translate(196.47815,-1269.533)" />
</svg>
