<?xml version="1.0" encoding="UTF-8" standalone="no"?>
<svg
   xmlns:dc="http://purl.org/dc/elements/1.1/"
   xmlns:cc="http://creativecommons.org/ns#"
   xmlns:rdf="http://www.w3.org/1999/02/22-rdf-syntax-ns#"
   xmlns:svg="http://www.w3.org/2000/svg"
   xmlns="http://www.w3.org/2000/svg"
   xmlns:sodipodi="http://sodipodi.sourceforge.net/DTD/sodipodi-0.dtd"
   xmlns:inkscape="http://www.inkscape.org/namespaces/inkscape"
   width="400.10001"
   height="500"
   viewBox="0 0 1333.6667 1666.6693"
   version="1.2"
   id="svg3336"
   inkscape:version="0.48.4 r9939"
   sodipodi:docname="costaDaMorte.svg">
  <metadata
     id="metadata3436">
    <rdf:RDF>
      <cc:Work
         rdf:about="">
        <dc:format>image/svg+xml</dc:format>
        <dc:type
           rdf:resource="http://purl.org/dc/dcmitype/StillImage" />
        <dc:title>BISBARRAS</dc:title>
      </cc:Work>
    </rdf:RDF>
  </metadata>
  <sodipodi:namedview
     pagecolor="#ffffff"
     bordercolor="#666666"
     borderopacity="1"
     objecttolerance="10"
     gridtolerance="10"
     guidetolerance="10"
     inkscape:pageopacity="0.01960784"
     inkscape:pageshadow="2"
     inkscape:window-width="1873"
     inkscape:window-height="1056"
     id="namedview3434"
     showgrid="false"
     inkscape:zoom="1.543472"
     inkscape:cx="107.16754"
     inkscape:cy="264.8299"
     inkscape:window-x="47"
     inkscape:window-y="24"
     inkscape:window-maximized="1"
     inkscape:current-layer="svg3336" />
  <title
     id="title3338">BISBARRAS</title>
  <desc
     id="desc3340">Generated with Qt</desc>
  <defs
     id="defs3342" />
  <g
     style="font-size:32.5px;font-style:normal;font-weight:400;fill:none;stroke:#000000;stroke-width:1;stroke-linecap:square;stroke-linejoin:bevel;stroke-opacity:1;font-family:MS Shell Dlg 2"
     id="g3346"
     font-style="normal"
     font-weight="400"
     font-size="32.5"
     transform="translate(271.82266,-1121.8036)" />
  <g
     style="font-size:32.5px;font-style:normal;font-weight:400;fill:none;stroke:#000000;stroke-width:1;stroke-linecap:square;stroke-linejoin:bevel;stroke-opacity:1;font-family:MS Shell Dlg 2"
     id="g3348"
     font-style="normal"
     font-weight="400"
     font-size="32.5"
     transform="matrix(11.8081,0,0,11.8081,271.82266,-1121.8036)" />
  <g
     style="font-size:32.5px;font-style:normal;font-weight:400;fill:#ffffff;fill-opacity:1;fill-rule:evenodd;stroke:none;font-family:MS Shell Dlg 2"
     id="g3350"
     font-style="normal"
     font-weight="400"
     font-size="32.5"
     transform="matrix(0.999751,0,0,0.999751,271.82266,-1121.8036)" />
  <g
     style="font-size:32.5px;font-style:normal;font-weight:400;fill:none;stroke:#000000;stroke-width:1;stroke-linecap:square;stroke-linejoin:bevel;stroke-opacity:1;font-family:MS Shell Dlg 2"
     id="g3354"
     font-style="normal"
     font-weight="400"
     font-size="32.5"
     transform="matrix(11.8081,0,0,11.8081,271.82266,-1121.8036)" />
  <g
     style="font-size:32.5px;font-style:normal;font-weight:400;fill:none;stroke:#000000;stroke-width:1;stroke-linecap:square;stroke-linejoin:bevel;stroke-opacity:1;font-family:MS Shell Dlg 2"
     id="g3356"
     font-style="normal"
     font-weight="400"
     font-size="32.5"
     transform="matrix(11.8081,0,0,11.8081,271.82266,-1121.8036)" />
  <g
     style="font-size:32.5px;font-style:normal;font-weight:400;fill:none;stroke:#000000;stroke-width:1;stroke-linecap:square;stroke-linejoin:bevel;stroke-opacity:1;font-family:MS Shell Dlg 2"
     id="g3358"
     font-style="normal"
     font-weight="400"
     font-size="32.5"
     transform="matrix(11.8081,0,0,11.8081,306.93866,-1058.8735)" />
  <g
     style="font-size:32.5px;font-style:normal;font-weight:400;fill:none;stroke:#000000;stroke-width:1;stroke-linecap:square;stroke-linejoin:bevel;stroke-opacity:1;font-family:MS Shell Dlg 2"
     id="g3360"
     font-style="normal"
     font-weight="400"
     font-size="32.5"
     transform="matrix(11.8081,0,0,11.8081,306.93866,-1058.8735)" />
  <g
     style="font-size:32.5px;font-style:normal;font-weight:400;fill:#ffffff;fill-opacity:1;fill-rule:evenodd;stroke:none;font-family:MS Shell Dlg 2"
     id="g3362"
     font-style="normal"
     font-weight="400"
     font-size="32.5"
     transform="matrix(11.8081,0,0,11.8081,306.93866,-1058.8735)" />
  <g
     style="font-size:32.5px;font-style:normal;font-weight:400;fill:none;stroke:#000000;stroke-width:1;stroke-linecap:square;stroke-linejoin:bevel;stroke-opacity:1;font-family:MS Shell Dlg 2"
     id="g3366"
     font-style="normal"
     font-weight="400"
     font-size="32.5"
     transform="matrix(11.8081,0,0,11.8081,306.93866,-1058.8735)" />
  <g
     style="font-size:32.5px;font-style:normal;font-weight:400;fill:#000000;fill-opacity:0;fill-rule:evenodd;stroke:none;font-family:MS Shell Dlg 2"
     id="g3368"
     font-style="normal"
     font-weight="400"
     font-size="32.5"
     transform="matrix(0.999751,0,0,0.999751,306.93866,-1058.8735)">
    <path
       style="fill-rule:evenodd"
       inkscape:connector-curvature="0"
       id="path3370"
       d="m 0,0 3438,0 0,2354 L 0,2354 0,0"
       vector-effect="non-scaling-stroke" />
  </g>
  <path
     vector-effect="none"
     d="m 290.41983,437.71761 4.36764,3.26042 -0.10124,7.44211 4.44187,0.13768 2.28514,3.53578 3.7128,-2.24941 1.67752,3.32412 -2.39847,-1.33021 -0.56705,-0.12397 -0.3625,0.6062 3.30981,6.1811 5.78184,2.10352 2.19063,3.9673 4.97724,2.70218 5.70968,-1.59391 7.84353,5.71669 10.43238,-2.19461 2.61451,4.47691 36.97449,-11.18887 7.34196,-5.74341 5.35934,0.85347 1.39736,-4.74268 1.65993,2.88437 6.04653,-2.55559 2.38234,3.82825 -2.93515,8.62642 -5.38024,2.67409 8.75755,19.168 19.02189,8.33599 7.56681,-0.75346 8.82572,-8.82232 18.1726,9.06891 15.78976,14.78149 -7.54049,6.26741 -7.20966,13.74035 -7.95217,-1.93843 -11.70556,4.32895 -8.62731,14.35681 -4.6093,-3.95908 -9.61762,5.54135 -1.17806,3.43851 -16.36068,3.644 5.61447,7.99351 -5.43899,6.93183 -5.89732,1.3836 -5.65772,15.74046 -6.26318,7.39758 -7.61273,-10.90459 -11.72652,-3.01384 -9.08691,6.06877 3.58109,18.67209 -7.3392,-5.43178 -21.87737,-4.52759 2.26884,-6.43181 -10.42765,1.93846 -0.95045,-5.5756 -9.42455,2.50697 -10.6221,-3.13027 -4.5034,12.27451 -19.91693,-6.60303 -1.75452,12.11699 -6.44347,6.56879 -0.48468,12.7129 -5.53351,3.32206 -8.33766,12.60332 2.18653,3.93168 -2.6719,2.62342 0.71757,6.58249 5.19057,3.76727 -0.85532,5.0345 3.87082,0.28768 2.12508,5.4934 -4.70858,5.21256 3.59067,14.08969 -1.73082,3.6645 2.52199,1.58233 0.67038,10.42512 2.52264,4.14402 -1.11041,4.37007 -9.42324,-0.0137 -5.09399,3.89744 1.80846,7.72638 -2.02919,3.42478 3.45832,2.08232 -1.31163,8.48668 -5.82919,2.71929 -15.41029,-8.41823 -1.56006,2.28096 -10.13469,-2.45902 -3.80735,2.51382 0.42597,5.73313 2.97568,3.44539 -0.58124,4.63719 4.89149,4.56182 -10.73348,11.6855 -15.08424,-10.64437 -6.52583,7.02089 -2.31545,-1.52749 -0.72637,11.80197 -19.68277,25.48058 -0.44756,11.37725 -7.58702,9.61002 -5.78527,-6.28116 0.74594,-2.90422 -4.4635,-10.19909 -7.84963,-5.19886 1.82403,-3.04809 15.66208,-3.93856 3.70138,-8.32224 -2.03261,-11.33615 -4.05376,-3.9043 -2.9581,-0.54111 -1.24145,2.70559 -4.39599,-3.84949 -6.13294,-14.30202 2.29859,-3.34948 -0.96871,-4.02071 3.19236,0.30141 0.86476,-3.81525 -2.00561,-5.05505 4.67142,-0.59592 3.55487,-5.20571 -3.62507,-3.39052 -13.8759,-1.33573 -4.86179,-19.97349 -5.25468,-1.59595 -2.79543,-7.1236 -1.01934,7.76743 4.24614,9.50732 0.35035,9.30863 -12.11533,-0.23973 0.52251,-7.42501 -4.47567,-2.26039 -0.19374,-6.81536 -6.56497,0.65075 -0.34496,9.1716 -4.02809,-0.80825 -9.935554,5.9181 0.502248,7.8702 3.040472,-1.67131 -2.809601,2.56179 -3.831653,16.01442 -5.288428,-5.85644 2.739397,-13.47322 -3.743219,-6.30164 -6.872798,-1.80835 3.141067,-5.4797 -0.598784,-5.24681 5.059594,-2.8494 -1.094957,-7.34284 10.075293,-9.86346 1.904346,-16.57611 -1.645122,-3.00697 2.289808,-0.63696 -3.261219,-5.7811 -5.832528,0.22603 -3.305782,-16.7953 -1.865869,-5.18516 -5.115619,-2.86999 -0.03245,-4.35636 2.694171,-1.34938 3.043183,7.36334 4.107741,1.65762 2.845385,-0.35618 1.36093,-4.41117 2.711044,2.02066 6.333419,-15.28838 -3.599425,-12.80195 4.074675,-0.58907 1.778785,5.20571 3.13971,-4.08922 7.48373,1.71925 0.38614,-16.29525 3.57782,7.78802 6.80935,-1.36307 2.88049,8.71956 4.47836,-1.58225 -0.50631,-6.84278 8.83385,-0.10274 -1.10439,-4.33582 3.97206,-10.58952 -4.36022,-3.80839 1.55128,-13.07592 -3.23758,10.00045 -3.44011,-0.30824 -2.55714,9.15109 -4.17458,0.44524 -1.83009,-5.88383 -3.93359,1.16444 0.9991,-7.65103 -4.21576,-4.04814 -0.94981,-5.04132 0.53938,-3.81525 6.41848,4.97284 1.51956,-5.24681 4.42637,0.83565 3.47995,-5.75369 2.17371,-13.41157 7.20289,4.92488 4.32985,-2.5412 -0.0499,-5.47285 6.57038,3.09602 -0.24641,-4.10293 1.79972,2.60286 0.96669,-3.37001 7.18199,2.79465 1.41357,5.34955 5.44234,-0.97949 1.32852,-3.34947 3.89174,2.42476 -1.21377,4.51391 2.91357,-2.50011 3.13026,2.76725 0.60351,-3.05493 8.00015,0.92469 8.61445,-5.76052 3.08031,-5.00024 1.0774,-9.15794 4.27382,1.13704 6.08568,-7.00717 -1.35081,-5.62354 4.03418,1.4384 2.06567,5.10984 -2.20272,1.52061 4.59987,2.8563 6.46642,-8.41819 4.29072,3.39056 8.43017,-4.40431 6.36174,2.54122 1.16382,-3.17138 -2.01637,-5.70574 -4.9651,-4.7742 0.1836,-10.0347 -11.58272,0.80826 -6.36582,-8.38395 3.04722,-4.56184 9.78368,-3.05492 2.8771,-4.43788 9.22065,2.83506 3.92485,4.72624 1.51886,-7.56268 8.16825,0.2418 -1.4878,-18.0878 12.27392,0.90277 4.14758,4.85502 2.33703,-6.74209 5.0367,4.02895 1.79293,-2.98438 4.30074,1.39663 -1.24002,-11.59916 3.42186,-2.99945 -0.60279,-2.54052 2.29316,0.0856"
     id="path3382"
     inkscape:connector-curvature="0"
     style="font-size:medium;font-style:normal;font-weight:400;fill:#777777;fill-opacity:0.94117647;fill-rule:evenodd;stroke:#000000;stroke-width:2.08817314999999981;stroke-linecap:square;stroke-linejoin:bevel;stroke-opacity:1;font-family:MS Shell Dlg 2" />
  <g
     style="font-size:32.5px;font-style:normal;font-weight:400;fill:none;stroke:#000000;stroke-width:1;stroke-linecap:square;stroke-linejoin:bevel;stroke-opacity:1;font-family:MS Shell Dlg 2"
     id="g3412"
     font-style="normal"
     font-weight="400"
     font-size="32.5"
     transform="matrix(11.8081,0,0,11.8081,306.93866,-1058.8735)" />
  <g
     style="font-size:32.5px;font-style:normal;font-weight:400;fill:none;stroke:#000000;stroke-width:1;stroke-linecap:square;stroke-linejoin:bevel;stroke-opacity:1;font-family:MS Shell Dlg 2"
     id="g3414"
     font-style="normal"
     font-weight="400"
     font-size="32.5"
     transform="matrix(11.8081,0,0,11.8081,306.93866,-1058.8735)" />
  <g
     style="font-size:32.5px;font-style:normal;font-weight:400;fill:none;stroke:#000000;stroke-width:1;stroke-linecap:square;stroke-linejoin:bevel;stroke-opacity:1;font-family:MS Shell Dlg 2"
     id="g3416"
     font-style="normal"
     font-weight="400"
     font-size="32.5"
     transform="matrix(11.8081,0,0,11.8081,306.93866,-1058.8735)" />
  <g
     style="font-size:32.5px;font-style:normal;font-weight:400;fill:none;stroke:#000000;stroke-width:1;stroke-linecap:square;stroke-linejoin:bevel;stroke-opacity:1;font-family:MS Shell Dlg 2"
     id="g3418"
     font-style="normal"
     font-weight="400"
     font-size="32.5"
     transform="translate(271.82266,-1121.8036)" />
  <g
     style="font-size:32.5px;font-style:normal;font-weight:400;fill:none;stroke:#000000;stroke-width:1;stroke-linecap:square;stroke-linejoin:bevel;stroke-opacity:1;font-family:MS Shell Dlg 2"
     id="g3420"
     font-style="normal"
     font-weight="400"
     font-size="32.5"
     transform="matrix(11.8081,0,0,11.8081,306.93866,-1058.8735)" />
  <g
     style="font-size:32.5px;font-style:normal;font-weight:400;fill:none;stroke:#000000;stroke-width:1;stroke-linecap:square;stroke-linejoin:bevel;stroke-opacity:1;font-family:MS Shell Dlg 2"
     id="g3422"
     font-style="normal"
     font-weight="400"
     font-size="32.5"
     transform="matrix(11.8081,0,0,11.8081,306.93866,-1058.8735)" />
  <g
     style="font-size:32.5px;font-style:normal;font-weight:400;fill:none;stroke:#000000;stroke-width:1;stroke-linecap:square;stroke-linejoin:bevel;stroke-opacity:1;font-family:MS Shell Dlg 2"
     id="g3424"
     font-style="normal"
     font-weight="400"
     font-size="32.5"
     transform="matrix(11.8081,0,0,11.8081,306.93866,-1058.8735)" />
  <g
     style="font-size:32.5px;font-style:normal;font-weight:400;fill:none;stroke:#000000;stroke-width:1;stroke-linecap:square;stroke-linejoin:bevel;stroke-opacity:1;font-family:MS Shell Dlg 2"
     id="g3426"
     font-style="normal"
     font-weight="400"
     font-size="32.5"
     transform="matrix(11.8081,0,0,11.8081,306.93866,-1058.8735)" />
  <g
     style="font-size:32.5px;font-style:normal;font-weight:400;fill:none;stroke:#000000;stroke-width:1;stroke-linecap:square;stroke-linejoin:bevel;stroke-opacity:1;font-family:MS Shell Dlg 2"
     id="g3428"
     font-style="normal"
     font-weight="400"
     font-size="32.5"
     transform="matrix(11.8081,0,0,11.8081,271.82266,-1121.8036)" />
  <g
     style="font-size:32.5px;font-style:normal;font-weight:400;fill:none;stroke:#000000;stroke-width:1;stroke-linecap:square;stroke-linejoin:bevel;stroke-opacity:1;font-family:MS Shell Dlg 2"
     id="g3430"
     font-style="normal"
     font-weight="400"
     font-size="32.5"
     transform="matrix(11.8081,0,0,11.8081,271.82266,-1121.8036)" />
  <g
     style="font-size:32.5px;font-style:normal;font-weight:400;fill:none;stroke:#000000;stroke-width:1;stroke-linecap:square;stroke-linejoin:bevel;stroke-opacity:1;font-family:MS Shell Dlg 2"
     id="g3432"
     font-style="normal"
     font-weight="400"
     font-size="32.5"
     transform="translate(271.82266,-1121.8036)" />
</svg>
