<?xml version="1.0" encoding="UTF-8" standalone="no"?>
<svg
   xmlns:dc="http://purl.org/dc/elements/1.1/"
   xmlns:cc="http://creativecommons.org/ns#"
   xmlns:rdf="http://www.w3.org/1999/02/22-rdf-syntax-ns#"
   xmlns:svg="http://www.w3.org/2000/svg"
   xmlns="http://www.w3.org/2000/svg"
   xmlns:sodipodi="http://sodipodi.sourceforge.net/DTD/sodipodi-0.dtd"
   xmlns:inkscape="http://www.inkscape.org/namespaces/inkscape"
   width="358.14319"
   height="382.65875"
   viewBox="0 0 1193.8112 1275.5312"
   version="1.2"
   id="svg3336"
   inkscape:version="0.48.4 r9939"
   sodipodi:docname="gal.svg">
  <metadata
     id="metadata3436">
    <rdf:RDF>
      <cc:Work
         rdf:about="">
        <dc:format>image/svg+xml</dc:format>
        <dc:type
           rdf:resource="http://purl.org/dc/dcmitype/StillImage" />
        <dc:title>BISBARRAS</dc:title>
      </cc:Work>
    </rdf:RDF>
  </metadata>
  <sodipodi:namedview
     pagecolor="#ffffff"
     bordercolor="#666666"
     borderopacity="1"
     objecttolerance="10"
     gridtolerance="10"
     guidetolerance="10"
     inkscape:pageopacity="0.01960784"
     inkscape:pageshadow="2"
     inkscape:window-width="1873"
     inkscape:window-height="1056"
     id="namedview3434"
     showgrid="false"
     inkscape:zoom="1.0913995"
     inkscape:cx="-104.09924"
     inkscape:cy="127.38745"
     inkscape:window-x="47"
     inkscape:window-y="24"
     inkscape:window-maximized="1"
     inkscape:current-layer="svg3336"
     fit-margin-top="0"
     fit-margin-left="0"
     fit-margin-right="0"
     fit-margin-bottom="0" />
  <title
     id="title3338">BISBARRAS</title>
  <desc
     id="desc3340">Generated with Qt</desc>
  <defs
     id="defs3342" />
  <g
     style="font-size:32.5px;font-style:normal;font-weight:400;fill:none;stroke:#000000;stroke-width:1;stroke-linecap:square;stroke-linejoin:bevel;stroke-opacity:1;font-family:MS Shell Dlg 2"
     id="g3346"
     font-style="normal"
     font-weight="400"
     font-size="32.5"
     transform="translate(196.47815,-1269.533)" />
  <g
     style="font-size:32.5px;font-style:normal;font-weight:400;fill:none;stroke:#000000;stroke-width:1;stroke-linecap:square;stroke-linejoin:bevel;stroke-opacity:1;font-family:MS Shell Dlg 2"
     id="g3348"
     font-style="normal"
     font-weight="400"
     font-size="32.5"
     transform="matrix(11.8081,0,0,11.8081,196.47815,-1269.533)" />
  <g
     style="font-size:32.5px;font-style:normal;font-weight:400;fill:#ffffff;fill-opacity:1;fill-rule:evenodd;stroke:none;font-family:MS Shell Dlg 2"
     id="g3350"
     font-style="normal"
     font-weight="400"
     font-size="32.5"
     transform="matrix(0.999751,0,0,0.999751,196.47815,-1269.533)" />
  <g
     style="font-size:32.5px;font-style:normal;font-weight:400;fill:none;stroke:#000000;stroke-width:1;stroke-linecap:square;stroke-linejoin:bevel;stroke-opacity:1;font-family:MS Shell Dlg 2"
     id="g3354"
     font-style="normal"
     font-weight="400"
     font-size="32.5"
     transform="matrix(11.8081,0,0,11.8081,196.47815,-1269.533)" />
  <g
     style="font-size:32.5px;font-style:normal;font-weight:400;fill:none;stroke:#000000;stroke-width:1;stroke-linecap:square;stroke-linejoin:bevel;stroke-opacity:1;font-family:MS Shell Dlg 2"
     id="g3356"
     font-style="normal"
     font-weight="400"
     font-size="32.5"
     transform="matrix(11.8081,0,0,11.8081,196.47815,-1269.533)" />
  <g
     style="font-size:32.5px;font-style:normal;font-weight:400;fill:none;stroke:#000000;stroke-width:1;stroke-linecap:square;stroke-linejoin:bevel;stroke-opacity:1;font-family:MS Shell Dlg 2"
     id="g3358"
     font-style="normal"
     font-weight="400"
     font-size="32.5"
     transform="matrix(11.8081,0,0,11.8081,231.59415,-1206.6029)" />
  <g
     style="font-size:32.5px;font-style:normal;font-weight:400;fill:none;stroke:#000000;stroke-width:1;stroke-linecap:square;stroke-linejoin:bevel;stroke-opacity:1;font-family:MS Shell Dlg 2"
     id="g3360"
     font-style="normal"
     font-weight="400"
     font-size="32.5"
     transform="matrix(11.8081,0,0,11.8081,231.59415,-1206.6029)" />
  <g
     style="font-size:32.5px;font-style:normal;font-weight:400;fill:#ffffff;fill-opacity:1;fill-rule:evenodd;stroke:none;font-family:MS Shell Dlg 2"
     id="g3362"
     font-style="normal"
     font-weight="400"
     font-size="32.5"
     transform="matrix(11.8081,0,0,11.8081,231.59415,-1206.6029)" />
  <g
     style="font-size:32.5px;font-style:normal;font-weight:400;fill:none;stroke:#000000;stroke-width:1;stroke-linecap:square;stroke-linejoin:bevel;stroke-opacity:1;font-family:MS Shell Dlg 2"
     id="g3366"
     font-style="normal"
     font-weight="400"
     font-size="32.5"
     transform="matrix(11.8081,0,0,11.8081,231.59415,-1206.6029)" />
  <g
     style="font-size:32.5px;font-style:normal;font-weight:400;fill:#000000;fill-opacity:0;fill-rule:evenodd;stroke:none;font-family:MS Shell Dlg 2"
     id="g3368"
     font-style="normal"
     font-weight="400"
     font-size="32.5"
     transform="matrix(0.999751,0,0,0.999751,231.59415,-1206.6029)">
    <path
       style="fill-rule:evenodd"
       inkscape:connector-curvature="0"
       id="path3370"
       d="m 0,0 3438,0 0,2354 L 0,2354 0,0"
       vector-effect="non-scaling-stroke" />
  </g>
  <path
     vector-effect="none"
     d="m 751.9976,2.49021 9.7817,6.89209 -6.70346,4.8461 0.43208,4.88037 -6.2713,3.73031 -1.52561,4.35362 1.63359,5.23243 -6.17005,3.41453 3.77355,13.08415 -6.57501,3.68922 2.81492,2.48778 -2.68667,3.52139 4.05711,3.62277 -2.31545,1.94734 0.45899,4.11732 -7.76316,-0.67469 5.42752,5.72697 -0.49964,5.13311 3.57108,1.5124 4.65117,9.35796 -2.78127,0.73565 1.22871,2.79465 -3.48329,3.1885 -6.95323,-1.46514 -0.69524,8.21887 -3.87488,5.90437 -2.40323,-0.89387 0.28354,2.87205 -1.99145,-0.56441 4.94817,5.92903 -2.76771,1.60419 3.93557,1.59801 -3.76001,3.65771 4.72539,2.71176 -0.96538,8.23188 2.04547,1.48568 -1.27584,2.64669 -3.40235,-2.39736 -8.48549,1.47404 -1.18142,2.13297 2.31554,4.74679 -5.23851,9.39837 1.38389,1.84323 -2.27495,0.52195 1.92385,1.35896 -3.46303,1.2939 5.73807,3.98237 -3.36859,6.57221 4.98199,0.88428 -2.40322,7.16403 2.43697,4.89063 -6.66962,2.2275 -1.45138,3.9817 2.22093,2.71999 -5.18449,6.86811 -0.62781,9.63811 -4.86039,15.49044 -7.18273,2.05145 -5.45445,5.46326 -1.41083,5.85438 2.29517,1.10895 -7.56742,16.18431 -11.26002,1.43499 -11.00359,-5.89753 -5.74471,0.66305 -7.54722,10.64293 5.9068,9.74772 2.02518,15.22191 -2.97027,10.1991 -26.94844,32.84806 -19.49581,6.5277 0.78308,-3.96594 -2.36947,-5.35777 -14.36528,1.30691 -9.45762,-8.31271 -4.63087,0.89731 1.94414,-8.9559 -4.95499,0.55552 -3.01749,-6.31948 -7.54047,-1.28705 -2.80146,-4.15154 -1.32313,-13.68625 -11.73257,-1.76857 -4.43514,-7.54554 16.03945,-3.86047 0.0406,-5.83449 -6.08234,-8.15243 -7.36493,3.92209 -5.93383,-1.1384 -10.8415,8.6723 -11.27348,2.17476 -2.56522,-1.55554 4.21917,-10.39088 -6.00131,-1.87681 0.64802,-3.93168 -5.04267,-0.0376 -4.71874,12.1526 -4.05711,2.39669 -2.59897,-5.603 5.144,-7.11402 -0.39832,-3.51523 11.03053,-6.88182 6.35906,0.89936 0.84377,-4.82488 -11.05744,-4.57007 -2.65973,3.82621 -5.6503,1.31923 -3.62503,-5.07351 -7.04091,-2.15901 -2.68676,3.92142 2.24796,2.69189 -2.2344,1.3939 -6.19707,-1.53568 -9.97072,-11.02104 -8.03996,0.95962 -1.17468,-3.0974 -8.48541,-2.21174 5.91345,-3.02 -4.09757,-2.29188 0.74926,-2.1871 8.24927,-0.30344 9.38337,-5.25777 2.64617,5.19339 5.88662,-7.0058 2.70022,3.30563 6.21735,-0.85484 5.29244,3.14947 14.16281,-3.77004 0.26324,-5.03379 3.52388,1.2576 2.10613,-2.75766 -5.48148,-0.89114 4.19891,-1.23362 0.53331,-3.86182 2.24795,3.2111 3.39553,-2.90287 2.20746,-8.7134 -1.89692,-1.69323 8.13447,-3.57482 -3.67233,1.11512 0.25652,-3.03507 2.72731,-2.58231 1.20834,-2.73848 -0.009,-0.88429 -10.02466,2.0864 3.65887,2.62476 -3.77357,2.65972 0.33748,5.11326 -12.90717,6.2263 4.11794,3.92004 -5.33983,2.88437 -4.39458,-3.99743 -5.73806,6.99484 -2.59897,-2.3001 -1.43111,3.11588 -1.80923,-3.57344 3.67241,-0.96032 -0.95191,-1.92201 -4.80636,2.68163 0.87078,2.24256 -4.38792,-2.90081 -0.75599,-4.47143 -2.05901,2.73094 -0.24978,-2.36586 5.6301,-2.58711 -1.51216,-3.12136 -5.69078,3.86867 1.01933,2.683 -2.38294,4.43102 1.4041,1.64528 -3.90864,4.24059 -5.35995,-0.5096 -3.77356,4.12005 -5.78536,0.7103 0.1418,-3.22206 -7.75643,-3.18302 -11.15197,7.88048 -3.60491,-3.357 10.80103,-13.13347 2.1669,-6.51809 0.1418,-5.4297 -5.10352,-3.29056 3.09181,-11.74096 8.91756,0.55482 3.83433,-5.40708 -3.13893,-9.18055 -3.98969,0.94456 -0.99912,-6.23453 -4.75232,0.0478 1.18805,-6.60989 6.48733,-2.20146 5.42744,8.11954 5.0967,-0.48289 1.01941,-2.65082 4.90768,4.02692 6.16332,-1.98299 20.03586,-15.55686 -1.80915,-2.78369 1.81589,-4.23785 6.56164,-2.74945 0.51302,-4.50911 4.16507,0.93224 0.41178,-3.53716 -2.84202,-2.74258 3.96268,-0.69387 0.16201,-5.44614 3.73307,-0.5192 -0.46581,4.79749 3.95594,1.535 10.17311,-2.88576 5.06969,-10.93131 5.95401,-0.65208 2.01171,-6.08522 1.62695,2.73984 4.56339,-0.96509 -1.66742,-3.10973 1.59994,-2.04804 4.19207,1.10827 -1.34332,-3.08371 4.21909,-1.40212 0.57379,-8.00926 5.13727,9.68058 -1.10037,4.3406 7.94545,0.98771 -1.26911,-4.98377 7.58097,1.54869 -0.79656,-7.72501 -6.16331,0.50961 -0.84386,3.1296 -2.44369,-3.16111 2.01844,-0.88633 -1.86991,-4.50499 2.20747,-3.67826 -2.032,-5.47011 4.03008,-0.0302 -0.89098,-8.8634 8.38425,-10.52034 8.68798,-1.16034 2.95008,3.05426 3.42928,-2.10833 8.02649,4.72488 22.08124,-14.96368 2.78125,-4.29405 -1.74165,-4.52897 9.90988,1.28089 3.11881,-2.21516 8.56654,-17.21175 7.20965,4.07141 9.48463,-6.8825 4.22582,9.3059 -3.55753,9.89977 1.93067,6.09069 -2.01844,-2.37819 -2.11296,3.54262 7.4729,5.46737 2.74078,9.86552 -6.91931,-1.33089 -4.5702,-3.66317 -0.76282,-3.99333 -0.12825,6.67084 3.3415,4.03922 -4.90096,4.42487 -0.89105,4.47348 1.95095,3.67278 -5.94056,-1.44322 -0.72233,3.03096 9.54539,3.18918 -0.12826,5.22832 -7.06121,-3.47825 -8.18841,4.06799 9.32253,5.53725 9.30241,0.43358 -0.49282,-3.66249 7.2907,-3.70702 2.62599,3.25906 0.60753,-2.75562 -5.27225,-6.54823 -3.15248,-0.0857 1.72137,-2.28846 -4.86039,-8.04078 5.49494,-4.3043 10.51076,1.02469 1.86318,1.31855 -4.65126,0.25002 0.99913,3.10289 -1.43793,0.17329 -1.22853,1.70898 10.03812,-1.19457 -2.80827,1.42129 1.30294,2.17887 4.84691,-3.7988 3.24026,0.86373 -8.70152,-4.09538 -1.95096,-5.27831 2.41677,-4.27624 2.90942,2.18024 5.43427,-2.27545 -1.5188,-3.97551 -2.79481,0.96372 1.19487,-3.98853 7.3109,2.633 2.41677,-8.87026 7.41215,1.7672 12.32664,-8.80245 12.23885,-1.72542 -0.95191,-2.64739 5.03602,-1.90145 -1.01932,-5.30641 12.9612,-6.57085 0.56706,-9.89838 2.45716,1.60966"
     id="path3408"
     inkscape:connector-curvature="0"
     style="font-size:medium;font-style:normal;font-weight:400;fill:#b3b3b3;fill-opacity:1;fill-rule:evenodd;stroke:#000000;stroke-width:2.08817314999999981;stroke-linecap:square;stroke-linejoin:bevel;stroke-opacity:1;font-family:MS Shell Dlg 2" />
  <g
     style="font-size:32.5px;font-style:normal;font-weight:400;fill:none;stroke:#000000;stroke-width:1;stroke-linecap:square;stroke-linejoin:bevel;stroke-opacity:1;font-family:MS Shell Dlg 2"
     id="g3412"
     font-style="normal"
     font-weight="400"
     font-size="32.5"
     transform="matrix(11.8081,0,0,11.8081,231.59415,-1206.6029)" />
  <g
     style="font-size:32.5px;font-style:normal;font-weight:400;fill:none;stroke:#000000;stroke-width:1;stroke-linecap:square;stroke-linejoin:bevel;stroke-opacity:1;font-family:MS Shell Dlg 2"
     id="g3414"
     font-style="normal"
     font-weight="400"
     font-size="32.5"
     transform="matrix(11.8081,0,0,11.8081,231.59415,-1206.6029)" />
  <g
     style="font-size:32.5px;font-style:normal;font-weight:400;fill:none;stroke:#000000;stroke-width:1;stroke-linecap:square;stroke-linejoin:bevel;stroke-opacity:1;font-family:MS Shell Dlg 2"
     id="g3416"
     font-style="normal"
     font-weight="400"
     font-size="32.5"
     transform="matrix(11.8081,0,0,11.8081,231.59415,-1206.6029)" />
  <g
     style="font-size:32.5px;font-style:normal;font-weight:400;fill:none;stroke:#000000;stroke-width:1;stroke-linecap:square;stroke-linejoin:bevel;stroke-opacity:1;font-family:MS Shell Dlg 2"
     id="g3418"
     font-style="normal"
     font-weight="400"
     font-size="32.5"
     transform="translate(196.47815,-1269.533)" />
  <g
     style="font-size:32.5px;font-style:normal;font-weight:400;fill:none;stroke:#000000;stroke-width:1;stroke-linecap:square;stroke-linejoin:bevel;stroke-opacity:1;font-family:MS Shell Dlg 2"
     id="g3420"
     font-style="normal"
     font-weight="400"
     font-size="32.5"
     transform="matrix(11.8081,0,0,11.8081,231.59415,-1206.6029)" />
  <g
     style="font-size:32.5px;font-style:normal;font-weight:400;fill:none;stroke:#000000;stroke-width:1;stroke-linecap:square;stroke-linejoin:bevel;stroke-opacity:1;font-family:MS Shell Dlg 2"
     id="g3422"
     font-style="normal"
     font-weight="400"
     font-size="32.5"
     transform="matrix(11.8081,0,0,11.8081,231.59415,-1206.6029)" />
  <g
     style="font-size:32.5px;font-style:normal;font-weight:400;fill:none;stroke:#000000;stroke-width:1;stroke-linecap:square;stroke-linejoin:bevel;stroke-opacity:1;font-family:MS Shell Dlg 2"
     id="g3424"
     font-style="normal"
     font-weight="400"
     font-size="32.5"
     transform="matrix(11.8081,0,0,11.8081,231.59415,-1206.6029)" />
  <g
     style="font-size:32.5px;font-style:normal;font-weight:400;fill:none;stroke:#000000;stroke-width:1;stroke-linecap:square;stroke-linejoin:bevel;stroke-opacity:1;font-family:MS Shell Dlg 2"
     id="g3426"
     font-style="normal"
     font-weight="400"
     font-size="32.5"
     transform="matrix(11.8081,0,0,11.8081,231.59415,-1206.6029)" />
  <g
     style="font-size:32.5px;font-style:normal;font-weight:400;fill:none;stroke:#000000;stroke-width:1;stroke-linecap:square;stroke-linejoin:bevel;stroke-opacity:1;font-family:MS Shell Dlg 2"
     id="g3428"
     font-style="normal"
     font-weight="400"
     font-size="32.5"
     transform="matrix(11.8081,0,0,11.8081,196.47815,-1269.533)" />
  <g
     style="font-size:32.5px;font-style:normal;font-weight:400;fill:none;stroke:#000000;stroke-width:1;stroke-linecap:square;stroke-linejoin:bevel;stroke-opacity:1;font-family:MS Shell Dlg 2"
     id="g3430"
     font-style="normal"
     font-weight="400"
     font-size="32.5"
     transform="matrix(11.8081,0,0,11.8081,196.47815,-1269.533)" />
  <g
     style="font-size:32.5px;font-style:normal;font-weight:400;fill:none;stroke:#000000;stroke-width:1;stroke-linecap:square;stroke-linejoin:bevel;stroke-opacity:1;font-family:MS Shell Dlg 2"
     id="g3432"
     font-style="normal"
     font-weight="400"
     font-size="32.5"
     transform="translate(196.47815,-1269.533)" />
</svg>
