<?xml version="1.0" encoding="UTF-8" standalone="no"?>
<svg
   xmlns:dc="http://purl.org/dc/elements/1.1/"
   xmlns:cc="http://creativecommons.org/ns#"
   xmlns:rdf="http://www.w3.org/1999/02/22-rdf-syntax-ns#"
   xmlns:svg="http://www.w3.org/2000/svg"
   xmlns="http://www.w3.org/2000/svg"
   xmlns:sodipodi="http://sodipodi.sourceforge.net/DTD/sodipodi-0.dtd"
   xmlns:inkscape="http://www.inkscape.org/namespaces/inkscape"
   width="358.14319"
   height="382.65875"
   viewBox="0 0 1193.8112 1275.5312"
   version="1.2"
   id="svg3336"
   inkscape:version="0.48.4 r9939"
   sodipodi:docname="aMarinaLucense.svg">
  <metadata
     id="metadata3436">
    <rdf:RDF>
      <cc:Work
         rdf:about="">
        <dc:format>image/svg+xml</dc:format>
        <dc:type
           rdf:resource="http://purl.org/dc/dcmitype/StillImage" />
        <dc:title>BISBARRAS</dc:title>
      </cc:Work>
    </rdf:RDF>
  </metadata>
  <sodipodi:namedview
     pagecolor="#ffffff"
     bordercolor="#666666"
     borderopacity="1"
     objecttolerance="10"
     gridtolerance="10"
     guidetolerance="10"
     inkscape:pageopacity="0.01960784"
     inkscape:pageshadow="2"
     inkscape:window-width="1873"
     inkscape:window-height="1056"
     id="namedview3434"
     showgrid="false"
     inkscape:zoom="0.771736"
     inkscape:cx="-347.09457"
     inkscape:cy="97.150364"
     inkscape:window-x="47"
     inkscape:window-y="24"
     inkscape:window-maximized="1"
     inkscape:current-layer="svg3336"
     fit-margin-top="0"
     fit-margin-left="0"
     fit-margin-right="0"
     fit-margin-bottom="0" />
  <title
     id="title3338">BISBARRAS</title>
  <desc
     id="desc3340">Generated with Qt</desc>
  <defs
     id="defs3342" />
  <g
     style="font-size:32.5px;font-style:normal;font-weight:400;fill:none;stroke:#000000;stroke-width:1;stroke-linecap:square;stroke-linejoin:bevel;stroke-opacity:1;font-family:MS Shell Dlg 2"
     id="g3346"
     font-style="normal"
     font-weight="400"
     font-size="32.5"
     transform="translate(196.47815,-1269.533)" />
  <g
     style="font-size:32.5px;font-style:normal;font-weight:400;fill:none;stroke:#000000;stroke-width:1;stroke-linecap:square;stroke-linejoin:bevel;stroke-opacity:1;font-family:MS Shell Dlg 2"
     id="g3348"
     font-style="normal"
     font-weight="400"
     font-size="32.5"
     transform="matrix(11.8081,0,0,11.8081,196.47815,-1269.533)" />
  <g
     style="font-size:32.5px;font-style:normal;font-weight:400;fill:#ffffff;fill-opacity:1;fill-rule:evenodd;stroke:none;font-family:MS Shell Dlg 2"
     id="g3350"
     font-style="normal"
     font-weight="400"
     font-size="32.5"
     transform="matrix(0.999751,0,0,0.999751,196.47815,-1269.533)" />
  <g
     style="font-size:32.5px;font-style:normal;font-weight:400;fill:none;stroke:#000000;stroke-width:1;stroke-linecap:square;stroke-linejoin:bevel;stroke-opacity:1;font-family:MS Shell Dlg 2"
     id="g3354"
     font-style="normal"
     font-weight="400"
     font-size="32.5"
     transform="matrix(11.8081,0,0,11.8081,196.47815,-1269.533)" />
  <g
     style="font-size:32.5px;font-style:normal;font-weight:400;fill:none;stroke:#000000;stroke-width:1;stroke-linecap:square;stroke-linejoin:bevel;stroke-opacity:1;font-family:MS Shell Dlg 2"
     id="g3356"
     font-style="normal"
     font-weight="400"
     font-size="32.5"
     transform="matrix(11.8081,0,0,11.8081,196.47815,-1269.533)" />
  <g
     style="font-size:32.5px;font-style:normal;font-weight:400;fill:none;stroke:#000000;stroke-width:1;stroke-linecap:square;stroke-linejoin:bevel;stroke-opacity:1;font-family:MS Shell Dlg 2"
     id="g3358"
     font-style="normal"
     font-weight="400"
     font-size="32.5"
     transform="matrix(11.8081,0,0,11.8081,231.59415,-1206.6029)" />
  <g
     style="font-size:32.5px;font-style:normal;font-weight:400;fill:none;stroke:#000000;stroke-width:1;stroke-linecap:square;stroke-linejoin:bevel;stroke-opacity:1;font-family:MS Shell Dlg 2"
     id="g3360"
     font-style="normal"
     font-weight="400"
     font-size="32.5"
     transform="matrix(11.8081,0,0,11.8081,231.59415,-1206.6029)" />
  <g
     style="font-size:32.5px;font-style:normal;font-weight:400;fill:#ffffff;fill-opacity:1;fill-rule:evenodd;stroke:none;font-family:MS Shell Dlg 2"
     id="g3362"
     font-style="normal"
     font-weight="400"
     font-size="32.5"
     transform="matrix(11.8081,0,0,11.8081,231.59415,-1206.6029)" />
  <g
     style="font-size:32.5px;font-style:normal;font-weight:400;fill:none;stroke:#000000;stroke-width:1;stroke-linecap:square;stroke-linejoin:bevel;stroke-opacity:1;font-family:MS Shell Dlg 2"
     id="g3366"
     font-style="normal"
     font-weight="400"
     font-size="32.5"
     transform="matrix(11.8081,0,0,11.8081,231.59415,-1206.6029)" />
  <g
     style="font-size:32.5px;font-style:normal;font-weight:400;fill:#000000;fill-opacity:0;fill-rule:evenodd;stroke:none;font-family:MS Shell Dlg 2"
     id="g3368"
     font-style="normal"
     font-weight="400"
     font-size="32.5"
     transform="matrix(0.999751,0,0,0.999751,231.59415,-1206.6029)">
    <path
       style="fill-rule:evenodd"
       inkscape:connector-curvature="0"
       id="path3370"
       d="m 0,0 3438,0 0,2354 L 0,2354 0,0"
       vector-effect="non-scaling-stroke" />
  </g>
  <path
     vector-effect="none"
     d="m 721.52529,153.08538 0.38486,5.08996 3.70607,1.73844 1.0396,-1.57747 3.75329,2.55354 -1.1071,0.90825 0.85731,2.61314 3.65213,0.0871 0.41178,2.55354 6.17005,-2.64943 -0.93827,2.20489 3.54406,3.66866 0.85059,3.95976 -0.82357,9.12508 10.18658,-8.24284 4.37445,0.15892 1.96443,-3.31728 1.24882,2.98917 5.76508,0.64455 0.66156,1.27541 -2.73395,5.96123 1.62686,5.35297 -1.09363,5.21462 3.51031,4.20636 8.98514,-6.3222 0.85051,-3.67895 -1.76185,-4.02687 4.71866,-10.44089 7.96565,1.56445 5.5828,-11.36969 10.06514,3.91182 4.50945,6.26809 6.92613,3.10288 -3.18632,13.4239 -5.75154,4.84885 -4.00979,7.39622 1.25556,8.38121 -1.41757,2.21585 8.58001,2.3323 6.66953,-3.90565 1.6877,5.97286 8.03323,4.1502 19.19874,-1.09184 13.37972,-3.1522 -2.00491,19.69542 1.54591,4.36663 7.25013,1.23704 4.50944,3.73922 -5.91362,7.58801 2.76106,2.31449 -0.8101,2.7008 1.89692,6.38043 1.64041,-1.52197 2.46399,2.64668 3.19977,-0.0431 9.78843,-6.33384 6.52777,7.41267 4.73222,-3.42825 6.46713,4.13101 7.60115,-0.86854 1.35689,5.82699 4.67149,1.73637 4.19205,-7.20853 11.87426,-8.28874 0.074,5.49888 4.3406,2.17064 1.2624,-1.08977 -0.2093,-6.51193 2.869,-1.70351 13.8861,-2.66108 1.7282,2.73642 -1.5324,-0.74524 -3.1998,4.55843 5.0697,10.1669 -6.1566,1.97063 1.2759,6.22289 -0.4118,12.11151 -4.6984,7.23047 2.9162,3.23164 -1.8295,6.93388 1.7553,7.05582 -3.2807,2.88849 -2.0996,8.61339 3.0851,-2.4508 16.0259,2.60148 8.9648,-2.07406 -0.7494,18.85565 2.221,7.3702 -1.0261,8.34969 2.4168,-0.85619 -0.095,4.24674 -4.3947,-2.17817 -8.3437,3.30152 -0.4118,9.33604 -5.6097,2.96588 -5.036,-1.23977 4.4217,15.90483 -2.2817,1.80145 5.522,15.37056 -5.279,5.81534 -7.5876,2.51381 3.2875,7.16471 -3.0378,4.66458 -0.014,3.65086 -10.4702,11.36352 -4.9347,11.97315 1.5391,5.4934 -0.8506,3.99332 3.5981,20.56943 3.3483,10.69913 4.3947,5.91126 2.788,15.54177 3.5104,9.50731 5.8527,7.80168 6.494,1.36992 4.8537,-2.15761 4.2056,-13.36359 4.1787,-2.18503 3.6993,8.7812 1.8767,-0.32193 -0.216,3.30152 10.2136,-1.55484 3.6723,5.04813 -2.4571,9.45935 -0.5535,11.7745 -5.9879,10.55529 -17.8149,4.36321 0.068,1.77401 -3.8884,2.50012 4.1787,4.73311 -1.3704,7.9387 0.7493,6.23321 4.5431,17.70623 -7.7159,8.65111 1.3164,4.87692 -5.2588,10.17854 0.7562,2.17132 -8.2763,6.31536 -8.4315,2.91113 -6.2848,7.08249 -9.694,-0.95213 -10.13934,4.39062 -3.18624,-0.93836 -0.44554,2.50696 -10.23396,4.19877 -8.03323,9.4251 -3.44283,-2.89736 -7.86436,1.00003 1.97788,6.52767 3.32803,1.04113 0.89788,4.71255 -1.52562,11.27448 2.86892,1.26038 1.01258,2.72614 0.39833,8.50039 -5.50854,-0.63705 -3.63849,-6.84277 -5.17774,1.06169 -5.65021,5.42495 -4.40147,0.32873 -18.46295,-4.98654 -2.82855,-4.87006 -3.96931,-0.83566 -5.96749,0.53427 -8.93111,5.88385 -1.72819,-1.33567 -5.10343,-6.6784 -7.93199,-4.41801 14.25732,-14.41163 1.84971,-11.70599 -7.92526,0.67129 -2.87577,-3.70568 4.13806,-5.15774 0.83039,-5.73998 3.84106,1.3014 3.11208,-9.04149 -12.2456,3.29467 -4.75249,-0.0206 -5.23168,-2.79467 -9.18754,3.67143 -2.07248,-3.63032 -10.90218,-2.48642 -2.89614,1.13705 2.68675,-2.84946 2.00498,-10.76078 -1.4784,-3.41107 -1.65387,-1.00694 -0.40505,2.42483 -2.22094,-2.51383 0.58052,-10.04843 -3.35505,-1.70558 -1.35015,-3.89737 -3.19978,0.95891 -4.99536,-2.21928 -2.63282,-4.03441 -7.16908,0.28084 -3.65894,-3.61662 -2.92299,1.00687 -4.7524,-5.82218 -3.02422,0.19183 -0.1621,2.65763 -12.7587,4.18513 0.18237,4.73311 -11.53009,3.58921 -3.12554,4.56182 -3.08506,-0.97946 -2.59217,9.41133 1.74158,2.57547 -2.20065,2.7193 0.90461,9.73335 -2.70703,-0.58907 1.90365,4.36319 -0.39158,11.31559 -3.03769,10.48679 -11.94186,0.15751 0.24977,2.16447 -4.38791,4.3632 6.04187,4.37012 -4.7795,4.92488 -0.12826,10.83607 -2.24122,3.52754 -3.3686,1.48639 -5.8595,-3.64401 -4.17863,3.83579 -7.37838,0.71239 -5.84605,-4.00706 -4.48243,1.91104 -13.64969,-8.43187 -10.79429,-1.6165 -4.59714,-2.47957 -2.66646,-5.34274 -5.27225,-3.75356 -7.02738,-11.27449 -5.12371,-4.81531 -1.57291,-5.78787 0.69531,-15.01442 4.48916,-10.70597 6.69663,-7.5551 -3.71288,-1.596 -2.07922,-4.78785 -4.37428,1.41102 -2.23448,3.31523 -7.72951,-4.22624 2.16017,-1.10965 1.49196,-4.10977 -0.77635,-1.44529 7.27715,-11.68543 10.08543,-4.52764 0.98556,-3.11659 8.62058,-9.10994 -3.63186,-8.9388 2.20065,-3.60977 10.34877,-6.0208 3.78702,-12.20607 1.32314,-22.00099 -4.03008,-8.70584 -0.25652,-6.44554 -5.42753,-17.32268 -1.34332,0 -0.81011,-8.32914 -5.54223,-12.19234 12.17137,-13.39787 -9.65345,-14.98013 -6.87882,-33.78234 0.66156,-8.63053 -3.49685,-3.56866 -1.26911,-4.6509 8.08053,-16.65143 10.26762,-34.85089 -3.06469,-4.7605 -5.36003,-0.76031 -3.20652,-5.09612 5.83932,-8.88738 10.38915,-8.91822 4.60387,-8.03187 4.19889,-2.37751 2.40323,-4.85226 2.97027,-10.19911 -2.02518,-15.22192 -2.82847,-6.00849 -3.42263,-2.60491 3.57782,-5.88177 4.31369,-5.89547 5.20468,0.71989 0.54004,-1.38295 11.00359,5.89754 10.61192,-0.83087 8.21551,-16.78843 -2.29516,-1.10896 1.41083,-5.85437 5.45446,-5.46326 4.4082,0.26988 2.67992,-2.11174 2.27506,-11.73957 2.67992,-3.96046 -0.64128,-1.8994 2.15343,-5.30298 -0.88432,-2.43572 5.18447,-6.86813 -2.22093,-2.72 1.45139,-3.98167 5.38696,0.0357 1.28266,-2.26313 -1.95096,-1.01305 0.8776,-2.86109 -1.36361,-1.01649 1.60666,-0.91168 -1.37043,-1.84186 2.53148,-1.66515 -1.24209,-1.92201 0.8776,-0.82332 -1.70799,-1.68913 -3.27401,0.80485 3.3686,-6.57222 -5.73134,-3.85291 3.45629,-1.42336 -1.92385,-1.35896 2.27496,-0.52195 -1.19487,-2.13297 3.02422,-6.9e-4"
     id="path3402"
     inkscape:connector-curvature="0"
     style="font-size:medium;font-style:normal;font-weight:400;fill:#b3b3b3;fill-opacity:1;fill-rule:evenodd;stroke:#000000;stroke-width:2.08817314999999981;stroke-linecap:square;stroke-linejoin:bevel;stroke-opacity:1;font-family:MS Shell Dlg 2" />
  <g
     style="font-size:32.5px;font-style:normal;font-weight:400;fill:none;stroke:#000000;stroke-width:1;stroke-linecap:square;stroke-linejoin:bevel;stroke-opacity:1;font-family:MS Shell Dlg 2"
     id="g3412"
     font-style="normal"
     font-weight="400"
     font-size="32.5"
     transform="matrix(11.8081,0,0,11.8081,231.59415,-1206.6029)" />
  <g
     style="font-size:32.5px;font-style:normal;font-weight:400;fill:none;stroke:#000000;stroke-width:1;stroke-linecap:square;stroke-linejoin:bevel;stroke-opacity:1;font-family:MS Shell Dlg 2"
     id="g3414"
     font-style="normal"
     font-weight="400"
     font-size="32.5"
     transform="matrix(11.8081,0,0,11.8081,231.59415,-1206.6029)" />
  <g
     style="font-size:32.5px;font-style:normal;font-weight:400;fill:none;stroke:#000000;stroke-width:1;stroke-linecap:square;stroke-linejoin:bevel;stroke-opacity:1;font-family:MS Shell Dlg 2"
     id="g3416"
     font-style="normal"
     font-weight="400"
     font-size="32.5"
     transform="matrix(11.8081,0,0,11.8081,231.59415,-1206.6029)" />
  <g
     style="font-size:32.5px;font-style:normal;font-weight:400;fill:none;stroke:#000000;stroke-width:1;stroke-linecap:square;stroke-linejoin:bevel;stroke-opacity:1;font-family:MS Shell Dlg 2"
     id="g3418"
     font-style="normal"
     font-weight="400"
     font-size="32.5"
     transform="translate(196.47815,-1269.533)" />
  <g
     style="font-size:32.5px;font-style:normal;font-weight:400;fill:none;stroke:#000000;stroke-width:1;stroke-linecap:square;stroke-linejoin:bevel;stroke-opacity:1;font-family:MS Shell Dlg 2"
     id="g3420"
     font-style="normal"
     font-weight="400"
     font-size="32.5"
     transform="matrix(11.8081,0,0,11.8081,231.59415,-1206.6029)" />
  <g
     style="font-size:32.5px;font-style:normal;font-weight:400;fill:none;stroke:#000000;stroke-width:1;stroke-linecap:square;stroke-linejoin:bevel;stroke-opacity:1;font-family:MS Shell Dlg 2"
     id="g3422"
     font-style="normal"
     font-weight="400"
     font-size="32.5"
     transform="matrix(11.8081,0,0,11.8081,231.59415,-1206.6029)" />
  <g
     style="font-size:32.5px;font-style:normal;font-weight:400;fill:none;stroke:#000000;stroke-width:1;stroke-linecap:square;stroke-linejoin:bevel;stroke-opacity:1;font-family:MS Shell Dlg 2"
     id="g3424"
     font-style="normal"
     font-weight="400"
     font-size="32.5"
     transform="matrix(11.8081,0,0,11.8081,231.59415,-1206.6029)" />
  <g
     style="font-size:32.5px;font-style:normal;font-weight:400;fill:none;stroke:#000000;stroke-width:1;stroke-linecap:square;stroke-linejoin:bevel;stroke-opacity:1;font-family:MS Shell Dlg 2"
     id="g3426"
     font-style="normal"
     font-weight="400"
     font-size="32.5"
     transform="matrix(11.8081,0,0,11.8081,231.59415,-1206.6029)" />
  <g
     style="font-size:32.5px;font-style:normal;font-weight:400;fill:none;stroke:#000000;stroke-width:1;stroke-linecap:square;stroke-linejoin:bevel;stroke-opacity:1;font-family:MS Shell Dlg 2"
     id="g3428"
     font-style="normal"
     font-weight="400"
     font-size="32.5"
     transform="matrix(11.8081,0,0,11.8081,196.47815,-1269.533)" />
  <g
     style="font-size:32.5px;font-style:normal;font-weight:400;fill:none;stroke:#000000;stroke-width:1;stroke-linecap:square;stroke-linejoin:bevel;stroke-opacity:1;font-family:MS Shell Dlg 2"
     id="g3430"
     font-style="normal"
     font-weight="400"
     font-size="32.5"
     transform="matrix(11.8081,0,0,11.8081,196.47815,-1269.533)" />
  <g
     style="font-size:32.5px;font-style:normal;font-weight:400;fill:none;stroke:#000000;stroke-width:1;stroke-linecap:square;stroke-linejoin:bevel;stroke-opacity:1;font-family:MS Shell Dlg 2"
     id="g3432"
     font-style="normal"
     font-weight="400"
     font-size="32.5"
     transform="translate(196.47815,-1269.533)" />
</svg>
