<?xml version="1.0" encoding="UTF-8" standalone="no"?>
<svg
   xmlns:dc="http://purl.org/dc/elements/1.1/"
   xmlns:cc="http://creativecommons.org/ns#"
   xmlns:rdf="http://www.w3.org/1999/02/22-rdf-syntax-ns#"
   xmlns:svg="http://www.w3.org/2000/svg"
   xmlns="http://www.w3.org/2000/svg"
   xmlns:sodipodi="http://sodipodi.sourceforge.net/DTD/sodipodi-0.dtd"
   xmlns:inkscape="http://www.inkscape.org/namespaces/inkscape"
   width="400.10001"
   height="500"
   viewBox="0 0 1333.6667 1666.6693"
   version="1.2"
   id="svg3336"
   inkscape:version="0.48.4 r9939"
   sodipodi:docname="oRibeiro.svg">
  <metadata
     id="metadata3436">
    <rdf:RDF>
      <cc:Work
         rdf:about="">
        <dc:format>image/svg+xml</dc:format>
        <dc:type
           rdf:resource="http://purl.org/dc/dcmitype/StillImage" />
        <dc:title>BISBARRAS</dc:title>
      </cc:Work>
    </rdf:RDF>
  </metadata>
  <sodipodi:namedview
     pagecolor="#ffffff"
     bordercolor="#666666"
     borderopacity="1"
     objecttolerance="10"
     gridtolerance="10"
     guidetolerance="10"
     inkscape:pageopacity="0.01960784"
     inkscape:pageshadow="2"
     inkscape:window-width="1873"
     inkscape:window-height="1056"
     id="namedview3434"
     showgrid="false"
     inkscape:zoom="1.543472"
     inkscape:cx="159.21587"
     inkscape:cy="233.59934"
     inkscape:window-x="47"
     inkscape:window-y="24"
     inkscape:window-maximized="1"
     inkscape:current-layer="svg3336" />
  <title
     id="title3338">BISBARRAS</title>
  <desc
     id="desc3340">Generated with Qt</desc>
  <defs
     id="defs3342" />
  <g
     style="font-size:32.5px;font-style:normal;font-weight:400;fill:none;stroke:#000000;stroke-width:1;stroke-linecap:square;stroke-linejoin:bevel;stroke-opacity:1;font-family:MS Shell Dlg 2"
     id="g3346"
     font-style="normal"
     font-weight="400"
     font-size="32.5"
     transform="translate(271.82266,-1121.8036)" />
  <g
     style="font-size:32.5px;font-style:normal;font-weight:400;fill:none;stroke:#000000;stroke-width:1;stroke-linecap:square;stroke-linejoin:bevel;stroke-opacity:1;font-family:MS Shell Dlg 2"
     id="g3348"
     font-style="normal"
     font-weight="400"
     font-size="32.5"
     transform="matrix(11.8081,0,0,11.8081,271.82266,-1121.8036)" />
  <g
     style="font-size:32.5px;font-style:normal;font-weight:400;fill:#ffffff;fill-opacity:1;fill-rule:evenodd;stroke:none;font-family:MS Shell Dlg 2"
     id="g3350"
     font-style="normal"
     font-weight="400"
     font-size="32.5"
     transform="matrix(0.999751,0,0,0.999751,271.82266,-1121.8036)" />
  <g
     style="font-size:32.5px;font-style:normal;font-weight:400;fill:none;stroke:#000000;stroke-width:1;stroke-linecap:square;stroke-linejoin:bevel;stroke-opacity:1;font-family:MS Shell Dlg 2"
     id="g3354"
     font-style="normal"
     font-weight="400"
     font-size="32.5"
     transform="matrix(11.8081,0,0,11.8081,271.82266,-1121.8036)" />
  <g
     style="font-size:32.5px;font-style:normal;font-weight:400;fill:none;stroke:#000000;stroke-width:1;stroke-linecap:square;stroke-linejoin:bevel;stroke-opacity:1;font-family:MS Shell Dlg 2"
     id="g3356"
     font-style="normal"
     font-weight="400"
     font-size="32.5"
     transform="matrix(11.8081,0,0,11.8081,271.82266,-1121.8036)" />
  <g
     style="font-size:32.5px;font-style:normal;font-weight:400;fill:none;stroke:#000000;stroke-width:1;stroke-linecap:square;stroke-linejoin:bevel;stroke-opacity:1;font-family:MS Shell Dlg 2"
     id="g3358"
     font-style="normal"
     font-weight="400"
     font-size="32.5"
     transform="matrix(11.8081,0,0,11.8081,306.93866,-1058.8735)" />
  <g
     style="font-size:32.5px;font-style:normal;font-weight:400;fill:none;stroke:#000000;stroke-width:1;stroke-linecap:square;stroke-linejoin:bevel;stroke-opacity:1;font-family:MS Shell Dlg 2"
     id="g3360"
     font-style="normal"
     font-weight="400"
     font-size="32.5"
     transform="matrix(11.8081,0,0,11.8081,306.93866,-1058.8735)" />
  <g
     style="font-size:32.5px;font-style:normal;font-weight:400;fill:#ffffff;fill-opacity:1;fill-rule:evenodd;stroke:none;font-family:MS Shell Dlg 2"
     id="g3362"
     font-style="normal"
     font-weight="400"
     font-size="32.5"
     transform="matrix(11.8081,0,0,11.8081,306.93866,-1058.8735)" />
  <g
     style="font-size:32.5px;font-style:normal;font-weight:400;fill:none;stroke:#000000;stroke-width:1;stroke-linecap:square;stroke-linejoin:bevel;stroke-opacity:1;font-family:MS Shell Dlg 2"
     id="g3366"
     font-style="normal"
     font-weight="400"
     font-size="32.5"
     transform="matrix(11.8081,0,0,11.8081,306.93866,-1058.8735)" />
  <g
     style="font-size:32.5px;font-style:normal;font-weight:400;fill:#000000;fill-opacity:0;fill-rule:evenodd;stroke:none;font-family:MS Shell Dlg 2"
     id="g3368"
     font-style="normal"
     font-weight="400"
     font-size="32.5"
     transform="matrix(0.999751,0,0,0.999751,306.93866,-1058.8735)">
    <path
       style="fill-rule:evenodd"
       inkscape:connector-curvature="0"
       id="path3370"
       d="m 0,0 3438,0 0,2354 L 0,2354 0,0"
       vector-effect="non-scaling-stroke" />
  </g>
  <path
     vector-effect="none"
     d="m 716.94256,939.38079 1.27584,3.1782 2.72731,3.596 4.98873,1.3563 5.00892,2.4042 0.70877,5.5893 -0.10123,2.137 -0.2768,-0.5275 -2.22767,-0.2258 -3.19977,1.9452 -0.49957,0.7877 0.86406,2.1919 -1.17459,1.6781 -2.19393,-1.2535 -2.09267,2.3152 -5.58962,1.459 10.41626,2.3562 -0.49957,4.3633 -3.73982,1.322 -1.1341,2.4316 -0.81685,5.7948 -6.23754,1.3424 -1.03279,0.7194 -0.94519,1.4726 1.55945,1.9863 1.39737,3.1166 2.38966,2.3564 0.48611,5.7193 0.9721,1.41801 0.77627,3.1507 -0.486,0.8494 0.12152,1.4727 1.39055,2.5823 0.0337,1.0481 -0.63454,0.8287 -1.54591,0.1302 -0.83039,1.3424 -0.97202,-0.13 -1.57965,1.6165 -1.28257,-0.2672 -2.16025,1.6028 -0.82358,0.021 -0.22958,1.0616 -1.77532,2.1509 -0.0742,1.2123 -2.17373,0.6096 2.76781,2.6234 0.33754,2.1097 -2.76779,1.089 0.2498,2.6784 0.62107,1.6918 2.74751,1.6576 1.02607,-0.7329 1.45138,-2.2673 3.15256,-1.0137 0.93155,-1.6439 3.19304,0.4726 0.72907,1.3905 0.55359,0.034 0.18219,3.5003 -1.02605,1.2603 0.0878,0.6987 -0.8776,0.5548 -1.16113,4.0755 3.12555,0.5138 1.37716,-0.3906 -0.48609,-2.2192 2.29523,-0.4658 0.93837,-0.7466 1.94413,0.3355 0.56707,-0.8766 1.20833,0.4658 2.82848,2.6027 1.3839,0.5138 3.28082,5.1647 2.24795,2.1234 -0.37132,0.8972 1.53918,3.5071 -2.55176,-1.5274 -2.10614,-0.01 -1.43112,-0.7466 -4.15841,1.7741 -10.16638,-1.1781 -2.20747,1.9589 -3.5981,1.2877 -3.11201,3.2879 -2.99055,4.0413 0.009,1.8905 -1.40409,2.3562 -1.93749,-1.6919 -2.24122,-0.8357 -2.77444,1.507 -1.39063,3.3495 1.48514,8.151 -0.68859,2.2809 -2.98373,-2.0686 -2.78126,-0.7807 -4.01661,1.4452 -2.40322,0.2534 -2.57205,-1.3562 -0.15517,-3.459 -0.68185,-1.9043 -1.7484,3.7879 -0.42534,0.2123 -0.62099,-0.6439 -0.81684,0.7878 0.22276,2.0206 -1.32986,1.6507 0.68176,4.6784 -0.66147,1.4179 -1.0599,0.049 -0.50629,0.8494 -0.83713,2.3698 -0.49956,3.8496 -1.59312,3.9385 -3.04449,2.0754 -0.49957,0.9727 0.9451,2.4864 0.0207,1.3769 -1.44466,1.4931 -0.71551,3.418 3.1795,4.4316 -0.13508,0.5617 1.60675,1.5001 -0.56706,1.2124 0.22277,1.0686 1.45804,1.5275 0.0475,0.952 1.19488,2.4385 0.36458,2.363 1.40408,1.2467 0.68186,1.3289 0.33756,1.137 -0.5536,1.6438 -5.43425,-0.055 -4.97527,-3.5002 -0.97876,1.3425 -2.53829,0.6986 -1.43784,-1.1643 -1.87673,-0.1986 -1.59984,0.9727 -2.56523,-0.014 -2.85557,-1.3562 -0.60753,0.4931 -1.68763,-0.4931 -3.13227,-1.555 -0.40506,0.2261 -0.0337,1.1918 -1.13412,2.0412 -1.49187,1.2672 0.25652,1.3905 -2.28843,-1.1849 -1.93067,1.9656 -4.17871,1.8016 -2.72049,0.5686 -4.42832,-0.1166 -1.64722,0.733 -1.53908,1.4452 0.72232,0.3288 2.71368,3.8358 -0.0405,0.7602 1.99143,5.8497 -0.18228,2.2535 -1.28257,2.1439 0.0605,3.8907 -0.61435,2.5686 -1.3839,2.9933 -0.97203,-0.1576 -0.43206,-1.452 -1.05989,-1.0619 -0.93827,-0.4794 -0.50631,0.3494 -0.53331,2.2534 1.02615,0.3905 -0.46582,0.7945 0.47929,0.959 -0.30381,3.1509 0.97884,1.3699 -0.56033,1.637 0.29708,0.8083 -0.43207,1.1781 0.28353,0.7741 -0.12153,7.0003 -1.70781,4.7878 -1.83626,1.2947 0.297,1.1027 -1.33659,0.8768 -0.2295,1.548 3.04458,4.6576 0.70196,3.3564 1.93076,3.2193 -0.10805,3.7194 -1.38382,2.8563 -2.43023,-1.4247 0.16874,-1.8152 -0.74936,0.9864 -2.04546,-0.1576 -0.18893,1.281 -1.49868,-0.1439 -2.2817,4.1235 -0.86405,0.6576 -0.43207,-0.3495 0.0605,-1.0137 -2.72715,-3.4796 -1.67416,-0.055 -2.39648,1.6918 -0.93163,-0.1096 -0.89107,-0.9314 0.24306,-0.3563 -0.98558,-4.0481 1.30285,-3.0618 -1.28265,-1.7672 -2.95,-0.8494 2.34919,-3.7467 -0.18221,-1.7261 -5.98784,-1.596 -0.91809,-1.6987 -0.45226,-5.3975 1.30958,-3.7947 -0.0406,-1.8013 -2.13997,-2.4181 -0.46573,-1.7877 -2.23448,0.1164 -1.97797,1.7056 -1.30958,-1.0069 0.91135,-2.4247 3.34158,-2.5618 4.36082,-1.9727 3.16611,-0.028 1.07335,-0.8494 1.05307,-3.7125 -4.37446,-2.4795 -0.47245,-1.0207 0.0475,-1.548 0.37804,-1.5273 0.97885,-1.2124 3.67233,-2.9454 -1.47833,-1.2055 -1.49196,-0.081 -4.56338,0.7123 -2.59906,1.0274 -1.88338,-0.7465 -3.88163,0.4315 -3.43609,-0.3904 -1.74838,1.6439 -2.28169,3.9043 -5.04939,1.6303 -1.41766,-0.2878 -1.58638,0.4863 -0.78309,-0.6712 -0.91808,0.267 0.0475,-0.5684 -0.56031,0.01 -0.83704,-1.7398 -0.63456,-0.1917 -1.99143,-4.7811 -4.08411,-0.2055 -3.41581,-2.644 -1.19487,-1.8083 -1.95095,-0.363 -0.80329,-4.4249 -1.05989,-2.3631 0.29708,-5.3632 -2.16018,-5.2332 -0.13507,-1.4384 2.45043,-2.2878 0.37131,-8.7126 2.09267,-4.4522 0.35112,-1.8289 -0.17556,-3.4729 -0.75608,-0.3424 -4.34745,0.6849 -0.84376,-0.3356 -0.18228,-0.8219 -1.18807,-0.8082 -1.80922,0.6712 -0.80329,-0.7741 -0.69533,0.013 -0.40505,-0.6985 0.35785,-0.8494 -1.79568,-1.3152 -1.24218,-3.0891 -3.12546,-3.4455 -2.23449,-1.6233 -1.04634,-3.2193 -1.7754,-1.048 -0.99912,-1.3768 -2.57195,0.2329 -3.69934,-1.0341 -0.16874,-4.4662 2.08586,-0.2465 1.44466,-2.4658 -0.90453,-2.2878 -1.63368,-2.5208 -0.0268,-1.2671 -0.70205,-2.1645 3.36851,-3.8905 1.18142,-3.6236 -1.13412,-1.1781 -0.70878,-3.8905 -5.40051,-20.2407 -3.70616,-8.1852 -0.41852,-5.062 1.54591,-4.2399 -1.78886,-3.2467 -0.31056,-1.3493 0.61428,-1.4315 -1.14759,-3.199 -0.23622,-2.0822 -2.76779,-2.0206 -1.93741,-2.42491 -2.5855,-4.5137 -4.0098,-4.8839 6.37254,4.2126 4.90094,-2.3427 0.70878,-1.9042 0.0268,-3.1918 2.89605,0.7739 5.31273,-2.3906 2.9972,0.233 1.89019,-0.5617 4.44869,3.3495 5.27899,-3.74 1.30958,-4.5207 1.02606,-0.4041 0.82357,-1.4931 4.55675,-1.4796 0.0544,-3.3905 0.9451,-1.0001 0.58061,-3.4522 2.05211,-0.2192 1.49196,-2.9933 6.10928,-3.3564 0.95856,-1.6165 1.27584,-0.013 3.22006,-3.2193 5.78528,0.01 4.09767,2.9728 1.5729,-1.3563 3.38872,-4.5344 1.12737,-1.5686 0.32402,-2.0412 2.05892,-2.0137 1.90374,-0.3768 2.39649,-1.9932 2.68675,-0.8699 -1.86326,-3.3632 0.85731,-1.8974 2.82856,-1.3151 0.74936,-1.4454 2.28842,-1.6232 3.71289,4.3837 1.05306,1.9728 -0.2295,1.137 1.12057,1.822 2.29515,1.2398 4.60397,4.3632 5.19794,-3.6373 2.70702,1.2399 7.00036,-1.6302 0.82357,0.2465 0.68867,-0.8082 7.45262,1.3698 1.59984,-2.2396 0.70887,-0.3562 2.91625,0.8492 3.09862,2.0138 5.91345,0.6166 2.52482,2.3219 1.78214,-1.4384 1.32987,-0.048 1.97788,-2.4934 3.29436,2.5413 1.24883,-0.5 1.7956,0.6575 1.55945,3.2605 1.78213,1.0137 4.16516,1.1508 1.03286,-0.3151 1.39737,-1.3562 0.72234,-4.5688 0.98547,-1.4521 3.38216,-2.8289 -0.16201,-1.7877 0.99231,-3.2741 3.80058,-3.8016 1.77539,0.2398 7.16918,3.6713 2.88924,0 2.69348,-0.5342 1.73501,-1.3767 3.82759,-0.9591 2.2142,-1.9657 6.37927,-2.9797 1.28265,0.048 0.87078,1.6097 0.45228,2.3288 2.30879,3.6577"
     id="path3398"
     inkscape:connector-curvature="0"
     style="font-size:medium;font-style:normal;font-weight:400;fill:#777777;fill-opacity:0.94117647;fill-rule:evenodd;stroke:#000000;stroke-width:2.08817314999999981;stroke-linecap:square;stroke-linejoin:bevel;stroke-opacity:1;font-family:MS Shell Dlg 2" />
  <g
     style="font-size:32.5px;font-style:normal;font-weight:400;fill:none;stroke:#000000;stroke-width:1;stroke-linecap:square;stroke-linejoin:bevel;stroke-opacity:1;font-family:MS Shell Dlg 2"
     id="g3412"
     font-style="normal"
     font-weight="400"
     font-size="32.5"
     transform="matrix(11.8081,0,0,11.8081,306.93866,-1058.8735)" />
  <g
     style="font-size:32.5px;font-style:normal;font-weight:400;fill:none;stroke:#000000;stroke-width:1;stroke-linecap:square;stroke-linejoin:bevel;stroke-opacity:1;font-family:MS Shell Dlg 2"
     id="g3414"
     font-style="normal"
     font-weight="400"
     font-size="32.5"
     transform="matrix(11.8081,0,0,11.8081,306.93866,-1058.8735)" />
  <g
     style="font-size:32.5px;font-style:normal;font-weight:400;fill:none;stroke:#000000;stroke-width:1;stroke-linecap:square;stroke-linejoin:bevel;stroke-opacity:1;font-family:MS Shell Dlg 2"
     id="g3416"
     font-style="normal"
     font-weight="400"
     font-size="32.5"
     transform="matrix(11.8081,0,0,11.8081,306.93866,-1058.8735)" />
  <g
     style="font-size:32.5px;font-style:normal;font-weight:400;fill:none;stroke:#000000;stroke-width:1;stroke-linecap:square;stroke-linejoin:bevel;stroke-opacity:1;font-family:MS Shell Dlg 2"
     id="g3418"
     font-style="normal"
     font-weight="400"
     font-size="32.5"
     transform="translate(271.82266,-1121.8036)" />
  <g
     style="font-size:32.5px;font-style:normal;font-weight:400;fill:none;stroke:#000000;stroke-width:1;stroke-linecap:square;stroke-linejoin:bevel;stroke-opacity:1;font-family:MS Shell Dlg 2"
     id="g3420"
     font-style="normal"
     font-weight="400"
     font-size="32.5"
     transform="matrix(11.8081,0,0,11.8081,306.93866,-1058.8735)" />
  <g
     style="font-size:32.5px;font-style:normal;font-weight:400;fill:none;stroke:#000000;stroke-width:1;stroke-linecap:square;stroke-linejoin:bevel;stroke-opacity:1;font-family:MS Shell Dlg 2"
     id="g3422"
     font-style="normal"
     font-weight="400"
     font-size="32.5"
     transform="matrix(11.8081,0,0,11.8081,306.93866,-1058.8735)" />
  <g
     style="font-size:32.5px;font-style:normal;font-weight:400;fill:none;stroke:#000000;stroke-width:1;stroke-linecap:square;stroke-linejoin:bevel;stroke-opacity:1;font-family:MS Shell Dlg 2"
     id="g3424"
     font-style="normal"
     font-weight="400"
     font-size="32.5"
     transform="matrix(11.8081,0,0,11.8081,306.93866,-1058.8735)" />
  <g
     style="font-size:32.5px;font-style:normal;font-weight:400;fill:none;stroke:#000000;stroke-width:1;stroke-linecap:square;stroke-linejoin:bevel;stroke-opacity:1;font-family:MS Shell Dlg 2"
     id="g3426"
     font-style="normal"
     font-weight="400"
     font-size="32.5"
     transform="matrix(11.8081,0,0,11.8081,306.93866,-1058.8735)" />
  <g
     style="font-size:32.5px;font-style:normal;font-weight:400;fill:none;stroke:#000000;stroke-width:1;stroke-linecap:square;stroke-linejoin:bevel;stroke-opacity:1;font-family:MS Shell Dlg 2"
     id="g3428"
     font-style="normal"
     font-weight="400"
     font-size="32.5"
     transform="matrix(11.8081,0,0,11.8081,271.82266,-1121.8036)" />
  <g
     style="font-size:32.5px;font-style:normal;font-weight:400;fill:none;stroke:#000000;stroke-width:1;stroke-linecap:square;stroke-linejoin:bevel;stroke-opacity:1;font-family:MS Shell Dlg 2"
     id="g3430"
     font-style="normal"
     font-weight="400"
     font-size="32.5"
     transform="matrix(11.8081,0,0,11.8081,271.82266,-1121.8036)" />
  <g
     style="font-size:32.5px;font-style:normal;font-weight:400;fill:none;stroke:#000000;stroke-width:1;stroke-linecap:square;stroke-linejoin:bevel;stroke-opacity:1;font-family:MS Shell Dlg 2"
     id="g3432"
     font-style="normal"
     font-weight="400"
     font-size="32.5"
     transform="translate(271.82266,-1121.8036)" />
</svg>
