<?xml version="1.0" encoding="UTF-8" standalone="no"?>
<svg
   xmlns:dc="http://purl.org/dc/elements/1.1/"
   xmlns:cc="http://creativecommons.org/ns#"
   xmlns:rdf="http://www.w3.org/1999/02/22-rdf-syntax-ns#"
   xmlns:svg="http://www.w3.org/2000/svg"
   xmlns="http://www.w3.org/2000/svg"
   xmlns:sodipodi="http://sodipodi.sourceforge.net/DTD/sodipodi-0.dtd"
   xmlns:inkscape="http://www.inkscape.org/namespaces/inkscape"
   width="400.10001"
   height="500"
   viewBox="0 0 1333.6667 1666.6693"
   version="1.2"
   id="svg3336"
   inkscape:version="0.48.4 r9939"
   sodipodi:docname="terrasDePontevedra.svg">
  <metadata
     id="metadata3436">
    <rdf:RDF>
      <cc:Work
         rdf:about="">
        <dc:format>image/svg+xml</dc:format>
        <dc:type
           rdf:resource="http://purl.org/dc/dcmitype/StillImage" />
        <dc:title>BISBARRAS</dc:title>
      </cc:Work>
    </rdf:RDF>
  </metadata>
  <sodipodi:namedview
     pagecolor="#ffffff"
     bordercolor="#666666"
     borderopacity="1"
     objecttolerance="10"
     gridtolerance="10"
     guidetolerance="10"
     inkscape:pageopacity="0.01960784"
     inkscape:pageshadow="2"
     inkscape:window-width="1873"
     inkscape:window-height="1056"
     id="namedview3434"
     showgrid="false"
     inkscape:zoom="1.543472"
     inkscape:cx="107.16754"
     inkscape:cy="264.8299"
     inkscape:window-x="47"
     inkscape:window-y="24"
     inkscape:window-maximized="1"
     inkscape:current-layer="svg3336" />
  <title
     id="title3338">BISBARRAS</title>
  <desc
     id="desc3340">Generated with Qt</desc>
  <defs
     id="defs3342" />
  <g
     style="font-size:32.5px;font-style:normal;font-weight:400;fill:none;stroke:#000000;stroke-width:1;stroke-linecap:square;stroke-linejoin:bevel;stroke-opacity:1;font-family:MS Shell Dlg 2"
     id="g3346"
     font-style="normal"
     font-weight="400"
     font-size="32.5"
     transform="translate(271.82266,-1121.8036)" />
  <g
     style="font-size:32.5px;font-style:normal;font-weight:400;fill:none;stroke:#000000;stroke-width:1;stroke-linecap:square;stroke-linejoin:bevel;stroke-opacity:1;font-family:MS Shell Dlg 2"
     id="g3348"
     font-style="normal"
     font-weight="400"
     font-size="32.5"
     transform="matrix(11.8081,0,0,11.8081,271.82266,-1121.8036)" />
  <g
     style="font-size:32.5px;font-style:normal;font-weight:400;fill:#ffffff;fill-opacity:1;fill-rule:evenodd;stroke:none;font-family:MS Shell Dlg 2"
     id="g3350"
     font-style="normal"
     font-weight="400"
     font-size="32.5"
     transform="matrix(0.999751,0,0,0.999751,271.82266,-1121.8036)" />
  <g
     style="font-size:32.5px;font-style:normal;font-weight:400;fill:none;stroke:#000000;stroke-width:1;stroke-linecap:square;stroke-linejoin:bevel;stroke-opacity:1;font-family:MS Shell Dlg 2"
     id="g3354"
     font-style="normal"
     font-weight="400"
     font-size="32.5"
     transform="matrix(11.8081,0,0,11.8081,271.82266,-1121.8036)" />
  <g
     style="font-size:32.5px;font-style:normal;font-weight:400;fill:none;stroke:#000000;stroke-width:1;stroke-linecap:square;stroke-linejoin:bevel;stroke-opacity:1;font-family:MS Shell Dlg 2"
     id="g3356"
     font-style="normal"
     font-weight="400"
     font-size="32.5"
     transform="matrix(11.8081,0,0,11.8081,271.82266,-1121.8036)" />
  <g
     style="font-size:32.5px;font-style:normal;font-weight:400;fill:none;stroke:#000000;stroke-width:1;stroke-linecap:square;stroke-linejoin:bevel;stroke-opacity:1;font-family:MS Shell Dlg 2"
     id="g3358"
     font-style="normal"
     font-weight="400"
     font-size="32.5"
     transform="matrix(11.8081,0,0,11.8081,306.93866,-1058.8735)" />
  <g
     style="font-size:32.5px;font-style:normal;font-weight:400;fill:none;stroke:#000000;stroke-width:1;stroke-linecap:square;stroke-linejoin:bevel;stroke-opacity:1;font-family:MS Shell Dlg 2"
     id="g3360"
     font-style="normal"
     font-weight="400"
     font-size="32.5"
     transform="matrix(11.8081,0,0,11.8081,306.93866,-1058.8735)" />
  <g
     style="font-size:32.5px;font-style:normal;font-weight:400;fill:#ffffff;fill-opacity:1;fill-rule:evenodd;stroke:none;font-family:MS Shell Dlg 2"
     id="g3362"
     font-style="normal"
     font-weight="400"
     font-size="32.5"
     transform="matrix(11.8081,0,0,11.8081,306.93866,-1058.8735)" />
  <g
     style="font-size:32.5px;font-style:normal;font-weight:400;fill:none;stroke:#000000;stroke-width:1;stroke-linecap:square;stroke-linejoin:bevel;stroke-opacity:1;font-family:MS Shell Dlg 2"
     id="g3366"
     font-style="normal"
     font-weight="400"
     font-size="32.5"
     transform="matrix(11.8081,0,0,11.8081,306.93866,-1058.8735)" />
  <g
     style="font-size:32.5px;font-style:normal;font-weight:400;fill:#000000;fill-opacity:0;fill-rule:evenodd;stroke:none;font-family:MS Shell Dlg 2"
     id="g3368"
     font-style="normal"
     font-weight="400"
     font-size="32.5"
     transform="matrix(0.999751,0,0,0.999751,306.93866,-1058.8735)">
    <path
       style="fill-rule:evenodd"
       inkscape:connector-curvature="0"
       id="path3370"
       d="m 0,0 3438,0 0,2354 L 0,2354 0,0"
       vector-effect="non-scaling-stroke" />
  </g>
  <path
     vector-effect="none"
     d="m 422.02241,860.52099 3.46914,-0.57536 3.70134,2.57547 1.01128,-2.3494 12.27193,11.63747 0.88433,3.47966 -1.62695,9.20587 1.37044,1.36992 -0.15528,3.33578 3.00395,2.27409 0.0674,3.36996 -3.17275,9.41825 0.93827,3.75364 -0.97211,3.48641 4.11794,4.67832 -1.20843,4.65771 1.96451,3.71932 -0.86414,0.89735 1.8227,6.61674 11.36126,4.4317 -2.9298,5.1715 5.44099,11.8019 4.20572,3.9796 4.24612,0.9315 1.81587,5.1921 8.95132,10.0621 3.40907,10.2744 4.32043,-2.1097 2.23448,2.096 -2.39649,4.0686 0.92481,3.0619 11.72584,1.6646 -0.29026,3.8904 -2.18727,3.1714 6.81816,-8.0483 3.33485,-1.596 11.30049,13.84311 2.86895,11.3087 -1.54581,4.2399 0.41844,5.062 3.70615,8.1852 7.2434,25.3094 -4.54992,7.5141 0.70204,2.1645 -10.62547,-4.2948 -20.5286,4.0755 -5.73125,5.4523 -0.49282,7.0209 -3.34824,-1.8151 -0.96538,1.8493 -7.25686,2.3289 -2.05902,-1.637 -1.68081,-9.2676 -8.71508,-2.5891 -3.14582,3.2672 0.35103,4.1716 -8.95806,8.7743 -0.43197,-2.9728 -4.50271,-2.4178 -6.36581,-0.4728 -12.40088,6.8222 -0.87284,-2.3973 -3.59137,-1.3357 -2.98442,2.185 -4.57359,-14.5554 -5.70829,-5.0756 -7.28932,17.2885 -2.10415,-2.3836 -2.0043,1.4863 -8.28361,-0.5891 -3.79118,-2.5617 -2.62874,2.459 -1.46891,-3.459 -3.65947,2.3424 -1.75787,4.7673 -2.00559,0.8357 3.78573,3.8221 0.28759,4.0139 -4.61811,1.1783 -1.89218,2.2534 0.51165,1.637 -2.72722,-1.8082 -3.25045,6.3359 4.7518,8.6989 -3.83907,4.3223 -7.81254,0.1644 -6.089,6.8085 -2.73603,0.7397 -2.71446,-2.0412 -0.32271,1.9522 -4.86513,2.3082 -2.19805,-8.5209 -1.5195,1.144 0.60823,3.4864 -0.86,-2.3906 -4.8098,-1.0616 -2.07317,3.418 0.23761,5.233 -2.2047,0.5686 1.06791,0.9316 -6.46298,2.0137 -1.28741,2.87 -5.14806,3.5412 -2.76977,-2.7056 -5.60369,-0.8562 -0.56766,1.733 1.22794,0.1164 -1.48989,1.0618 2.41332,-0.8357 -2.48694,1.0274 -0.71957,6.3017 -2.56047,1.3767 -1.20032,-2.2397 -4.29134,-0.5412 -3.73378,-5.3564 -7.46953,5.2331 -4.73955,-4.692 -8.01372,-1.9453 -3.56979,9.5552 -1.85437,-2.9864 -2.59146,0.6577 -0.40851,-2.1578 2.44776,-1.863 2.64764,-7.1443 -0.66018,-6.6988 2.49436,-5.377 -0.16813,-11.4663 1.75926,-3.411 4.24275,8.0757 -0.26463,2.8494 4.49054,1.0206 -0.0207,2.3219 2.99254,2.7605 0.0786,3.2604 3.45095,1.8288 3.60483,-1.8082 -2.58956,-1.3425 -0.79182,-4.1646 1.52631,-2.1781 -1.55737,-4.6647 2.74078,-6.1579 -0.4193,-4.3153 -2.55909,-0.1916 0.1147,-3.8221 -1.46546,-0.322 0.78033,-1.2329 -1.94354,-3.7606 1.26368,-3.1576 -3.41168,-0.3219 -1.96855,-3.0138 0.69134,-1.411 5.22961,-0.507 3.3119,2.6167 8.2547,-1.0618 1.04021,1.2193 -0.93767,3.0138 3.692,3.4385 9.78765,-3.3015 1.53779,-3.2947 6.60143,-2.8561 4.12666,-16.3501 1.88674,-0.685 1.8599,-4.5413 2.48754,0.3698 2.59966,-6.3769 2.28575,0 0.74124,-2.1989 1.63367,-0.6918 2.37285,-4.0344 2.50246,-1.911 -0.63394,2.0138 1.49386,0.7329 0.90738,-2.8768 -0.34301,2.9453 2.52069,0.7054 -0.74183,-2.4453 3.32674,-1.9932 -3.50229,0.3906 0.2774,-1.6714 5.67463,-0.021 0.44147,-3.3838 14.73668,-12.2402 -0.21475,-2.8152 -1.48443,-0.4589 0.30648,3.959 -1.02821,-1.4656 -1.50197,2.8767 -3.59879,-1.2535 -1.53096,3.0893 -3.90865,0.034 -3.19908,-5.6235 -0.8688,-6.6508 -6.29088,4.0822 -5.13322,7.8703 -2.10959,-0.8424 -7.15623,5.5481 -3.14048,0.1986 -3.88827,6.9319 -4.5891,-0.5207 0.61632,-10.4456 4.10302,-12.6513 2.7678,2.1166 3.33752,-1.4864 3.84442,-6.2879 1.19351,-5.5756 7.1759,-6.4661 4.21504,-9.26761 3.55089,1.3837 2.94119,-3.555 -1.57084,-6.4728 3.38405,-8.4046 -1.75917,-3.0138 7.93405,-6.8977 -1.36905,-7.6029 -8.04817,3.6645 -5.03593,-3.137 6.39756,-15.0145 -8.64215,-7.1304 -8.58336,-3.3221 0.50966,-7.04145 4.95834,-9.49352 2.8271,-16.79532 11.68128,-9.84975 7.13812,-12.15811 1.87603,1.55484 6.08565,-1.93159 5.13925,0.76036 5.84001,-5.17838 5.2958,-0.0206 5.59082,-5.99341 4.2381,2.06177 4.16239,-1.1987 2.69288,-7.82909 2.45111,-1.36307 6.137,-2.09603 -0.45434,2.39736 2.47546,0.59592"
     id="path3376"
     inkscape:connector-curvature="0"
     style="font-size:medium;font-style:normal;font-weight:400;fill:#777777;fill-opacity:0.94117647;fill-rule:evenodd;stroke:#000000;stroke-width:2.08817314999999981;stroke-linecap:square;stroke-linejoin:bevel;stroke-opacity:1;font-family:MS Shell Dlg 2" />
  <g
     style="font-size:32.5px;font-style:normal;font-weight:400;fill:none;stroke:#000000;stroke-width:1;stroke-linecap:square;stroke-linejoin:bevel;stroke-opacity:1;font-family:MS Shell Dlg 2"
     id="g3412"
     font-style="normal"
     font-weight="400"
     font-size="32.5"
     transform="matrix(11.8081,0,0,11.8081,306.93866,-1058.8735)" />
  <g
     style="font-size:32.5px;font-style:normal;font-weight:400;fill:none;stroke:#000000;stroke-width:1;stroke-linecap:square;stroke-linejoin:bevel;stroke-opacity:1;font-family:MS Shell Dlg 2"
     id="g3414"
     font-style="normal"
     font-weight="400"
     font-size="32.5"
     transform="matrix(11.8081,0,0,11.8081,306.93866,-1058.8735)" />
  <g
     style="font-size:32.5px;font-style:normal;font-weight:400;fill:none;stroke:#000000;stroke-width:1;stroke-linecap:square;stroke-linejoin:bevel;stroke-opacity:1;font-family:MS Shell Dlg 2"
     id="g3416"
     font-style="normal"
     font-weight="400"
     font-size="32.5"
     transform="matrix(11.8081,0,0,11.8081,306.93866,-1058.8735)" />
  <g
     style="font-size:32.5px;font-style:normal;font-weight:400;fill:none;stroke:#000000;stroke-width:1;stroke-linecap:square;stroke-linejoin:bevel;stroke-opacity:1;font-family:MS Shell Dlg 2"
     id="g3418"
     font-style="normal"
     font-weight="400"
     font-size="32.5"
     transform="translate(271.82266,-1121.8036)" />
  <g
     style="font-size:32.5px;font-style:normal;font-weight:400;fill:none;stroke:#000000;stroke-width:1;stroke-linecap:square;stroke-linejoin:bevel;stroke-opacity:1;font-family:MS Shell Dlg 2"
     id="g3420"
     font-style="normal"
     font-weight="400"
     font-size="32.5"
     transform="matrix(11.8081,0,0,11.8081,306.93866,-1058.8735)" />
  <g
     style="font-size:32.5px;font-style:normal;font-weight:400;fill:none;stroke:#000000;stroke-width:1;stroke-linecap:square;stroke-linejoin:bevel;stroke-opacity:1;font-family:MS Shell Dlg 2"
     id="g3422"
     font-style="normal"
     font-weight="400"
     font-size="32.5"
     transform="matrix(11.8081,0,0,11.8081,306.93866,-1058.8735)" />
  <g
     style="font-size:32.5px;font-style:normal;font-weight:400;fill:none;stroke:#000000;stroke-width:1;stroke-linecap:square;stroke-linejoin:bevel;stroke-opacity:1;font-family:MS Shell Dlg 2"
     id="g3424"
     font-style="normal"
     font-weight="400"
     font-size="32.5"
     transform="matrix(11.8081,0,0,11.8081,306.93866,-1058.8735)" />
  <g
     style="font-size:32.5px;font-style:normal;font-weight:400;fill:none;stroke:#000000;stroke-width:1;stroke-linecap:square;stroke-linejoin:bevel;stroke-opacity:1;font-family:MS Shell Dlg 2"
     id="g3426"
     font-style="normal"
     font-weight="400"
     font-size="32.5"
     transform="matrix(11.8081,0,0,11.8081,306.93866,-1058.8735)" />
  <g
     style="font-size:32.5px;font-style:normal;font-weight:400;fill:none;stroke:#000000;stroke-width:1;stroke-linecap:square;stroke-linejoin:bevel;stroke-opacity:1;font-family:MS Shell Dlg 2"
     id="g3428"
     font-style="normal"
     font-weight="400"
     font-size="32.5"
     transform="matrix(11.8081,0,0,11.8081,271.82266,-1121.8036)" />
  <g
     style="font-size:32.5px;font-style:normal;font-weight:400;fill:none;stroke:#000000;stroke-width:1;stroke-linecap:square;stroke-linejoin:bevel;stroke-opacity:1;font-family:MS Shell Dlg 2"
     id="g3430"
     font-style="normal"
     font-weight="400"
     font-size="32.5"
     transform="matrix(11.8081,0,0,11.8081,271.82266,-1121.8036)" />
  <g
     style="font-size:32.5px;font-style:normal;font-weight:400;fill:none;stroke:#000000;stroke-width:1;stroke-linecap:square;stroke-linejoin:bevel;stroke-opacity:1;font-family:MS Shell Dlg 2"
     id="g3432"
     font-style="normal"
     font-weight="400"
     font-size="32.5"
     transform="translate(271.82266,-1121.8036)" />
</svg>
