<?xml version="1.0" encoding="UTF-8" standalone="no"?>
<svg
   xmlns:dc="http://purl.org/dc/elements/1.1/"
   xmlns:cc="http://creativecommons.org/ns#"
   xmlns:rdf="http://www.w3.org/1999/02/22-rdf-syntax-ns#"
   xmlns:svg="http://www.w3.org/2000/svg"
   xmlns="http://www.w3.org/2000/svg"
   xmlns:sodipodi="http://sodipodi.sourceforge.net/DTD/sodipodi-0.dtd"
   xmlns:inkscape="http://www.inkscape.org/namespaces/inkscape"
   width="400.10001"
   height="500"
   viewBox="0 0 1333.6667 1666.6693"
   version="1.2"
   id="svg3336"
   inkscape:version="0.48.4 r9939"
   sodipodi:docname="terrasDeOurenseAllariz.svg">
  <metadata
     id="metadata3436">
    <rdf:RDF>
      <cc:Work
         rdf:about="">
        <dc:format>image/svg+xml</dc:format>
        <dc:type
           rdf:resource="http://purl.org/dc/dcmitype/StillImage" />
        <dc:title>BISBARRAS</dc:title>
      </cc:Work>
    </rdf:RDF>
  </metadata>
  <sodipodi:namedview
     pagecolor="#ffffff"
     bordercolor="#666666"
     borderopacity="1"
     objecttolerance="10"
     gridtolerance="10"
     guidetolerance="10"
     inkscape:pageopacity="0.01960784"
     inkscape:pageshadow="2"
     inkscape:window-width="1873"
     inkscape:window-height="1056"
     id="namedview3434"
     showgrid="false"
     inkscape:zoom="1.543472"
     inkscape:cx="159.21587"
     inkscape:cy="225.19382"
     inkscape:window-x="47"
     inkscape:window-y="24"
     inkscape:window-maximized="1"
     inkscape:current-layer="svg3336" />
  <title
     id="title3338">BISBARRAS</title>
  <desc
     id="desc3340">Generated with Qt</desc>
  <defs
     id="defs3342" />
  <g
     style="font-size:32.5px;font-style:normal;font-weight:400;fill:none;stroke:#000000;stroke-width:1;stroke-linecap:square;stroke-linejoin:bevel;stroke-opacity:1;font-family:MS Shell Dlg 2"
     id="g3346"
     font-style="normal"
     font-weight="400"
     font-size="32.5"
     transform="translate(271.82266,-1121.8036)" />
  <g
     style="font-size:32.5px;font-style:normal;font-weight:400;fill:none;stroke:#000000;stroke-width:1;stroke-linecap:square;stroke-linejoin:bevel;stroke-opacity:1;font-family:MS Shell Dlg 2"
     id="g3348"
     font-style="normal"
     font-weight="400"
     font-size="32.5"
     transform="matrix(11.8081,0,0,11.8081,271.82266,-1121.8036)" />
  <g
     style="font-size:32.5px;font-style:normal;font-weight:400;fill:#ffffff;fill-opacity:1;fill-rule:evenodd;stroke:none;font-family:MS Shell Dlg 2"
     id="g3350"
     font-style="normal"
     font-weight="400"
     font-size="32.5"
     transform="matrix(0.999751,0,0,0.999751,271.82266,-1121.8036)" />
  <g
     style="font-size:32.5px;font-style:normal;font-weight:400;fill:none;stroke:#000000;stroke-width:1;stroke-linecap:square;stroke-linejoin:bevel;stroke-opacity:1;font-family:MS Shell Dlg 2"
     id="g3354"
     font-style="normal"
     font-weight="400"
     font-size="32.5"
     transform="matrix(11.8081,0,0,11.8081,271.82266,-1121.8036)" />
  <g
     style="font-size:32.5px;font-style:normal;font-weight:400;fill:none;stroke:#000000;stroke-width:1;stroke-linecap:square;stroke-linejoin:bevel;stroke-opacity:1;font-family:MS Shell Dlg 2"
     id="g3356"
     font-style="normal"
     font-weight="400"
     font-size="32.5"
     transform="matrix(11.8081,0,0,11.8081,271.82266,-1121.8036)" />
  <g
     style="font-size:32.5px;font-style:normal;font-weight:400;fill:none;stroke:#000000;stroke-width:1;stroke-linecap:square;stroke-linejoin:bevel;stroke-opacity:1;font-family:MS Shell Dlg 2"
     id="g3358"
     font-style="normal"
     font-weight="400"
     font-size="32.5"
     transform="matrix(11.8081,0,0,11.8081,306.93866,-1058.8735)" />
  <g
     style="font-size:32.5px;font-style:normal;font-weight:400;fill:none;stroke:#000000;stroke-width:1;stroke-linecap:square;stroke-linejoin:bevel;stroke-opacity:1;font-family:MS Shell Dlg 2"
     id="g3360"
     font-style="normal"
     font-weight="400"
     font-size="32.5"
     transform="matrix(11.8081,0,0,11.8081,306.93866,-1058.8735)" />
  <g
     style="font-size:32.5px;font-style:normal;font-weight:400;fill:#ffffff;fill-opacity:1;fill-rule:evenodd;stroke:none;font-family:MS Shell Dlg 2"
     id="g3362"
     font-style="normal"
     font-weight="400"
     font-size="32.5"
     transform="matrix(11.8081,0,0,11.8081,306.93866,-1058.8735)" />
  <g
     style="font-size:32.5px;font-style:normal;font-weight:400;fill:none;stroke:#000000;stroke-width:1;stroke-linecap:square;stroke-linejoin:bevel;stroke-opacity:1;font-family:MS Shell Dlg 2"
     id="g3366"
     font-style="normal"
     font-weight="400"
     font-size="32.5"
     transform="matrix(11.8081,0,0,11.8081,306.93866,-1058.8735)" />
  <g
     style="font-size:32.5px;font-style:normal;font-weight:400;fill:#000000;fill-opacity:0;fill-rule:evenodd;stroke:none;font-family:MS Shell Dlg 2"
     id="g3368"
     font-style="normal"
     font-weight="400"
     font-size="32.5"
     transform="matrix(0.999751,0,0,0.999751,306.93866,-1058.8735)">
    <path
       style="fill-rule:evenodd"
       inkscape:connector-curvature="0"
       id="path3370"
       d="m 0,0 3438,0 0,2354 L 0,2354 0,0"
       vector-effect="non-scaling-stroke" />
  </g>
  <path
     vector-effect="none"
     d="m 736.37753,974.59469 1.3637,0.4315 -1.91721,2.9521 0.76955,2.377 1.35014,0.452 3.73992,-1.2877 2.53138,-0.1165 3.07161,2.1371 3.26727,1.6234 1.26236,-0.089 1.05981,1.0273 0.3713,3.7194 -0.81684,3.0481 -1.7956,2.9727 -4.27993,4.8975 -0.56697,1.0549 -0.0605,1.28081 -0.59407,-0.021 0.17546,2.7261 -0.93828,4.1646 -0.19583,8.3154 1.53243,0.7398 0.42525,0.774 5.18448,-0.5686 0.70887,0.8427 -0.47937,0.1505 0.24304,2.0891 1.0126,-0.069 1.97115,0.9316 8.21552,-0.9726 1.30957,3.1371 1.40419,2.1508 0.39159,1.5206 -0.0947,2.1576 3.79385,2.5275 0.36458,1.1096 0.80338,0.061 3.28755,7.2195 1.5188,-0.1986 1.73491,0.8904 3.3888,2.8289 0.20248,2.6235 0.71568,0.4658 3.63849,0.863 2.61253,-1.3015 1.43783,2.4248 0.2768,2.8084 0.45236,0.7807 -0.78319,0.1371 0.30382,0.5069 -0.31046,0.2328 -1.25564,-1.6164 -1.33669,-0.7671 -4.46878,0.4452 -4.09093,5.9249 -2.75425,2.6233 0.13499,1.0275 0.91135,0.6164 1.01259,1.8769 2.34928,1.1987 1.62686,3.5069 0.28344,2.2537 0.89788,2.274 1.18815,-1.2946 7.15563,-1.4109 4.03689,-1.5687 3.13228,0.3972 0.54004,-0.4383 7.44589,1.6918 0.44553,3.9865 2.07922,5.2811 0.2768,3.2262 -2.67329,6.4523 0.39159,1.2467 -2.03201,2.5206 -0.45225,-0.3014 -1.87665,0.8083 -1.74173,1.7398 -2.50447,-0.3768 -1.06662,1.2604 -2.3964,4.6646 0.009,3.5139 0.459,2.5001 1.4582,-0.1234 1.05981,-0.6712 0.52658,1.0617 0.63455,-0.3768 0.0742,-0.9315 0.5737,-0.5617 0,-0.9316 1.49196,1.0619 7.45262,1.6026 5.73126,0.096 1.57291,1.7534 0.34429,1.0618 6.93295,-4.0071 3.9423,-0.4999 4.13814,-3.9113 1.9374,0.035 3.97614,9.9456 3.96258,4.3906 8.8568,-1.1439 1.34341,0.8837 5.38024,-3.0276 11.95533,-12.8909 1.3839,1.2877 0.57378,2.0206 6.46705,-1.1644 1.20835,0.2191 -0.49276,1.0343 0.44554,0.9864 -3.57781,8.24 3.18631,9.7128 0.26998,5.7674 6.79114,0.2671 1.10036,2.5139 0.12826,6.192 4.64435,2.5208 7.46626,5.4866 0.3915,3.3768 9.12013,2.596 0.66148,2.87 0.0605,5.9728 4.00316,7.1168 -2.5855,0.075 0.0613,1.7054 -1.00586,2.8837 -5.144,4.5551 -2.68674,-1.4864 -2.99721,0.6096 -0.71559,-0.5617 -1.6336,0.7466 -4.29341,-0.6644 -3.7601,-1.2465 -0.44554,0.2602 -1.99816,-1.0069 -0.31728,-1.1508 -6.24435,-3.4797 -0.19585,-0.5411 0.37812,-1.0548 -5.4005,0.4932 -12.21858,-9.103 -1.09364,-1.2124 -2.4437,9.9044 -2.55848,3.8291 -1.98471,9.4387 -7.80365,2.048 -4.3609,2.4247 -1.47168,1.7948 0.0198,2.774 -2.48418,6.1647 -1.46486,6.1304 -0.68185,4.7743 0.56033,1.5821 -2.55849,4.9935 -0.49283,0.1026 -2.33572,3.1852 -3.64532,1.7466 0.56033,4.4181 -1.26238,1.226 -7.00717,-8.6374 -3.07824,0.034 0.37804,-1.0616 -0.8033,-2.0823 -1.36361,0.1027 -0.94519,-0.8698 -0.21594,-1.1576 -1.64714,0.061 -0.35785,-0.4658 -3.80732,-0.8426 -6.91938,-1.137 -0.35103,-1.8837 -2.33573,-4.1166 -1.24882,-0.6576 -1.80923,2.6646 -4.98863,-2.1851 -1.91039,-1.3151 -0.64811,0.5686 -0.39823,9.4935 2.24113,5.0344 -0.61428,0.9248 -0.50637,2.144 -0.42526,3.8357 -1.93067,1.4932 -2.08594,0.6302 -3.07152,-1.2535 -1.24881,0.042 -1.35015,-1.5549 -2.8826,-6.3153 -3.53051,-3.1713 -2.22094,1.9178 -2.23447,-3.2605 0.60089,-4.1166 -0.37813,-1.7671 -3.60483,-1.1302 -12.00928,1.096 -1.96449,0.5889 -2.71368,-1.0273 -0.41188,-5.0893 -1.22181,-3.5345 -4.1989,-4.1645 -2.97028,-1.3974 -3.11872,0.049 -4.20572,1.8288 -3.00403,-2.8014 -1.92393,-0.7741 -1.01932,-1.5275 -2.80819,0.6303 -2.73405,-0.5344 -0.31045,-0.7534 -0.74935,-0.363 0.58053,-2.2261 -0.28354,-0.822 -1.52561,-0.2945 0.009,-1.1166 1.24218,-1.5549 1.9846,-6.4454 1.84291,-2.1096 2.66655,-1.6919 2.38293,-2.2399 -1.49869,-1.8768 -1.97105,-0.2808 -4.685,-2.1371 -4.19218,2.2055 -1.6404,0.021 -1.65388,-0.678 -0.87753,0.3288 -2.09274,-0.6713 -1.86319,-1.7466 -1.86309,-5.6236 -5.21148,-1.4111 -1.83617,-1.5822 1.3366,-2.459 -0.35102,-6.9455 -1.32315,-3.0688 5.29928,-7.829 3.45629,-1.7878 -2.78126,-0.2123 -0.92481,-0.863 -6.29157,-2.5207 -4.3339,0.363 -2.3762,0.9248 -1.52571,1.6164 -2.23439,1.3494 -3.69262,-1.5961 -1.2016,-3.9521 -1.32987,-1.9521 -1.0194,-2.466 -1.40401,-1.2465 -0.36458,-2.3632 -1.19487,-2.4384 -0.0475,-0.9522 -1.45803,-1.5274 -0.22278,-1.0685 0.56706,-1.2125 -1.60675,-1.5 0.13508,-0.5617 -3.17958,-4.4316 0.7156,-3.4181 1.44465,-1.4932 -0.0207,-1.3767 -0.94509,-2.4864 0.49947,-0.9727 3.04459,-2.0755 1.59312,-3.9384 0.49956,-3.8495 0.83703,-2.37 0.50638,-0.8493 1.05989,-0.048 0.66149,-1.418 -0.68177,-4.6783 1.32987,-1.6508 -0.22277,-2.0206 0.81684,-0.7877 0.621,0.6439 0.42534,-0.2123 1.74837,-3.788 0.68186,1.9043 0.15518,3.4591 2.57205,1.3562 2.40321,-0.2535 4.01662,-1.4453 2.78126,0.7809 2.98374,2.0686 0.68858,-2.281 -1.48514,-8.151 1.39064,-3.3494 2.77444,-1.507 2.2412,0.8357 1.93749,1.6918 1.40409,-2.3562 -0.009,-1.8904 2.99056,-4.0414 3.112,-3.2879 3.59809,-1.2877 2.20738,-1.959 10.16647,1.1782 4.15834,-1.7741 1.43119,0.7466 2.10614,0.01 2.55176,1.5274 -1.53916,-3.5069 0.37129,-0.8973 -2.24794,-2.1233 -3.28081,-5.1646 -1.3839,-0.5139 -2.82847,-2.6028 -1.20843,-0.4657 -0.56706,0.8767 -1.94405,-0.3357 -0.93836,0.7467 -2.29525,0.4658 0.4861,2.2193 -1.37717,0.3903 -3.12554,-0.5136 1.16114,-4.0756 0.87759,-0.5548 -0.0878,-0.6987 1.02605,-1.2603 -0.18228,-3.5001 -0.55351,-0.035 -0.72906,-1.3904 -3.19313,-0.4726 -0.93154,1.6438 -3.15248,1.0137 -1.4514,2.2673 -1.02604,0.7329 -2.74751,-1.6576 -0.6211,-1.6918 -0.24978,-2.6783 2.7678,-1.0891 -0.10806,-1.5069 -2.40996,-3.048 -0.58733,-0.1781 2.17371,-0.6096 0.0742,-1.2124 1.7754,-2.1508 0.22959,-1.0617 0.82357,-0.021 2.16017,-1.6028 1.28266,0.2672 1.57964,-1.6165 0.97203,0.13 0.8303,-1.3424 1.54599,-0.1301 0.63446,-0.8289 -0.0337,-1.048 -1.39054,-2.5822 -0.12153,-1.4728 0.48601,-0.8493 -0.77636,-3.1508 -0.97202,-1.41791 -0.48611,-5.7193 -2.38966,-2.3564 -1.39745,-3.1166 -1.51207,-1.7809 0.39832,-1 0.87752,-1.0137 1.37035,-0.6439 5.52203,-1.0822 0.81011,-5.6099 3.65877,0.7191 0.0268,0.4179 2.40322,-0.2328 1.51215,0.8423 1.22862,-1.8562 2.07921,-1.4178 5.27217,-0.548"
     id="path3396"
     inkscape:connector-curvature="0"
     style="font-size:medium;font-style:normal;font-weight:400;fill:#777777;fill-opacity:0.94117647;fill-rule:evenodd;stroke:#000000;stroke-width:2.08817314999999981;stroke-linecap:square;stroke-linejoin:bevel;stroke-opacity:1;font-family:MS Shell Dlg 2" />
  <g
     style="font-size:32.5px;font-style:normal;font-weight:400;fill:none;stroke:#000000;stroke-width:1;stroke-linecap:square;stroke-linejoin:bevel;stroke-opacity:1;font-family:MS Shell Dlg 2"
     id="g3412"
     font-style="normal"
     font-weight="400"
     font-size="32.5"
     transform="matrix(11.8081,0,0,11.8081,306.93866,-1058.8735)" />
  <g
     style="font-size:32.5px;font-style:normal;font-weight:400;fill:none;stroke:#000000;stroke-width:1;stroke-linecap:square;stroke-linejoin:bevel;stroke-opacity:1;font-family:MS Shell Dlg 2"
     id="g3414"
     font-style="normal"
     font-weight="400"
     font-size="32.5"
     transform="matrix(11.8081,0,0,11.8081,306.93866,-1058.8735)" />
  <g
     style="font-size:32.5px;font-style:normal;font-weight:400;fill:none;stroke:#000000;stroke-width:1;stroke-linecap:square;stroke-linejoin:bevel;stroke-opacity:1;font-family:MS Shell Dlg 2"
     id="g3416"
     font-style="normal"
     font-weight="400"
     font-size="32.5"
     transform="matrix(11.8081,0,0,11.8081,306.93866,-1058.8735)" />
  <g
     style="font-size:32.5px;font-style:normal;font-weight:400;fill:none;stroke:#000000;stroke-width:1;stroke-linecap:square;stroke-linejoin:bevel;stroke-opacity:1;font-family:MS Shell Dlg 2"
     id="g3418"
     font-style="normal"
     font-weight="400"
     font-size="32.5"
     transform="translate(271.82266,-1121.8036)" />
  <g
     style="font-size:32.5px;font-style:normal;font-weight:400;fill:none;stroke:#000000;stroke-width:1;stroke-linecap:square;stroke-linejoin:bevel;stroke-opacity:1;font-family:MS Shell Dlg 2"
     id="g3420"
     font-style="normal"
     font-weight="400"
     font-size="32.5"
     transform="matrix(11.8081,0,0,11.8081,306.93866,-1058.8735)" />
  <g
     style="font-size:32.5px;font-style:normal;font-weight:400;fill:none;stroke:#000000;stroke-width:1;stroke-linecap:square;stroke-linejoin:bevel;stroke-opacity:1;font-family:MS Shell Dlg 2"
     id="g3422"
     font-style="normal"
     font-weight="400"
     font-size="32.5"
     transform="matrix(11.8081,0,0,11.8081,306.93866,-1058.8735)" />
  <g
     style="font-size:32.5px;font-style:normal;font-weight:400;fill:none;stroke:#000000;stroke-width:1;stroke-linecap:square;stroke-linejoin:bevel;stroke-opacity:1;font-family:MS Shell Dlg 2"
     id="g3424"
     font-style="normal"
     font-weight="400"
     font-size="32.5"
     transform="matrix(11.8081,0,0,11.8081,306.93866,-1058.8735)" />
  <g
     style="font-size:32.5px;font-style:normal;font-weight:400;fill:none;stroke:#000000;stroke-width:1;stroke-linecap:square;stroke-linejoin:bevel;stroke-opacity:1;font-family:MS Shell Dlg 2"
     id="g3426"
     font-style="normal"
     font-weight="400"
     font-size="32.5"
     transform="matrix(11.8081,0,0,11.8081,306.93866,-1058.8735)" />
  <g
     style="font-size:32.5px;font-style:normal;font-weight:400;fill:none;stroke:#000000;stroke-width:1;stroke-linecap:square;stroke-linejoin:bevel;stroke-opacity:1;font-family:MS Shell Dlg 2"
     id="g3428"
     font-style="normal"
     font-weight="400"
     font-size="32.5"
     transform="matrix(11.8081,0,0,11.8081,271.82266,-1121.8036)" />
  <g
     style="font-size:32.5px;font-style:normal;font-weight:400;fill:none;stroke:#000000;stroke-width:1;stroke-linecap:square;stroke-linejoin:bevel;stroke-opacity:1;font-family:MS Shell Dlg 2"
     id="g3430"
     font-style="normal"
     font-weight="400"
     font-size="32.5"
     transform="matrix(11.8081,0,0,11.8081,271.82266,-1121.8036)" />
  <g
     style="font-size:32.5px;font-style:normal;font-weight:400;fill:none;stroke:#000000;stroke-width:1;stroke-linecap:square;stroke-linejoin:bevel;stroke-opacity:1;font-family:MS Shell Dlg 2"
     id="g3432"
     font-style="normal"
     font-weight="400"
     font-size="32.5"
     transform="translate(271.82266,-1121.8036)" />
</svg>
