<?xml version="1.0" encoding="UTF-8" standalone="no"?>
<svg
   xmlns:dc="http://purl.org/dc/elements/1.1/"
   xmlns:cc="http://creativecommons.org/ns#"
   xmlns:rdf="http://www.w3.org/1999/02/22-rdf-syntax-ns#"
   xmlns:svg="http://www.w3.org/2000/svg"
   xmlns="http://www.w3.org/2000/svg"
   xmlns:sodipodi="http://sodipodi.sourceforge.net/DTD/sodipodi-0.dtd"
   xmlns:inkscape="http://www.inkscape.org/namespaces/inkscape"
   width="400.10001"
   height="500"
   viewBox="0 0 1333.6667 1666.6693"
   version="1.2"
   id="svg3336"
   inkscape:version="0.48.4 r9939"
   sodipodi:docname="verinViana.svg">
  <metadata
     id="metadata3436">
    <rdf:RDF>
      <cc:Work
         rdf:about="">
        <dc:format>image/svg+xml</dc:format>
        <dc:type
           rdf:resource="http://purl.org/dc/dcmitype/StillImage" />
        <dc:title>BISBARRAS</dc:title>
      </cc:Work>
    </rdf:RDF>
  </metadata>
  <sodipodi:namedview
     pagecolor="#ffffff"
     bordercolor="#666666"
     borderopacity="1"
     objecttolerance="10"
     gridtolerance="10"
     guidetolerance="10"
     inkscape:pageopacity="0.01960784"
     inkscape:pageshadow="2"
     inkscape:window-width="1873"
     inkscape:window-height="1056"
     id="namedview3434"
     showgrid="false"
     inkscape:zoom="1.543472"
     inkscape:cx="107.38467"
     inkscape:cy="225.19382"
     inkscape:window-x="47"
     inkscape:window-y="24"
     inkscape:window-maximized="1"
     inkscape:current-layer="svg3336" />
  <title
     id="title3338">BISBARRAS</title>
  <desc
     id="desc3340">Generated with Qt</desc>
  <defs
     id="defs3342" />
  <g
     style="font-size:32.5px;font-style:normal;font-weight:400;fill:none;stroke:#000000;stroke-width:1;stroke-linecap:square;stroke-linejoin:bevel;stroke-opacity:1;font-family:MS Shell Dlg 2"
     id="g3346"
     font-style="normal"
     font-weight="400"
     font-size="32.5"
     transform="translate(271.82266,-1121.8036)" />
  <g
     style="font-size:32.5px;font-style:normal;font-weight:400;fill:none;stroke:#000000;stroke-width:1;stroke-linecap:square;stroke-linejoin:bevel;stroke-opacity:1;font-family:MS Shell Dlg 2"
     id="g3348"
     font-style="normal"
     font-weight="400"
     font-size="32.5"
     transform="matrix(11.8081,0,0,11.8081,271.82266,-1121.8036)" />
  <g
     style="font-size:32.5px;font-style:normal;font-weight:400;fill:#ffffff;fill-opacity:1;fill-rule:evenodd;stroke:none;font-family:MS Shell Dlg 2"
     id="g3350"
     font-style="normal"
     font-weight="400"
     font-size="32.5"
     transform="matrix(0.999751,0,0,0.999751,271.82266,-1121.8036)" />
  <g
     style="font-size:32.5px;font-style:normal;font-weight:400;fill:none;stroke:#000000;stroke-width:1;stroke-linecap:square;stroke-linejoin:bevel;stroke-opacity:1;font-family:MS Shell Dlg 2"
     id="g3354"
     font-style="normal"
     font-weight="400"
     font-size="32.5"
     transform="matrix(11.8081,0,0,11.8081,271.82266,-1121.8036)" />
  <g
     style="font-size:32.5px;font-style:normal;font-weight:400;fill:none;stroke:#000000;stroke-width:1;stroke-linecap:square;stroke-linejoin:bevel;stroke-opacity:1;font-family:MS Shell Dlg 2"
     id="g3356"
     font-style="normal"
     font-weight="400"
     font-size="32.5"
     transform="matrix(11.8081,0,0,11.8081,271.82266,-1121.8036)" />
  <g
     style="font-size:32.5px;font-style:normal;font-weight:400;fill:none;stroke:#000000;stroke-width:1;stroke-linecap:square;stroke-linejoin:bevel;stroke-opacity:1;font-family:MS Shell Dlg 2"
     id="g3358"
     font-style="normal"
     font-weight="400"
     font-size="32.5"
     transform="matrix(11.8081,0,0,11.8081,306.93866,-1058.8735)" />
  <g
     style="font-size:32.5px;font-style:normal;font-weight:400;fill:none;stroke:#000000;stroke-width:1;stroke-linecap:square;stroke-linejoin:bevel;stroke-opacity:1;font-family:MS Shell Dlg 2"
     id="g3360"
     font-style="normal"
     font-weight="400"
     font-size="32.5"
     transform="matrix(11.8081,0,0,11.8081,306.93866,-1058.8735)" />
  <g
     style="font-size:32.5px;font-style:normal;font-weight:400;fill:#ffffff;fill-opacity:1;fill-rule:evenodd;stroke:none;font-family:MS Shell Dlg 2"
     id="g3362"
     font-style="normal"
     font-weight="400"
     font-size="32.5"
     transform="matrix(11.8081,0,0,11.8081,306.93866,-1058.8735)" />
  <g
     style="font-size:32.5px;font-style:normal;font-weight:400;fill:none;stroke:#000000;stroke-width:1;stroke-linecap:square;stroke-linejoin:bevel;stroke-opacity:1;font-family:MS Shell Dlg 2"
     id="g3366"
     font-style="normal"
     font-weight="400"
     font-size="32.5"
     transform="matrix(11.8081,0,0,11.8081,306.93866,-1058.8735)" />
  <g
     style="font-size:32.5px;font-style:normal;font-weight:400;fill:#000000;fill-opacity:0;fill-rule:evenodd;stroke:none;font-family:MS Shell Dlg 2"
     id="g3368"
     font-style="normal"
     font-weight="400"
     font-size="32.5"
     transform="matrix(0.999751,0,0,0.999751,306.93866,-1058.8735)">
    <path
       style="fill-rule:evenodd"
       inkscape:connector-curvature="0"
       id="path3370"
       d="m 0,0 3438,0 0,2354 L 0,2354 0,0"
       vector-effect="non-scaling-stroke" />
  </g>
  <path
     vector-effect="none"
     d="m 1071.5387,1154.6919 3.3552,-0.055 1.485,2.144 2.68,1.4041 0.6278,3.0687 0.3781,0.041 8.0535,-6.9935 2.5921,-1.5616 0.1149,-1.4111 4.091,-2.048 1.6538,0.2055 2.6867,-1.0686 10.8483,6.2332 6.3792,5.7194 4.1113,2.1645 7.4527,7.7469 1.8699,0.6851 1.0597,1.3973 3.2065,0.8494 1.2354,1.6438 0.3106,-0.5138 3.1862,-0.3012 1.4244,-1.6304 2.248,-0.4178 0.5064,-1.6233 3.5237,0.5548 0.3578,-0.8151 2.356,0.1986 3.1525,3.233 0.9856,2.6441 1.1004,0.9932 0.3915,1.9178 1.2826,1.5275 0.1283,1.0548 6.2375,0.8562 1.8902,5.0345 2.8757,2.1781 3.3821,1.3151 1.0868,1.8838 -0.243,4.7878 -2.2884,10.2951 0.9586,2.4795 -1.4919,1.7673 -0.5738,2.0137 -2.2885,2.1439 -1.1611,1.8495 -3.8547,0.5137 -4.5025,2.6645 -3.3145,0.7123 -2.2682,-0.5411 -0.095,0.5411 -1.4784,1.2878 0.4591,2.4042 -0.9992,1.5412 0.9722,2.0069 -0.3376,1.1987 0.1689,1.3493 -1.2083,0.8151 -0.2228,0.8357 0.2835,1.0137 0.7898,0.7673 -0.1485,0.8905 -0.5131,1.041 -0.6886,0.3424 -0.7763,-0.452 -0.2363,-1.2192 -0.9653,0.1919 -2.5652,2.9385 0.1282,3.274 0.9452,1.144 -1.2489,1.0959 0.3645,1.6986 -0.189,0.7261 -1.7011,0.2055 -2.8422,-0.7947 -2.4369,2.5345 -1.0734,-1.2877 -6.2982,5.6509 -0.2161,1.7056 1.4109,5.2399 2.3762,0.3699 1.7823,1.1712 2.7474,3.877 2.0049,1.4932 2.842,0.6302 5.1238,-0.01 6.9058,-1.3836 2.3426,-0.9795 0.3239,8.1646 0.4591,2.0208 3.9154,3.4453 0.3239,2.0138 1.3367,1.6508 -0.014,0.452 -1.6741,1.0137 -0.7966,1.1097 0,1.6164 -1.1881,1.5481 -0.6819,3.0755 -2.707,3.1578 -0.7223,3.2534 -0.7088,0.5138 -0.06,1.8426 -1.0665,0.9863 -0.9383,-0.1164 -1.4987,1.1713 0.2633,1.3562 -2.1467,4.1234 -0.2632,1.5206 0.2294,1.2261 1.0735,1.6713 0.3172,1.8288 1.2286,0.9043 0.9046,3.2878 -0.297,0.6301 -0.736,-0.3424 -1.5863,2.3973 -2.0319,0.8426 -1.5527,1.8082 -1.1813,0.6507 -1.8091,4.925 -1.2422,1.4658 -0.081,1.1781 -2.5315,0.6643 -1.0463,-0.4725 -1.5595,0.4725 -8.7555,-1.0342 -2.599,-1.3357 0.2903,-0.5273 -0.6142,-0.6371 -1.6337,0.1781 0.094,0.8288 -1.3704,1.1095 -0.01,0.6097 -2.8352,1.2603 -2.3086,-0.6232 -0.1958,-0.959 -2.1873,1.3904 -4.0031,-0.7945 -1.5526,-1.1849 -3.3482,-7.3771 -1.6269,-6.4113 -12.2862,-5.7332 -2.7205,-2.5273 -5.9609,-0.507 -3.6654,-1.9521 -5.0968,2.7193 -1.3366,4.2673 -1.6472,2.1713 -1.7146,-0.6302 -1.1275,-1.4384 -6.0552,-0.2465 -1.6134,1.2946 -0.6345,2.0137 -2.194,3.1303 0.1079,2.555 0.8575,2.9246 -1.1949,2.7468 0.6818,0.5 1.0463,-0.5 0.2564,1.9589 0.6144,1.3425 -2.5247,2.7811 0.1486,0.6643 1.4851,0.9384 -2.8421,1.3974 -0.1485,0.5206 1.6134,0.2465 0.2566,1.9042 1.3434,0.5822 -0.6481,0.8767 0.405,1.6645 1.8295,1.1029 0.034,1.4657 0.7831,2.4454 0.5604,0.2946 0.4521,1.2809 -1.3231,0.5205 0.088,0.8973 0.9587,-0.028 1.2758,0.8288 -4.0639,4.1371 0.2161,3.1989 -1.1274,2.1234 -0.2093,4.0343 -2.9162,6.6374 -2.95,4.87 -3.5847,0.5001 -1.1476,-0.1302 -0.4589,-0.6575 -2.2683,1.4864 -2.7002,3.0685 -5.6031,2.8221 0.06,0.6645 -0.7359,0.3836 -1.8767,-0.9932 -2.1534,0.267 -1.107,-0.5274 -3.6859,1.2466 -4.8874,2.6646 -3.3888,1.226 -3.8546,2.644 -2.572,2.7398 -8.1751,0.4317 -1.4715,2.0274 -1.9307,1.2672 -0.999,1.4657 -2.53159,0.9727 -2.43695,-1.1987 -2.24127,0.3015 -2.75423,-0.089 -1.31641,-0.6232 -2.20065,0.1849 -7.85094,3.1509 -3.51713,-7.9799 -1.59985,0.6507 -0.74934,1.281 -1.80915,0.5135 -5.69074,3.7401 -0.48601,0.863 -1.82269,-0.4727 0.0207,2.2262 -1.08008,2.6302 -1.21508,1.5344 0.26998,1.5822 -1.16113,1.9111 -2.41668,0.7671 0.10124,2.0686 -2.68674,3.0274 -3.15258,2.0276 -0.7155,1.6713 -2.194,0.1028 -3.09854,2.5001 -0.20249,-1.5275 -0.68185,-1.411 0.75608,-1.5069 1.62022,-1.3562 -2.62608,-3.0276 -0.24296,-1.1096 0.37131,-1.2878 1.14084,-0.1368 0.72907,-0.877 0.21594,-0.9793 -0.31054,-1.6987 -0.51976,-1.1919 -3.51032,-1.4658 -3.3011,-2.7399 -1.26229,-0.1165 -1.64041,-3.2672 -0.60754,-5.1099 0.46582,-1.3835 1.16777,-1.5755 -3.40899,-4.7194 -5.80556,1.1508 -4.19208,-0.3082 -4.97527,1.6027 -2.56522,-5.1713 -0.2093,-1.2468 -5.18448,1.1234 -2.14669,1.7741 -1.98463,0.774 -0.9721,2.185 1.18814,2.9112 1.54581,1.3219 0.3443,2.3562 0.51311,0.8151 -7.2907,5.4182 -8.26273,3.4109 -1.4041,-0.3697 -1.22871,0.9862 -1.96442,-0.1437 -0.96529,1.0822 -3.80732,-0.2945 -3.2538,0.9247 -3.77365,2.0206 -1.03278,-0.6371 -5.86634,-0.3698 -2.11968,-0.8493 -2.51128,-0.2193 -4.96162,2.1988 -1.82271,0.2535 -0.58724,-0.6851 -0.16209,-1.4864 0.1418,-2.2673 1.02606,-3.0136 0.14854,-3.3633 1.16786,-1.7261 1.47167,0.322 -0.22285,-3.0755 3.17285,-5.0413 0.18901,-1.6987 -1.12065,-1.5893 1.36363,-1.4451 2.05901,-0.459 2.11295,-1.2124 1.01251,-1.774 1.64723,-0.8494 0.47245,-2.0274 -1.20152,-2.0001 -0.85059,1.5137 -1.39744,-0.5822 -7.64846,0.7192 -2.31536,-1.274 -1.59992,-2.1097 -1.69444,0.089 -2.82175,2.8152 -3.36178,0.3561 -9.71421,-1.1097 -4.43512,-3.3082 -1.69436,-2.233 -0.73588,-2.1714 -4.34062,-0.028 -2.05893,-1.8016 -2.49091,-3.7056 -3.40243,-2.1713 -0.97876,-1.1439 -3.21333,-0.1987 1.76194,-1.7053 2.17364,-1.2126 3.08506,-1 2.79473,-2.9591 1.32986,-0.3081 2.33573,-3.8701 -0.16201,-1.2056 1.01941,-2.4247 -0.21611,-0.637 0.89115,-1.3357 0.80328,-0.1028 3.40908,-2.507 1.83616,-0.5549 4.61743,-3.5547 -0.15527,-0.4316 2.48417,-1.637 3.68596,-4.4043 2.99048,-2.3358 -2.31553,-15.6788 7.93198,0.5753 4.41494,2.0961 1.08008,-0.3083 0.33074,-0.3562 0.67512,-6.8154 3.41581,-2.9247 1.03288,-1.6576 3.76683,2.1097 2.03191,-1.096 0.93837,-1.2944 0.92481,-2.2058 0.26998,-4.6783 -1.89693,-2.1714 -1.67415,-2.9315 -2.04538,-0.185 -2.43697,-1.1096 -0.77636,-2.5481 3.9896,-3.7536 3.17276,-1.5617 4.44195,-0.8151 2.45052,-1.7945 3.03777,-2.7125 -0.0475,-1.048 1.37043,-2.7947 -0.31054,-1.0822 0.37804,-0.959 -0.70886,-2.4316 -0.16874,-2.1986 1.39062,-2.6304 -0.18902,-1.548 -0.8776,-1.4726 -0.2093,-1.1918 0.35111,-1.3563 -0.18902,-0.6507 1.84964,-6.6784 0.0878,-8.7812 -2.69348,-9.8567 -2.36947,-10.8772 0.13499,-3.2466 1.00585,-4.8976 5.34649,6.4935 1.78212,1.048 1.42446,-0.3151 1.78886,2.1234 0.63457,0.2124 2.32899,-1.1713 2.28842,0.014 3.19304,-0.9316 3.69934,1.8562 2.06575,-0.1507 0.37122,-2.0959 1.15439,-1.7877 2.07913,-0.4726 1.57973,-1.9112 0.98558,-2.0617 2.54494,-0.6029 0.14854,-1.1711 0.61427,-0.6645 2.91625,-1.5754 -0.009,-2.0275 0.41852,-1.5549 -0.35103,-0.6027 0.0406,-1.9933 1.01933,-1.1028 0.26324,-0.959 -0.31727,-2.8904 2.26149,-1.7809 2.89596,-1.2399 2.01172,-2.7878 -0.0138,-1.8699 1.03278,-2.8221 -2.22766,-4.2467 3.01749,-6.1509 1.49186,-5.199 3.67232,3.6578 0.9924,1.5617 0.5738,2.1988 1.21515,0.5341 1.74157,2.3016 2.88922,0.548 1.80251,2.2056 2.22766,0.8287 2.26141,1.6097 1.24891,-1.8699 1.25564,-1.0206 5.08996,-1.1712 6.95316,-3.9592 5.14396,12.3361 2.25459,-0.678 1.28265,0.911 -0.18902,-3.7057 -1.19479,-1.9727 -0.0207,-1.966 1.12056,-0.6299 1.30293,0.2397 -0.40513,-0.8426 0.22285,-0.4109 3.72635,1.7124 -0.33082,2.4178 1.26237,-0.637 1.08009,-1.2534 0.15527,-1.5343 -0.44554,-1.7536 1.69436,-1.3083 1.25573,-0.3424 2.97701,2.1097 1.00577,-0.5068 1.83616,0.5273 6.95313,4.0276 2.89605,5.5756 0.021,-1.363 0.96529,-2.918 -0.1687,-0.7466 -1.80249,-0.7398 -1.41083,-2.8288 -0.91808,-0.8973 -0.21609,-1.3494 3.53736,-2.185 1.57963,0.7329 2.75419,-0.5754 0.4524,-1.1097 0.048,-3.7742 2.4369,-0.637 1.6539,0.7603 0.4658,0.4178 0.1148,1.1303 7.1218,5.9934 1.1274,-0.637 2.0994,0.2467 0.5131,-0.5207 3.3685,1.4521 0.2903,-0.5136 -1.0598,-2.4249 -0.297,-1.8562 -2.6666,-3.6098 -2.6056,-5.5071 -0.5603,-2.3562 7.8508,-2.6851 8.3302,-5.6646 4.3745,-0.2808 9.0931,2.2467 11.9417,-4.8839 1.2624,-3.8358 6.7439,-5.1577 2.9095,-0.3219 -0.4388,1.1233 0.5197,1.6575 1.5595,0.459 2.7136,5.8086 0.2499,1.4657"
     id="path3392"
     inkscape:connector-curvature="0"
     style="font-size:medium;font-style:normal;font-weight:400;fill:#777777;fill-opacity:0.94117647;fill-rule:evenodd;stroke:#000000;stroke-width:2.08817314999999981;stroke-linecap:square;stroke-linejoin:bevel;stroke-opacity:1;font-family:MS Shell Dlg 2" />
  <g
     style="font-size:32.5px;font-style:normal;font-weight:400;fill:none;stroke:#000000;stroke-width:1;stroke-linecap:square;stroke-linejoin:bevel;stroke-opacity:1;font-family:MS Shell Dlg 2"
     id="g3412"
     font-style="normal"
     font-weight="400"
     font-size="32.5"
     transform="matrix(11.8081,0,0,11.8081,306.93866,-1058.8735)" />
  <g
     style="font-size:32.5px;font-style:normal;font-weight:400;fill:none;stroke:#000000;stroke-width:1;stroke-linecap:square;stroke-linejoin:bevel;stroke-opacity:1;font-family:MS Shell Dlg 2"
     id="g3414"
     font-style="normal"
     font-weight="400"
     font-size="32.5"
     transform="matrix(11.8081,0,0,11.8081,306.93866,-1058.8735)" />
  <g
     style="font-size:32.5px;font-style:normal;font-weight:400;fill:none;stroke:#000000;stroke-width:1;stroke-linecap:square;stroke-linejoin:bevel;stroke-opacity:1;font-family:MS Shell Dlg 2"
     id="g3416"
     font-style="normal"
     font-weight="400"
     font-size="32.5"
     transform="matrix(11.8081,0,0,11.8081,306.93866,-1058.8735)" />
  <g
     style="font-size:32.5px;font-style:normal;font-weight:400;fill:none;stroke:#000000;stroke-width:1;stroke-linecap:square;stroke-linejoin:bevel;stroke-opacity:1;font-family:MS Shell Dlg 2"
     id="g3418"
     font-style="normal"
     font-weight="400"
     font-size="32.5"
     transform="translate(271.82266,-1121.8036)" />
  <g
     style="font-size:32.5px;font-style:normal;font-weight:400;fill:none;stroke:#000000;stroke-width:1;stroke-linecap:square;stroke-linejoin:bevel;stroke-opacity:1;font-family:MS Shell Dlg 2"
     id="g3420"
     font-style="normal"
     font-weight="400"
     font-size="32.5"
     transform="matrix(11.8081,0,0,11.8081,306.93866,-1058.8735)" />
  <g
     style="font-size:32.5px;font-style:normal;font-weight:400;fill:none;stroke:#000000;stroke-width:1;stroke-linecap:square;stroke-linejoin:bevel;stroke-opacity:1;font-family:MS Shell Dlg 2"
     id="g3422"
     font-style="normal"
     font-weight="400"
     font-size="32.5"
     transform="matrix(11.8081,0,0,11.8081,306.93866,-1058.8735)" />
  <g
     style="font-size:32.5px;font-style:normal;font-weight:400;fill:none;stroke:#000000;stroke-width:1;stroke-linecap:square;stroke-linejoin:bevel;stroke-opacity:1;font-family:MS Shell Dlg 2"
     id="g3424"
     font-style="normal"
     font-weight="400"
     font-size="32.5"
     transform="matrix(11.8081,0,0,11.8081,306.93866,-1058.8735)" />
  <g
     style="font-size:32.5px;font-style:normal;font-weight:400;fill:none;stroke:#000000;stroke-width:1;stroke-linecap:square;stroke-linejoin:bevel;stroke-opacity:1;font-family:MS Shell Dlg 2"
     id="g3426"
     font-style="normal"
     font-weight="400"
     font-size="32.5"
     transform="matrix(11.8081,0,0,11.8081,306.93866,-1058.8735)" />
  <g
     style="font-size:32.5px;font-style:normal;font-weight:400;fill:none;stroke:#000000;stroke-width:1;stroke-linecap:square;stroke-linejoin:bevel;stroke-opacity:1;font-family:MS Shell Dlg 2"
     id="g3428"
     font-style="normal"
     font-weight="400"
     font-size="32.5"
     transform="matrix(11.8081,0,0,11.8081,271.82266,-1121.8036)" />
  <g
     style="font-size:32.5px;font-style:normal;font-weight:400;fill:none;stroke:#000000;stroke-width:1;stroke-linecap:square;stroke-linejoin:bevel;stroke-opacity:1;font-family:MS Shell Dlg 2"
     id="g3430"
     font-style="normal"
     font-weight="400"
     font-size="32.5"
     transform="matrix(11.8081,0,0,11.8081,271.82266,-1121.8036)" />
  <g
     style="font-size:32.5px;font-style:normal;font-weight:400;fill:none;stroke:#000000;stroke-width:1;stroke-linecap:square;stroke-linejoin:bevel;stroke-opacity:1;font-family:MS Shell Dlg 2"
     id="g3432"
     font-style="normal"
     font-weight="400"
     font-size="32.5"
     transform="translate(271.82266,-1121.8036)" />
</svg>
