<?xml version="1.0" encoding="UTF-8" standalone="no"?>
<!-- Created with Inkscape (http://www.inkscape.org/) -->

<svg
   xmlns:dc="http://purl.org/dc/elements/1.1/"
   xmlns:cc="http://creativecommons.org/ns#"
   xmlns:rdf="http://www.w3.org/1999/02/22-rdf-syntax-ns#"
   xmlns:svg="http://www.w3.org/2000/svg"
   xmlns="http://www.w3.org/2000/svg"
   xmlns:sodipodi="http://sodipodi.sourceforge.net/DTD/sodipodi-0.dtd"
   xmlns:inkscape="http://www.inkscape.org/namespaces/inkscape"
   width="360"
   height="360"
   viewBox="0 0 360 360.00001"
   id="svg4379"
   version="1.1"
   inkscape:version="0.91 r13725"
   sodipodi:docname="churrasqueria.svg">
  <defs
     id="defs4381" />
  <sodipodi:namedview
     id="base"
     pagecolor="#ffffff"
     bordercolor="#666666"
     borderopacity="1.0"
     inkscape:pageopacity="0.0"
     inkscape:pageshadow="2"
     inkscape:zoom="1.6188305"
     inkscape:cx="295.26966"
     inkscape:cy="156.49949"
     inkscape:document-units="px"
     inkscape:current-layer="layer1"
     showgrid="false"
     units="px"
     inkscape:window-width="1600"
     inkscape:window-height="873"
     inkscape:window-x="1911"
     inkscape:window-y="-9"
     inkscape:window-maximized="1" />
  <metadata
     id="metadata4384">
    <rdf:RDF>
      <cc:Work
         rdf:about="">
        <dc:format>image/svg+xml</dc:format>
        <dc:type
           rdf:resource="http://purl.org/dc/dcmitype/StillImage" />
        <dc:title></dc:title>
      </cc:Work>
    </rdf:RDF>
  </metadata>
  <g
     inkscape:label="Capa 1"
     inkscape:groupmode="layer"
     id="layer1"
     transform="translate(0,-692.36216)">
    <path
       inkscape:connector-curvature="0"
       style="fill:#000000;fill-opacity:1"
       d="M 303.33518,805.93154 153.41839,721.07483 c -2.58901,-1.45694 -5.84743,-0.55127 -7.30437,2.04759 L 65.4903,865.52812 c -2.303535,-0.63003 -4.853174,0.3347 -6.093538,2.5201 l -1.378184,2.43151 c -1.46678,2.58902 -0.561117,5.87697 2.018054,7.3339 l 70.247968,39.76059 -4.25268,7.49141 c -1.38803,2.48073 -0.61034,5.58164 1.74242,7.12718 -0.39377,0.34454 -0.758,0.77768 -1.03364,1.26989 l -10.90734,19.28472 -2.38228,-1.34865 c -2.61855,-1.47662 -5.88682,-0.57096 -7.34375,2.0279 l -27.504601,48.59083 c -1.466781,2.5791 -0.561118,5.8573 2.037742,7.3241 l 13.043519,7.3732 c 2.569328,1.457 5.847435,0.5612 7.30437,-2.018 l 27.51444,-48.61053 c 1.4471,-2.58902 0.54143,-5.85728 -2.02789,-7.31422 l -2.39214,-1.36834 10.90734,-19.28472 c 0.28548,-0.47252 0.46268,-1.01395 0.55127,-1.52584 2.52996,1.21083 5.61118,0.28548 7.02874,-2.18541 l 4.24284,-7.50125 70.23811,39.75074 c 2.58901,1.45694 5.86712,0.55127 7.32406,-2.03774 l 1.36834,-2.43151 c 1.24036,-2.19525 0.77769,-4.87286 -0.97458,-6.53653 l 80.60403,-142.4057 c 1.4471,-2.57917 0.53159,-5.84743 -2.03774,-7.31421 z M 83.583877,870.89319 c -2.923718,-1.64398 -4.557849,-4.29206 -3.622653,-5.91635 L 151.80395,738.03633 c 0.91551,-1.61445 4.02625,-1.58491 6.94013,0.0689 2.9434,1.65382 4.548,4.31174 3.63249,5.93603 L 90.533857,870.95225 c -0.925351,1.62429 -4.026263,1.6046 -6.94998,-0.0591 z M 105.054,883.05073 c -2.90403,-1.65382 -4.53816,-4.31174 -3.60296,-5.92619 l 71.82302,-126.91098 c 0.92536,-1.63413 4.02627,-1.59475 6.94999,0.0394 2.92371,1.65382 4.53816,4.31174 3.62265,5.92618 L 112.00398,883.1098 c -0.9155,1.62428 -4.02626,1.59475 -6.94998,-0.0591 z m 28.44964,12.21661 c -0.93519,1.63413 -4.03611,1.59475 -6.95982,-0.0689 -2.91388,-1.64397 -4.53816,-4.29206 -3.62266,-5.92619 l 71.83287,-126.93068 c 0.92536,-1.6046 4.01642,-1.57506 6.94998,0.0689 2.90403,1.65382 4.53817,4.31175 3.6325,5.92619 l -71.83287,126.93068 z m 14.52999,12.09848 c -2.91387,-1.65382 -4.548,-4.29206 -3.62265,-5.93603 L 216.25369,774.5188 c 0.91551,-1.62428 4.02627,-1.59475 6.94014,0.0689 2.92372,1.64398 4.55785,4.3019 3.64234,5.92619 l -71.84271,126.93068 c -0.9352,1.61445 -4.03611,1.56523 -6.95983,-0.0788 z m 21.47012,12.17723 c -2.91387,-1.67351 -4.52832,-4.31174 -3.62265,-5.94587 l 71.85256,-126.92083 c 0.92535,-1.62429 4.02626,-1.58491 6.95983,0.0788 2.92371,1.65382 4.548,4.3019 3.63249,5.93603 l -71.86241,126.91099 c -0.92535,1.6046 -4.01642,1.59475 -6.95982,-0.0591 z m 21.49966,12.1477 c -2.91388,-1.65382 -4.55785,-4.29205 -3.6325,-5.92618 l 71.85256,-126.92083 c 0.91551,-1.6046 4.03611,-1.6046 6.94014,0.0492 2.92372,1.65382 4.54801,4.31174 3.61281,5.92619 L 197.9337,931.7498 c -0.90566,1.62429 -4.00658,1.59475 -6.93029,-0.0591 z M 291.27608,816.97669 219.42351,943.90736 c -0.93519,1.63413 -4.0361,1.58491 -6.94998,-0.0591 -2.92372,-1.64398 -4.53816,-4.3019 -3.62265,-5.93603 L 280.6936,810.9914 c 0.92535,-1.61444 4.03611,-1.59476 6.95982,0.0591 2.91388,1.66367 4.52832,4.3019 3.62266,5.92619 z"
       id="path179" />
  </g>
</svg>
