<?xml version="1.0" encoding="UTF-8" standalone="no"?>
<!-- Created with Inkscape (http://www.inkscape.org/) -->

<svg
   xmlns:dc="http://purl.org/dc/elements/1.1/"
   xmlns:cc="http://creativecommons.org/ns#"
   xmlns:rdf="http://www.w3.org/1999/02/22-rdf-syntax-ns#"
   xmlns:svg="http://www.w3.org/2000/svg"
   xmlns="http://www.w3.org/2000/svg"
   xmlns:sodipodi="http://sodipodi.sourceforge.net/DTD/sodipodi-0.dtd"
   xmlns:inkscape="http://www.inkscape.org/namespaces/inkscape"
   width="128mm"
   height="128mm"
   viewBox="0 0 453.5433 453.5433"
   id="svg4509"
   version="1.1"
   inkscape:version="0.91 r13725"
   sodipodi:docname="bosques.svg">
  <defs
     id="defs4511" />
  <sodipodi:namedview
     id="base"
     pagecolor="#ffffff"
     bordercolor="#666666"
     borderopacity="1.0"
     inkscape:pageopacity="0.0"
     inkscape:pageshadow="2"
     inkscape:zoom="0.98994949"
     inkscape:cx="-15.381293"
     inkscape:cy="221.1403"
     inkscape:document-units="px"
     inkscape:current-layer="layer1"
     showgrid="false"
     inkscape:window-width="1920"
     inkscape:window-height="1005"
     inkscape:window-x="-9"
     inkscape:window-y="83"
     inkscape:window-maximized="1" />
  <metadata
     id="metadata4514">
    <rdf:RDF>
      <cc:Work
         rdf:about="">
        <dc:format>image/svg+xml</dc:format>
        <dc:type
           rdf:resource="http://purl.org/dc/dcmitype/StillImage" />
        <dc:title></dc:title>
      </cc:Work>
    </rdf:RDF>
  </metadata>
  <g
     inkscape:label="Capa 1"
     inkscape:groupmode="layer"
     id="layer1"
     transform="translate(0,-598.8189)">
    <g
       transform="matrix(14.341074,0,0,14.661801,-2321.613,-1949.7014)"
       id="g205"
       inkscape:export-filename="C:\Users\sneira\Desktop\iconos.png"
       inkscape:export-xdpi="291.73425"
       inkscape:export-ydpi="291.73425"
       style="fill:#000000">
      <g
         id="g207"
         style="fill:#000000">
        <path
           style="fill:#000000"
           inkscape:connector-curvature="0"
           d="m 182.007,196.82 -2.444,-4.438 0.804,0.281 c 0.074,0.026 0.151,0.039 0.229,0.039 0.21,0 0.414,-0.096 0.548,-0.269 0.184,-0.236 0.194,-0.562 0.028,-0.811 l -3.146,-4.698 0.452,0.126 c 0.062,0.017 0.124,0.025 0.186,0.025 0.221,0 0.433,-0.106 0.564,-0.292 0.169,-0.237 0.172,-0.556 0.006,-0.796 l -5.083,-7.369 c -0.218,-0.365 -0.607,-0.591 -1.025,-0.591 -0.426,0 -0.815,0.231 -1.027,0.608 l -4.908,7.36 c -0.161,0.242 -0.154,0.558 0.016,0.792 0.133,0.183 0.343,0.286 0.562,0.286 0.062,0 0.125,-0.008 0.187,-0.025 l 0.277,-0.077 -3.082,4.47 c -0.159,0.23 -0.164,0.535 -0.012,0.771 0.13,0.199 0.35,0.316 0.582,0.316 0.042,0 0.083,-0.004 0.125,-0.011 l 0.952,-0.174 -2.771,4.229 c -0.153,0.233 -0.151,0.536 0.005,0.768 0.131,0.193 0.348,0.306 0.574,0.306 0.046,0 0.091,-0.004 0.137,-0.014 l 5.645,-1.127 0,3.15 c 0,0.383 0.31,0.693 0.693,0.693 l 3.537,0 c 0.384,0 0.693,-0.311 0.693,-0.693 l 0,-3.133 5.941,1.308 c 0.05,0.012 0.1,0.017 0.149,0.017 0.216,0 0.423,-0.101 0.556,-0.278 0.162,-0.217 0.182,-0.51 0.05,-0.749 z"
           id="path209" />
      </g>
      <g
         id="g211"
         style="fill:#000000">
        <path
           style="fill:#000000"
           inkscape:connector-curvature="0"
           d="m 190.707,196.415 -2.245,-4.077 0.737,0.258 c 0.069,0.024 0.14,0.036 0.211,0.036 0.192,0 0.38,-0.088 0.503,-0.247 0.168,-0.217 0.179,-0.517 0.026,-0.744 l -2.89,-4.316 0.415,0.115 c 0.057,0.016 0.113,0.022 0.17,0.022 0.202,0 0.397,-0.096 0.52,-0.267 0.155,-0.219 0.157,-0.511 0.005,-0.731 l -4.671,-6.771 c -0.199,-0.336 -0.557,-0.543 -0.941,-0.543 -0.392,0 -0.749,0.213 -0.943,0.56 l -2.771,4.155 1.366,1.981 c 0.33,0.478 0.325,1.117 -0.012,1.592 -0.126,0.176 -0.291,0.318 -0.478,0.418 l 2.432,3.633 c 0.333,0.496 0.311,1.146 -0.056,1.62 -0.202,0.261 -0.483,0.437 -0.797,0.505 l 1.72,3.122 c 0.263,0.477 0.222,1.064 -0.104,1.5 -0.26,0.349 -0.675,0.556 -1.11,0.556 -0.101,0 -0.2,-0.011 -0.298,-0.031 l -1.467,-0.324 0,0.584 c 0,0.353 0.285,0.637 0.637,0.637 l 3.251,0 c 0.352,0 0.637,-0.284 0.637,-0.637 l 0,-2.878 5.458,1.202 c 0.046,0.01 0.092,0.015 0.138,0.015 0.198,0 0.389,-0.093 0.51,-0.256 0.149,-0.201 0.168,-0.47 0.047,-0.689 z"
           id="path213" />
      </g>
    </g>
  </g>
</svg>
