<?xml version="1.0" encoding="UTF-8" standalone="no"?>
<!-- Created with Inkscape (http://www.inkscape.org/) -->

<svg
   xmlns:dc="http://purl.org/dc/elements/1.1/"
   xmlns:cc="http://creativecommons.org/ns#"
   xmlns:rdf="http://www.w3.org/1999/02/22-rdf-syntax-ns#"
   xmlns:svg="http://www.w3.org/2000/svg"
   xmlns="http://www.w3.org/2000/svg"
   xmlns:sodipodi="http://sodipodi.sourceforge.net/DTD/sodipodi-0.dtd"
   xmlns:inkscape="http://www.inkscape.org/namespaces/inkscape"
   width="128mm"
   height="128mm"
   viewBox="0 0 453.5433 453.5433"
   id="svg4509"
   version="1.1"
   inkscape:version="0.91 r13725"
   sodipodi:docname="cascadas.svg">
  <defs
     id="defs4511" />
  <sodipodi:namedview
     id="base"
     pagecolor="#ffffff"
     bordercolor="#666666"
     borderopacity="1.0"
     inkscape:pageopacity="0.0"
     inkscape:pageshadow="2"
     inkscape:zoom="0.98994949"
     inkscape:cx="-15.381293"
     inkscape:cy="221.1403"
     inkscape:document-units="px"
     inkscape:current-layer="layer1"
     showgrid="false"
     inkscape:window-width="1920"
     inkscape:window-height="1005"
     inkscape:window-x="-9"
     inkscape:window-y="83"
     inkscape:window-maximized="1" />
  <metadata
     id="metadata4514">
    <rdf:RDF>
      <cc:Work
         rdf:about="">
        <dc:format>image/svg+xml</dc:format>
        <dc:type
           rdf:resource="http://purl.org/dc/dcmitype/StillImage" />
        <dc:title></dc:title>
      </cc:Work>
    </rdf:RDF>
  </metadata>
  <g
     inkscape:label="Capa 1"
     inkscape:groupmode="layer"
     id="layer1"
     transform="translate(0,-598.8189)">
    <g
       transform="matrix(10.931131,0,0,10.931131,-1711.7995,530.13076)"
       id="g111"
       inkscape:export-filename="C:\Users\sneira\Desktop\iconos.png"
       inkscape:export-xdpi="291.73425"
       inkscape:export-ydpi="291.73425"
       style="fill:#000000;fill-opacity:1">
      <path
         style="fill:#000000;fill-opacity:1"
         inkscape:connector-curvature="0"
         d="m 187.468,34.124 c -0.875,0.15 -0.606,-0.071 -1.354,-0.071 l -0.799,-0.285 c -1.962,0 -3.366,0.127 -4.389,-0.896 -0.212,-0.214 -0.407,-0.435 -0.589,-0.659 0.403,0.312 0.869,0.587 1.42,0.798 0.189,0.073 0.499,-0.181 0.244,-0.277 -3.735,-1.435 -3.805,-5.379 -3.225,-9.148 0.082,-0.496 0.172,-1.011 0.268,-1.533 0.289,-1.51 0.618,-2.928 0.776,-4.066 0.63,-4.5 -3.587,-5.834 -7.496,-6.393 -1.33,-0.256 -3.594,-0.581 -6.513,-0.581 -0.508,0 -2.119,0.132 -2.622,0.146 -0.926,0.026 -1.794,0.214 -2.361,0.424 7.81,0.975 9.844,4.582 9.161,8.357 -0.776,4.308 -4.182,15.749 1.666,18.021 l 1.309,0.83 c 0.585,0.115 1.149,0.176 1.677,0.176 1.312,0 2.245,-0.356 3.068,-0.672 0.646,-0.246 1.256,-0.479 1.924,-0.479 0.48,0 0.963,0.121 1.471,0.37 4.672,-1.842 6.306,-3.711 6.367,-4.061 l -0.003,-10e-4 0,0 z m -11.051,0.99 c -3.539,-1.376 -3.469,-5.582 -3.117,-8.602 0.287,-2.47 0.812,-4.889 1.351,-7.318 0.983,-4.438 -2.611,-6.149 -7,-6.744 -0.288,-0.039 -0.075,-0.33 0.146,-0.301 4.624,0.626 8.357,2.292 7.291,7.019 -0.916,4.057 -3.981,13.507 1.575,15.668 0.253,0.099 -0.057,0.352 -0.246,0.278 z"
         id="path113" />
      <ellipse
         style="fill:#000000;fill-opacity:1"
         cx="183.735"
         cy="32.132999"
         rx="2.0899999"
         ry="2.102"
         id="ellipse115" />
      <ellipse
         style="fill:#000000;fill-opacity:1"
         cx="187.364"
         cy="34.036999"
         rx="2.4059999"
         ry="2.4189999"
         id="ellipse117" />
      <ellipse
         style="fill:#000000;fill-opacity:1"
         cx="187.20799"
         cy="28.409"
         rx="1.302"
         ry="1.308"
         id="ellipse119" />
      <ellipse
         style="fill:#000000;fill-opacity:1"
         cx="181.487"
         cy="30.787001"
         rx="1.1440001"
         ry="1.15"
         id="ellipse121" />
      <ellipse
         style="fill:#000000;fill-opacity:1"
         cx="176.55901"
         cy="41.092999"
         rx="1.656"
         ry="1.665"
         id="ellipse123" />
      <path
         style="fill:#000000;fill-opacity:1"
         inkscape:connector-curvature="0"
         d="m 179.988,33.839 c 1.091,0 1.973,0.888 1.973,1.982 0,1.095 -0.882,1.982 -1.973,1.982"
         id="path125" />
      <path
         style="fill:#000000;fill-opacity:1"
         inkscape:connector-curvature="0"
         d="m 181.955,36.928 c 0,1.554 -2.074,2.697 -3.621,2.697 -1.546,0 -2.801,-1.261 -2.801,-2.814"
         id="path127" />
      <path
         style="fill:#000000;fill-opacity:1"
         inkscape:connector-curvature="0"
         d="m 180.463,36.693 c 0,1.138 -0.918,2.061 -2.051,2.061 -1.133,0 -2.051,-0.923 -2.051,-2.061"
         id="path129" />
      <ellipse
         style="fill:#000000;fill-opacity:1"
         cx="183.814"
         cy="37.882"
         rx="2.6440001"
         ry="2.655"
         id="ellipse131" />
      <ellipse
         style="fill:#000000;fill-opacity:1"
         cx="173.60001"
         cy="38.754002"
         rx="2.0510001"
         ry="2.062"
         id="ellipse133" />
      <ellipse
         style="fill:#000000;fill-opacity:1"
         cx="184.09"
         cy="26.545"
         rx="1.262"
         ry="1.2690001"
         id="ellipse135" />
      <ellipse
         style="fill:#000000;fill-opacity:1"
         cx="188.07401"
         cy="20.639"
         rx="1.617"
         ry="1.625"
         id="ellipse137" />
      <ellipse
         style="fill:#000000;fill-opacity:1"
         cx="190.955"
         cy="32.095001"
         rx="1.655"
         ry="1.664"
         id="ellipse139" />
      <ellipse
         style="fill:#000000;fill-opacity:1"
         cx="192.37399"
         cy="26.148001"
         rx="1.499"
         ry="1.507"
         id="ellipse141" />
      <ellipse
         style="fill:#000000;fill-opacity:1"
         cx="180.26401"
         cy="39.426998"
         rx="2.0899999"
         ry="2.102"
         id="ellipse143" />
      <circle
         style="fill:#000000;fill-opacity:1"
         r="1.031"
         cx="180.343"
         cy="32.214001"
         id="ellipse145" />
      <path
         style="fill:#000000;fill-opacity:1"
         inkscape:connector-curvature="0"
         d="M 175.69,38.675"
         id="path147" />
      <ellipse
         style="fill:#000000;fill-opacity:1"
         cx="182.31599"
         cy="32.610001"
         rx="1.381"
         ry="1.387"
         id="ellipse149" />
      <ellipse
         style="fill:#000000;fill-opacity:1"
         cx="189.37601"
         cy="39.070999"
         rx="2.0510001"
         ry="2.062"
         id="ellipse151" />
      <circle
         style="fill:#000000;fill-opacity:1"
         cx="184.564"
         cy="41.924999"
         r="0.63099998"
         id="circle153" />
      <circle
         style="fill:#000000;fill-opacity:1"
         cx="190.79601"
         cy="28.448"
         r="0.47299999"
         id="circle155" />
      <circle
         style="fill:#000000;fill-opacity:1"
         cx="184.604"
         cy="16.912001"
         r="0.35499999"
         id="circle157" />
      <circle
         style="fill:#000000;fill-opacity:1"
         cx="181.56599"
         cy="28.051001"
         r="0.39399999"
         id="circle159" />
      <path
         style="fill:#000000;fill-opacity:1"
         inkscape:connector-curvature="0"
         d="m 174.319,29.36 c -0.172,-3.541 1.113,-7.803 1.652,-10.193 0.4,-1.771 0.113,-3.103 -0.631,-4.119 -0.19,0.022 -0.379,0.046 -0.569,0.071 0.812,1 1.153,2.319 0.766,4.075 -0.539,2.43 -1.064,4.849 -1.352,7.318 -0.104,0.896 -0.181,1.896 -0.148,2.895 0.094,-0.016 0.189,-0.031 0.282,-0.047 z"
         id="path161" />
    </g>
  </g>
</svg>
