<?xml version="1.0" encoding="UTF-8" standalone="no"?>
<!-- Created with Inkscape (http://www.inkscape.org/) -->

<svg
   xmlns:dc="http://purl.org/dc/elements/1.1/"
   xmlns:cc="http://creativecommons.org/ns#"
   xmlns:rdf="http://www.w3.org/1999/02/22-rdf-syntax-ns#"
   xmlns:svg="http://www.w3.org/2000/svg"
   xmlns="http://www.w3.org/2000/svg"
   xmlns:sodipodi="http://sodipodi.sourceforge.net/DTD/sodipodi-0.dtd"
   xmlns:inkscape="http://www.inkscape.org/namespaces/inkscape"
   width="128mm"
   height="128mm"
   viewBox="0 0 453.5433 453.5433"
   id="svg4509"
   version="1.1"
   inkscape:version="0.91 r13725"
   sodipodi:docname="humedales.svg">
  <defs
     id="defs4511" />
  <sodipodi:namedview
     id="base"
     pagecolor="#ffffff"
     bordercolor="#666666"
     borderopacity="1.0"
     inkscape:pageopacity="0.0"
     inkscape:pageshadow="2"
     inkscape:zoom="0.98994949"
     inkscape:cx="-15.381293"
     inkscape:cy="221.1403"
     inkscape:document-units="px"
     inkscape:current-layer="layer1"
     showgrid="false"
     inkscape:window-width="1920"
     inkscape:window-height="1005"
     inkscape:window-x="-9"
     inkscape:window-y="83"
     inkscape:window-maximized="1" />
  <metadata
     id="metadata4514">
    <rdf:RDF>
      <cc:Work
         rdf:about="">
        <dc:format>image/svg+xml</dc:format>
        <dc:type
           rdf:resource="http://purl.org/dc/dcmitype/StillImage" />
        <dc:title></dc:title>
      </cc:Work>
    </rdf:RDF>
  </metadata>
  <g
     inkscape:label="Capa 1"
     inkscape:groupmode="layer"
     id="layer1"
     transform="translate(0,-598.8189)">
    <g
       transform="matrix(11.605685,0,0,11.605685,-1834.0074,-4349.8491)"
       id="g305"
       inkscape:export-filename="C:\Users\sneira\Desktop\iconos.png"
       inkscape:export-xdpi="291.73425"
       inkscape:export-ydpi="291.73425"
       style="fill:#000000">
      <path
         style="fill:#000000"
         inkscape:connector-curvature="0"
         d="m 172.416,442.518 c 1.008,0.162 1.962,0.606 2.832,1.127 0.107,0.064 0.213,0.13 0.319,0.195 0.075,0.043 0.151,0.086 0.226,0.131 0.587,0.352 1.154,0.736 1.736,1.101 0.19,0.108 0.384,0.217 0.581,0.317 0.993,0.502 2.096,0.812 3.211,0.871 0.812,0.043 1.589,-0.009 2.328,-0.364 0.568,-0.273 1.083,-0.638 1.56,-1.048 -2.238,-5.955 -7.858,-12.689 -7.858,-12.689 0,0 -4.263,5.109 -6.843,10.364 0.635,-0.082 1.282,-0.105 1.908,-0.005 z"
         id="path307" />
      <path
         style="fill:#000000"
         inkscape:connector-curvature="0"
         d="m 169.782,445.682 c 0.857,-0.155 1.766,-0.254 2.633,-0.113 1.008,0.16 1.962,0.604 2.832,1.126 0.107,0.062 0.213,0.129 0.319,0.194 0.075,0.043 0.151,0.086 0.226,0.131 0.587,0.352 1.154,0.736 1.736,1.1 0.19,0.109 0.384,0.218 0.581,0.316 0.993,0.505 2.096,0.813 3.211,0.873 0.812,0.042 1.589,-0.01 2.328,-0.364 0.859,-0.414 1.597,-1.035 2.267,-1.707 -0.066,-0.322 -0.146,-0.651 -0.241,-0.986 -2.881,1.465 -6.394,1.636 -9.3,0.004 -0.244,-0.136 -0.483,-0.28 -0.721,-0.428 -0.648,-0.377 -1.27,-0.796 -1.906,-1.191 -0.076,-0.045 -0.153,-0.09 -0.231,-0.133 -0.763,-0.423 -1.636,-0.867 -2.527,-0.902 -0.332,-0.014 -0.679,0.005 -1.015,0.066 -0.317,0.724 -0.595,1.443 -0.816,2.146 0.217,-0.053 0.427,-0.096 0.624,-0.132 z"
         id="path309" />
      <g
         id="g311"
         style="fill:#000000">
        <path
           style="fill:#000000"
           inkscape:connector-curvature="0"
           d="m 169.782,448.947 c 0.857,-0.156 1.766,-0.253 2.633,-0.113 1.008,0.16 1.962,0.605 2.832,1.125 0.107,0.064 0.213,0.129 0.319,0.195 0.075,0.043 0.151,0.087 0.226,0.131 0.587,0.352 1.154,0.736 1.736,1.1 0.19,0.11 0.384,0.218 0.581,0.317 0.993,0.503 2.096,0.812 3.211,0.872 0.812,0.043 1.589,-0.008 2.328,-0.364 0.896,-0.431 1.657,-1.087 2.351,-1.789 0.015,-0.017 0.031,-0.032 0.049,-0.046 0.04,-0.419 0.064,-0.854 0.064,-1.311 -2.956,1.677 -6.684,1.952 -9.738,0.237 -0.244,-0.137 -0.483,-0.28 -0.721,-0.429 -0.648,-0.376 -1.27,-0.796 -1.906,-1.191 -0.076,-0.044 -0.153,-0.09 -0.231,-0.132 -0.763,-0.424 -1.636,-0.868 -2.527,-0.901 -0.757,-0.031 -1.589,0.097 -2.196,0.553 -0.132,0.637 -0.205,1.251 -0.205,1.83 0,0.065 0.003,0.131 0.004,0.196 0.417,-0.122 0.826,-0.213 1.19,-0.28 z"
           id="path313" />
        <path
           style="fill:#000000"
           inkscape:connector-curvature="0"
           d="m 176.375,452.57 c -0.244,-0.14 -0.483,-0.282 -0.721,-0.431 -0.648,-0.375 -1.27,-0.796 -1.906,-1.19 -0.076,-0.045 -0.153,-0.09 -0.231,-0.133 -0.763,-0.425 -1.636,-0.867 -2.527,-0.902 -0.808,-0.032 -1.702,0.115 -2.317,0.652 0.587,5.267 4.248,7.5 8.679,7.5 3.812,0 7.053,-1.653 8.259,-5.47 -2.87,1.435 -6.352,1.592 -9.236,-0.026 z"
           id="path315" />
      </g>
    </g>
  </g>
</svg>
