<?xml version="1.0" encoding="UTF-8" standalone="no"?>
<!-- Created with Inkscape (http://www.inkscape.org/) -->

<svg
   xmlns:dc="http://purl.org/dc/elements/1.1/"
   xmlns:cc="http://creativecommons.org/ns#"
   xmlns:rdf="http://www.w3.org/1999/02/22-rdf-syntax-ns#"
   xmlns:svg="http://www.w3.org/2000/svg"
   xmlns="http://www.w3.org/2000/svg"
   xmlns:sodipodi="http://sodipodi.sourceforge.net/DTD/sodipodi-0.dtd"
   xmlns:inkscape="http://www.inkscape.org/namespaces/inkscape"
   width="128mm"
   height="128mm"
   viewBox="0 0 453.5433 453.5433"
   id="svg4509"
   version="1.1"
   inkscape:version="0.91 r13725"
   sodipodi:docname="islas.svg">
  <defs
     id="defs4511" />
  <sodipodi:namedview
     id="base"
     pagecolor="#ffffff"
     bordercolor="#666666"
     borderopacity="1.0"
     inkscape:pageopacity="0.0"
     inkscape:pageshadow="2"
     inkscape:zoom="0.98994949"
     inkscape:cx="-15.381293"
     inkscape:cy="221.1403"
     inkscape:document-units="px"
     inkscape:current-layer="layer1"
     showgrid="false"
     inkscape:window-width="1920"
     inkscape:window-height="1005"
     inkscape:window-x="-9"
     inkscape:window-y="83"
     inkscape:window-maximized="1" />
  <metadata
     id="metadata4514">
    <rdf:RDF>
      <cc:Work
         rdf:about="">
        <dc:format>image/svg+xml</dc:format>
        <dc:type
           rdf:resource="http://purl.org/dc/dcmitype/StillImage" />
        <dc:title></dc:title>
      </cc:Work>
    </rdf:RDF>
  </metadata>
  <g
     inkscape:label="Capa 1"
     inkscape:groupmode="layer"
     id="layer1"
     transform="translate(0,-598.8189)">
    <g
       transform="matrix(10.761325,0,0,10.761325,-1601.9854,-5840.7162)"
       id="g341"
       inkscape:export-filename="C:\Users\sneira\Desktop\iconos.png"
       inkscape:export-xdpi="291.73425"
       inkscape:export-ydpi="291.73425"
       style="fill:#000000">
      <path
         style="fill:#000000"
         inkscape:connector-curvature="0"
         d="m 167.174,623.586 c 1.607,-9.762 -1.83,-12.137 -4.128,-12.137 -3.401,0 -7.465,3.88 -5.264,9.797 3.528,9.482 0.652,13.881 5.538,13.83 6.537,-0.069 2.891,-5.642 3.854,-11.49 z m -0.966,-1.327 c 0.254,-1.484 -0.163,-3.055 -0.936,-4.387 -0.387,-0.668 -1.303,-1.304 -1.881,-1.841 -0.202,-0.189 -0.416,-0.363 -0.633,-0.535 -0.204,0.215 -0.432,0.408 -0.6,0.568 -0.627,0.593 -1.197,1.294 -1.618,2.033 -0.915,1.604 -1.735,3.287 -0.922,4.966 0.103,0.212 -0.521,0.528 -0.71,0.138 -0.797,-1.642 -0.821,-3.387 0.08,-4.968 0.429,-0.752 0.975,-1.482 1.613,-2.089 0.369,-0.35 1.208,-1.646 1.343,-1.701 0.036,-0.066 0.088,-0.123 0.165,-0.174 0.279,-0.184 0.752,-0.266 1.071,-0.098 0.297,0.156 0.454,0.475 0.72,0.676 0.333,0.254 0.654,0.524 0.943,0.821 0.578,0.594 1.186,1.239 1.571,1.958 0.793,1.484 0.846,3.102 0.565,4.729 -0.09,0.541 -0.885,0.559 -0.771,-0.096 z"
         id="path343" />
      <path
         style="fill:#000000"
         inkscape:connector-curvature="0"
         d="m 175.866,626.83 c 4.886,0.052 2.012,-4.348 5.54,-13.83 2.2,-5.916 -1.863,-9.797 -5.263,-9.797 -2.301,0 -5.737,2.375 -4.129,12.137 0.963,5.848 -2.684,11.422 3.852,11.49 z m -3.66,-12.721 c -0.279,-1.627 -0.228,-3.244 0.567,-4.728 0.385,-0.718 0.991,-1.365 1.57,-1.958 0.29,-0.297 0.61,-0.566 0.942,-0.821 0.266,-0.201 0.425,-0.521 0.721,-0.677 0.32,-0.168 0.79,-0.085 1.071,0.098 0.077,0.051 0.128,0.108 0.166,0.174 0.133,0.057 0.972,1.353 1.342,1.702 0.639,0.606 1.185,1.337 1.612,2.089 0.902,1.58 0.877,3.324 0.081,4.967 -0.189,0.392 -0.812,0.074 -0.712,-0.137 0.814,-1.68 -0.006,-3.362 -0.921,-4.967 -0.42,-0.738 -0.99,-1.439 -1.616,-2.033 -0.169,-0.16 -0.397,-0.354 -0.602,-0.568 -0.217,0.172 -0.428,0.346 -0.631,0.535 -0.579,0.537 -1.497,1.173 -1.885,1.842 -0.772,1.332 -1.188,2.902 -0.932,4.386 0.114,0.655 -0.68,0.637 -0.773,0.096 z"
         id="path345" />
    </g>
  </g>
</svg>
