<?xml version="1.0" encoding="UTF-8" standalone="no"?>
<!-- Created with Inkscape (http://www.inkscape.org/) -->

<svg
   xmlns:dc="http://purl.org/dc/elements/1.1/"
   xmlns:cc="http://creativecommons.org/ns#"
   xmlns:rdf="http://www.w3.org/1999/02/22-rdf-syntax-ns#"
   xmlns:svg="http://www.w3.org/2000/svg"
   xmlns="http://www.w3.org/2000/svg"
   xmlns:sodipodi="http://sodipodi.sourceforge.net/DTD/sodipodi-0.dtd"
   xmlns:inkscape="http://www.inkscape.org/namespaces/inkscape"
   width="128mm"
   height="128mm"
   viewBox="0 0 453.5433 453.5433"
   id="svg4509"
   version="1.1"
   inkscape:version="0.91 r13725"
   sodipodi:docname="playas.svg">
  <defs
     id="defs4511" />
  <sodipodi:namedview
     id="base"
     pagecolor="#ffffff"
     bordercolor="#666666"
     borderopacity="1.0"
     inkscape:pageopacity="0.0"
     inkscape:pageshadow="2"
     inkscape:zoom="0.98994949"
     inkscape:cx="-15.381293"
     inkscape:cy="221.1403"
     inkscape:document-units="px"
     inkscape:current-layer="layer1"
     showgrid="false"
     inkscape:window-width="1920"
     inkscape:window-height="1005"
     inkscape:window-x="-9"
     inkscape:window-y="83"
     inkscape:window-maximized="1" />
  <metadata
     id="metadata4514">
    <rdf:RDF>
      <cc:Work
         rdf:about="">
        <dc:format>image/svg+xml</dc:format>
        <dc:type
           rdf:resource="http://purl.org/dc/dcmitype/StillImage" />
        <dc:title></dc:title>
      </cc:Work>
    </rdf:RDF>
  </metadata>
  <g
     inkscape:label="Capa 1"
     inkscape:groupmode="layer"
     id="layer1"
     transform="translate(0,-598.8189)">
    <g
       transform="matrix(12.579748,0,0,12.579748,-2010.3071,-2669.2997)"
       id="g249"
       inkscape:export-filename="C:\Users\sneira\Desktop\iconos.png"
       inkscape:export-xdpi="291.73425"
       inkscape:export-ydpi="291.73425"
       style="fill:#000000">
      <path
         style="fill:#000000"
         inkscape:connector-curvature="0"
         d="m 188.748,275.251 c -0.922,-2.846 -3.029,-5.551 -5.136,-6.145 -0.617,-0.174 -1.62,-0.024 -2.138,0.334 -0.479,0.33 -0.182,0.198 0.271,0.468 1.891,1.125 4.597,3.289 5.252,7.182 0.212,1.258 1.971,-1.16 1.751,-1.839 z"
         id="path251" />
      <path
         style="fill:#000000"
         inkscape:connector-curvature="0"
         d="m 177.519,269.657 c -4.982,-0.018 -14.332,9.718 -14.344,12.659 -0.016,4.793 7.471,5.247 8.606,5.25 7.709,0.026 11.702,-3.703 14.326,-7.666 1.648,-2.488 -0.88,-10.215 -8.588,-10.243 z m 0.626,15.55 c -5.007,3.954 -15.318,-1.716 -14.517,-2.435 9.449,-8.479 10.32,1.852 16.021,-5.617 1.074,-1.41 0.215,6.693 -1.504,8.052 z"
         id="path253" />
      <path
         style="fill:#000000"
         inkscape:connector-curvature="0"
         d="m 189.811,272.544 c -0.597,-2.1 -2.134,-3.645 -3.351,-3.971 -0.462,-0.125 -1.121,-0.128 -1.519,0.115 -0.366,0.226 -0.324,0.387 0.005,0.596 0.875,0.562 3.531,2.404 3.828,5.343 0.138,1.354 1.18,-1.581 1.037,-2.083 z"
         id="path255" />
      <path
         style="fill:#000000"
         inkscape:connector-curvature="0"
         d="m 191.524,268.04 c -0.301,-1.311 -2.167,0.6 -2.905,0.359 -0.28,-0.091 -0.686,-0.113 -0.938,0.023 -0.232,0.127 -0.211,0.228 -0.017,0.367 0.521,0.373 2.097,1.591 2.187,3.408 0.041,0.839 1.744,-3.844 1.673,-4.157 z"
         id="path257" />
    </g>
  </g>
</svg>
