<?xml version="1.0" encoding="UTF-8" standalone="no"?>
<!-- Created with Inkscape (http://www.inkscape.org/) -->

<svg
   xmlns:dc="http://purl.org/dc/elements/1.1/"
   xmlns:cc="http://creativecommons.org/ns#"
   xmlns:rdf="http://www.w3.org/1999/02/22-rdf-syntax-ns#"
   xmlns:svg="http://www.w3.org/2000/svg"
   xmlns="http://www.w3.org/2000/svg"
   xmlns:sodipodi="http://sodipodi.sourceforge.net/DTD/sodipodi-0.dtd"
   xmlns:inkscape="http://www.inkscape.org/namespaces/inkscape"
   width="32px"
   height="32px"
   id="svg3583"
   version="1.1"
   inkscape:version="0.48.3.1 r9886"
   sodipodi:docname="accesible.svg">
  <defs
     id="defs3585" />
  <sodipodi:namedview
     id="base"
     pagecolor="#ffffff"
     bordercolor="#666666"
     borderopacity="1.0"
     inkscape:pageopacity="0.0"
     inkscape:pageshadow="2"
     inkscape:zoom="11.197802"
     inkscape:cx="16"
     inkscape:cy="16"
     inkscape:current-layer="layer1"
     showgrid="true"
     inkscape:grid-bbox="true"
     inkscape:document-units="px"
     inkscape:window-width="1871"
     inkscape:window-height="1056"
     inkscape:window-x="1729"
     inkscape:window-y="24"
     inkscape:window-maximized="1" />
  <metadata
     id="metadata3588">
    <rdf:RDF>
      <cc:Work
         rdf:about="">
        <dc:format>image/svg+xml</dc:format>
        <dc:type
           rdf:resource="http://purl.org/dc/dcmitype/StillImage" />
        <dc:title></dc:title>
      </cc:Work>
    </rdf:RDF>
  </metadata>
  <g
     id="layer1"
     inkscape:label="Layer 1"
     inkscape:groupmode="layer">
    <g
       id="g3333"
       inkscape:export-filename="/home/mjperez/Downloads/almorzo_sel.png"
       inkscape:export-xdpi="90"
       inkscape:export-ydpi="90"
       transform="matrix(0.98924199,0,0,0.98918084,-303.75269,-110.18782)">
      <g
         id="g3">
        <g
           id="g5">
          <path
             id="path7"
             d="m 333.614,130.087 c 0.003,-0.002 0.003,-0.006 0.003,-0.008 -0.002,-0.002 -0.003,0.002 -0.003,0.008 z"
             inkscape:connector-curvature="0"
             style="fill:#333333" />
          <path
             id="path9"
             d="m 333.3,127.792 c -0.18,-0.299 -0.347,-0.582 -0.442,-0.814 l -1.766,-3.67 c -0.146,-0.516 -0.147,-0.896 -0.003,-1.314 0.224,-0.65 0.381,-2.479 -0.581,-2.938 -0.659,-0.316 -1.326,-0.369 -2.104,-0.166 -0.492,0.127 -0.967,0.342 -1.43,0.551 -0.207,0.096 -0.413,0.188 -0.62,0.271 -0.136,0.057 -0.269,0.104 -0.402,0.137 -0.516,0.133 -0.966,0.096 -1.444,0.057 -0.364,-0.029 -0.744,-0.062 -1.184,-0.025 -0.896,0.078 -1.623,0.277 -2.111,0.586 -0.424,0.264 -0.771,0.779 -0.818,1.449 -0.173,0.871 0.06,1.914 0.713,2.35 0.925,0.617 1.391,1.109 1.584,2.246 l 0.611,3.461 c 0.104,1.105 -0.182,3.131 1.365,3.369 0.603,0.094 1.246,-0.117 1.818,-0.287 0.715,-0.213 1.395,-0.498 2.121,-0.688 1.275,-0.334 2.515,-0.711 3.755,-1.148 0,0 0.495,-0.16 0.654,-0.23 0.741,-0.328 0.866,-0.545 0.884,-0.568 0.514,-0.752 -0.104,-1.793 -0.6,-2.629 z m 0.388,2.191 c 0.004,0.002 -0.526,0.299 -0.43,0.197 -0.231,0.094 -0.114,0.029 -0.355,0.115 -1.241,0.438 -2.48,0.814 -3.754,1.146 -0.728,0.189 -1.406,0.477 -2.123,0.688 -0.57,0.172 -1.218,0.381 -1.816,0.289 -1.55,-0.24 -1.263,-2.264 -1.368,-3.373 l -0.611,-3.455 c -0.189,-1.139 -0.656,-1.633 -1.583,-2.248 -0.534,-0.357 -0.766,-1.143 -0.71,-1.859 0.097,-0.316 0.262,-0.564 0.476,-0.699 0.226,-0.141 0.516,-0.258 0.862,-0.348 0.318,-0.084 0.683,-0.145 1.082,-0.178 0.41,-0.035 0.771,-0.006 1.12,0.023 0.51,0.043 0.992,0.084 1.571,-0.068 0.147,-0.039 0.299,-0.09 0.449,-0.152 0.212,-0.086 0.421,-0.18 0.632,-0.277 0.448,-0.201 0.911,-0.408 1.369,-0.529 0.688,-0.18 1.271,-0.135 1.845,0.143 0.649,0.311 0.618,1.799 0.388,2.475 -0.169,0.49 -0.17,0.949 0.005,1.568 l 1.774,3.689 c 0.104,0.25 0.277,0.545 0.464,0.855 0.421,0.709 0.991,1.442 0.713,1.998 z"
             inkscape:connector-curvature="0"
             style="fill:#333333" />
        </g>
        <circle
           id="circle11"
           r="1.008"
           cy="122.013"
           cx="323.60001"
           sodipodi:cx="323.60001"
           sodipodi:cy="122.013"
           sodipodi:rx="1.008"
           sodipodi:ry="1.008"
           style="fill:#333333"
           d="m 324.60801,122.013 c 0,0.5567 -0.4513,1.008 -1.008,1.008 -0.55671,0 -1.008,-0.4513 -1.008,-1.008 0,-0.5567 0.45129,-1.008 1.008,-1.008 0.5567,0 1.008,0.4513 1.008,1.008 z" />
        <path
           id="path13"
           d="m 327.474,123.044 c 0.096,0.367 -0.122,0.742 -0.49,0.836 -0.366,0.096 -0.738,-0.123 -0.833,-0.486 -0.097,-0.369 0.122,-0.744 0.488,-0.838 0.366,-0.098 0.739,0.125 0.835,0.488 z"
           inkscape:connector-curvature="0"
           style="fill:#333333" />
        <path
           id="path15"
           d="m 332.856,129.278 c 0.067,0.256 -0.088,0.518 -0.341,0.584 -0.256,0.066 -0.515,-0.088 -0.585,-0.344 -0.064,-0.254 0.089,-0.516 0.344,-0.582 0.253,-0.066 0.517,0.088 0.582,0.342 z"
           inkscape:connector-curvature="0"
           style="fill:#333333" />
      </g>
      <g
         id="g85">
        <path
           id="path87"
           d="m 323.146,123.64 c -3.027,-2.062 -6.783,0.434 -7.254,2.664 0,0 2.47,2.08 3.607,5.703 0.23,0.729 2.131,-1.896 4.283,-0.652 -0.528,-3.608 1.554,-6.219 -0.636,-7.715 z"
           inkscape:connector-curvature="0"
           style="fill:#333333" />
        <path
           id="path89"
           d="m 315.484,127.093 0.018,-0.02 c -2.484,3.273 -3.854,6.029 -1.851,8.516 0.675,-0.865 0.921,-1.848 2.015,-2.432 0.679,-0.363 1.875,-0.914 2.595,-0.883 0.109,-1.677 -1.759,-3.781 -2.777,-5.181 z"
           inkscape:connector-curvature="0"
           style="fill:#333333" />
        <path
           id="path91"
           d="m 324.49,124.845 c 0.689,1.838 -0.604,3.141 -0.045,5.018 0.062,0.209 0.395,0.773 0.395,0.773 1.494,-2.316 1.537,0.242 4.74,-0.338 1.754,-0.317 -3.465,-4.873 -5.09,-5.453 z"
           inkscape:connector-curvature="0"
           style="fill:#333333" />
      </g>
      <g
         id="g93">
        <g
           id="g95">
          <path
             id="path97"
             d="m 332.614,132.087 c 0.003,-0.002 0.003,-0.006 0.003,-0.008 -0.002,-0.002 -0.003,0.002 -0.003,0.008 z"
             inkscape:connector-curvature="0"
             style="fill:#333333" />
          <path
             id="path99"
             d="m 332.602,130.319 c -0.099,0.055 -0.197,0.113 -0.3,0.16 -0.006,0.004 -0.011,0.008 -0.016,0.012 0.332,0.541 0.614,1.068 0.402,1.492 0.004,0.002 -0.526,0.299 -0.43,0.197 -0.231,0.094 -0.114,0.029 -0.355,0.115 -1.241,0.438 -2.48,0.814 -3.754,1.146 -0.728,0.189 -1.406,0.477 -2.123,0.688 -0.57,0.172 -1.218,0.381 -1.816,0.289 -1.55,-0.24 -1.263,-2.264 -1.368,-3.373 l -0.611,-3.455 c -0.189,-1.139 -0.656,-1.633 -1.583,-2.248 -0.534,-0.357 -0.766,-1.143 -0.71,-1.859 0.068,-0.227 0.183,-0.398 0.314,-0.539 0.008,-0.17 0.016,-0.344 0.032,-0.512 -0.021,0.012 -0.051,0.02 -0.071,0.033 -0.424,0.264 -0.771,0.779 -0.818,1.449 -0.173,0.871 0.06,1.914 0.713,2.35 0.925,0.617 1.391,1.109 1.584,2.246 l 0.611,3.461 c 0.104,1.105 -0.182,3.131 1.365,3.369 0.603,0.094 1.246,-0.117 1.818,-0.287 0.715,-0.213 1.395,-0.498 2.121,-0.688 1.275,-0.334 2.515,-0.711 3.755,-1.148 0,0 0.495,-0.16 0.654,-0.23 0.741,-0.328 0.866,-0.545 0.884,-0.568 0.411,-0.6 0.097,-1.383 -0.298,-2.1 z"
             inkscape:connector-curvature="0"
             style="fill:#333333" />
        </g>
        <path
           id="path101"
           d="m 331.856,131.278 c 0.067,0.256 -0.088,0.518 -0.341,0.584 -0.256,0.066 -0.515,-0.088 -0.585,-0.344 -0.064,-0.254 0.089,-0.516 0.344,-0.582 0.253,-0.066 0.517,0.088 0.582,0.342 z"
           inkscape:connector-curvature="0"
           style="fill:#333333" />
      </g>
      <path
         id="path139"
         d="m 323.23,143.743 c -8.918,0 -16.174,-7.256 -16.174,-16.176 0,-8.918 7.256,-16.174 16.174,-16.174 8.918,0 16.174,7.256 16.174,16.174 0,8.92 -7.256,16.176 -16.174,16.176 z m 0,-31.349 c -8.367,0 -15.174,6.808 -15.174,15.174 0,8.367 6.807,15.176 15.174,15.176 8.367,0 15.174,-6.809 15.174,-15.176 0,-8.367 -6.806,-15.174 -15.174,-15.174 z"
         inkscape:connector-curvature="0"
         style="fill:#333333" />
    </g>
  </g>
</svg>
