<?xml version="1.0" encoding="UTF-8" standalone="no"?>
<!-- Created with Inkscape (http://www.inkscape.org/) -->

<svg
   xmlns:dc="http://purl.org/dc/elements/1.1/"
   xmlns:cc="http://creativecommons.org/ns#"
   xmlns:rdf="http://www.w3.org/1999/02/22-rdf-syntax-ns#"
   xmlns:svg="http://www.w3.org/2000/svg"
   xmlns="http://www.w3.org/2000/svg"
   xmlns:sodipodi="http://sodipodi.sourceforge.net/DTD/sodipodi-0.dtd"
   xmlns:inkscape="http://www.inkscape.org/namespaces/inkscape"
   width="32px"
   height="32px"
   id="svg3583"
   version="1.1"
   inkscape:version="0.48.3.1 r9886"
   sodipodi:docname="parador.svg">
  <defs
     id="defs3585" />
  <sodipodi:namedview
     id="base"
     pagecolor="#ffffff"
     bordercolor="#666666"
     borderopacity="1.0"
     inkscape:pageopacity="0.0"
     inkscape:pageshadow="2"
     inkscape:zoom="11.197802"
     inkscape:cx="16"
     inkscape:cy="16"
     inkscape:current-layer="layer1"
     showgrid="true"
     inkscape:grid-bbox="true"
     inkscape:document-units="px"
     inkscape:window-width="1871"
     inkscape:window-height="1056"
     inkscape:window-x="1729"
     inkscape:window-y="24"
     inkscape:window-maximized="1" />
  <metadata
     id="metadata3588">
    <rdf:RDF>
      <cc:Work
         rdf:about="">
        <dc:format>image/svg+xml</dc:format>
        <dc:type
           rdf:resource="http://purl.org/dc/dcmitype/StillImage" />
        <dc:title></dc:title>
      </cc:Work>
    </rdf:RDF>
  </metadata>
  <g
     id="layer1"
     inkscape:label="Layer 1"
     inkscape:groupmode="layer">
    <g
       id="g349"
       transform="matrix(0.79581204,0,0,0.79581204,-201.88722,-226.02057)">
      <path
         d="m 290.126,298.309 -0.91,-0.91 v -0.045 h -0.045 l -11.905,-11.906 c -1.916,-1.914 -5.033,-1.914 -6.945,0 l -12.863,12.861 c -0.184,0.184 -0.184,0.479 0,0.659 0.184,0.183 0.479,0.183 0.659,0 l 0.25,-0.25 v 9.531 c -0.175,0.167 -0.207,0.438 -0.062,0.639 0.156,0.214 0.451,0.259 0.66,0.098 1.056,-0.813 2.502,-0.938 3.529,-0.894 1.46,0.061 2.934,0.832 4.2,1.551 l 0.383,0.229 c 0.379,0.241 0.757,0.491 1.134,0.738 0.729,0.477 1.456,0.952 2.188,1.39 0.422,0.27 0.843,0.529 1.277,0.779 2.469,1.419 5.276,2.124 8.146,2.124 3.156,0 6.387,-0.854 9.311,-2.556 0.229,-0.132 0.309,-0.427 0.18,-0.659 -0.025,-0.045 -0.062,-0.078 -0.098,-0.111 v -12.855 l 0.25,0.25 c 0.092,0.092 0.211,0.137 0.33,0.137 0.12,0 0.239,-0.045 0.33,-0.137 0.186,-0.185 0.186,-0.48 10e-4,-0.663 z"
         id="path351"
         inkscape:connector-curvature="0"
         style="fill:#1d1d1b" />
      <path
         d="m 288.667,314.614 c -5.299,3.076 -11.633,3.239 -16.526,0.425 -0.421,-0.239 -0.83,-0.493 -1.252,-0.764 -0.736,-0.438 -1.451,-0.904 -2.169,-1.375 -0.379,-0.251 -0.76,-0.5 -1.157,-0.753 l -0.41,-0.242 c -1.359,-0.775 -2.952,-1.606 -4.619,-1.673 -1.184,-0.046 -2.857,0.103 -4.135,1.086 -0.209,0.159 -0.25,0.464 -0.094,0.678 0.155,0.214 0.45,0.258 0.659,0.096 1.056,-0.812 2.502,-0.936 3.529,-0.892 1.46,0.059 2.934,0.832 4.2,1.551 l 0.383,0.227 c 0.379,0.241 0.757,0.49 1.134,0.738 0.729,0.479 1.457,0.953 2.188,1.391 0.422,0.27 0.843,0.528 1.277,0.778 2.469,1.419 5.276,2.123 8.146,2.123 3.156,0 6.387,-0.854 9.311,-2.554 0.229,-0.131 0.309,-0.426 0.18,-0.658 -0.128,-0.234 -0.417,-0.317 -0.645,-0.182 z"
         id="path353"
         inkscape:connector-curvature="0"
         style="fill:#1d1d1b" />
      <path
         d="m 288.667,317.722 c -5.299,3.076 -11.633,3.24 -16.526,0.425 -0.421,-0.238 -0.83,-0.491 -1.252,-0.765 -0.736,-0.435 -1.451,-0.903 -2.169,-1.374 -0.379,-0.251 -0.76,-0.501 -1.157,-0.754 l -0.41,-0.241 c -1.359,-0.773 -2.952,-1.604 -4.619,-1.673 -1.184,-0.044 -2.857,0.104 -4.135,1.086 -0.209,0.161 -0.25,0.463 -0.094,0.677 0.155,0.217 0.45,0.261 0.659,0.098 1.056,-0.812 2.502,-0.938 3.529,-0.893 1.46,0.059 2.934,0.831 4.2,1.553 l 0.383,0.227 c 0.379,0.241 0.757,0.49 1.134,0.738 0.729,0.477 1.457,0.953 2.188,1.388 0.422,0.271 0.843,0.531 1.277,0.78 2.469,1.42 5.276,2.124 8.146,2.124 3.156,0 6.387,-0.854 9.311,-2.556 0.229,-0.131 0.309,-0.427 0.18,-0.658 -0.128,-0.235 -0.417,-0.319 -0.645,-0.182 z"
         id="path355"
         inkscape:connector-curvature="0"
         style="fill:#1d1d1b" />
      <path
         d="m 288.667,320.828 c -5.299,3.076 -11.633,3.241 -16.526,0.425 -0.421,-0.24 -0.83,-0.492 -1.252,-0.764 -0.736,-0.437 -1.451,-0.903 -2.169,-1.375 -0.379,-0.25 -0.76,-0.5 -1.157,-0.753 l -0.41,-0.241 c -1.359,-0.775 -2.952,-1.606 -4.619,-1.674 -1.184,-0.043 -2.857,0.103 -4.135,1.087 -0.209,0.16 -0.25,0.463 -0.094,0.676 0.155,0.215 0.45,0.26 0.659,0.097 1.056,-0.812 2.502,-0.936 3.529,-0.891 1.46,0.057 2.934,0.831 4.2,1.551 l 0.383,0.228 c 0.379,0.24 0.757,0.489 1.134,0.736 0.729,0.479 1.457,0.954 2.188,1.391 0.422,0.271 0.843,0.528 1.277,0.778 2.469,1.419 5.276,2.124 8.146,2.124 3.156,0 6.387,-0.854 9.311,-2.554 0.229,-0.132 0.309,-0.427 0.18,-0.66 -0.128,-0.233 -0.417,-0.317 -0.645,-0.181 z"
         id="path357"
         inkscape:connector-curvature="0"
         style="fill:#1d1d1b" />
    </g>
  </g>
</svg>
