<?xml version="1.0" encoding="UTF-8" standalone="no"?>
<!-- Created with Inkscape (http://www.inkscape.org/) -->

<svg
   xmlns:dc="http://purl.org/dc/elements/1.1/"
   xmlns:cc="http://creativecommons.org/ns#"
   xmlns:rdf="http://www.w3.org/1999/02/22-rdf-syntax-ns#"
   xmlns:svg="http://www.w3.org/2000/svg"
   xmlns="http://www.w3.org/2000/svg"
   xmlns:sodipodi="http://sodipodi.sourceforge.net/DTD/sodipodi-0.dtd"
   xmlns:inkscape="http://www.inkscape.org/namespaces/inkscape"
   width="32px"
   height="32px"
   id="svg3583"
   version="1.1"
   inkscape:version="0.48.3.1 r9886"
   sodipodi:docname="albergue.svg">
  <defs
     id="defs3585" />
  <sodipodi:namedview
     id="base"
     pagecolor="#ffffff"
     bordercolor="#666666"
     borderopacity="1.0"
     inkscape:pageopacity="0.0"
     inkscape:pageshadow="2"
     inkscape:zoom="11.197802"
     inkscape:cx="16"
     inkscape:cy="16"
     inkscape:current-layer="layer1"
     showgrid="true"
     inkscape:grid-bbox="true"
     inkscape:document-units="px"
     inkscape:window-width="1871"
     inkscape:window-height="1056"
     inkscape:window-x="1729"
     inkscape:window-y="24"
     inkscape:window-maximized="1" />
  <metadata
     id="metadata3588">
    <rdf:RDF>
      <cc:Work
         rdf:about="">
        <dc:format>image/svg+xml</dc:format>
        <dc:type
           rdf:resource="http://purl.org/dc/dcmitype/StillImage" />
        <dc:title></dc:title>
      </cc:Work>
    </rdf:RDF>
  </metadata>
  <g
     id="layer1"
     inkscape:label="Layer 1"
     inkscape:groupmode="layer">
    <path
       d="M 31.942436,28.110665 16.442486,4.231135 c 0.22953,-0.31693 0.21247,-0.56778 0.14354,-0.72909 -0.0931,-0.22242 -0.32262,-0.36952 -0.58483,-0.36952 -0.001,0 -0.001,0 -0.001,0 -0.26364,0 -0.49175,0.14355 -0.58555,0.36952 -0.0682,0.16273 -0.0853,0.41145 0.14283,0.72909 L 0.05752545,28.110665 c -0.10659,0.16274 -0.0611,0.38516 0.10375,0.48962 0.16415,0.1073 0.38445,0.0611 0.49033,-0.10375 l 3.33634005,-5.04964 v 5.42058 H 15.931266 c -0.19613,0 -0.35531,-0.15847 -0.35531,-0.35531 V 5.184075 c 0,-0.19471 0.15918,-0.35531 0.35531,-0.35531 0.19542,0 0.3553,0.1606 0.3553,0.35531 v 23.32809 c 0,0.19684 -0.15988,0.35531 -0.3553,0.35531 h 12.21903 v -0.35531 -0.35531 -4.57778 l 3.19493,4.9203 c 0.0682,0.10375 0.18192,0.16273 0.29704,0.16273 0.0682,0 0.13359,-0.0163 0.19257,-0.0576 0.16842,-0.10872 0.21461,-0.3283 0.10802,-0.49388 z"
       id="path85"
       inkscape:connector-curvature="0"
       style="fill:#1d1d1b" />
  </g>
</svg>
