<?xml version="1.0" encoding="UTF-8" standalone="no"?>
<!-- Created with Inkscape (http://www.inkscape.org/) -->

<svg
   xmlns:dc="http://purl.org/dc/elements/1.1/"
   xmlns:cc="http://creativecommons.org/ns#"
   xmlns:rdf="http://www.w3.org/1999/02/22-rdf-syntax-ns#"
   xmlns:svg="http://www.w3.org/2000/svg"
   xmlns="http://www.w3.org/2000/svg"
   xmlns:sodipodi="http://sodipodi.sourceforge.net/DTD/sodipodi-0.dtd"
   xmlns:inkscape="http://www.inkscape.org/namespaces/inkscape"
   width="32px"
   height="32px"
   id="svg3583"
   version="1.1"
   inkscape:version="0.48.3.1 r9886"
   sodipodi:docname="wifi.svg">
  <defs
     id="defs3585" />
  <sodipodi:namedview
     id="base"
     pagecolor="#ffffff"
     bordercolor="#666666"
     borderopacity="1.0"
     inkscape:pageopacity="0.0"
     inkscape:pageshadow="2"
     inkscape:zoom="11.197802"
     inkscape:cx="16"
     inkscape:cy="16"
     inkscape:current-layer="layer1"
     showgrid="true"
     inkscape:grid-bbox="true"
     inkscape:document-units="px"
     inkscape:window-width="1871"
     inkscape:window-height="1056"
     inkscape:window-x="1729"
     inkscape:window-y="24"
     inkscape:window-maximized="1" />
  <metadata
     id="metadata3588">
    <rdf:RDF>
      <cc:Work
         rdf:about="">
        <dc:format>image/svg+xml</dc:format>
        <dc:type
           rdf:resource="http://purl.org/dc/dcmitype/StillImage" />
        <dc:title></dc:title>
      </cc:Work>
    </rdf:RDF>
  </metadata>
  <g
     id="layer1"
     inkscape:label="Layer 1"
     inkscape:groupmode="layer">
    <g
       id="g3292"
       inkscape:export-filename="/home/mjperez/Downloads/parking_sel.png"
       inkscape:export-xdpi="90"
       inkscape:export-ydpi="90"
       transform="matrix(0.98921141,0,0,0.98918084,-125.51541,-110.13777)">
      <g
         id="g17">
        <path
           id="path19"
           d="m 138.291,119.976 c 1.172,-0.199 2.817,-0.348 5.136,-0.348 2.344,0 4.015,0.447 5.137,1.346 1.097,0.848 1.795,2.244 1.795,3.889 0,1.646 -0.523,3.066 -1.545,3.99 -1.298,1.195 -3.217,1.77 -5.461,1.77 -0.499,0 -0.947,-0.025 -1.297,-0.1 v 6.033 h -3.765 v -16.58 z m 3.765,7.63 c 0.324,0.072 0.698,0.098 1.271,0.098 2.02,0 3.267,-1.021 3.267,-2.717 0,-1.545 -1.072,-2.467 -2.992,-2.467 -0.748,0 -1.271,0.049 -1.546,0.123 v 4.963 z"
           inkscape:connector-curvature="0"
           style="fill:#333333" />
      </g>
      <path
         id="path149"
         d="m 143.223,143.743 c -8.919,0 -16.175,-7.256 -16.175,-16.176 0,-8.918 7.256,-16.174 16.175,-16.174 8.918,0 16.174,7.256 16.174,16.174 -0.001,8.92 -7.256,16.176 -16.174,16.176 z m 0,-31.349 c -8.367,0 -15.175,6.808 -15.175,15.174 0,8.367 6.808,15.176 15.175,15.176 8.367,0 15.174,-6.809 15.174,-15.176 -0.001,-8.367 -6.807,-15.174 -15.174,-15.174 z"
         inkscape:connector-curvature="0"
         style="fill:#333333" />
    </g>
  </g>
</svg>
