<?xml version="1.0" encoding="UTF-8" standalone="no"?>
<!-- Created with Inkscape (http://www.inkscape.org/) -->

<svg
   xmlns:dc="http://purl.org/dc/elements/1.1/"
   xmlns:cc="http://creativecommons.org/ns#"
   xmlns:rdf="http://www.w3.org/1999/02/22-rdf-syntax-ns#"
   xmlns:svg="http://www.w3.org/2000/svg"
   xmlns="http://www.w3.org/2000/svg"
   xmlns:sodipodi="http://sodipodi.sourceforge.net/DTD/sodipodi-0.dtd"
   xmlns:inkscape="http://www.inkscape.org/namespaces/inkscape"
   width="32px"
   height="32px"
   id="svg3583"
   version="1.1"
   inkscape:version="0.48.3.1 r9886"
   sodipodi:docname="comida.svg">
  <defs
     id="defs3585" />
  <sodipodi:namedview
     id="base"
     pagecolor="#ffffff"
     bordercolor="#666666"
     borderopacity="1.0"
     inkscape:pageopacity="0.0"
     inkscape:pageshadow="2"
     inkscape:zoom="11.197802"
     inkscape:cx="16"
     inkscape:cy="16"
     inkscape:current-layer="layer1"
     showgrid="true"
     inkscape:grid-bbox="true"
     inkscape:document-units="px"
     inkscape:window-width="1871"
     inkscape:window-height="1056"
     inkscape:window-x="1729"
     inkscape:window-y="24"
     inkscape:window-maximized="1" />
  <metadata
     id="metadata3588">
    <rdf:RDF>
      <cc:Work
         rdf:about="">
        <dc:format>image/svg+xml</dc:format>
        <dc:type
           rdf:resource="http://purl.org/dc/dcmitype/StillImage" />
        <dc:title></dc:title>
      </cc:Work>
    </rdf:RDF>
  </metadata>
  <g
     id="layer1"
     inkscape:label="Layer 1"
     inkscape:groupmode="layer">
    <g
       transform="translate(-398.2385,-111.568)"
       id="g3361"
       inkscape:export-filename="/home/mjperez/Downloads/piscina_sel.png"
       inkscape:export-xdpi="90"
       inkscape:export-ydpi="90">
      <g
         id="g103">
        <path
           style="fill:#333333"
           inkscape:connector-curvature="0"
           id="path105"
           d="m 418.935,120.718 c -1.827,0 -3.314,1.488 -3.314,3.316 v 2.09 l -4.666,-2.074 v -2.09 c 0,-0.971 0.79,-1.76 1.76,-1.76 0.97,0 1.76,0.789 1.76,1.76 0,0.43 0.349,0.777 0.777,0.777 0.43,0 0.778,-0.348 0.778,-0.777 0,-1.828 -1.487,-3.314 -3.315,-3.314 -1.827,0 -3.314,1.486 -3.314,3.314 v 7.193 c -0.543,-0.314 -1.136,-0.572 -1.78,-0.604 l -0.213,-0.006 c -0.887,0 -1.649,0.273 -2.206,0.789 -0.285,0.262 -0.344,0.717 -0.139,1.053 0.234,0.395 0.799,0.473 1.12,0.17 0.356,-0.328 0.86,-0.398 1.22,-0.398 l 0.146,0.004 c 0.582,0.029 1.237,0.445 1.798,0.828 l 0.728,0.561 c 0.364,0.291 0.731,0.578 1.085,0.834 0.215,0.166 0.43,0.324 0.651,0.48 1.282,0.887 2.775,1.357 4.317,1.357 1.697,0 3.389,-0.559 4.89,-1.613 0.322,-0.223 0.438,-0.668 0.269,-1.035 -0.19,-0.422 -0.747,-0.566 -1.088,-0.318 -0.944,0.662 -1.979,1.068 -3.021,1.236 v -8.457 c 0,-0.971 0.79,-1.76 1.76,-1.76 0.971,0 1.76,0.789 1.76,1.76 0,0.428 0.349,0.777 0.778,0.777 0.429,0 0.777,-0.35 0.777,-0.777 -0.003,-1.828 -1.49,-3.316 -3.318,-3.316 z m -6.306,10.787 c -0.199,-0.137 -0.396,-0.283 -0.607,-0.447 -0.357,-0.258 -0.705,-0.529 -1.054,-0.807 l -0.014,-0.012 v -1.119 l 4.666,2.072 v 1.359 c -1.064,-0.083 -2.094,-0.423 -2.991,-1.046 z m 2.991,-3.678 v 1.664 l -4.666,-2.074 v -1.662 l 4.666,2.072 z" />
        <path
           style="fill:#333333"
           inkscape:connector-curvature="0"
           id="path107"
           d="m 420.196,134.146 c -2.392,1.676 -5.364,1.781 -7.57,0.248 -0.197,-0.135 -0.391,-0.277 -0.607,-0.449 -0.355,-0.254 -0.702,-0.527 -1.129,-0.867 l -0.723,-0.551 c -0.729,-0.5 -1.588,-1.039 -2.552,-1.088 l -0.195,-0.006 c -0.896,0 -1.663,0.273 -2.224,0.793 -0.28,0.264 -0.338,0.715 -0.138,1.047 0.235,0.398 0.8,0.479 1.123,0.176 0.356,-0.332 0.854,-0.4 1.211,-0.4 l 0.155,0.004 c 0.586,0.027 1.238,0.445 1.796,0.828 l 0.73,0.561 c 0.364,0.289 0.73,0.578 1.082,0.83 0.216,0.168 0.431,0.328 0.652,0.482 1.281,0.891 2.774,1.359 4.317,1.359 1.698,0 3.39,-0.561 4.888,-1.613 0.324,-0.221 0.44,-0.666 0.271,-1.035 -0.189,-0.425 -0.75,-0.568 -1.087,-0.319 z" />
      </g>
      <path
         style="fill:#333333"
         inkscape:connector-curvature="0"
         id="path135"
         d="m 414.239,143.743 c -8.919,0 -16.175,-7.256 -16.175,-16.176 0,-8.918 7.256,-16.174 16.175,-16.174 8.918,0 16.174,7.256 16.174,16.174 0,8.92 -7.256,16.176 -16.174,16.176 z m 0,-31.349 c -8.367,0 -15.175,6.808 -15.175,15.174 0,8.367 6.808,15.176 15.175,15.176 8.367,0 15.174,-6.809 15.174,-15.176 0,-8.367 -6.807,-15.174 -15.174,-15.174 z" />
    </g>
  </g>
</svg>
