<?xml version="1.0" encoding="UTF-8" standalone="no"?>
<!-- Created with Inkscape (http://www.inkscape.org/) -->

<svg
   xmlns:dc="http://purl.org/dc/elements/1.1/"
   xmlns:cc="http://creativecommons.org/ns#"
   xmlns:rdf="http://www.w3.org/1999/02/22-rdf-syntax-ns#"
   xmlns:svg="http://www.w3.org/2000/svg"
   xmlns="http://www.w3.org/2000/svg"
   xmlns:sodipodi="http://sodipodi.sourceforge.net/DTD/sodipodi-0.dtd"
   xmlns:inkscape="http://www.inkscape.org/namespaces/inkscape"
   width="32px"
   height="32px"
   id="svg3583"
   version="1.1"
   inkscape:version="0.48.3.1 r9886"
   sodipodi:docname="tv.svg">
  <defs
     id="defs3585" />
  <sodipodi:namedview
     id="base"
     pagecolor="#ffffff"
     bordercolor="#666666"
     borderopacity="1.0"
     inkscape:pageopacity="0.0"
     inkscape:pageshadow="2"
     inkscape:zoom="11.197802"
     inkscape:cx="16"
     inkscape:cy="16"
     inkscape:current-layer="layer1"
     showgrid="true"
     inkscape:grid-bbox="true"
     inkscape:document-units="px"
     inkscape:window-width="1871"
     inkscape:window-height="1056"
     inkscape:window-x="1729"
     inkscape:window-y="24"
     inkscape:window-maximized="1" />
  <metadata
     id="metadata3588">
    <rdf:RDF>
      <cc:Work
         rdf:about="">
        <dc:format>image/svg+xml</dc:format>
        <dc:type
           rdf:resource="http://purl.org/dc/dcmitype/StillImage" />
        <dc:title></dc:title>
      </cc:Work>
    </rdf:RDF>
  </metadata>
  <g
     id="layer1"
     inkscape:label="Layer 1"
     inkscape:groupmode="layer">
    <g
       id="g3314"
       inkscape:export-filename="/home/mjperez/Downloads/tarxeta_sel.png"
       inkscape:export-xdpi="90"
       inkscape:export-ydpi="90"
       transform="matrix(0.98924199,0,0,0.98918084,-212.73946,-110.18782)">
      <g
         id="g31">
        <path
           id="path33"
           d="m 240.978,122.067 -5.164,-0.074 c -0.116,0.352 -0.3,0.654 -0.522,0.918 l 5.594,0.082 -0.146,10.053 -10.107,-0.148 c -0.02,0.309 -0.08,0.619 -0.19,0.926 l 10.362,0.15 c 0.029,0 0.058,0 0.085,-0.002 0.429,-0.037 0.77,-0.393 0.775,-0.834 l 0.149,-10.209 c 0.005,-0.471 -0.369,-0.854 -0.836,-0.862 z"
           inkscape:connector-curvature="0"
           style="fill:#333333" />
        <g
           id="g35">
          <path
             id="path37"
             d="m 238.189,123.749 -0.387,-2.227 c -0.08,-0.463 -0.519,-0.771 -0.98,-0.691 l -15.101,2.619 c -0.462,0.082 -0.771,0.52 -0.691,0.98 l 0.386,2.229 16.773,-2.91 z"
             inkscape:connector-curvature="0"
             style="fill:#333333" />
          <path
             id="path39"
             d="m 221.817,128.966 0.959,5.527 c 0.08,0.461 0.519,0.771 0.979,0.691 l 15.102,-2.621 c 0.462,-0.08 0.771,-0.52 0.691,-0.98 l -0.959,-5.527 -16.772,2.91 z"
             inkscape:connector-curvature="0"
             style="fill:#333333" />
        </g>
      </g>
      <path
         id="path145"
         d="m 231.227,143.743 c -8.918,0 -16.174,-7.256 -16.174,-16.176 0,-8.918 7.256,-16.174 16.174,-16.174 8.918,0 16.174,7.256 16.174,16.174 -0.001,8.92 -7.256,16.176 -16.174,16.176 z m 0,-31.349 c -8.367,0 -15.174,6.808 -15.174,15.174 0,8.367 6.807,15.176 15.174,15.176 8.367,0 15.174,-6.809 15.174,-15.176 -0.001,-8.367 -6.807,-15.174 -15.174,-15.174 z"
         inkscape:connector-curvature="0"
         style="fill:#333333" />
    </g>
  </g>
</svg>
