<?xml version="1.0" encoding="UTF-8" standalone="no"?>
<!-- Created with Inkscape (http://www.inkscape.org/) -->

<svg
   xmlns:dc="http://purl.org/dc/elements/1.1/"
   xmlns:cc="http://creativecommons.org/ns#"
   xmlns:rdf="http://www.w3.org/1999/02/22-rdf-syntax-ns#"
   xmlns:svg="http://www.w3.org/2000/svg"
   xmlns="http://www.w3.org/2000/svg"
   xmlns:sodipodi="http://sodipodi.sourceforge.net/DTD/sodipodi-0.dtd"
   xmlns:inkscape="http://www.inkscape.org/namespaces/inkscape"
   width="128mm"
   height="128mm"
   viewBox="0 0 453.5433 453.5433"
   id="svg4509"
   version="1.1"
   inkscape:version="0.91 r13725"
   sodipodi:docname="acantilados.svg">
  <defs
     id="defs4511" />
  <sodipodi:namedview
     id="base"
     pagecolor="#ffffff"
     bordercolor="#666666"
     borderopacity="1.0"
     inkscape:pageopacity="0.0"
     inkscape:pageshadow="2"
     inkscape:zoom="0.98994949"
     inkscape:cx="-15.381293"
     inkscape:cy="221.1403"
     inkscape:document-units="px"
     inkscape:current-layer="layer1"
     showgrid="false"
     inkscape:window-width="1920"
     inkscape:window-height="1005"
     inkscape:window-x="-9"
     inkscape:window-y="83"
     inkscape:window-maximized="1" />
  <metadata
     id="metadata4514">
    <rdf:RDF>
      <cc:Work
         rdf:about="">
        <dc:format>image/svg+xml</dc:format>
        <dc:type
           rdf:resource="http://purl.org/dc/dcmitype/StillImage" />
        <dc:title></dc:title>
      </cc:Work>
    </rdf:RDF>
  </metadata>
  <g
     inkscape:label="Capa 1"
     inkscape:groupmode="layer"
     id="layer1"
     transform="translate(0,-598.8189)">
    <g
       transform="matrix(9.9522043,0,0,9.9522043,-1545.0418,-2745.0159)"
       id="g273"
       inkscape:export-filename="C:\Users\sneira\Desktop\iconos.png"
       inkscape:export-xdpi="291.73425"
       inkscape:export-ydpi="291.73425"
       style="fill:#000000">
      <path
         style="fill:#000000"
         inkscape:connector-curvature="0"
         d="m 192.065,350.913 c -2.296,-0.604 -5.335,-0.39 -8.342,0.591 -4.146,1.354 -7.316,3.831 -8.17,6.315 -2.155,-1.503 -6.177,-1.636 -10.324,-0.281 -3.005,0.979 -5.587,2.6 -7.083,4.442 -0.138,0.171 -0.117,0.419 0.048,0.562 0.164,0.146 0.413,0.134 0.563,-0.024 0.947,-0.995 2.479,-1.873 4.313,-2.472 1.189,-0.388 2.47,-0.652 3.804,-0.785 4.089,-0.407 7.882,0.532 9.438,2.336 0.101,0.116 0.258,0.167 0.407,0.129 0.033,-0.009 0.066,-0.021 0.097,-0.036 0.022,-0.004 0.048,-0.01 0.071,-0.018 0.009,-0.003 0.019,-0.006 0.026,-0.01 0.144,-0.059 0.24,-0.19 0.253,-0.344 0.193,-2.376 2.702,-5.371 6.244,-7.454 1.157,-0.682 2.346,-1.222 3.536,-1.609 1.833,-0.598 3.588,-0.792 4.939,-0.547 0.215,0.038 0.422,-0.1 0.471,-0.313 0.05,-0.213 -0.08,-0.426 -0.291,-0.482 z"
         id="path275" />
      <path
         style="fill:#000000"
         inkscape:connector-curvature="0"
         d="m 196.442,360.112 c -1.635,-0.513 -3.832,-0.457 -6.03,0.151 -3.034,0.838 -5.4,2.521 -6.097,4.283 -1.503,-1.154 -4.397,-1.381 -7.43,-0.543 -2.198,0.608 -4.113,1.69 -5.252,2.971 -0.105,0.117 -0.098,0.298 0.016,0.406 0.114,0.109 0.293,0.109 0.407,10e-4 0.716,-0.687 1.849,-1.269 3.189,-1.641 0.87,-0.239 1.801,-0.39 2.768,-0.44 2.959,-0.158 5.663,0.644 6.725,1.995 0.067,0.087 0.18,0.129 0.288,0.106 0.025,-0.005 0.05,-0.015 0.071,-0.024 0.017,-0.001 0.035,-0.004 0.052,-0.009 0.006,-0.002 0.014,-0.004 0.021,-0.006 0.104,-0.037 0.177,-0.131 0.19,-0.24 0.219,-1.707 2.125,-3.782 4.748,-5.168 0.856,-0.452 1.729,-0.803 2.602,-1.045 1.339,-0.37 2.61,-0.451 3.576,-0.231 0.154,0.035 0.309,-0.057 0.349,-0.21 0.042,-0.151 -0.044,-0.307 -0.193,-0.356 z"
         id="path277" />
    </g>
  </g>
</svg>
