<?xml version="1.0" encoding="UTF-8" standalone="no"?>
<!-- Created with Inkscape (http://www.inkscape.org/) -->

<svg
   xmlns:dc="http://purl.org/dc/elements/1.1/"
   xmlns:cc="http://creativecommons.org/ns#"
   xmlns:rdf="http://www.w3.org/1999/02/22-rdf-syntax-ns#"
   xmlns:svg="http://www.w3.org/2000/svg"
   xmlns="http://www.w3.org/2000/svg"
   xmlns:sodipodi="http://sodipodi.sourceforge.net/DTD/sodipodi-0.dtd"
   xmlns:inkscape="http://www.inkscape.org/namespaces/inkscape"
   width="128"
   height="128"
   viewBox="0 0 128 128"
   id="svg4501"
   version="1.1"
   inkscape:version="0.91 r13725"
   sodipodi:docname="natural.svg">
  <defs
     id="defs4503" />
  <sodipodi:namedview
     id="base"
     pagecolor="#ffffff"
     bordercolor="#666666"
     borderopacity="1.0"
     inkscape:pageopacity="0.0"
     inkscape:pageshadow="2"
     inkscape:zoom="3.872014"
     inkscape:cx="77.359738"
     inkscape:cy="85.185186"
     inkscape:document-units="px"
     inkscape:current-layer="layer1"
     showgrid="false"
     units="px"
     inkscape:window-width="1920"
     inkscape:window-height="1005"
     inkscape:window-x="-9"
     inkscape:window-y="-9"
     inkscape:window-maximized="1" />
  <metadata
     id="metadata4506">
    <rdf:RDF>
      <cc:Work
         rdf:about="">
        <dc:format>image/svg+xml</dc:format>
        <dc:type
           rdf:resource="http://purl.org/dc/dcmitype/StillImage" />
        <dc:title></dc:title>
      </cc:Work>
    </rdf:RDF>
  </metadata>
  <g
     inkscape:label="Capa 1"
     inkscape:groupmode="layer"
     id="layer1"
     transform="translate(0,-924.36216)">
    <g
       transform="matrix(3.1303147,0,0,3.1303147,-1216.6707,400.82195)"
       id="g29"
       style="fill:#000000;fill-opacity:1">
      <g
         id="g31"
         style="fill:#000000;fill-opacity:1">
        <path
           style="fill:#000000;fill-opacity:1"
           inkscape:connector-curvature="0"
           d="m 423.464,190.817 -0.287,-0.315 -0.222,-0.111 c -0.807,0.969 -1.805,1.741 -2.928,2.268 l 1.297,2.153 c 0.04,0.009 0.076,0.019 0.113,0.021 1.338,0.146 2.52,-0.83 2.651,-2.146 0.08,-0.673 -0.149,-1.354 -0.624,-1.87 z"
           id="path33" />
        <path
           style="fill:#000000;fill-opacity:1"
           inkscape:connector-curvature="0"
           d="m 422.29,175.473 c -0.875,-0.096 -1.678,0.271 -2.188,0.963 l -0.605,0.821 c 1.488,0.626 2.767,1.67 3.675,2.982 l 0.688,-0.791 c 0.321,-0.371 0.521,-0.828 0.573,-1.32 0.142,-1.322 -0.819,-2.515 -2.143,-2.655 z"
           id="path35" />
        <path
           style="fill:#000000;fill-opacity:1"
           inkscape:connector-curvature="0"
           d="m 426.897,180.964 c -0.401,-0.502 -0.979,-0.815 -1.621,-0.885 -0.309,-0.032 -0.602,0.004 -0.938,0.105 l -1,0.299 c 0.847,1.312 1.335,2.873 1.335,4.545 0,0.014 0,0.025 0,0.037 l 0.98,-0.269 c 0.971,-0.264 1.659,-1.071 1.771,-2.062 0.064,-0.639 -0.123,-1.268 -0.527,-1.77 z"
           id="path37" />
        <path
           style="fill:#000000;fill-opacity:1"
           inkscape:connector-curvature="0"
           d="m 412.136,174.915 c -0.774,-0.099 -1.502,0.166 -2.026,0.709 l 1.453,2.523 c 0.793,-0.574 1.688,-1.011 2.636,-1.282 l -0.021,-0.17 -0.125,-0.308 c -0.089,-0.219 -0.189,-0.4 -0.312,-0.558 -0.395,-0.508 -0.964,-0.834 -1.605,-0.914 z"
           id="path39" />
        <path
           style="fill:#000000;fill-opacity:1"
           inkscape:connector-curvature="0"
           d="m 419.215,177.146 0.062,-1.012 c 0.039,-0.609 -0.146,-1.203 -0.521,-1.671 -0.402,-0.501 -0.979,-0.815 -1.617,-0.885 -1.359,-0.142 -2.52,0.826 -2.657,2.146 -0.021,0.161 -0.016,0.341 0.018,0.548 l 0.042,0.334 0.067,0.167 c 0.554,-0.111 1.103,-0.167 1.64,-0.167 1.04,-0.002 2.042,0.189 2.966,0.54 z"
           id="path41" />
        <path
           style="fill:#000000;fill-opacity:1"
           inkscape:connector-curvature="0"
           d="m 425.625,185.669 -0.962,-0.328 c -0.061,1.572 -0.555,3.076 -1.438,4.387 l 0.18,0.19 0.369,0.185 c 0.271,0.135 0.545,0.218 0.812,0.246 1.366,0.147 2.521,-0.829 2.658,-2.146 0.122,-1.106 -0.56,-2.171 -1.619,-2.534 z"
           id="path43" />
      </g>
      <path
         style="fill:#000000;fill-opacity:1"
         inkscape:connector-curvature="0"
         d="m 416.401,186.837 2.876,4.638 c 2.512,-1.178 4.116,-3.646 4.116,-6.446 0,-3.941 -3.205,-7.147 -7.146,-7.147 -1.473,0 -2.896,0.458 -4.097,1.297 l 4.251,7.658 z"
         id="path45" />
      <path
         style="fill:#000000;fill-opacity:1"
         inkscape:connector-curvature="0"
         d="m 423.015,200.129 -7.594,-12.123 -7.229,-12.896 c -0.315,-0.312 -0.834,-0.307 -1.146,0.015 l -14.415,25.138 c -0.143,0.145 -0.215,0.36 -0.225,0.55 -0.043,0.396 0.211,0.671 0.611,0.769 l 0.134,0 29.352,0.017 0.138,0 c 0.396,-0.102 0.647,-0.521 0.604,-0.918 -0.013,-0.192 -0.088,-0.408 -0.23,-0.552 z"
         id="path47" />
    </g>
  </g>
</svg>
