<?xml version="1.0" encoding="UTF-8" standalone="no"?>
<!-- Created with Inkscape (http://www.inkscape.org/) -->

<svg
   xmlns:dc="http://purl.org/dc/elements/1.1/"
   xmlns:cc="http://creativecommons.org/ns#"
   xmlns:rdf="http://www.w3.org/1999/02/22-rdf-syntax-ns#"
   xmlns:svg="http://www.w3.org/2000/svg"
   xmlns="http://www.w3.org/2000/svg"
   xmlns:sodipodi="http://sodipodi.sourceforge.net/DTD/sodipodi-0.dtd"
   xmlns:inkscape="http://www.inkscape.org/namespaces/inkscape"
   width="32px"
   height="32px"
   id="svg3166"
   version="1.1"
   inkscape:version="0.48.3.1 r9886"
   sodipodi:docname="rinconeshistoricos.svg">
  <defs
     id="defs3168" />
  <sodipodi:namedview
     id="base"
     pagecolor="#ffffff"
     bordercolor="#666666"
     borderopacity="1.0"
     inkscape:pageopacity="0.0"
     inkscape:pageshadow="2"
     inkscape:zoom="11.197802"
     inkscape:cx="16"
     inkscape:cy="16"
     inkscape:current-layer="layer1"
     showgrid="true"
     inkscape:grid-bbox="true"
     inkscape:document-units="px"
     inkscape:window-width="1871"
     inkscape:window-height="1056"
     inkscape:window-x="1729"
     inkscape:window-y="24"
     inkscape:window-maximized="1" />
  <metadata
     id="metadata3171">
    <rdf:RDF>
      <cc:Work
         rdf:about="">
        <dc:format>image/svg+xml</dc:format>
        <dc:type
           rdf:resource="http://purl.org/dc/dcmitype/StillImage" />
        <dc:title></dc:title>
      </cc:Work>
    </rdf:RDF>
  </metadata>
  <g
     id="layer1"
     inkscape:label="Layer 1"
     inkscape:groupmode="layer">
    <g
       id="g63"
       transform="matrix(0.91159133,0,0,0.91159133,-148.51778,-236.05768)">
      <g
         id="g65">
        <path
           d="m 182.398,276.459 c -0.029,0.03 -0.059,0.061 -0.087,0.094 0.029,-0.032 0.058,-0.064 0.087,-0.094 z"
           id="path67"
           inkscape:connector-curvature="0"
           style="fill:#333333" />
        <path
           d="m 182.908,275.936 c 0.017,-0.015 0.034,-0.03 0.051,-0.047 -0.018,0.016 -0.034,0.032 -0.051,0.047 z"
           id="path69"
           inkscape:connector-curvature="0"
           style="fill:#333333" />
        <path
           d="m 176.302,277.629 c 0.182,-0.001 0.384,0.018 0.607,0.06 -0.22,-0.041 -0.419,-0.062 -0.598,-0.062 -0.003,-0.001 -0.005,0.002 -0.009,0.002 z"
           id="path71"
           inkscape:connector-curvature="0"
           style="fill:#333333" />
        <path
           d="m 177.387,277.771 c -0.175,-0.028 -0.338,-0.056 -0.478,-0.083 0.141,0.028 0.303,0.055 0.478,0.083 z"
           id="path73"
           inkscape:connector-curvature="0"
           style="fill:#333333" />
        <path
           d="m 177.881,277.845 c 0,0 0,-0.002 0,-0.003 -0.1,-0.012 -0.195,-0.025 -0.289,-0.04 0.096,0.014 0.188,0.028 0.289,0.043 z"
           id="path75"
           inkscape:connector-curvature="0"
           style="fill:#333333" />
        <path
           d="m 184.271,274.812 c -0.037,0.025 -0.073,0.05 -0.11,0.076 0.037,-0.025 0.073,-0.05 0.11,-0.076 z"
           id="path77"
           inkscape:connector-curvature="0"
           style="fill:#333333" />
        <path
           d="m 183.573,275.338 c -0.022,0.019 -0.043,0.039 -0.065,0.058 0.021,-0.019 0.043,-0.04 0.065,-0.058 z"
           id="path79"
           inkscape:connector-curvature="0"
           style="fill:#333333" />
        <path
           d="m 184.96,274.405 c -0.03,0.015 -0.062,0.027 -0.092,0.044 0.03,-0.016 0.061,-0.029 0.092,-0.044 z"
           id="path81"
           inkscape:connector-curvature="0"
           style="fill:#333333" />
        <path
           d="m 174.943,279.383 c -0.008,-0.094 -0.009,-0.184 -0.009,-0.272 0,0.088 0.001,0.178 0.009,0.272 z"
           id="path83"
           inkscape:connector-curvature="0"
           style="fill:#333333" />
        <path
           d="m 176.173,277.643 c -0.125,0.01 -0.247,0.019 -0.351,0.047 0.104,-0.029 0.226,-0.038 0.351,-0.047 z"
           id="path85"
           inkscape:connector-curvature="0"
           style="fill:#333333" />
        <path
           d="m 174.968,279.617 c 0.013,0.097 0.029,0.194 0.048,0.295 -0.019,-0.1 -0.035,-0.199 -0.048,-0.295 z"
           id="path87"
           inkscape:connector-curvature="0"
           style="fill:#333333" />
        <path
           d="m 175.68,277.751 c -0.079,0.032 -0.16,0.064 -0.227,0.109 0.067,-0.045 0.148,-0.077 0.227,-0.109 z"
           id="path89"
           inkscape:connector-curvature="0"
           style="fill:#333333" />
        <path
           d="m 175.189,278.127 c 0.043,-0.06 0.098,-0.109 0.151,-0.16 -0.054,0.051 -0.108,0.1 -0.151,0.16 z"
           id="path91"
           inkscape:connector-curvature="0"
           style="fill:#333333" />
        <path
           d="m 174.98,278.659 c -0.017,0.078 -0.031,0.156 -0.039,0.241 0.007,-0.085 0.022,-0.163 0.039,-0.241 z"
           id="path93"
           inkscape:connector-curvature="0"
           style="fill:#333333" />
        <path
           d="m 175.111,278.273 c -0.033,0.065 -0.066,0.131 -0.09,0.204 0.023,-0.073 0.056,-0.138 0.09,-0.204 z"
           id="path95"
           inkscape:connector-curvature="0"
           style="fill:#333333" />
        <path
           d="m 173.968,277.852 c 0.396,-0.905 1.25,-1.426 2.344,-1.426 0.257,0 0.532,0.028 0.821,0.083 0.439,0.084 0.86,0.145 1.26,0.186 0.021,-0.063 0.048,-0.116 0.068,-0.182 -0.001,0.064 0.009,0.127 0.031,0.188 0.33,0.031 0.651,0.054 0.937,0.054 0.636,0 1.036,-0.078 1.275,-0.157 0.884,-1.146 2.92,-3.285 4.913,-3.669 0.302,-1.229 0.434,-2.476 0.397,-3.21 -0.14,-2.785 -1.219,-4.022 -4.328,-4.062 -0.902,-0.015 -2.154,0.989 -3.184,1.406 0,0 -2.07,0.858 -2.755,0.676 -0.319,-0.087 -0.605,-0.572 -0.765,-0.676 -1.611,-1.03 -4.5,1.881 -5.512,3.309 -1.237,0.648 -3.484,0.321 -4.565,0.116 -3.646,-0.69 -1.548,4.622 0.588,6.924 2.479,2.673 4.753,2.858 8.125,2.692 0.083,-0.005 0.153,-0.017 0.233,-0.023 -0.152,-0.827 -0.154,-1.606 0.117,-2.229 z m 2.205,-9.827 c 0.615,-0.197 0.37,-0.075 1.105,-0.228 0.378,-0.078 3.225,-1.411 3.857,-1.685 1.016,-0.438 2.266,-0.104 3.215,0.735 2.137,1.887 -2.352,5.088 -4.011,4.715 -1.776,-0.398 -3.364,-1.96 -4.011,-3.245 0,0 0.035,-0.025 -0.152,-0.216 -0.002,-0.025 -0.029,-0.069 -0.003,-0.076 z"
           id="path97"
           inkscape:connector-curvature="0"
           style="fill:#333333" />
      </g>
      <g
         id="g99">
        <path
           d="m 198.019,276.921 c -0.139,-2.785 -1.219,-4.023 -4.326,-4.063 -0.903,-0.014 -2.155,0.989 -3.186,1.407 0,0 -2.071,0.857 -2.754,0.675 -0.319,-0.087 -0.605,-0.572 -0.766,-0.675 -1.61,-1.031 -4.499,1.88 -5.512,3.308 -1.238,0.648 -3.484,0.321 -4.565,0.116 -3.646,-0.69 -1.548,4.622 0.588,6.925 2.479,2.673 4.753,2.857 8.125,2.691 2.719,-0.136 4.045,-1.137 4.842,-3.59 -0.015,0.567 0.739,1.069 4.979,-0.032 1.828,-0.475 2.66,-5.037 2.575,-6.762 z m -5.674,1.845 c -1.776,-0.398 -3.364,-1.96 -4.012,-3.245 0,0 0.035,-0.025 -0.152,-0.215 -0.003,-0.027 -0.03,-0.07 -0.004,-0.078 0.616,-0.196 0.371,-0.075 1.105,-0.228 0.378,-0.078 3.227,-1.411 3.857,-1.685 1.018,-0.438 2.267,-0.104 3.216,0.735 2.136,1.888 -2.352,5.089 -4.01,4.716 z"
           id="path101"
           inkscape:connector-curvature="0"
           style="fill:#333333" />
      </g>
    </g>
  </g>
</svg>
