<?xml version="1.0" encoding="UTF-8" standalone="no"?>
<svg
   xmlns:dc="http://purl.org/dc/elements/1.1/"
   xmlns:cc="http://creativecommons.org/ns#"
   xmlns:rdf="http://www.w3.org/1999/02/22-rdf-syntax-ns#"
   xmlns:svg="http://www.w3.org/2000/svg"
   xmlns="http://www.w3.org/2000/svg"
   xmlns:sodipodi="http://sodipodi.sourceforge.net/DTD/sodipodi-0.dtd"
   xmlns:inkscape="http://www.inkscape.org/namespaces/inkscape"
   width="400.10001"
   height="500"
   viewBox="0 0 1333.6667 1666.6693"
   version="1.2"
   id="svg3336"
   inkscape:version="0.48.4 r9939"
   sodipodi:docname="aCorunaAsMarinas.svg">
  <metadata
     id="metadata3436">
    <rdf:RDF>
      <cc:Work
         rdf:about="">
        <dc:format>image/svg+xml</dc:format>
        <dc:type
           rdf:resource="http://purl.org/dc/dcmitype/StillImage" />
        <dc:title>BISBARRAS</dc:title>
      </cc:Work>
    </rdf:RDF>
  </metadata>
  <sodipodi:namedview
     pagecolor="#ffffff"
     bordercolor="#666666"
     borderopacity="1"
     objecttolerance="10"
     gridtolerance="10"
     guidetolerance="10"
     inkscape:pageopacity="0.01960784"
     inkscape:pageshadow="2"
     inkscape:window-width="1873"
     inkscape:window-height="1056"
     id="namedview3434"
     showgrid="false"
     inkscape:zoom="1.543472"
     inkscape:cx="-1.9716306"
     inkscape:cy="164.53947"
     inkscape:window-x="47"
     inkscape:window-y="24"
     inkscape:window-maximized="1"
     inkscape:current-layer="svg3336" />
  <title
     id="title3338">BISBARRAS</title>
  <desc
     id="desc3340">Generated with Qt</desc>
  <defs
     id="defs3342" />
  <g
     style="font-size:32.5px;font-style:normal;font-weight:400;fill:none;stroke:#000000;stroke-width:1;stroke-linecap:square;stroke-linejoin:bevel;stroke-opacity:1;font-family:MS Shell Dlg 2"
     id="g3346"
     font-style="normal"
     font-weight="400"
     font-size="32.5"
     transform="translate(271.82266,-1121.8036)" />
  <g
     style="font-size:32.5px;font-style:normal;font-weight:400;fill:none;stroke:#000000;stroke-width:1;stroke-linecap:square;stroke-linejoin:bevel;stroke-opacity:1;font-family:MS Shell Dlg 2"
     id="g3348"
     font-style="normal"
     font-weight="400"
     font-size="32.5"
     transform="matrix(11.8081,0,0,11.8081,271.82266,-1121.8036)" />
  <g
     style="font-size:32.5px;font-style:normal;font-weight:400;fill:#ffffff;fill-opacity:1;fill-rule:evenodd;stroke:none;font-family:MS Shell Dlg 2"
     id="g3350"
     font-style="normal"
     font-weight="400"
     font-size="32.5"
     transform="matrix(0.999751,0,0,0.999751,271.82266,-1121.8036)" />
  <g
     style="font-size:32.5px;font-style:normal;font-weight:400;fill:none;stroke:#000000;stroke-width:1;stroke-linecap:square;stroke-linejoin:bevel;stroke-opacity:1;font-family:MS Shell Dlg 2"
     id="g3354"
     font-style="normal"
     font-weight="400"
     font-size="32.5"
     transform="matrix(11.8081,0,0,11.8081,271.82266,-1121.8036)" />
  <g
     style="font-size:32.5px;font-style:normal;font-weight:400;fill:none;stroke:#000000;stroke-width:1;stroke-linecap:square;stroke-linejoin:bevel;stroke-opacity:1;font-family:MS Shell Dlg 2"
     id="g3356"
     font-style="normal"
     font-weight="400"
     font-size="32.5"
     transform="matrix(11.8081,0,0,11.8081,271.82266,-1121.8036)" />
  <g
     style="font-size:32.5px;font-style:normal;font-weight:400;fill:none;stroke:#000000;stroke-width:1;stroke-linecap:square;stroke-linejoin:bevel;stroke-opacity:1;font-family:MS Shell Dlg 2"
     id="g3358"
     font-style="normal"
     font-weight="400"
     font-size="32.5"
     transform="matrix(11.8081,0,0,11.8081,306.93866,-1058.8735)" />
  <g
     style="font-size:32.5px;font-style:normal;font-weight:400;fill:none;stroke:#000000;stroke-width:1;stroke-linecap:square;stroke-linejoin:bevel;stroke-opacity:1;font-family:MS Shell Dlg 2"
     id="g3360"
     font-style="normal"
     font-weight="400"
     font-size="32.5"
     transform="matrix(11.8081,0,0,11.8081,306.93866,-1058.8735)" />
  <g
     style="font-size:32.5px;font-style:normal;font-weight:400;fill:#ffffff;fill-opacity:1;fill-rule:evenodd;stroke:none;font-family:MS Shell Dlg 2"
     id="g3362"
     font-style="normal"
     font-weight="400"
     font-size="32.5"
     transform="matrix(11.8081,0,0,11.8081,306.93866,-1058.8735)" />
  <g
     style="font-size:32.5px;font-style:normal;font-weight:400;fill:none;stroke:#000000;stroke-width:1;stroke-linecap:square;stroke-linejoin:bevel;stroke-opacity:1;font-family:MS Shell Dlg 2"
     id="g3366"
     font-style="normal"
     font-weight="400"
     font-size="32.5"
     transform="matrix(11.8081,0,0,11.8081,306.93866,-1058.8735)" />
  <g
     style="font-size:32.5px;font-style:normal;font-weight:400;fill:#000000;fill-opacity:0;fill-rule:evenodd;stroke:none;font-family:MS Shell Dlg 2"
     id="g3368"
     font-style="normal"
     font-weight="400"
     font-size="32.5"
     transform="matrix(0.999751,0,0,0.999751,306.93866,-1058.8735)">
    <path
       style="fill-rule:evenodd"
       inkscape:connector-curvature="0"
       id="path3370"
       d="m 0,0 3438,0 0,2354 L 0,2354 0,0"
       vector-effect="non-scaling-stroke" />
  </g>
  <path
     vector-effect="none"
     d="m 537.65295,399.22271 1.86991,3.90155 2.32899,0.28836 -0.93155,4.26322 1.31633,4.05977 4.22591,1.73638 1.66743,-2.14736 5.08997,1.1843 0.41178,-1.51514 3.30102,2.68162 2.55175,8.67848 7.70241,3.79675 -3.62502,0.19384 0.0406,3.02548 2.65301,-0.62947 -4.75241,2.98095 1.20161,3.09329 3.78711,0.74113 1.38381,3.5392 5.78529,0.55002 1.87,5.73794 5.6502,1.84597 0.93828,2.05146 1.17467,-1.49459 -2.42349,-6.93387 5.49502,3.39742 -4.52291,-9.45934 -4.32717,-2.24256 4.09085,-2.80425 1.49196,-4.48786 -4.61742,-1.81927 0.0138,-3.10151 4.40811,-6.18932 0.63455,-5.36874 3.18631,-2.68505 0.8979,-4.09882 5.04266,0.0376 -0.64801,3.93168 4.3136,-0.47125 1.68771,2.34805 -4.21919,10.39088 2.56522,1.55554 11.27349,-2.17476 2.01854,-3.32 3.76683,-0.71443 5.05613,-4.63787 5.93382,1.1384 3.90192,-3.85496 3.46301,-0.0672 2.70021,6.12288 3.38216,2.02955 -0.0405,5.83451 -7.64847,3.54263 -8.39097,0.31781 4.43512,7.54556 11.73257,1.76856 -0.47255,2.99604 2.22093,4.96322 -0.42525,5.72698 2.80146,4.15156 7.54049,1.28705 3.01748,6.31946 4.95498,-0.5555 -1.94414,8.95588 4.6309,-0.89731 4.83345,6.14687 4.62415,2.16585 14.36528,-1.30691 2.36947,5.35777 -0.78309,3.96593 19.00981,-6.3085 3.58455,5.39066 6.98015,2.43162 1.06653,2.79465 -4.79962,17.93232 -5.468,16.91856 -8.08052,16.65145 1.2691,4.65089 -7.45262,-0.75345 -3.03777,3.94537 -13.55527,-0.99318 -6.1161,-4.6646 -1.48506,6.43181 1.00578,1.83569 -1.99808,4.37006 -11.46932,4.53444 -5.5828,-4.71253 5.44098,-4.08238 -4.7052,0.26714 -3.23351,9.23329 -5.29254,4.09607 -3.8276,-4.13031 -8.50569,-3.25358 -6.85863,5.70574 -3.55762,-0.0548 -2.96354,2.52067 -8.53272,13.33622 -1.94421,7.28115 -7.38513,-11.10324 -11.46933,3.30151 -3.13901,3.8495 -10.78073,-9.98675 -3.38207,-1.02059 -4.91449,0.10958 -2.57196,7.15787 -12.25232,3.51386 -3.75337,-4.04814 0.65474,-9.98675 -11.96206,-6.76059 -2.97027,7.67158 -4.81991,0.4795 -6.63578,5.38379 -4.08419,-1.85625 -3.15256,-4.20567 0.54004,-8.9456 -7.80365,-6.22631 -15.74919,2.34941 5.306,-17.4734 0.57379,-13.55541 -5.31955,-7.0003 -16.16088,-0.91101 2.97702,-4.60981 -15.85725,-13.22662 0.0674,-1.55486 -9.2281,-3.12343 -8.94449,-5.94548 -2.05893,0.24659 -1.01268,4.11663 -5.75413,4.45911 -7.5668,0.75345 -5.8312,-1.56171 -4.1037,-4.6372 -6.96394,-0.79454 -4.06252,-4.11665 -6.79581,-16.2884 0.013,-1.48774 3.65817,0.53153 1.68701,-1.82336 0.20179,-4.99886 4.98735,-5.11531 4.75517,1.36035 1.08078,2.6549 2.56384,-1.67267 2.94464,2.3734 4.51885,-0.70484 3.44282,-3.00356 2.95405,0.46578 7.40007,-8.13805 4.50263,0.20138 2.22101,-2.12269 -1.53243,-1.4213 6.10929,-11.52723 -3.06479,-0.95279 2.75424,-4.76528 3.1593,-0.50003 0.72914,1.44117 -1.59992,2.48915 1.69434,1.39389 4.79299,-0.45411 4.96171,-4.65639 3.28074,0.6466 -1.16779,-2.83436 1.09363,-3.69469 5.03586,-2.11586 -0.46573,-2.61381 3.57108,-3.22344 8.17495,2.47477 2.01845,4.40636 4.02335,1.39596 2.46398,-4.04128 -2.70022,-2.16311 -0.93163,-3.77483 2.51128,0.40413 -0.95856,-2.6008 3.98279,0.63084 -0.43873,-2.10077 4.25959,2.94053 -2.5585,2.79123 3.5508,6.43316 6.97343,3.76114 -6.25774,-3.05493 -0.0138,3.18302 -4.77269,-2.97891 1.38381,1.69803 -2.62591,-0.14795 -0.4186,1.69048 1.32314,0.5062 -2.38975,0.19316 0.78982,2.6275 4.05036,-2.83163 2.70029,1.39253 -3.57781,0.20685 4.82673,4.91737 2.84193,-2.23847 -2.7677,2.2912 1.4311,-0.61989 1.37034,1.79734 0.17556,2.03845 -1.59984,-3.2755 -1.8025,1.38775 -0.42525,2.53093 2.24795,1.11991 -2.36948,4.19129 5.40725,-0.16371 2.20073,-2.28298 4.79963,1.20416 3.22687,-3.28986 1.89692,1.03018 1.1948,-5.34408 -2.09942,-1.91997 1.6134,-0.43082 0.6008,-5.30915 3.34832,-1.82406 -2.28169,-2.04461 2.96354,-0.19864 0.15518,-4.82282 -2.93652,-2.89192 -3.37525,2.58986 -1.89019,-1.28773 3.93557,-2.9248 -2.29525,-2.69944 4.09093,-0.94935 -3.3213,-3.29809 6.49415,-1.05211 1.37035,-2.16859 1.62013,1.49733 0.98557,-2.5919 5.3262,1.45212 4.64443,-2.3912"
     id="path3410"
     inkscape:connector-curvature="0"
     style="font-size:medium;font-style:normal;font-weight:400;fill:#777777;fill-opacity:0.94117647;fill-rule:evenodd;stroke:#000000;stroke-width:2.08817314999999981;stroke-linecap:square;stroke-linejoin:bevel;stroke-opacity:1;font-family:MS Shell Dlg 2" />
  <g
     style="font-size:32.5px;font-style:normal;font-weight:400;fill:none;stroke:#000000;stroke-width:1;stroke-linecap:square;stroke-linejoin:bevel;stroke-opacity:1;font-family:MS Shell Dlg 2"
     id="g3412"
     font-style="normal"
     font-weight="400"
     font-size="32.5"
     transform="matrix(11.8081,0,0,11.8081,306.93866,-1058.8735)" />
  <g
     style="font-size:32.5px;font-style:normal;font-weight:400;fill:none;stroke:#000000;stroke-width:1;stroke-linecap:square;stroke-linejoin:bevel;stroke-opacity:1;font-family:MS Shell Dlg 2"
     id="g3414"
     font-style="normal"
     font-weight="400"
     font-size="32.5"
     transform="matrix(11.8081,0,0,11.8081,306.93866,-1058.8735)" />
  <g
     style="font-size:32.5px;font-style:normal;font-weight:400;fill:none;stroke:#000000;stroke-width:1;stroke-linecap:square;stroke-linejoin:bevel;stroke-opacity:1;font-family:MS Shell Dlg 2"
     id="g3416"
     font-style="normal"
     font-weight="400"
     font-size="32.5"
     transform="matrix(11.8081,0,0,11.8081,306.93866,-1058.8735)" />
  <g
     style="font-size:32.5px;font-style:normal;font-weight:400;fill:none;stroke:#000000;stroke-width:1;stroke-linecap:square;stroke-linejoin:bevel;stroke-opacity:1;font-family:MS Shell Dlg 2"
     id="g3418"
     font-style="normal"
     font-weight="400"
     font-size="32.5"
     transform="translate(271.82266,-1121.8036)" />
  <g
     style="font-size:32.5px;font-style:normal;font-weight:400;fill:none;stroke:#000000;stroke-width:1;stroke-linecap:square;stroke-linejoin:bevel;stroke-opacity:1;font-family:MS Shell Dlg 2"
     id="g3420"
     font-style="normal"
     font-weight="400"
     font-size="32.5"
     transform="matrix(11.8081,0,0,11.8081,306.93866,-1058.8735)" />
  <g
     style="font-size:32.5px;font-style:normal;font-weight:400;fill:none;stroke:#000000;stroke-width:1;stroke-linecap:square;stroke-linejoin:bevel;stroke-opacity:1;font-family:MS Shell Dlg 2"
     id="g3422"
     font-style="normal"
     font-weight="400"
     font-size="32.5"
     transform="matrix(11.8081,0,0,11.8081,306.93866,-1058.8735)" />
  <g
     style="font-size:32.5px;font-style:normal;font-weight:400;fill:none;stroke:#000000;stroke-width:1;stroke-linecap:square;stroke-linejoin:bevel;stroke-opacity:1;font-family:MS Shell Dlg 2"
     id="g3424"
     font-style="normal"
     font-weight="400"
     font-size="32.5"
     transform="matrix(11.8081,0,0,11.8081,306.93866,-1058.8735)" />
  <g
     style="font-size:32.5px;font-style:normal;font-weight:400;fill:none;stroke:#000000;stroke-width:1;stroke-linecap:square;stroke-linejoin:bevel;stroke-opacity:1;font-family:MS Shell Dlg 2"
     id="g3426"
     font-style="normal"
     font-weight="400"
     font-size="32.5"
     transform="matrix(11.8081,0,0,11.8081,306.93866,-1058.8735)" />
  <g
     style="font-size:32.5px;font-style:normal;font-weight:400;fill:none;stroke:#000000;stroke-width:1;stroke-linecap:square;stroke-linejoin:bevel;stroke-opacity:1;font-family:MS Shell Dlg 2"
     id="g3428"
     font-style="normal"
     font-weight="400"
     font-size="32.5"
     transform="matrix(11.8081,0,0,11.8081,271.82266,-1121.8036)" />
  <g
     style="font-size:32.5px;font-style:normal;font-weight:400;fill:none;stroke:#000000;stroke-width:1;stroke-linecap:square;stroke-linejoin:bevel;stroke-opacity:1;font-family:MS Shell Dlg 2"
     id="g3430"
     font-style="normal"
     font-weight="400"
     font-size="32.5"
     transform="matrix(11.8081,0,0,11.8081,271.82266,-1121.8036)" />
  <g
     style="font-size:32.5px;font-style:normal;font-weight:400;fill:none;stroke:#000000;stroke-width:1;stroke-linecap:square;stroke-linejoin:bevel;stroke-opacity:1;font-family:MS Shell Dlg 2"
     id="g3432"
     font-style="normal"
     font-weight="400"
     font-size="32.5"
     transform="translate(271.82266,-1121.8036)" />
</svg>
