<?xml version="1.0" encoding="UTF-8" standalone="no"?>
<svg
   xmlns:dc="http://purl.org/dc/elements/1.1/"
   xmlns:cc="http://creativecommons.org/ns#"
   xmlns:rdf="http://www.w3.org/1999/02/22-rdf-syntax-ns#"
   xmlns:svg="http://www.w3.org/2000/svg"
   xmlns="http://www.w3.org/2000/svg"
   xmlns:sodipodi="http://sodipodi.sourceforge.net/DTD/sodipodi-0.dtd"
   xmlns:inkscape="http://www.inkscape.org/namespaces/inkscape"
   width="400.10001"
   height="500"
   viewBox="0 0 1333.6667 1666.6693"
   version="1.2"
   id="svg3336"
   inkscape:version="0.48.4 r9939"
   sodipodi:docname="aMarinaLucense.svg">
  <metadata
     id="metadata3436">
    <rdf:RDF>
      <cc:Work
         rdf:about="">
        <dc:format>image/svg+xml</dc:format>
        <dc:type
           rdf:resource="http://purl.org/dc/dcmitype/StillImage" />
        <dc:title>BISBARRAS</dc:title>
      </cc:Work>
    </rdf:RDF>
  </metadata>
  <sodipodi:namedview
     pagecolor="#ffffff"
     bordercolor="#666666"
     borderopacity="1"
     objecttolerance="10"
     gridtolerance="10"
     guidetolerance="10"
     inkscape:pageopacity="0.01960784"
     inkscape:pageshadow="2"
     inkscape:window-width="1873"
     inkscape:window-height="1056"
     id="namedview3434"
     showgrid="false"
     inkscape:zoom="1.543472"
     inkscape:cx="107.16754"
     inkscape:cy="264.8299"
     inkscape:window-x="47"
     inkscape:window-y="24"
     inkscape:window-maximized="1"
     inkscape:current-layer="svg3336" />
  <title
     id="title3338">BISBARRAS</title>
  <desc
     id="desc3340">Generated with Qt</desc>
  <defs
     id="defs3342" />
  <g
     style="font-size:32.5px;font-style:normal;font-weight:400;fill:none;stroke:#000000;stroke-width:1;stroke-linecap:square;stroke-linejoin:bevel;stroke-opacity:1;font-family:MS Shell Dlg 2"
     id="g3346"
     font-style="normal"
     font-weight="400"
     font-size="32.5"
     transform="translate(271.82266,-1121.8036)" />
  <g
     style="font-size:32.5px;font-style:normal;font-weight:400;fill:none;stroke:#000000;stroke-width:1;stroke-linecap:square;stroke-linejoin:bevel;stroke-opacity:1;font-family:MS Shell Dlg 2"
     id="g3348"
     font-style="normal"
     font-weight="400"
     font-size="32.5"
     transform="matrix(11.8081,0,0,11.8081,271.82266,-1121.8036)" />
  <g
     style="font-size:32.5px;font-style:normal;font-weight:400;fill:#ffffff;fill-opacity:1;fill-rule:evenodd;stroke:none;font-family:MS Shell Dlg 2"
     id="g3350"
     font-style="normal"
     font-weight="400"
     font-size="32.5"
     transform="matrix(0.999751,0,0,0.999751,271.82266,-1121.8036)" />
  <g
     style="font-size:32.5px;font-style:normal;font-weight:400;fill:none;stroke:#000000;stroke-width:1;stroke-linecap:square;stroke-linejoin:bevel;stroke-opacity:1;font-family:MS Shell Dlg 2"
     id="g3354"
     font-style="normal"
     font-weight="400"
     font-size="32.5"
     transform="matrix(11.8081,0,0,11.8081,271.82266,-1121.8036)" />
  <g
     style="font-size:32.5px;font-style:normal;font-weight:400;fill:none;stroke:#000000;stroke-width:1;stroke-linecap:square;stroke-linejoin:bevel;stroke-opacity:1;font-family:MS Shell Dlg 2"
     id="g3356"
     font-style="normal"
     font-weight="400"
     font-size="32.5"
     transform="matrix(11.8081,0,0,11.8081,271.82266,-1121.8036)" />
  <g
     style="font-size:32.5px;font-style:normal;font-weight:400;fill:none;stroke:#000000;stroke-width:1;stroke-linecap:square;stroke-linejoin:bevel;stroke-opacity:1;font-family:MS Shell Dlg 2"
     id="g3358"
     font-style="normal"
     font-weight="400"
     font-size="32.5"
     transform="matrix(11.8081,0,0,11.8081,306.93866,-1058.8735)" />
  <g
     style="font-size:32.5px;font-style:normal;font-weight:400;fill:none;stroke:#000000;stroke-width:1;stroke-linecap:square;stroke-linejoin:bevel;stroke-opacity:1;font-family:MS Shell Dlg 2"
     id="g3360"
     font-style="normal"
     font-weight="400"
     font-size="32.5"
     transform="matrix(11.8081,0,0,11.8081,306.93866,-1058.8735)" />
  <g
     style="font-size:32.5px;font-style:normal;font-weight:400;fill:#ffffff;fill-opacity:1;fill-rule:evenodd;stroke:none;font-family:MS Shell Dlg 2"
     id="g3362"
     font-style="normal"
     font-weight="400"
     font-size="32.5"
     transform="matrix(11.8081,0,0,11.8081,306.93866,-1058.8735)" />
  <g
     style="font-size:32.5px;font-style:normal;font-weight:400;fill:none;stroke:#000000;stroke-width:1;stroke-linecap:square;stroke-linejoin:bevel;stroke-opacity:1;font-family:MS Shell Dlg 2"
     id="g3366"
     font-style="normal"
     font-weight="400"
     font-size="32.5"
     transform="matrix(11.8081,0,0,11.8081,306.93866,-1058.8735)" />
  <g
     style="font-size:32.5px;font-style:normal;font-weight:400;fill:#000000;fill-opacity:0;fill-rule:evenodd;stroke:none;font-family:MS Shell Dlg 2"
     id="g3368"
     font-style="normal"
     font-weight="400"
     font-size="32.5"
     transform="matrix(0.999751,0,0,0.999751,306.93866,-1058.8735)">
    <path
       style="fill-rule:evenodd"
       inkscape:connector-curvature="0"
       id="path3370"
       d="m 0,0 3438,0 0,2354 L 0,2354 0,0"
       vector-effect="non-scaling-stroke" />
  </g>
  <path
     vector-effect="none"
     d="m 849.17356,172.43639 2.59233,4.33308 -2.63281,4.9331 4.39465,8.79219 -1.11383,2.87683 6.25784,1.49801 0.57379,2.64122 3.51031,-1.92542 -3.42254,9.42644 4.63097,1.29458 -1.64041,6.3133 -2.79481,1.66035 -0.30381,6.4229 4.42849,4.20773 4.5904,-2.56245 -1.16786,8.94766 1.45138,-2.37544 0.10798,-6.31878 -0.56032,-2.45148 -4.38111,-1.45487 11.96206,-6.54413 -3.19303,-12.22247 12.27933,0.11576 3.80741,-5.3886 -1.51888,-7.16403 9.72766,0.58497 3.95577,-4.40499 4.06392,4.65637 0.8303,6.56468 2.01845,-5.03858 2.79471,2.44805 5.69077,-3.19056 10.99678,2.70835 -1.07335,2.18228 4.74568,2.33299 -5.9743,-1.31651 -3.36851,4.60022 5.15072,5.62285 3.86808,-6.25234 -1.05989,6.9332 9.14714,2.46998 -1.6404,2.84533 4.78615,-5.32216 1.28265,1.67472 -2.05892,3.16659 14.54074,2.94672 1.12066,5.20572 21.92593,6.65714 0.6481,6.65646 4.96162,3.65634 -5.58271,-2.88232 3.49004,7.62774 6.89247,6.76879 -1.12738,3.78989 1.89693,2.78301 4.65117,0.911 5.94053,6.22699 1.6404,6.3955 4.955,3.59743 1.458,4.22759 -2.8284,1.47061 7.3514,1.06854 17.6866,10.8957 -6.0957,6.13863 -0.081,3.25563 -5.2047,-0.80758 2.734,3.22687 5.3128,0.13151 -4.1922,3.38372 2.4707,2.46587 6.3523,-3.02685 -1.485,-8.62574 4.4215,-2.3364 15.2226,5.08996 12.3943,-1.79393 2.4503,4.91735 6.1702,1.58569 18.3211,-0.41988 1.8159,-5.01941 10.6053,4.99133 4.5229,-1.77406 5.2655,2.97068 -0.6683,-1.76172 2.6462,1.17608 -0.1552,-2.93848 3.0107,-0.7021 11.0845,4.72283 3.0311,10.99569 -7.8915,16.90557 -0.513,20.73792 -9.559,4.30637 -9.4373,9.95524 -0.4794,4.33992 2.2549,2.74808 -6.4739,2.4453 0.9991,4.89885 -3.5779,-0.013 1.4717,3.5303 -12.9274,2.41997 -5.8326,-4.56391 -14.3855,0.23769 -0.8235,3.74605 2.3086,1.61789 -3.2605,4.87214 3.8343,7.17361 -2.7948,-1.16649 0.7696,2.73438 -4.4083,5.25913 2.4911,1.13019 0.1486,5.69888 6.4063,1.48089 1.8226,3.6858 10.1935,-5.3071 4.4283,6.59002 -2.4437,16.13019 0.9519,11.33408 6.9868,2.37133 6.8655,14.75752 6.6493,2.27751 -10.2205,5.08858 -4.3675,-1.8501 -0.054,6.07837 -8.3574,19.61049 -7.2365,-5.95919 -24.417,5.60301 0.1417,-21.7599 -8.9648,2.07407 -16.026,-2.60148 -3.085,2.45079 2.0995,-8.6134 3.2807,-2.88849 -1.7551,-7.05581 1.8294,-6.93387 -2.9163,-3.23165 4.6985,-7.23047 -0.8641,-18.3344 6.1566,-1.97063 -5.0631,-9.66482 4.7255,-4.31527 -1.2084,-2.63162 -16.5929,3.61386 -1.0126,8.14009 -5.0629,-2.0631 -0.074,-5.49889 -11.8744,8.28874 -4.19205,7.20855 -4.67145,-1.73638 -1.35689,-5.82699 -7.60115,0.86854 -6.46713,-4.131 -4.73222,3.42824 -6.52777,-7.41267 -9.78844,6.33384 -7.30416,-1.08156 -1.08682,-9.08123 -2.76106,-2.31448 5.91363,-7.58801 -11.75959,-4.97627 -1.5459,-4.36663 2.0049,-19.69542 -32.57845,4.24404 -8.03322,-4.15019 -1.68771,-5.97287 -6.66954,3.90565 -8.57999,-2.3323 0.162,-10.59705 9.76133,-12.24508 3.1863,-13.42389 -6.92612,-3.10289 -4.50944,-6.26809 -10.06515,-3.91182 -5.58279,11.36969 -7.96565,-1.56445 -4.71866,10.44089 0.91135,7.70582 -8.98515,6.32221 -3.51032,-4.20637 -0.53322,-10.56759 2.0724,-7.23663 -5.76509,-0.64455 -1.24882,-2.98918 -16.52546,11.40121 0.82358,-9.12509 -4.39465,-7.62842 0.93827,-2.20489 -6.17005,2.64944 -0.41179,-2.55355 -3.65213,-0.0871 0.24978,-3.5214 -8.49896,-2.7145 -2.51127,-7.02634 4.15169,-7.17157 -2.31553,-4.74679 1.18141,-2.13297 8.4855,-1.47404 3.40233,2.39737 1.27584,-2.64669 -2.04546,-1.48568 0.96539,-8.23188 -4.7254,-2.71177 3.76001,-3.65771 -3.93557,-1.598 2.7677,-1.6042 -4.94815,-5.92903 1.99143,0.56442 -0.28352,-2.87205 2.40321,0.89387 3.8749,-5.90438 0.69522,-8.21886 6.95324,1.46513 3.4833,-3.1885 -1.22871,-2.79464 2.78125,-0.73565 -4.65116,-9.35797 -3.57108,-1.51238 0.49964,-5.13313 -5.42751,-5.72696 7.76316,0.67468 -0.459,-4.11731 2.31544,-1.94735 -4.11112,-4.71596 2.7407,-2.42819 -2.65293,-2.7145 6.41302,-3.46251 -2.94999,-12.48342 8.62048,3.05288 3.19986,-2.75013 -1.97116,-2.6467 2.63946,-5.25161 9.8019,2.3001 1.51889,-4.79337 6.02151,-1.64459"
     id="path3384"
     inkscape:connector-curvature="0"
     style="font-size:medium;font-style:normal;font-weight:400;fill:#777777;fill-opacity:0.94117647;fill-rule:evenodd;stroke:#000000;stroke-width:2.08817314999999981;stroke-linecap:square;stroke-linejoin:bevel;stroke-opacity:1;font-family:MS Shell Dlg 2" />
  <g
     style="font-size:32.5px;font-style:normal;font-weight:400;fill:none;stroke:#000000;stroke-width:1;stroke-linecap:square;stroke-linejoin:bevel;stroke-opacity:1;font-family:MS Shell Dlg 2"
     id="g3412"
     font-style="normal"
     font-weight="400"
     font-size="32.5"
     transform="matrix(11.8081,0,0,11.8081,306.93866,-1058.8735)" />
  <g
     style="font-size:32.5px;font-style:normal;font-weight:400;fill:none;stroke:#000000;stroke-width:1;stroke-linecap:square;stroke-linejoin:bevel;stroke-opacity:1;font-family:MS Shell Dlg 2"
     id="g3414"
     font-style="normal"
     font-weight="400"
     font-size="32.5"
     transform="matrix(11.8081,0,0,11.8081,306.93866,-1058.8735)" />
  <g
     style="font-size:32.5px;font-style:normal;font-weight:400;fill:none;stroke:#000000;stroke-width:1;stroke-linecap:square;stroke-linejoin:bevel;stroke-opacity:1;font-family:MS Shell Dlg 2"
     id="g3416"
     font-style="normal"
     font-weight="400"
     font-size="32.5"
     transform="matrix(11.8081,0,0,11.8081,306.93866,-1058.8735)" />
  <g
     style="font-size:32.5px;font-style:normal;font-weight:400;fill:none;stroke:#000000;stroke-width:1;stroke-linecap:square;stroke-linejoin:bevel;stroke-opacity:1;font-family:MS Shell Dlg 2"
     id="g3418"
     font-style="normal"
     font-weight="400"
     font-size="32.5"
     transform="translate(271.82266,-1121.8036)" />
  <g
     style="font-size:32.5px;font-style:normal;font-weight:400;fill:none;stroke:#000000;stroke-width:1;stroke-linecap:square;stroke-linejoin:bevel;stroke-opacity:1;font-family:MS Shell Dlg 2"
     id="g3420"
     font-style="normal"
     font-weight="400"
     font-size="32.5"
     transform="matrix(11.8081,0,0,11.8081,306.93866,-1058.8735)" />
  <g
     style="font-size:32.5px;font-style:normal;font-weight:400;fill:none;stroke:#000000;stroke-width:1;stroke-linecap:square;stroke-linejoin:bevel;stroke-opacity:1;font-family:MS Shell Dlg 2"
     id="g3422"
     font-style="normal"
     font-weight="400"
     font-size="32.5"
     transform="matrix(11.8081,0,0,11.8081,306.93866,-1058.8735)" />
  <g
     style="font-size:32.5px;font-style:normal;font-weight:400;fill:none;stroke:#000000;stroke-width:1;stroke-linecap:square;stroke-linejoin:bevel;stroke-opacity:1;font-family:MS Shell Dlg 2"
     id="g3424"
     font-style="normal"
     font-weight="400"
     font-size="32.5"
     transform="matrix(11.8081,0,0,11.8081,306.93866,-1058.8735)" />
  <g
     style="font-size:32.5px;font-style:normal;font-weight:400;fill:none;stroke:#000000;stroke-width:1;stroke-linecap:square;stroke-linejoin:bevel;stroke-opacity:1;font-family:MS Shell Dlg 2"
     id="g3426"
     font-style="normal"
     font-weight="400"
     font-size="32.5"
     transform="matrix(11.8081,0,0,11.8081,306.93866,-1058.8735)" />
  <g
     style="font-size:32.5px;font-style:normal;font-weight:400;fill:none;stroke:#000000;stroke-width:1;stroke-linecap:square;stroke-linejoin:bevel;stroke-opacity:1;font-family:MS Shell Dlg 2"
     id="g3428"
     font-style="normal"
     font-weight="400"
     font-size="32.5"
     transform="matrix(11.8081,0,0,11.8081,271.82266,-1121.8036)" />
  <g
     style="font-size:32.5px;font-style:normal;font-weight:400;fill:none;stroke:#000000;stroke-width:1;stroke-linecap:square;stroke-linejoin:bevel;stroke-opacity:1;font-family:MS Shell Dlg 2"
     id="g3430"
     font-style="normal"
     font-weight="400"
     font-size="32.5"
     transform="matrix(11.8081,0,0,11.8081,271.82266,-1121.8036)" />
  <g
     style="font-size:32.5px;font-style:normal;font-weight:400;fill:none;stroke:#000000;stroke-width:1;stroke-linecap:square;stroke-linejoin:bevel;stroke-opacity:1;font-family:MS Shell Dlg 2"
     id="g3432"
     font-style="normal"
     font-weight="400"
     font-size="32.5"
     transform="translate(271.82266,-1121.8036)" />
</svg>
