<?xml version="1.0" encoding="UTF-8" standalone="no"?>
<svg
   xmlns:dc="http://purl.org/dc/elements/1.1/"
   xmlns:cc="http://creativecommons.org/ns#"
   xmlns:rdf="http://www.w3.org/1999/02/22-rdf-syntax-ns#"
   xmlns:svg="http://www.w3.org/2000/svg"
   xmlns="http://www.w3.org/2000/svg"
   xmlns:sodipodi="http://sodipodi.sourceforge.net/DTD/sodipodi-0.dtd"
   xmlns:inkscape="http://www.inkscape.org/namespaces/inkscape"
   width="400.10001"
   height="500"
   viewBox="0 0 1333.6667 1666.6693"
   version="1.2"
   id="svg3336"
   inkscape:version="0.48.4 r9939"
   sodipodi:docname="celanovaALimia.svg">
  <metadata
     id="metadata3436">
    <rdf:RDF>
      <cc:Work
         rdf:about="">
        <dc:format>image/svg+xml</dc:format>
        <dc:type
           rdf:resource="http://purl.org/dc/dcmitype/StillImage" />
        <dc:title>BISBARRAS</dc:title>
      </cc:Work>
    </rdf:RDF>
  </metadata>
  <sodipodi:namedview
     pagecolor="#ffffff"
     bordercolor="#666666"
     borderopacity="1"
     objecttolerance="10"
     gridtolerance="10"
     guidetolerance="10"
     inkscape:pageopacity="0.01960784"
     inkscape:pageshadow="2"
     inkscape:window-width="1873"
     inkscape:window-height="1056"
     id="namedview3434"
     showgrid="false"
     inkscape:zoom="1.543472"
     inkscape:cx="107.38467"
     inkscape:cy="225.19382"
     inkscape:window-x="47"
     inkscape:window-y="24"
     inkscape:window-maximized="1"
     inkscape:current-layer="svg3336" />
  <title
     id="title3338">BISBARRAS</title>
  <desc
     id="desc3340">Generated with Qt</desc>
  <defs
     id="defs3342" />
  <g
     style="font-size:32.5px;font-style:normal;font-weight:400;fill:none;stroke:#000000;stroke-width:1;stroke-linecap:square;stroke-linejoin:bevel;stroke-opacity:1;font-family:MS Shell Dlg 2"
     id="g3346"
     font-style="normal"
     font-weight="400"
     font-size="32.5"
     transform="translate(271.82266,-1121.8036)" />
  <g
     style="font-size:32.5px;font-style:normal;font-weight:400;fill:none;stroke:#000000;stroke-width:1;stroke-linecap:square;stroke-linejoin:bevel;stroke-opacity:1;font-family:MS Shell Dlg 2"
     id="g3348"
     font-style="normal"
     font-weight="400"
     font-size="32.5"
     transform="matrix(11.8081,0,0,11.8081,271.82266,-1121.8036)" />
  <g
     style="font-size:32.5px;font-style:normal;font-weight:400;fill:#ffffff;fill-opacity:1;fill-rule:evenodd;stroke:none;font-family:MS Shell Dlg 2"
     id="g3350"
     font-style="normal"
     font-weight="400"
     font-size="32.5"
     transform="matrix(0.999751,0,0,0.999751,271.82266,-1121.8036)" />
  <g
     style="font-size:32.5px;font-style:normal;font-weight:400;fill:none;stroke:#000000;stroke-width:1;stroke-linecap:square;stroke-linejoin:bevel;stroke-opacity:1;font-family:MS Shell Dlg 2"
     id="g3354"
     font-style="normal"
     font-weight="400"
     font-size="32.5"
     transform="matrix(11.8081,0,0,11.8081,271.82266,-1121.8036)" />
  <g
     style="font-size:32.5px;font-style:normal;font-weight:400;fill:none;stroke:#000000;stroke-width:1;stroke-linecap:square;stroke-linejoin:bevel;stroke-opacity:1;font-family:MS Shell Dlg 2"
     id="g3356"
     font-style="normal"
     font-weight="400"
     font-size="32.5"
     transform="matrix(11.8081,0,0,11.8081,271.82266,-1121.8036)" />
  <g
     style="font-size:32.5px;font-style:normal;font-weight:400;fill:none;stroke:#000000;stroke-width:1;stroke-linecap:square;stroke-linejoin:bevel;stroke-opacity:1;font-family:MS Shell Dlg 2"
     id="g3358"
     font-style="normal"
     font-weight="400"
     font-size="32.5"
     transform="matrix(11.8081,0,0,11.8081,306.93866,-1058.8735)" />
  <g
     style="font-size:32.5px;font-style:normal;font-weight:400;fill:none;stroke:#000000;stroke-width:1;stroke-linecap:square;stroke-linejoin:bevel;stroke-opacity:1;font-family:MS Shell Dlg 2"
     id="g3360"
     font-style="normal"
     font-weight="400"
     font-size="32.5"
     transform="matrix(11.8081,0,0,11.8081,306.93866,-1058.8735)" />
  <g
     style="font-size:32.5px;font-style:normal;font-weight:400;fill:#ffffff;fill-opacity:1;fill-rule:evenodd;stroke:none;font-family:MS Shell Dlg 2"
     id="g3362"
     font-style="normal"
     font-weight="400"
     font-size="32.5"
     transform="matrix(11.8081,0,0,11.8081,306.93866,-1058.8735)" />
  <g
     style="font-size:32.5px;font-style:normal;font-weight:400;fill:none;stroke:#000000;stroke-width:1;stroke-linecap:square;stroke-linejoin:bevel;stroke-opacity:1;font-family:MS Shell Dlg 2"
     id="g3366"
     font-style="normal"
     font-weight="400"
     font-size="32.5"
     transform="matrix(11.8081,0,0,11.8081,306.93866,-1058.8735)" />
  <g
     style="font-size:32.5px;font-style:normal;font-weight:400;fill:#000000;fill-opacity:0;fill-rule:evenodd;stroke:none;font-family:MS Shell Dlg 2"
     id="g3368"
     font-style="normal"
     font-weight="400"
     font-size="32.5"
     transform="matrix(0.999751,0,0,0.999751,306.93866,-1058.8735)">
    <path
       style="fill-rule:evenodd"
       inkscape:connector-curvature="0"
       id="path3370"
       d="m 0,0 3438,0 0,2354 L 0,2354 0,0"
       vector-effect="non-scaling-stroke" />
  </g>
  <path
     vector-effect="none"
     d="m 651.69789,1122.252 1.68762,0.4933 0.60754,-0.4933 2.85557,1.3564 2.56523,0.013 1.59984,-0.9727 1.24217,0.1028 2.0724,1.2604 2.53828,-0.6987 0.97876,-1.3426 4.97527,3.5001 5.43426,0.056 0.55359,-1.6439 1.32978,1.9522 1.20161,3.9522 3.6926,1.596 2.2344,-1.3493 1.5257,-1.6167 2.37622,-0.9246 4.33388,-0.3631 6.29158,2.5207 0.92481,0.8631 2.78126,0.2124 -3.45629,1.7877 -5.29927,7.829 1.32322,3.0688 0.35093,6.9454 -1.33659,2.4591 1.83615,1.5821 5.21151,1.4111 1.86317,5.6236 1.86308,1.7467 2.09277,0.6713 0.87752,-0.3289 1.65396,0.6781 1.64041,-0.021 4.19216,-2.2055 4.68492,2.1371 1.97115,0.2808 1.4986,1.8767 -2.38294,2.24 -2.66654,1.6918 -1.8429,2.1096 -1.98461,6.4454 -1.24217,1.555 -0.009,1.1166 1.52563,0.2945 0.28351,0.8218 -0.58051,2.2262 0.74934,0.363 0.31054,0.7535 2.73396,0.5343 2.80828,-0.6303 1.01932,1.5276 1.92385,0.7739 3.00411,2.8016 4.20564,-1.8289 3.11873,-0.049 2.97028,1.3974 4.1989,4.1645 1.2218,3.5345 0.41187,5.0893 2.71377,1.0274 1.96441,-0.589 12.00928,-1.0959 3.60484,1.13 0.37811,1.7673 -0.6008,4.1166 2.2344,3.2605 2.22093,-1.9178 3.53059,3.1712 2.8825,6.3154 1.35015,1.5548 1.24883,-0.041 3.0716,1.2535 2.08587,-0.6302 1.93067,-1.4932 0.42533,-3.8358 0.5063,-2.1439 0.61427,-0.9247 -2.24113,-5.0345 0.39823,-9.4935 0.6481,-0.5685 1.91039,1.3151 4.98864,2.185 1.80924,-2.6646 1.24882,0.6577 2.33573,4.1165 0.35101,1.8837 6.91949,1.137 3.80722,0.8425 0.35784,0.4659 1.64715,-0.061 0.21603,1.1576 0.94509,0.8699 1.36362,-0.1027 0.80329,2.0822 -0.37804,1.0617 3.07834,-0.035 7.00709,8.6373 1.26237,-1.2258 -0.56032,-4.4182 3.64538,-1.7466 2.33564,-3.1851 0.49284,-0.1028 2.55849,-4.9933 -0.56033,-1.5823 0.68185,-4.7742 1.46486,-6.1305 2.48426,-6.1646 -0.0207,-2.7742 1.47167,-1.7945 4.3609,-2.4248 7.80365,-2.0481 1.9847,-9.4386 2.55849,-3.829 2.44371,-9.9046 1.09363,1.2125 12.21858,9.1031 5.40051,-0.4933 -0.37804,1.0549 0.19575,0.541 6.24437,3.4798 0.31727,1.1507 1.99817,1.0069 0.44553,-0.2603 3.7601,1.2466 4.29341,0.6645 1.63359,-0.7467 0.7156,0.5617 2.99729,-0.6096 2.68676,1.4864 5.1439,-4.555 1.00586,-2.8839 -0.0605,-1.7054 2.58543,-0.075 1.47167,0.5273 2.87577,1.9728 2.82846,2.7261 -0.0544,4.1371 0.3915,0.548 1.9645,1.1782 0.60081,0.8904 5.0967,1.7671 1.16787,-0.1163 -1.11384,2.3357 2.09267,3.7947 0.12827,0.8768 -1.02607,2.3973 0.0138,1.8699 -1.57963,2.3975 -3.32804,1.6301 -2.26151,1.7809 0.31728,2.8906 -0.26324,0.959 -1.01932,1.1028 -0.0406,1.9933 0.35094,0.6026 -0.41852,1.5549 0.009,2.0275 -2.91625,1.5754 -0.61435,0.6645 -0.14854,1.1712 -2.54495,0.6027 -0.98558,2.0618 -1.57972,1.9111 -2.07913,0.4726 -1.1544,1.7878 -0.37122,2.096 -2.06574,0.1506 -3.69934,-1.8562 -3.19296,0.9315 -2.28851,-0.013 -2.3289,1.1712 -0.63465,-0.2122 -1.78886,-2.1234 -1.42438,0.3151 -1.78221,-1.048 -5.34648,-6.4936 -1.00586,4.8977 -0.13499,3.2466 2.36948,10.8772 2.69347,9.8566 -0.0878,8.7812 -1.84963,6.6784 0.18901,0.6508 -0.3511,1.3562 0.20938,1.1918 0.87752,1.4727 0.18901,1.548 -1.39062,2.6302 0.16874,2.1989 0.70886,2.4314 -0.37803,0.959 0.31054,1.0823 -1.37035,2.7946 0.0475,1.048 -3.03778,2.7124 -2.45051,1.7947 -4.44186,0.8151 -3.17277,1.5617 -3.9896,3.7536 0.77628,2.548 2.43696,1.1098 2.04539,0.1848 1.67424,2.9317 1.89692,2.1713 -0.27006,4.6783 -0.47254,1.1645 -1.09356,2.048 -2.32899,1.3835 -3.76683,-2.1096 -1.03288,1.6577 -3.28755,2.7466 -0.80329,6.9936 -0.33074,0.356 -1.08009,0.3083 -4.41494,-2.0959 -7.93198,-0.5754 2.31545,15.6787 -2.99048,2.3358 -3.68587,4.4042 -2.48426,1.6372 0.15527,0.4315 -4.61743,3.5549 -1.83616,0.5548 -3.40908,2.507 -0.80329,0.1027 -0.89114,1.3356 0.21612,0.6371 -1.01941,2.4247 0.16208,1.2057 -1.69443,3.0001 -0.64138,0.8699 -1.32986,0.3082 -2.79473,2.9591 -5.25869,2.2124 -1.76186,1.7055 -8.47884,4.4729 -3.37533,2.8082 -2.33564,1.0481 -4.92123,0.8013 -2.20074,-1.0821 -1.81587,-2.2742 -4.66472,-0.3698 -0.60754,1.1302 -2.73404,2.2398 -3.36852,4.2399 -3.96258,1.822 -2.52475,0.7192 -3.6453,-0.1027 -1.13412,0.822 -8.18168,0.3219 -4.87402,0.9862 -6.63587,-0.9246 0.76282,3.507 -0.33757,1.2262 0.96538,2.7124 -1.68089,3.692 -1.55936,0.9451 -4.29341,-0.267 -3.07826,1.8426 -2.04546,3.4248 -3.37532,3.2123 -2.03191,-3.9522 -1.66743,-0.5479 -1.4514,0.1712 -2.01844,-2.2877 1.95095,-4.2263 -0.13499,-2.1303 0.72232,-1.2808 1.01251,-5.9591 0.0337,-4.6853 -0.51986,-5.4933 -0.77627,-3.7194 -0.0742,-2.7946 1.71471,-6.925 -0.42525,-3.644 -1.51224,-1.6644 -7.04082,0.226 -1.39064,-0.4179 -1.47841,2.8358 -0.38477,5.0276 0.14182,5.0687 -1.38391,4.61 -1.29619,2.5 -2.28843,8.2127 0.54685,0.9315 -0.91134,1.4316 -0.81684,-0.4178 -6.53463,2.7467 -3.17276,2.4111 -2.14671,0.3768 -2.70702,-0.6303 -0.85059,-0.7466 -0.26325,-1.3836 -1.93066,-0.1508 -0.58053,0.8973 -1.94414,-0.4384 -1.60675,0.5275 -0.68176,-1.3699 -1.87663,0.8561 -1.18816,1.1988 -1.52561,0.3424 -3.67914,2.9865 -0.35776,5.2605 -2.356,0.8974 0.33755,1.3972 -0.29699,1.9932 -0.93155,1.0687 -2.45725,0.5068 -0.47253,0.3835 -0.297,1.1783 -0.71561,0.5273 0.10798,1.1234 -0.75599,1.3219 -0.41187,3.0002 -0.87761,0.6713 -0.37121,1.6097 -0.83031,0.6642 -0.24306,2.4592 -0.45234,0.5137 -1.74157,-1.4658 -2.44378,0.1985 -2.88249,0.9659 -0.45909,-0.274 -0.20249,0.4246 -2.01171,-1.0274 -1.29612,0.1165 -1.10028,0.5823 -0.0475,0.8766 -0.7831,0.3151 0.0742,1.6508 -2.491,0.8836 -0.31726,1.0274 -2.24796,0.9384 -0.6683,-0.3218 -0.72906,1.7602 -1.22863,1.3562 -2.3087,-0.2465 -0.84386,-0.5754 -4.10439,2.5069 -2.50446,-0.2945 0.0674,0.7605 -2.8825,0.9999 -1.08682,-1.1987 -2.72049,1.1576 -0.486,1.4522 -3.25382,-0.6919 -2.22774,-1.5823 -3.93566,0.7672 -1.42428,-0.5549 -2.82857,2.1235 -3.10526,-0.055 -10.47019,-5.5413 -5.85952,-0.3632 0.79657,-8.5346 0.78308,-18.2815 -2.05901,-0.9315 -0.78309,-5.4044 -0.50621,-0.9795 -0.0614,-2.3906 -0.61418,-0.7808 -0.1148,-1.1644 -2.85547,1.6096 -2.15345,0.2398 -0.67512,0.7877 -4.4284,-1.2399 -3.4158,1.7878 -0.37804,-2.8083 1.37708,-0.9179 -1.46486,-2.1507 0.34429,-0.9317 -0.86405,-2.2672 -0.9249,-1.1438 -0.65483,-2.1167 -3.05797,-2.4726 -1.35007,-0.3013 0.49274,-2.0138 -1.2961,-2.3768 -0.0138,-1.5892 0.45225,-0.2192 -0.76953,-3.4316 2.0521,-2.9249 0.89788,-3.6918 1.57966,-0.5548 0.97884,-1.3495 1.04633,-2.3426 0.16874,-1.4316 2.06566,-3.5549 -0.0475,-1.0411 2.80154,-2.4795 1.43111,-2.4385 3.61838,-2.6645 0.70205,-1.3769 2.18719,-0.7533 -0.68177,-2.3975 0.87078,-0.9453 0.23624,-1.2671 2.16025,-0.5754 0.0268,-1.7123 1.04642,-1.2193 1.94405,-4.8906 -0.13491,-4.5276 10.6322,-3.8496 4.80644,-9.3908 1.23527,-1.1644 1.4312,-0.6096 4.48916,1.1233 2.28842,-1.6712 4.98873,-1.2398 2.24795,-2.2947 0.87086,0.4864 2.20065,-1.685 1.05308,-1.4453 0.57388,-5.3633 0.60753,-1.9042 -0.45227,-1.5342 0.49284,-3.3085 -0.48611,-1.8836 -0.18901,-5.2948 -2.13998,-7.3565 -1.94414,-3.3974 -1.76866,-4.7672 -3.5508,-1.7673 -6.50088,-4.7741 -2.61252,-0.6645 -6.31178,4.4932 -5.28579,-2.4109 -4.59041,2.0891 -2.36939,1.8973 -3.42254,3.7331 -2.27504,0.726 -2.77444,-0.178 -2.31545,-4.9318 1.37035,-2.5412 -0.81684,-1.8837 0.29708,-1.0753 -0.70213,-3.3494 0.46572,-5.3908 -1.42428,-9.8497 -1.60667,-6.1236 -0.324,-3.5824 1.95768,-4.6097 -1.0598,-3.3769 1.10028,-2.1302 -1.08691,0.7671 -0.40496,-0.2328 -1.72819,-3.3907 0.009,-1.6713 -1.50532,-2.2672 4.27311,-1.6302 2.07239,0.2741 1.73493,-0.7604 2.6057,-4.2194 0.47936,-1.5001 0.14173,-2.5138 2.13324,-1.322 4.71193,0.8631 1.28257,1.7673 -1.30285,3.0617 0.98557,4.0481 -0.24305,0.3562 0.89116,0.9316 0.93162,0.1095 2.39641,-1.6918 1.67415,0.055 2.72723,3.4796 -0.0605,1.0137 0.43199,0.3495 0.86414,-0.6576 2.28161,-4.1236 1.49868,0.1439 0.18902,-1.2809 2.04546,0.1576 0.74927,-0.9865 -0.16874,1.8153 2.62599,1.2741 1.18806,-2.7057 0.10805,-3.7193 -1.93067,-3.2194 -0.70205,-3.3563 -3.04449,-4.6577 0.22949,-1.548 1.33659,-0.8767 -0.29708,-1.1029 1.83626,-1.2946 1.7079,-4.7879 0.12153,-7.0003 -0.28353,-0.774 0.43199,-1.1781 -0.297,-0.8083 0.56024,-1.637 -0.97876,-1.37 0.30373,-3.1508 -0.47929,-0.959 0.46582,-0.7944 -1.02606,-0.3905 0.53323,-2.2535 0.5063,-0.3494 0.93836,0.4795 1.0598,1.0617 0.43207,1.4522 0.97211,0.1574 1.38381,-2.9932 0.61435,-2.5686 -0.20921,-3.281 1.43102,-2.7536 0.18238,-2.2534 -1.99152,-5.8497 0.0406,-0.7604 -2.71375,-3.8356 -0.72234,-0.3289 1.53918,-1.4452 1.64714,-0.733 4.42831,0.1165 2.72059,-0.5685 4.17862,-1.8014 1.93067,-1.9659 2.28842,1.185 -0.25651,-1.3905 1.49195,-1.2672 1.13412,-2.0411 0.0337,-1.1918 0.40497,-0.2262 3.13237,1.555"
     id="path3394"
     inkscape:connector-curvature="0"
     style="font-size:medium;font-style:normal;font-weight:400;fill:#777777;fill-opacity:0.94117647;fill-rule:evenodd;stroke:#000000;stroke-width:2.08817314999999981;stroke-linecap:square;stroke-linejoin:bevel;stroke-opacity:1;font-family:MS Shell Dlg 2" />
  <g
     style="font-size:32.5px;font-style:normal;font-weight:400;fill:none;stroke:#000000;stroke-width:1;stroke-linecap:square;stroke-linejoin:bevel;stroke-opacity:1;font-family:MS Shell Dlg 2"
     id="g3412"
     font-style="normal"
     font-weight="400"
     font-size="32.5"
     transform="matrix(11.8081,0,0,11.8081,306.93866,-1058.8735)" />
  <g
     style="font-size:32.5px;font-style:normal;font-weight:400;fill:none;stroke:#000000;stroke-width:1;stroke-linecap:square;stroke-linejoin:bevel;stroke-opacity:1;font-family:MS Shell Dlg 2"
     id="g3414"
     font-style="normal"
     font-weight="400"
     font-size="32.5"
     transform="matrix(11.8081,0,0,11.8081,306.93866,-1058.8735)" />
  <g
     style="font-size:32.5px;font-style:normal;font-weight:400;fill:none;stroke:#000000;stroke-width:1;stroke-linecap:square;stroke-linejoin:bevel;stroke-opacity:1;font-family:MS Shell Dlg 2"
     id="g3416"
     font-style="normal"
     font-weight="400"
     font-size="32.5"
     transform="matrix(11.8081,0,0,11.8081,306.93866,-1058.8735)" />
  <g
     style="font-size:32.5px;font-style:normal;font-weight:400;fill:none;stroke:#000000;stroke-width:1;stroke-linecap:square;stroke-linejoin:bevel;stroke-opacity:1;font-family:MS Shell Dlg 2"
     id="g3418"
     font-style="normal"
     font-weight="400"
     font-size="32.5"
     transform="translate(271.82266,-1121.8036)" />
  <g
     style="font-size:32.5px;font-style:normal;font-weight:400;fill:none;stroke:#000000;stroke-width:1;stroke-linecap:square;stroke-linejoin:bevel;stroke-opacity:1;font-family:MS Shell Dlg 2"
     id="g3420"
     font-style="normal"
     font-weight="400"
     font-size="32.5"
     transform="matrix(11.8081,0,0,11.8081,306.93866,-1058.8735)" />
  <g
     style="font-size:32.5px;font-style:normal;font-weight:400;fill:none;stroke:#000000;stroke-width:1;stroke-linecap:square;stroke-linejoin:bevel;stroke-opacity:1;font-family:MS Shell Dlg 2"
     id="g3422"
     font-style="normal"
     font-weight="400"
     font-size="32.5"
     transform="matrix(11.8081,0,0,11.8081,306.93866,-1058.8735)" />
  <g
     style="font-size:32.5px;font-style:normal;font-weight:400;fill:none;stroke:#000000;stroke-width:1;stroke-linecap:square;stroke-linejoin:bevel;stroke-opacity:1;font-family:MS Shell Dlg 2"
     id="g3424"
     font-style="normal"
     font-weight="400"
     font-size="32.5"
     transform="matrix(11.8081,0,0,11.8081,306.93866,-1058.8735)" />
  <g
     style="font-size:32.5px;font-style:normal;font-weight:400;fill:none;stroke:#000000;stroke-width:1;stroke-linecap:square;stroke-linejoin:bevel;stroke-opacity:1;font-family:MS Shell Dlg 2"
     id="g3426"
     font-style="normal"
     font-weight="400"
     font-size="32.5"
     transform="matrix(11.8081,0,0,11.8081,306.93866,-1058.8735)" />
  <g
     style="font-size:32.5px;font-style:normal;font-weight:400;fill:none;stroke:#000000;stroke-width:1;stroke-linecap:square;stroke-linejoin:bevel;stroke-opacity:1;font-family:MS Shell Dlg 2"
     id="g3428"
     font-style="normal"
     font-weight="400"
     font-size="32.5"
     transform="matrix(11.8081,0,0,11.8081,271.82266,-1121.8036)" />
  <g
     style="font-size:32.5px;font-style:normal;font-weight:400;fill:none;stroke:#000000;stroke-width:1;stroke-linecap:square;stroke-linejoin:bevel;stroke-opacity:1;font-family:MS Shell Dlg 2"
     id="g3430"
     font-style="normal"
     font-weight="400"
     font-size="32.5"
     transform="matrix(11.8081,0,0,11.8081,271.82266,-1121.8036)" />
  <g
     style="font-size:32.5px;font-style:normal;font-weight:400;fill:none;stroke:#000000;stroke-width:1;stroke-linecap:square;stroke-linejoin:bevel;stroke-opacity:1;font-family:MS Shell Dlg 2"
     id="g3432"
     font-style="normal"
     font-weight="400"
     font-size="32.5"
     transform="translate(271.82266,-1121.8036)" />
</svg>
