<?xml version="1.0" encoding="UTF-8" standalone="no"?>
<svg
   xmlns:dc="http://purl.org/dc/elements/1.1/"
   xmlns:cc="http://creativecommons.org/ns#"
   xmlns:rdf="http://www.w3.org/1999/02/22-rdf-syntax-ns#"
   xmlns:svg="http://www.w3.org/2000/svg"
   xmlns="http://www.w3.org/2000/svg"
   xmlns:sodipodi="http://sodipodi.sourceforge.net/DTD/sodipodi-0.dtd"
   xmlns:inkscape="http://www.inkscape.org/namespaces/inkscape"
   width="358.14319"
   height="382.65875"
   viewBox="0 0 1193.8112 1275.5312"
   version="1.2"
   id="svg3336"
   inkscape:version="0.48.4 r9939"
   sodipodi:docname="dezaTabeiros.svg">
  <metadata
     id="metadata3436">
    <rdf:RDF>
      <cc:Work
         rdf:about="">
        <dc:format>image/svg+xml</dc:format>
        <dc:type
           rdf:resource="http://purl.org/dc/dcmitype/StillImage" />
        <dc:title>BISBARRAS</dc:title>
      </cc:Work>
    </rdf:RDF>
  </metadata>
  <sodipodi:namedview
     pagecolor="#ffffff"
     bordercolor="#666666"
     borderopacity="1"
     objecttolerance="10"
     gridtolerance="10"
     guidetolerance="10"
     inkscape:pageopacity="0.01960784"
     inkscape:pageshadow="2"
     inkscape:window-width="1873"
     inkscape:window-height="1056"
     id="namedview3434"
     showgrid="false"
     inkscape:zoom="1.2935421"
     inkscape:cx="-191.16317"
     inkscape:cy="134.29283"
     inkscape:window-x="47"
     inkscape:window-y="24"
     inkscape:window-maximized="1"
     inkscape:current-layer="svg3336"
     fit-margin-top="0"
     fit-margin-left="0"
     fit-margin-right="0"
     fit-margin-bottom="0" />
  <title
     id="title3338">BISBARRAS</title>
  <desc
     id="desc3340">Generated with Qt</desc>
  <defs
     id="defs3342" />
  <g
     style="font-size:32.5px;font-style:normal;font-weight:400;fill:none;stroke:#000000;stroke-width:1;stroke-linecap:square;stroke-linejoin:bevel;stroke-opacity:1;font-family:MS Shell Dlg 2"
     id="g3346"
     font-style="normal"
     font-weight="400"
     font-size="32.5"
     transform="translate(196.47815,-1269.533)" />
  <g
     style="font-size:32.5px;font-style:normal;font-weight:400;fill:none;stroke:#000000;stroke-width:1;stroke-linecap:square;stroke-linejoin:bevel;stroke-opacity:1;font-family:MS Shell Dlg 2"
     id="g3348"
     font-style="normal"
     font-weight="400"
     font-size="32.5"
     transform="matrix(11.8081,0,0,11.8081,196.47815,-1269.533)" />
  <g
     style="font-size:32.5px;font-style:normal;font-weight:400;fill:#ffffff;fill-opacity:1;fill-rule:evenodd;stroke:none;font-family:MS Shell Dlg 2"
     id="g3350"
     font-style="normal"
     font-weight="400"
     font-size="32.5"
     transform="matrix(0.999751,0,0,0.999751,196.47815,-1269.533)" />
  <g
     style="font-size:32.5px;font-style:normal;font-weight:400;fill:none;stroke:#000000;stroke-width:1;stroke-linecap:square;stroke-linejoin:bevel;stroke-opacity:1;font-family:MS Shell Dlg 2"
     id="g3354"
     font-style="normal"
     font-weight="400"
     font-size="32.5"
     transform="matrix(11.8081,0,0,11.8081,196.47815,-1269.533)" />
  <g
     style="font-size:32.5px;font-style:normal;font-weight:400;fill:none;stroke:#000000;stroke-width:1;stroke-linecap:square;stroke-linejoin:bevel;stroke-opacity:1;font-family:MS Shell Dlg 2"
     id="g3356"
     font-style="normal"
     font-weight="400"
     font-size="32.5"
     transform="matrix(11.8081,0,0,11.8081,196.47815,-1269.533)" />
  <g
     style="font-size:32.5px;font-style:normal;font-weight:400;fill:none;stroke:#000000;stroke-width:1;stroke-linecap:square;stroke-linejoin:bevel;stroke-opacity:1;font-family:MS Shell Dlg 2"
     id="g3358"
     font-style="normal"
     font-weight="400"
     font-size="32.5"
     transform="matrix(11.8081,0,0,11.8081,231.59415,-1206.6029)" />
  <g
     style="font-size:32.5px;font-style:normal;font-weight:400;fill:none;stroke:#000000;stroke-width:1;stroke-linecap:square;stroke-linejoin:bevel;stroke-opacity:1;font-family:MS Shell Dlg 2"
     id="g3360"
     font-style="normal"
     font-weight="400"
     font-size="32.5"
     transform="matrix(11.8081,0,0,11.8081,231.59415,-1206.6029)" />
  <g
     style="font-size:32.5px;font-style:normal;font-weight:400;fill:#ffffff;fill-opacity:1;fill-rule:evenodd;stroke:none;font-family:MS Shell Dlg 2"
     id="g3362"
     font-style="normal"
     font-weight="400"
     font-size="32.5"
     transform="matrix(11.8081,0,0,11.8081,231.59415,-1206.6029)" />
  <g
     style="font-size:32.5px;font-style:normal;font-weight:400;fill:none;stroke:#000000;stroke-width:1;stroke-linecap:square;stroke-linejoin:bevel;stroke-opacity:1;font-family:MS Shell Dlg 2"
     id="g3366"
     font-style="normal"
     font-weight="400"
     font-size="32.5"
     transform="matrix(11.8081,0,0,11.8081,231.59415,-1206.6029)" />
  <g
     style="font-size:32.5px;font-style:normal;font-weight:400;fill:#000000;fill-opacity:0;fill-rule:evenodd;stroke:none;font-family:MS Shell Dlg 2"
     id="g3368"
     font-style="normal"
     font-weight="400"
     font-size="32.5"
     transform="matrix(0.999751,0,0,0.999751,231.59415,-1206.6029)">
    <path
       style="fill-rule:evenodd"
       inkscape:connector-curvature="0"
       id="path3370"
       d="m 0,0 3438,0 0,2354 L 0,2354 0,0"
       vector-effect="non-scaling-stroke" />
  </g>
  <path
     vector-effect="none"
     d="m 520.90378,604.85521 2.14671,-0.34251 0.8776,0.93837 1.14767,-0.18493 2.45716,1.13705 1.13411,2.67134 1.30285,0.82195 1.19488,-0.66437 0.83031,0.17121 1.89691,2.45901 0.88434,0.43842 1.80242,-1.08223 1.44465,0.0343 1.67416,1.1576 -0.27007,1.56854 0.93155,0.39046 1.37716,-0.16436 4.04364,-4.34272 2.68674,-0.32187 0.54006,0.76715 -0.5738,2.08225 1.14084,2.69189 0.86405,0.45897 1.57966,-1.69187 0.72232,-2.10966 2.5585,1.25345 0.80329,-0.14382 -0.42525,-1.78777 0.72233,-1.00003 0.61426,0.21233 0.39832,1.30141 0.36449,0.0548 2.00499,-2.02067 2.11295,-0.50001 1.32987,-1.60965 1.4514,0.0343 1.02604,-0.72604 1.45141,1.03428 2.46397,-0.12333 1.53918,0.56853 0.0945,1.58225 1.18141,1.28092 0.47254,1.58224 3.52378,1.42474 -0.14845,1.66446 -1.94422,0.19862 0.36458,2.29466 0.95182,0.54112 3.60483,-0.75352 -0.13507,2.71251 3.63184,0.94521 0.95182,-0.27398 0.69532,-1.01373 0.96538,-2.02751 -0.14181,-0.87677 3.23361,-0.17805 1.80915,-1.45901 0.58725,-1.98633 1.80242,-1.959 4.38119,-0.21917 1.16113,-2.04807 1.52561,1.08908 2.19392,-0.67814 2.5653,0.34934 1.37709,1.0001 -0.0406,0.589 0.47256,0.34936 1.19487,-0.67808 0.89099,0.11639 1.87672,1.15762 1.50543,1.76723 0.81675,-0.0822 1.33669,-1.21927 0.68184,-2.00689 1.52563,-0.16442 2.84866,-1.24661 2.07921,4.78785 3.71289,1.59601 -2.89605,2.76034 -3.80059,4.79476 -1.78221,4.6783 -0.42525,2.23983 -2.2817,3.78784 -0.67503,3.19875 0.45227,1.47269 0.0605,2.71244 -0.53331,7.63054 1.65387,5.95915 5.04275,4.64403 7.02738,11.27449 1.95095,0.4315 3.3213,3.32206 1.38389,2.00697 1.28257,3.33577 4.96844,2.64393 3.05124,0.88361 3.16611,-0.26713 4.20565,0.83565 1.35006,1.04114 0.86413,0 1.39736,1.6165 2.73404,1.82204 7.30409,3.9522 3.0041,-0.26029 -0.14863,4.68514 2.45726,4.57562 -2.44371,4.95226 -1.21507,0.20548 -1.23544,-0.82196 -0.86404,0.0273 -1.01933,1.6028 -0.39824,1.81512 0.20249,1.08224 0.99904,0.6713 -0.22276,1.13704 -5.8325,2.0275 -1.11383,1.72607 -0.0878,2.39057 -0.74935,0.1438 -0.50621,1.34253 0.2295,4.60292 1.46487,3.10291 0.66829,3.05494 -1.01932,2.94532 0.38477,2.62344 -1.34343,4.08922 -0.14845,3.6303 -0.60762,1.12334 0.52658,3.27413 -0.12825,2.34939 -1.82944,2.92484 -1.14758,3.45902 -0.95183,0.48631 -0.61434,1.02743 0.10805,1.41787 -0.78309,0.76718 0.0877,1.47265 -0.4792,0 -0.58061,2.38376 -0.80329,1.50685 0.0674,0.8905 -2.27496,2.05478 -0.61427,2.58924 0.43198,3.32888 -3.03776,4.71262 -5.00893,3.52066 -6.70336,3.1235 -1.5932,1.6438 -4.44859,1.2809 -1.73492,1.3768 -1.70109,0.3904 -3.88163,0.1439 -7.16918,-3.6715 -1.7754,-0.2397 -3.80057,3.8015 -0.99241,3.2742 0.16202,1.7877 -3.38206,2.8289 -0.98558,1.4521 -0.72233,4.5688 -1.39736,1.3561 -1.03278,0.3152 -4.16517,-1.1508 -1.78212,-1.0137 -1.55946,-3.2605 -1.79569,-0.6575 -1.24881,0.5 -3.29429,-2.5412 -1.97797,2.4933 -1.32987,0.048 -1.78212,1.4385 -2.52475,-2.322 -5.91353,-0.6166 -3.09854,-2.0137 -2.91625,-0.8494 -0.70885,0.3563 -1.59995,2.2397 -7.45261,-1.3699 -0.68859,0.8082 -0.82357,-0.2465 -7.00035,1.6301 -2.70703,-1.2397 -5.19802,3.6371 -4.60388,-4.3631 -2.29516,-1.2398 -1.12064,-1.822 0.22948,-1.137 -1.05306,-1.9728 -3.7128,-4.3838 -2.28851,1.6235 -0.74926,1.4452 -2.82855,1.3151 -0.85733,1.8973 1.86317,3.3632 -2.68673,0.87 -2.39649,1.9931 -1.90366,0.3768 -2.05893,2.0138 -0.32401,2.0411 -1.12737,1.5686 -3.38881,4.5345 -1.57291,1.3562 -4.09757,-2.9727 -5.78528,-0.01 -3.22006,3.2192 -1.27584,0.013 -0.95864,1.6166 -6.1093,3.3563 -1.49187,2.9932 -2.0522,0.2193 -0.58052,3.4522 -0.94518,1.0001 -0.0544,3.3905 -4.55666,1.4796 -0.82357,1.4931 -1.02615,0.4042 -1.30957,4.5207 -5.2789,3.74 -4.44869,-3.3496 -1.89019,0.5617 -2.99729,-0.2329 -5.31273,2.3905 -2.89605,-0.7739 -0.0268,3.1919 -0.70878,1.9042 -4.90095,2.3425 -6.37254,-4.2125 -3.33485,1.596 -0.54004,1.4589 -2.43023,2.144 -1.29603,2.6851 -1.1544,1.37 -1.39736,0.3902 2.18718,-3.1713 0.29027,-3.8906 -6.44004,-2.1986 -4.18544,1.0685 -1.10036,-0.5344 0.10806,-0.5205 -1.03287,-2.5413 1.00586,-0.3082 -0.22278,-1.8014 0.75608,-0.1644 0.85733,-1.7945 -2.23449,-2.0962 -3.44955,0.3768 -0.87088,1.733 -0.95855,-2.2467 -1.04635,-4.8905 -1.40418,-3.1372 -2.55839,-1.3631 -2.68676,-3.9249 -0.61434,-2.0412 -3.09181,-2.7329 -1.81589,-5.192 -4.24611,-0.9315 -4.20562,-3.9797 -1.64723,-2.9454 -1.32988,-5.0619 -2.46398,-3.7946 0.50639,-2.137 2.36947,-1.0344 0.0544,-2.0001 -1.77549,-1.4179 -3.12546,-1.5 -3.4429,-0.1988 -3.01749,-1.315 -0.74935,-2.76724 0.39159,-1.21919 -0.18229,-1.17816 -1.28265,-1.45222 0.86414,-0.89725 -1.9645,-3.71932 0.39831,-1.99333 0.88443,-1.65759 -0.0742,-1.00688 -1.4311,-1.94525 -1.66742,-0.0133 -1.01933,-2.71929 0.97202,-3.48647 -0.93827,-3.75365 1.74156,-5.91804 -0.31046,-0.21231 1.13411,-1.24668 0.55351,-1.77402 -0.0138,-3.63716 -1.67415,-1.82889 -1.32987,-0.44519 0.46582,-1.66448 -0.31054,-1.6713 -1.19488,-0.78086 -0.17547,-0.58906 0.49948,-0.6028 -0.23624,-1.58909 1.37708,-7.23322 -0.8978,-3.26042 -2.18045,-3.54809 -2.54494,-0.94521 -4.16317,-2.53437 -2.04132,-2.15079 -0.36189,-1.20554 -0.98014,-1.25347 -0.81616,0.84245 -0.19514,1.50695 -1.32918,-1.71243 -2.37214,-0.86304 -0.53866,1.02063 -0.52589,-0.39046 -3.32337,-0.0754 -1.55669,-0.57537 0.45433,-2.39737 -3.49072,1.52753 0.26998,0.53425 -2.91626,0.0343 -2.45112,1.36307 0.2504,0.96576 -0.36381,1.32197 -1.29543,0.43157 0.0682,1.18493 -1.12946,2.41798 -0.22269,1.50687 -4.16248,1.19871 -4.23799,-2.06176 1.79085,-7.00028 -0.19231,-3.80155 2.03054,-3.59606 0.0674,-1.02748 -0.75202,-1.69873 -4.31162,-2.52745 0.05,-3.4865 -1.0302,-0.60271 1.13412,-1.08231 -1.56947,-5.56184 0.93362,-4.21939 1.73146,-2.50698 0.86958,-2.7056 0.0198,-1.87677 2.76106,-0.45897 1.15372,0.93843 1.64161,-0.13696 0.63257,0.589 1.83278,0.26714 0.73926,-0.20548 0.86267,-1.23289 3.31655,0.90411 3.89716,-2.69189 1.4608,-0.30825 1.35352,0.6987 0.63118,-0.20547 0.74598,-0.47268 0.14043,-0.74657 -2.42212,-4.95229 -0.0328,-1.36992 1.44605,-1.84938 2.16086,-0.52057 1.08344,0.15067 0.70076,0.67129 0.93224,4.1508 2.40934,0.73981 0.95511,-0.26714 2.33581,0.73289 1.38916,-2.8015 1.7836,0.49316 1.74839,2.17825 2.61926,0.54796 3.09171,-2.79465 3.3011,-0.79456 2.10614,0.38354 1.82269,-0.42464 1.47841,0.70548 2.47745,3.04123 4.60395,2.28094 1.64041,1.78087 1.4041,0.60963 3.1863,-1.37678 3.96933,0.0685 1.47167,-1.10279 2.30871,-0.46575 5.93383,1.41781 1.34332,-0.13696 2.38976,-3.89745 1.55263,-1.33567 1.62012,-0.11647 4.01662,0.85621 1.64041,-0.66437 0.19575,-1.34251 -1.03287,-1.72613 -2.13988,-1.54121 -0.93155,-1.54799 0.35767,-1.80142 0.66838,-1.10279 1.42437,-0.0411 2.4437,-2.10289 2.44379,-5.79472 0.65474,-0.32194 3.15258,2.89051 1.24209,-2.69188 -1.76186,-3.25357 -0.14854,-1.07538 0.37131,-1.12334 0.73579,-0.40417 1.2893,0.62333 2.22776,-0.31509 -0.37131,1.82199 0.24978,0.8699 1.6134,0.77406 2.06566,-0.74665 1.43792,0.61648 1.51888,-0.7329 1.53909,0.82196 2.13324,0.35613 2.92307,3.08921 3.2065,-3.27412 -0.26324,-2.47956 0.25651,-0.69178 4.83337,-3.49337 2.69357,-0.0891 0.0535,-0.84936 -0.95856,-3.1166 0.84377,-1.56854 0.16881,-3.08234 0.54687,-2.09598 -0.45917,-2.39056 -1.4243,-1.91789 0.47256,-1.42474 1.52562,-1.68494 -0.21604,-3.00706 -1.71463,-1.85622 -3.57782,1.40417 -1.95769,-2.72614 0.18903,-2.36994 2.76097,-3.02069 2.16698,0.93836 1.46486,-1.86993 0.99232,0.007 1.01258,3.17134 0.009,3.10975 1.04626,0.72604 1.09362,-0.80826 0.65484,-1.22604 0.34429,-1.60965 -0.31728,-1.56862 1.14759,-2.5343 1.06662,-1.54807 0.74934,-0.13695 0.45226,2.58912 1.64714,1.89734 -0.6481,2.80151 0.76963,2.62345 2.0522,0.30138 1.39736,-1.18499 2.45725,0.48629 2.14671,1.41104 -0.43216,0.93842 -2.36939,1.77402 -0.26332,3.68512 5.11698,0.65067 1.08681,1.92475 1.79578,0.89732 0.41851,1.36992 0.92481,0.30824 1.91047,-0.52742 0.56024,-0.8288 -1.2489,-2.23984 -0.0198,-3.31522 3.05805,-2.89736 3.14574,-1.64391 0.3916,-2.25354 3.77356,-2.88373 3.9896,2.11658 0,1.12335 -0.8978,1.62335 0.60071,0.84252 1.14094,0.10955 1.89693,-1.53429 0.41178,-1.1576 1.86991,-0.65075 1.03287,0.58223 0.0674,1.93846 3.28755,2.16447 1.62686,0.43841 1.22189,-0.32194 3.88836,1.16444 1.25555,-0.63017 1.16113,-1.23297 -0.35102,-1.45207 0.3713,-2.24669 -3.1863,-1.20556 -1.57292,-4.17828 -2.26142,-0.89726 0.135,-1.47954 2.24794,-1.13705 1.39064,-0.16436 0.73578,0.17807 1.59321,1.88364 0.58724,0.14387 1.93067,-1.37678 0.6211,-2.02067 1.28938,-2.00695 4.98864,-4.19191 2.24795,-1.50695 1.3637,1.53434"
     id="path3400"
     inkscape:connector-curvature="0"
     style="font-size:medium;font-style:normal;font-weight:400;fill:#cccccc;fill-opacity:1;fill-rule:evenodd;stroke:#000000;stroke-width:2.08817314999999981;stroke-linecap:square;stroke-linejoin:bevel;stroke-opacity:1;font-family:MS Shell Dlg 2" />
  <g
     style="font-size:32.5px;font-style:normal;font-weight:400;fill:none;stroke:#000000;stroke-width:1;stroke-linecap:square;stroke-linejoin:bevel;stroke-opacity:1;font-family:MS Shell Dlg 2"
     id="g3412"
     font-style="normal"
     font-weight="400"
     font-size="32.5"
     transform="matrix(11.8081,0,0,11.8081,231.59415,-1206.6029)" />
  <g
     style="font-size:32.5px;font-style:normal;font-weight:400;fill:none;stroke:#000000;stroke-width:1;stroke-linecap:square;stroke-linejoin:bevel;stroke-opacity:1;font-family:MS Shell Dlg 2"
     id="g3414"
     font-style="normal"
     font-weight="400"
     font-size="32.5"
     transform="matrix(11.8081,0,0,11.8081,231.59415,-1206.6029)" />
  <g
     style="font-size:32.5px;font-style:normal;font-weight:400;fill:none;stroke:#000000;stroke-width:1;stroke-linecap:square;stroke-linejoin:bevel;stroke-opacity:1;font-family:MS Shell Dlg 2"
     id="g3416"
     font-style="normal"
     font-weight="400"
     font-size="32.5"
     transform="matrix(11.8081,0,0,11.8081,231.59415,-1206.6029)" />
  <g
     style="font-size:32.5px;font-style:normal;font-weight:400;fill:none;stroke:#000000;stroke-width:1;stroke-linecap:square;stroke-linejoin:bevel;stroke-opacity:1;font-family:MS Shell Dlg 2"
     id="g3418"
     font-style="normal"
     font-weight="400"
     font-size="32.5"
     transform="translate(196.47815,-1269.533)" />
  <g
     style="font-size:32.5px;font-style:normal;font-weight:400;fill:none;stroke:#000000;stroke-width:1;stroke-linecap:square;stroke-linejoin:bevel;stroke-opacity:1;font-family:MS Shell Dlg 2"
     id="g3420"
     font-style="normal"
     font-weight="400"
     font-size="32.5"
     transform="matrix(11.8081,0,0,11.8081,231.59415,-1206.6029)" />
  <g
     style="font-size:32.5px;font-style:normal;font-weight:400;fill:none;stroke:#000000;stroke-width:1;stroke-linecap:square;stroke-linejoin:bevel;stroke-opacity:1;font-family:MS Shell Dlg 2"
     id="g3422"
     font-style="normal"
     font-weight="400"
     font-size="32.5"
     transform="matrix(11.8081,0,0,11.8081,231.59415,-1206.6029)" />
  <g
     style="font-size:32.5px;font-style:normal;font-weight:400;fill:none;stroke:#000000;stroke-width:1;stroke-linecap:square;stroke-linejoin:bevel;stroke-opacity:1;font-family:MS Shell Dlg 2"
     id="g3424"
     font-style="normal"
     font-weight="400"
     font-size="32.5"
     transform="matrix(11.8081,0,0,11.8081,231.59415,-1206.6029)" />
  <g
     style="font-size:32.5px;font-style:normal;font-weight:400;fill:none;stroke:#000000;stroke-width:1;stroke-linecap:square;stroke-linejoin:bevel;stroke-opacity:1;font-family:MS Shell Dlg 2"
     id="g3426"
     font-style="normal"
     font-weight="400"
     font-size="32.5"
     transform="matrix(11.8081,0,0,11.8081,231.59415,-1206.6029)" />
  <g
     style="font-size:32.5px;font-style:normal;font-weight:400;fill:none;stroke:#000000;stroke-width:1;stroke-linecap:square;stroke-linejoin:bevel;stroke-opacity:1;font-family:MS Shell Dlg 2"
     id="g3428"
     font-style="normal"
     font-weight="400"
     font-size="32.5"
     transform="matrix(11.8081,0,0,11.8081,196.47815,-1269.533)" />
  <g
     style="font-size:32.5px;font-style:normal;font-weight:400;fill:none;stroke:#000000;stroke-width:1;stroke-linecap:square;stroke-linejoin:bevel;stroke-opacity:1;font-family:MS Shell Dlg 2"
     id="g3430"
     font-style="normal"
     font-weight="400"
     font-size="32.5"
     transform="matrix(11.8081,0,0,11.8081,196.47815,-1269.533)" />
  <g
     style="font-size:32.5px;font-style:normal;font-weight:400;fill:none;stroke:#000000;stroke-width:1;stroke-linecap:square;stroke-linejoin:bevel;stroke-opacity:1;font-family:MS Shell Dlg 2"
     id="g3432"
     font-style="normal"
     font-weight="400"
     font-size="32.5"
     transform="translate(196.47815,-1269.533)" />
</svg>
