<?xml version="1.0" encoding="UTF-8" standalone="no"?>
<svg
   xmlns:dc="http://purl.org/dc/elements/1.1/"
   xmlns:cc="http://creativecommons.org/ns#"
   xmlns:rdf="http://www.w3.org/1999/02/22-rdf-syntax-ns#"
   xmlns:svg="http://www.w3.org/2000/svg"
   xmlns="http://www.w3.org/2000/svg"
   xmlns:sodipodi="http://sodipodi.sourceforge.net/DTD/sodipodi-0.dtd"
   xmlns:inkscape="http://www.inkscape.org/namespaces/inkscape"
   width="400.10001"
   height="500"
   viewBox="0 0 1333.6667 1666.6693"
   version="1.2"
   id="svg3336"
   inkscape:version="0.48.4 r9939"
   sodipodi:docname="manzanedaTrevinca.svg">
  <metadata
     id="metadata3436">
    <rdf:RDF>
      <cc:Work
         rdf:about="">
        <dc:format>image/svg+xml</dc:format>
        <dc:type
           rdf:resource="http://purl.org/dc/dcmitype/StillImage" />
        <dc:title>BISBARRAS</dc:title>
      </cc:Work>
    </rdf:RDF>
  </metadata>
  <sodipodi:namedview
     pagecolor="#ffffff"
     bordercolor="#666666"
     borderopacity="1"
     objecttolerance="10"
     gridtolerance="10"
     guidetolerance="10"
     inkscape:pageopacity="0.01960784"
     inkscape:pageshadow="2"
     inkscape:window-width="1873"
     inkscape:window-height="1056"
     id="namedview3434"
     showgrid="false"
     inkscape:zoom="1.543472"
     inkscape:cx="107.16754"
     inkscape:cy="315.8218"
     inkscape:window-x="47"
     inkscape:window-y="24"
     inkscape:window-maximized="1"
     inkscape:current-layer="svg3336" />
  <title
     id="title3338">BISBARRAS</title>
  <desc
     id="desc3340">Generated with Qt</desc>
  <defs
     id="defs3342" />
  <g
     style="font-size:32.5px;font-style:normal;font-weight:400;fill:none;stroke:#000000;stroke-width:1;stroke-linecap:square;stroke-linejoin:bevel;stroke-opacity:1;font-family:MS Shell Dlg 2"
     id="g3346"
     font-style="normal"
     font-weight="400"
     font-size="32.5"
     transform="translate(271.82266,-1121.8036)" />
  <g
     style="font-size:32.5px;font-style:normal;font-weight:400;fill:none;stroke:#000000;stroke-width:1;stroke-linecap:square;stroke-linejoin:bevel;stroke-opacity:1;font-family:MS Shell Dlg 2"
     id="g3348"
     font-style="normal"
     font-weight="400"
     font-size="32.5"
     transform="matrix(11.8081,0,0,11.8081,271.82266,-1121.8036)" />
  <g
     style="font-size:32.5px;font-style:normal;font-weight:400;fill:#ffffff;fill-opacity:1;fill-rule:evenodd;stroke:none;font-family:MS Shell Dlg 2"
     id="g3350"
     font-style="normal"
     font-weight="400"
     font-size="32.5"
     transform="matrix(0.999751,0,0,0.999751,271.82266,-1121.8036)" />
  <g
     style="font-size:32.5px;font-style:normal;font-weight:400;fill:none;stroke:#000000;stroke-width:1;stroke-linecap:square;stroke-linejoin:bevel;stroke-opacity:1;font-family:MS Shell Dlg 2"
     id="g3354"
     font-style="normal"
     font-weight="400"
     font-size="32.5"
     transform="matrix(11.8081,0,0,11.8081,271.82266,-1121.8036)" />
  <g
     style="font-size:32.5px;font-style:normal;font-weight:400;fill:none;stroke:#000000;stroke-width:1;stroke-linecap:square;stroke-linejoin:bevel;stroke-opacity:1;font-family:MS Shell Dlg 2"
     id="g3356"
     font-style="normal"
     font-weight="400"
     font-size="32.5"
     transform="matrix(11.8081,0,0,11.8081,271.82266,-1121.8036)" />
  <g
     style="font-size:32.5px;font-style:normal;font-weight:400;fill:none;stroke:#000000;stroke-width:1;stroke-linecap:square;stroke-linejoin:bevel;stroke-opacity:1;font-family:MS Shell Dlg 2"
     id="g3358"
     font-style="normal"
     font-weight="400"
     font-size="32.5"
     transform="matrix(11.8081,0,0,11.8081,306.93866,-1058.8735)" />
  <g
     style="font-size:32.5px;font-style:normal;font-weight:400;fill:none;stroke:#000000;stroke-width:1;stroke-linecap:square;stroke-linejoin:bevel;stroke-opacity:1;font-family:MS Shell Dlg 2"
     id="g3360"
     font-style="normal"
     font-weight="400"
     font-size="32.5"
     transform="matrix(11.8081,0,0,11.8081,306.93866,-1058.8735)" />
  <g
     style="font-size:32.5px;font-style:normal;font-weight:400;fill:#ffffff;fill-opacity:1;fill-rule:evenodd;stroke:none;font-family:MS Shell Dlg 2"
     id="g3362"
     font-style="normal"
     font-weight="400"
     font-size="32.5"
     transform="matrix(11.8081,0,0,11.8081,306.93866,-1058.8735)" />
  <g
     style="font-size:32.5px;font-style:normal;font-weight:400;fill:none;stroke:#000000;stroke-width:1;stroke-linecap:square;stroke-linejoin:bevel;stroke-opacity:1;font-family:MS Shell Dlg 2"
     id="g3366"
     font-style="normal"
     font-weight="400"
     font-size="32.5"
     transform="matrix(11.8081,0,0,11.8081,306.93866,-1058.8735)" />
  <g
     style="font-size:32.5px;font-style:normal;font-weight:400;fill:#000000;fill-opacity:0;fill-rule:evenodd;stroke:none;font-family:MS Shell Dlg 2"
     id="g3368"
     font-style="normal"
     font-weight="400"
     font-size="32.5"
     transform="matrix(0.999751,0,0,0.999751,306.93866,-1058.8735)">
    <path
       style="fill-rule:evenodd"
       inkscape:connector-curvature="0"
       id="path3370"
       d="m 0,0 3438,0 0,2354 L 0,2354 0,0"
       vector-effect="non-scaling-stroke" />
  </g>
  <path
     vector-effect="none"
     d="m 1177.4491,969.31359 1.8835,0.2877 0.8641,1.5069 0.9316,0.5481 1.0597,1.952 1.9105,1.7262 0,0.5341 -0.8034,0.7741 1.5123,0.8357 1.5795,-0.7193 1.6539,0.2467 4.2395,2.507 2.4032,0.6163 1.9104,1.1096 2.113,0.062 3.058,1.2399 0.7425,1.0822 1.9511,1.6371 0.891,0.028 4.1853,3.9317 5.2318,1.137 1.0395,-0.7602 2.572,-0.4795 1.8362,-4.3357 1.8565,2.2534 1.9845,-0.7672 2.5855,1.3426 0.2363,0.4794 -0.3105,1.4248 -0.9653,1.6508 3.4427,2.8082 1.1409,2.6235 0.4051,2.1302 2.4301,2.28781 0.5536,1.0822 -1.4512,4.7536 -0.682,0.062 -1.0057,1.7809 -3.2336,2.4658 -0.3376,0.9726 0.1284,2.2605 0.8303,1.9179 0.2969,4.37 -0.7965,3.9797 0.7156,1.6165 2.5449,1.596 0.2295,0.5821 -4.9009,0.9385 1.7889,2.8563 -3.6992,2.9796 -0.6752,2.322 0.2633,1.8631 -0.6817,1.178 -1.7553,-0.6232 -1.3973,0.1097 -0.9181,1.2328 -1.6135,0.8836 0.5603,1.4179 1.9713,1.2397 2.0858,3.9729 2.8826,0.8425 1.8091,1.4315 0.8102,1.507 0.432,2.4863 1.3839,-0.452 3.8342,1.0754 3.4024,-1.0754 0.1689,1.6918 2.7812,1.0824 3.6791,-0.3632 4.3406,1.0069 2.0859,1.3836 0.6278,1.6028 1.789,2.1303 1.1206,5.0619 4.0435,-1.6028 1.8092,1.9726 2.032,1.0275 2.3964,0.7261 1.2691,1.0206 3.5981,0.6438 -1.6606,8.1716 -0.7087,0.9178 -0.1621,1.1371 0.54,1.8974 -1.1612,7.4318 1.9914,2.7466 1.141,3.9181 -2.6665,-2.0686 1.5255,1.685 0.1284,4.8085 -1.6674,1.9111 -1.5864,3.0411 0.945,2.9522 -4.3407,4.8496 -1.1745,1.9796 -1.0935,3.2741 -1.6,1.5548 -2.896,4.8632 -0.3983,1.9864 0.5266,1.0892 -0.7965,1.9932 0.3036,1.3219 -0.5467,3.3426 -1.9847,1.7809 -1.3164,0.3151 -0.8438,-0.8836 -3.9018,1.2398 -1.5122,-0.363 -1.2691,0.8425 -1.7889,2.1712 0.5534,1.7811 -1.0395,1.3219 -0.3239,1.4384 -2.5789,0.9863 -0.8033,1.3357 0.3443,1.9933 0.8236,1.7055 1.6405,2.5482 0.9786,0.726 0,2.0274 1.87,3.9523 1.789,1.6575 -3.5441,2.2467 -0.8978,2.0001 -2.6193,-5.9864 -6.3253,-1.4864 -1.8294,-1.4249 -4.5769,-1.9521 -3.8007,-0.2192 -2.6394,-1.185 -6.1094,0.7399 -5.2181,2.5616 -0.8776,-0.3972 -3.0311,2.5618 -0.8572,0.1233 0.2295,0.7397 -4.2528,2.5482 -2.9704,4.5549 2.0859,3.4043 -5.7043,7.788 -4.6445,0.7809 -1.7212,-0.6577 -10.9361,7.6306 -2.4167,3.2877 -3.3821,-1.3151 -2.8757,-2.1783 -1.8902,-5.0343 -6.2375,-0.8562 -0.1283,-1.0548 -1.2826,-1.5275 -0.3915,-1.9179 -1.1004,-0.9933 -0.9856,-2.6439 -3.1525,-3.233 -2.356,-0.1986 -0.3578,0.815 -3.5237,-0.5549 -0.5064,1.6235 -2.248,0.4178 -1.4244,1.6303 -3.1862,0.3012 -0.3106,0.5139 -1.2354,-1.644 -3.2065,-0.8493 -1.0597,-1.3974 -1.8699,-0.6849 -7.4527,-7.747 -4.1113,-2.1644 -6.3792,-5.7194 -10.8483,-6.2332 -2.6867,1.0686 -1.6538,-0.2055 -4.091,2.048 -0.1149,1.411 -2.5921,1.5616 -5.9068,5.3908 -2.5248,1.5616 -0.6278,-3.0685 -2.68,-1.4042 -1.485,-2.1439 -3.3552,0.056 -0.2497,-1.4658 -2.7137,-5.8085 -1.5595,-0.4589 -0.5198,-1.6576 0.4389,-1.1234 -2.9095,0.3219 -6.7439,5.1579 -1.2624,3.8357 -11.9418,4.8838 -9.0931,-2.2467 -4.1111,0.1507 -8.5935,5.7948 -7.8509,2.6851 0.5603,2.3562 2.6056,5.5072 2.6666,3.6097 0.297,1.8563 1.0599,2.4248 -0.5671,0.7054 -3.0918,-1.644 -0.5132,0.5208 -2.0993,-0.2468 -1.1274,0.6371 -7.1218,-5.9935 -0.2094,-1.2466 -1.4243,-0.9452 -1.3298,-0.068 -1.7079,0.5892 -0.048,3.7741 -0.4524,1.1096 -2.75419,0.5753 -1.57962,-0.7329 -3.53737,2.1851 0.2161,1.3494 0.91808,0.8973 1.41083,2.8289 1.80249,0.7398 0.1687,0.7465 -0.96529,2.918 -0.021,1.363 -2.89604,-5.5756 -6.95313,-4.0275 -1.83617,-0.5275 -1.00578,0.5069 -2.97701,-2.1096 -1.25572,0.3424 -1.69436,1.3083 0.44554,1.7536 -0.15527,1.5342 -1.08009,1.2535 -1.26238,0.637 0.33083,-2.418 -3.72635,-1.7123 -0.22285,0.411 0.40514,0.8425 -1.30294,-0.2398 -1.12057,0.6301 0.0207,1.9659 1.1948,1.9727 0.18901,3.7056 -1.28265,-0.9108 -1.91038,0.7464 -0.34422,-0.069 -5.14395,-12.3363 -6.95315,3.9592 -5.08996,1.1712 -1.25564,1.0207 -1.24892,1.87 -2.26141,-1.6097 -2.22766,-0.8289 -1.8025,-2.2055 -2.21411,-0.4384 -0.0207,-2.2604 -0.91135,-0.4384 -0.40496,-1.2397 1.01259,-0.9179 -0.58062,-0.8906 -0.009,-1.3628 -0.90461,-2.4249 -1.30959,-1.3699 0.91807,-0.9796 -1.1071,-1.4315 -0.0544,-1.2536 -1.86319,-4.2947 -3.01748,-4.5549 -4.12468,-3.4316 -2.45725,-4.7263 -0.24969,-0.6712 0.69532,-0.7878 2.90278,-1.4726 2.64618,0.3699 1.99816,-1.233 4.34744,0.1371 2.54494,-13.9391 -0.60071,-1.2261 0.76954,-1.0343 0.37122,-1.8699 0.89787,-1.0206 -1.23535,-0.2397 0.47256,-10.6307 -0.27007,-1.9521 1.94422,-3.055 1.41091,-0.1163 0.90454,-0.8221 -2.10623,-2.3699 0.33755,-1.2741 -0.72232,-0.6712 0,-1.274 1.59992,-1.5139 0.76955,-1.863 3.71962,-5.5893 7.99939,-6.055 15.83693,-3.8015 7.54048,-3.8564 -2.22101,-6.0961 0.28352,-1.5344 -2.81492,-3.9044 1.80233,-2.0206 3.68588,-0.5274 2.08594,-0.9316 -0.009,-0.5615 2.76098,-3.1645 -0.0605,-1.8563 -0.99231,-0.5617 -0.89779,0.3766 -1.15441,-0.8357 0.41861,-1.6438 0.65474,-0.8424 2.22768,-0.322 0.37811,-0.9042 -0.71558,-1.7535 1.11382,-2.3288 -0.24305,-1.2261 -3.7128,-2.6714 -2.50447,-0.4315 -0.12833,-1.9933 1.0869,-2.3837 0.8978,-1.0343 0.10806,-0.8492 -2.20747,-0.5275 -0.14854,-0.7808 -1.49187,-1.4384 -1.99143,-0.3904 -2.6057,-2.5619 -2.13324,-3.0961 0.51984,-0.7121 2.74077,-1.3631 2.50438,-1.9727 4.36763,-0.4453 1.47169,0.6576 -1.00578,-1.7809 1.84963,-0.3768 4.28659,0.8425 1.14767,0.6987 4.02335,-0.3631 2.86896,0.9726 1.07333,-1.0479 3.92897,-0.9795 2.2951,1.0685 0.8843,1.5548 1.5594,1.2126 0.2701,1.219 1.2893,1.514 0.088,1.0067 1.1004,1.918 7.1422,1.6713 2.8015,-1.8974 1.134,1.5891 0.9856,3.1166 2.1332,1.1781 0.1958,1.6508 1.8496,2.0481 1.0261,3.0139 2.7206,3.3837 4.0975,-0.2535 2.7812,-0.9042 0.2296,0.5823 4.5094,2.1439 1.2759,0.1644 1.0328,1.5481 -2.8758,0.9519 -2.6192,4.2468 0.021,0.9248 1.2422,2.7535 -0.5872,4.1235 -1.2287,1.774 -0.041,1.5755 0.5129,1.6918 2.167,3.781 3.4833,8.6853 1.5188,2.2399 5.4546,4.9385 0.4118,-2.2261 1.7281,-2.4111 1.7957,-6.1166 0.1147,-1.3221 -0.8303,-5.0687 2.4234,-7.3153 3.8075,-1.0207 -1.5729,-3.6576 1.6673,-2.9864 1.2353,-0.459 0.9722,0.3014 2.5652,-1.8769 1.9172,-8.4729 0.1823,-0.5891 0.5941,0.1507 0.4117,-1.7329 -0.1957,-1.5275 0.5669,-2.3152 -0.8505,-1.6097 1.8699,-3.2672 1.6607,-0.9452 0.068,-1.4043 5.3802,-5.4796 -0.2093,-0.5344 -1.3298,-0.4246 -0.6684,-1.9864 -0.095,-3.5344 1.1881,-2.6713 5.5422,-3.603 2.4641,0.7672 0.5467,-0.2603 -0.2294,-1.178 0.7021,-2.3975 2.9836,-1.3768 1.0532,-1.9726 3.3685,-3.1783 6.5819,-1.2603 0.2497,-1.6233 -0.4927,-4.1783 3.22,-2.93851 2.3965,-5.3906 0.297,-2.692 1.4987,-3.2467 3.7803,-4.1989 0.1822,-2.1987 -0.8437,-3.3495 0.486,-1.0752 -0.2294,-0.6987 1.5053,0.9451 6.4805,0.075 3.7129,-1.3014 2.8419,0.548 6.0959,2.1988 1.8362,4.1439 4.2123,-2.3631 7.0477,-1.5138 1.6268,-1.137 0.081,2.3631 1.8766,1.8221 2.4371,0.7054 4.7861,2.87 1.2353,0.2054 2.3155,-0.4862 1.0329,-2.1165 -0.088,-2.3221 1.3976,-2.4795 1.161,-4.5688 2.7543,-3.7056 10.6659,-0.7397 2.2885,-1.0412 1.4379,0.4247"
     id="path3388"
     inkscape:connector-curvature="0"
     style="font-size:medium;font-style:normal;font-weight:400;fill:#777777;fill-opacity:0.94117647;fill-rule:evenodd;stroke:#000000;stroke-width:2.08817314999999981;stroke-linecap:square;stroke-linejoin:bevel;stroke-opacity:1;font-family:MS Shell Dlg 2" />
  <g
     style="font-size:32.5px;font-style:normal;font-weight:400;fill:none;stroke:#000000;stroke-width:1;stroke-linecap:square;stroke-linejoin:bevel;stroke-opacity:1;font-family:MS Shell Dlg 2"
     id="g3412"
     font-style="normal"
     font-weight="400"
     font-size="32.5"
     transform="matrix(11.8081,0,0,11.8081,306.93866,-1058.8735)" />
  <g
     style="font-size:32.5px;font-style:normal;font-weight:400;fill:none;stroke:#000000;stroke-width:1;stroke-linecap:square;stroke-linejoin:bevel;stroke-opacity:1;font-family:MS Shell Dlg 2"
     id="g3414"
     font-style="normal"
     font-weight="400"
     font-size="32.5"
     transform="matrix(11.8081,0,0,11.8081,306.93866,-1058.8735)" />
  <g
     style="font-size:32.5px;font-style:normal;font-weight:400;fill:none;stroke:#000000;stroke-width:1;stroke-linecap:square;stroke-linejoin:bevel;stroke-opacity:1;font-family:MS Shell Dlg 2"
     id="g3416"
     font-style="normal"
     font-weight="400"
     font-size="32.5"
     transform="matrix(11.8081,0,0,11.8081,306.93866,-1058.8735)" />
  <g
     style="font-size:32.5px;font-style:normal;font-weight:400;fill:none;stroke:#000000;stroke-width:1;stroke-linecap:square;stroke-linejoin:bevel;stroke-opacity:1;font-family:MS Shell Dlg 2"
     id="g3418"
     font-style="normal"
     font-weight="400"
     font-size="32.5"
     transform="translate(271.82266,-1121.8036)" />
  <g
     style="font-size:32.5px;font-style:normal;font-weight:400;fill:none;stroke:#000000;stroke-width:1;stroke-linecap:square;stroke-linejoin:bevel;stroke-opacity:1;font-family:MS Shell Dlg 2"
     id="g3420"
     font-style="normal"
     font-weight="400"
     font-size="32.5"
     transform="matrix(11.8081,0,0,11.8081,306.93866,-1058.8735)" />
  <g
     style="font-size:32.5px;font-style:normal;font-weight:400;fill:none;stroke:#000000;stroke-width:1;stroke-linecap:square;stroke-linejoin:bevel;stroke-opacity:1;font-family:MS Shell Dlg 2"
     id="g3422"
     font-style="normal"
     font-weight="400"
     font-size="32.5"
     transform="matrix(11.8081,0,0,11.8081,306.93866,-1058.8735)" />
  <g
     style="font-size:32.5px;font-style:normal;font-weight:400;fill:none;stroke:#000000;stroke-width:1;stroke-linecap:square;stroke-linejoin:bevel;stroke-opacity:1;font-family:MS Shell Dlg 2"
     id="g3424"
     font-style="normal"
     font-weight="400"
     font-size="32.5"
     transform="matrix(11.8081,0,0,11.8081,306.93866,-1058.8735)" />
  <g
     style="font-size:32.5px;font-style:normal;font-weight:400;fill:none;stroke:#000000;stroke-width:1;stroke-linecap:square;stroke-linejoin:bevel;stroke-opacity:1;font-family:MS Shell Dlg 2"
     id="g3426"
     font-style="normal"
     font-weight="400"
     font-size="32.5"
     transform="matrix(11.8081,0,0,11.8081,306.93866,-1058.8735)" />
  <g
     style="font-size:32.5px;font-style:normal;font-weight:400;fill:none;stroke:#000000;stroke-width:1;stroke-linecap:square;stroke-linejoin:bevel;stroke-opacity:1;font-family:MS Shell Dlg 2"
     id="g3428"
     font-style="normal"
     font-weight="400"
     font-size="32.5"
     transform="matrix(11.8081,0,0,11.8081,271.82266,-1121.8036)" />
  <g
     style="font-size:32.5px;font-style:normal;font-weight:400;fill:none;stroke:#000000;stroke-width:1;stroke-linecap:square;stroke-linejoin:bevel;stroke-opacity:1;font-family:MS Shell Dlg 2"
     id="g3430"
     font-style="normal"
     font-weight="400"
     font-size="32.5"
     transform="matrix(11.8081,0,0,11.8081,271.82266,-1121.8036)" />
  <g
     style="font-size:32.5px;font-style:normal;font-weight:400;fill:none;stroke:#000000;stroke-width:1;stroke-linecap:square;stroke-linejoin:bevel;stroke-opacity:1;font-family:MS Shell Dlg 2"
     id="g3432"
     font-style="normal"
     font-weight="400"
     font-size="32.5"
     transform="translate(271.82266,-1121.8036)" />
</svg>
