<?xml version="1.0" encoding="UTF-8" standalone="no"?>
<svg
   xmlns:dc="http://purl.org/dc/elements/1.1/"
   xmlns:cc="http://creativecommons.org/ns#"
   xmlns:rdf="http://www.w3.org/1999/02/22-rdf-syntax-ns#"
   xmlns:svg="http://www.w3.org/2000/svg"
   xmlns="http://www.w3.org/2000/svg"
   xmlns:sodipodi="http://sodipodi.sourceforge.net/DTD/sodipodi-0.dtd"
   xmlns:inkscape="http://www.inkscape.org/namespaces/inkscape"
   width="400.10001"
   height="500"
   viewBox="0 0 1333.6667 1666.6693"
   version="1.2"
   id="svg3336"
   inkscape:version="0.48.4 r9939"
   sodipodi:docname="murosNoia.svg">
  <metadata
     id="metadata3436">
    <rdf:RDF>
      <cc:Work
         rdf:about="">
        <dc:format>image/svg+xml</dc:format>
        <dc:type
           rdf:resource="http://purl.org/dc/dcmitype/StillImage" />
        <dc:title>BISBARRAS</dc:title>
      </cc:Work>
    </rdf:RDF>
  </metadata>
  <sodipodi:namedview
     pagecolor="#ffffff"
     bordercolor="#666666"
     borderopacity="1"
     objecttolerance="10"
     gridtolerance="10"
     guidetolerance="10"
     inkscape:pageopacity="0.01960784"
     inkscape:pageshadow="2"
     inkscape:window-width="1873"
     inkscape:window-height="1056"
     id="namedview3434"
     showgrid="false"
     inkscape:zoom="1.543472"
     inkscape:cx="159.21587"
     inkscape:cy="233.59934"
     inkscape:window-x="47"
     inkscape:window-y="24"
     inkscape:window-maximized="1"
     inkscape:current-layer="svg3336" />
  <title
     id="title3338">BISBARRAS</title>
  <desc
     id="desc3340">Generated with Qt</desc>
  <defs
     id="defs3342" />
  <g
     style="font-size:32.5px;font-style:normal;font-weight:400;fill:none;stroke:#000000;stroke-width:1;stroke-linecap:square;stroke-linejoin:bevel;stroke-opacity:1;font-family:MS Shell Dlg 2"
     id="g3346"
     font-style="normal"
     font-weight="400"
     font-size="32.5"
     transform="translate(271.82266,-1121.8036)" />
  <g
     style="font-size:32.5px;font-style:normal;font-weight:400;fill:none;stroke:#000000;stroke-width:1;stroke-linecap:square;stroke-linejoin:bevel;stroke-opacity:1;font-family:MS Shell Dlg 2"
     id="g3348"
     font-style="normal"
     font-weight="400"
     font-size="32.5"
     transform="matrix(11.8081,0,0,11.8081,271.82266,-1121.8036)" />
  <g
     style="font-size:32.5px;font-style:normal;font-weight:400;fill:#ffffff;fill-opacity:1;fill-rule:evenodd;stroke:none;font-family:MS Shell Dlg 2"
     id="g3350"
     font-style="normal"
     font-weight="400"
     font-size="32.5"
     transform="matrix(0.999751,0,0,0.999751,271.82266,-1121.8036)" />
  <g
     style="font-size:32.5px;font-style:normal;font-weight:400;fill:none;stroke:#000000;stroke-width:1;stroke-linecap:square;stroke-linejoin:bevel;stroke-opacity:1;font-family:MS Shell Dlg 2"
     id="g3354"
     font-style="normal"
     font-weight="400"
     font-size="32.5"
     transform="matrix(11.8081,0,0,11.8081,271.82266,-1121.8036)" />
  <g
     style="font-size:32.5px;font-style:normal;font-weight:400;fill:none;stroke:#000000;stroke-width:1;stroke-linecap:square;stroke-linejoin:bevel;stroke-opacity:1;font-family:MS Shell Dlg 2"
     id="g3356"
     font-style="normal"
     font-weight="400"
     font-size="32.5"
     transform="matrix(11.8081,0,0,11.8081,271.82266,-1121.8036)" />
  <g
     style="font-size:32.5px;font-style:normal;font-weight:400;fill:none;stroke:#000000;stroke-width:1;stroke-linecap:square;stroke-linejoin:bevel;stroke-opacity:1;font-family:MS Shell Dlg 2"
     id="g3358"
     font-style="normal"
     font-weight="400"
     font-size="32.5"
     transform="matrix(11.8081,0,0,11.8081,306.93866,-1058.8735)" />
  <g
     style="font-size:32.5px;font-style:normal;font-weight:400;fill:none;stroke:#000000;stroke-width:1;stroke-linecap:square;stroke-linejoin:bevel;stroke-opacity:1;font-family:MS Shell Dlg 2"
     id="g3360"
     font-style="normal"
     font-weight="400"
     font-size="32.5"
     transform="matrix(11.8081,0,0,11.8081,306.93866,-1058.8735)" />
  <g
     style="font-size:32.5px;font-style:normal;font-weight:400;fill:#ffffff;fill-opacity:1;fill-rule:evenodd;stroke:none;font-family:MS Shell Dlg 2"
     id="g3362"
     font-style="normal"
     font-weight="400"
     font-size="32.5"
     transform="matrix(11.8081,0,0,11.8081,306.93866,-1058.8735)" />
  <g
     style="font-size:32.5px;font-style:normal;font-weight:400;fill:none;stroke:#000000;stroke-width:1;stroke-linecap:square;stroke-linejoin:bevel;stroke-opacity:1;font-family:MS Shell Dlg 2"
     id="g3366"
     font-style="normal"
     font-weight="400"
     font-size="32.5"
     transform="matrix(11.8081,0,0,11.8081,306.93866,-1058.8735)" />
  <g
     style="font-size:32.5px;font-style:normal;font-weight:400;fill:#000000;fill-opacity:0;fill-rule:evenodd;stroke:none;font-family:MS Shell Dlg 2"
     id="g3368"
     font-style="normal"
     font-weight="400"
     font-size="32.5"
     transform="matrix(0.999751,0,0,0.999751,306.93866,-1058.8735)">
    <path
       style="fill-rule:evenodd"
       inkscape:connector-curvature="0"
       id="path3370"
       d="m 0,0 3438,0 0,2354 L 0,2354 0,0"
       vector-effect="non-scaling-stroke" />
  </g>
  <path
     vector-effect="none"
     d="m 273.44815,719.58314 3.65947,0.17807 -1.86517,2.45901 -2.13659,9.48677 1.71532,2.23292 -0.96331,0.87676 0.63861,10.89779 1.21845,-0.8014 4.88678,6.78111 0.77567,-1.29455 6.82419,7.00027 10.55056,2.10281 5.16826,2.93168 4.3325,5.26738 10.18607,0.95205 1.51145,2.50013 -1.42644,-0.39724 -0.50829,3.11653 1.07672,3.67827 -2.24932,1.4453 -2.95604,7.2126 5.22893,12.65811 -1.83004,4.82902 -3.68915,1.15761 -4.09499,4.43849 6.77966,0.86991 -1.94421,2.82207 0.38079,2.28094 6.8532,4.67144 2.5855,5.60982 -5.13043,-0.88356 -4.34745,3.98645 -7.79363,14.48693 -3.55011,-0.93151 -5.75619,3.72618 -10.45812,-6.2537 -13.01315,-3.9933 -3.54682,3.38367 -7.2724,-2.80838 -12.785,3.73311 1.07402,4.36319 -4.55057,6.87703 -7.01795,-1.39048 -2.12979,4.71255 -2.96825,1.96585 -0.25585,12.32931 -3.25851,8.60315 0.37799,3.94534 -3.08432,0.6713 0.41918,1.86994 -3.91331,7.02775 0.23695,4.52071 -0.98626,-2.07541 -6.39283,3.14394 -2.15413,3.91116 -5.88181,1.6576 4.13678,2.31521 -3.44956,6.52765 -7.8287,2.34937 -2.21015,-2.30139 0.0459,2.89047 -2.01708,-1.13018 -3.86271,1.78101 -2.93651,5.87005 -5.07985,0.41789 -1.8544,-2.67141 2.6287,-7.35647 -1.5675,-5.28105 2.45926,0.30817 4.32647,-4.62347 4.59109,-9.94568 0.48537,-4.65089 -2.39916,-3.42477 1.09764,-3.60292 -1.29342,-1.9727 1.42236,-2.06171 -0.74392,-2.57548 2.98782,-1.12334 1.96645,-3.32892 1.11993,-8.96614 -2.48558,-2.55494 2.04746,-1.70556 -0.0688,-2.4316 2.73873,-4.39062 5.88383,-1.32196 1.09968,-10.74706 5.84603,-0.4726 0.11949,-4.18514 3.28214,-4.79477 6.19369,-1.78772 1.75383,2.733 6.39956,-3.36318 2.80692,-4.30155 -0.33281,-4.06873 1.69509,-4.50701 -0.20121,4.32895 1.44801,-0.18492 -0.21397,-3.21252 2.93178,-1.84938 -0.25856,-4.21255 2.16089,-3.00697 1.64715,0.60963 3.11679,-5.1372 7.06581,-3.90429 1.97524,2.04121 -0.98895,0.39039 8.2769,5.03449 -0.44753,-5.56876 -3.73645,-1.36307 1.92461,-3.82894 -2.74549,-3.73301 2.23243,-4.29475 0.21602,-4.58923 4.25962,2.17132 4.35759,-2.60967 0.86335,-7.58257 -1.91108,0.99316 -0.52588,5.93866 -3.42328,1.02057 -3.75807,-3.62346 -0.0703,-3.19189 -4.04023,-1.26715 0.50367,2.15076 2.22831,-0.13018 -2.7731,4.13033 -0.88705,10.63067 -3.97549,3.43848 -3.4833,0.13016 -4.49251,-2.87001 0.83304,-3.51385 -6.64196,5.94547 0.91338,2.7741 -2.05824,1.60279 -1.39469,5.56875 -5.31885,2.47958 -2.41874,-2.08911 0.8418,-3.24679 -3.94165,-2.71243 -1.94959,0.89047 -1.26843,7.32221 -2.23784,-1.00001 -1.44867,1.66446 -4.5668,-3.13715 -1.36362,2.17132 -0.4145,-2.56857 -2.60235,-0.89731 -3.11272,1.41788 -0.46106,-5.877 2.1413,-2.65078 -4.01797,-3.39058 -0.68653,3.83577 -2.91559,-2.63708 -2.65771,4.81526 -4.07197,2.58234 -9.96527,0.23972 -0.34968,3.19882 1.82401,0.65067 1.49122,3.89745 1.10036,-1.85624 1.67076,1.26716 -1.37375,0.4589 2.98986,3.69198 -3.14039,1.60965 -1.45072,4.63034 -8.6185,1.63021 -1.92258,3.02754 2.13995,5.51394 -1.87599,3.62346 -4.29745,-0.11639 -0.97613,-5.60988 -4.83885,-5.65776 -4.75243,-0.0205 -0.16201,2.10281 -1.62082,-1.76038 0.92685,-3.63025 7.58702,-9.61001 -0.87893,-8.34288 20.85602,-28.21364 1.51889,-7.17835 -0.63928,-4.92494 2.31545,1.5275 0.39627,-2.62344 6.12956,-4.39745 11.17158,6.08932 3.91268,4.55504 3.25311,-1.80835 1.42775,-4.02754 6.05261,-5.84961 -4.8915,-4.56181 0.58123,-4.63719 -2.97568,-3.4454 -0.42596,-5.73313 3.80735,-2.51381 10.13468,2.45902 1.56006,-2.28096 7.65656,5.75375 7.07802,0.63011 0.67571,2.03436 5.82918,-2.71928 -0.53735,-3.4454 2.90883,-11.78821 9.61898,0.98639 2.53482,2.98644 1.49727,-4.28791 3.01688,0.19183"
     id="path3406"
     inkscape:connector-curvature="0"
     style="font-size:medium;font-style:normal;font-weight:400;fill:#777777;fill-opacity:0.94117647;fill-rule:evenodd;stroke:#000000;stroke-width:2.08817314999999981;stroke-linecap:square;stroke-linejoin:bevel;stroke-opacity:1;font-family:MS Shell Dlg 2" />
  <g
     style="font-size:32.5px;font-style:normal;font-weight:400;fill:none;stroke:#000000;stroke-width:1;stroke-linecap:square;stroke-linejoin:bevel;stroke-opacity:1;font-family:MS Shell Dlg 2"
     id="g3412"
     font-style="normal"
     font-weight="400"
     font-size="32.5"
     transform="matrix(11.8081,0,0,11.8081,306.93866,-1058.8735)" />
  <g
     style="font-size:32.5px;font-style:normal;font-weight:400;fill:none;stroke:#000000;stroke-width:1;stroke-linecap:square;stroke-linejoin:bevel;stroke-opacity:1;font-family:MS Shell Dlg 2"
     id="g3414"
     font-style="normal"
     font-weight="400"
     font-size="32.5"
     transform="matrix(11.8081,0,0,11.8081,306.93866,-1058.8735)" />
  <g
     style="font-size:32.5px;font-style:normal;font-weight:400;fill:none;stroke:#000000;stroke-width:1;stroke-linecap:square;stroke-linejoin:bevel;stroke-opacity:1;font-family:MS Shell Dlg 2"
     id="g3416"
     font-style="normal"
     font-weight="400"
     font-size="32.5"
     transform="matrix(11.8081,0,0,11.8081,306.93866,-1058.8735)" />
  <g
     style="font-size:32.5px;font-style:normal;font-weight:400;fill:none;stroke:#000000;stroke-width:1;stroke-linecap:square;stroke-linejoin:bevel;stroke-opacity:1;font-family:MS Shell Dlg 2"
     id="g3418"
     font-style="normal"
     font-weight="400"
     font-size="32.5"
     transform="translate(271.82266,-1121.8036)" />
  <g
     style="font-size:32.5px;font-style:normal;font-weight:400;fill:none;stroke:#000000;stroke-width:1;stroke-linecap:square;stroke-linejoin:bevel;stroke-opacity:1;font-family:MS Shell Dlg 2"
     id="g3420"
     font-style="normal"
     font-weight="400"
     font-size="32.5"
     transform="matrix(11.8081,0,0,11.8081,306.93866,-1058.8735)" />
  <g
     style="font-size:32.5px;font-style:normal;font-weight:400;fill:none;stroke:#000000;stroke-width:1;stroke-linecap:square;stroke-linejoin:bevel;stroke-opacity:1;font-family:MS Shell Dlg 2"
     id="g3422"
     font-style="normal"
     font-weight="400"
     font-size="32.5"
     transform="matrix(11.8081,0,0,11.8081,306.93866,-1058.8735)" />
  <g
     style="font-size:32.5px;font-style:normal;font-weight:400;fill:none;stroke:#000000;stroke-width:1;stroke-linecap:square;stroke-linejoin:bevel;stroke-opacity:1;font-family:MS Shell Dlg 2"
     id="g3424"
     font-style="normal"
     font-weight="400"
     font-size="32.5"
     transform="matrix(11.8081,0,0,11.8081,306.93866,-1058.8735)" />
  <g
     style="font-size:32.5px;font-style:normal;font-weight:400;fill:none;stroke:#000000;stroke-width:1;stroke-linecap:square;stroke-linejoin:bevel;stroke-opacity:1;font-family:MS Shell Dlg 2"
     id="g3426"
     font-style="normal"
     font-weight="400"
     font-size="32.5"
     transform="matrix(11.8081,0,0,11.8081,306.93866,-1058.8735)" />
  <g
     style="font-size:32.5px;font-style:normal;font-weight:400;fill:none;stroke:#000000;stroke-width:1;stroke-linecap:square;stroke-linejoin:bevel;stroke-opacity:1;font-family:MS Shell Dlg 2"
     id="g3428"
     font-style="normal"
     font-weight="400"
     font-size="32.5"
     transform="matrix(11.8081,0,0,11.8081,271.82266,-1121.8036)" />
  <g
     style="font-size:32.5px;font-style:normal;font-weight:400;fill:none;stroke:#000000;stroke-width:1;stroke-linecap:square;stroke-linejoin:bevel;stroke-opacity:1;font-family:MS Shell Dlg 2"
     id="g3430"
     font-style="normal"
     font-weight="400"
     font-size="32.5"
     transform="matrix(11.8081,0,0,11.8081,271.82266,-1121.8036)" />
  <g
     style="font-size:32.5px;font-style:normal;font-weight:400;fill:none;stroke:#000000;stroke-width:1;stroke-linecap:square;stroke-linejoin:bevel;stroke-opacity:1;font-family:MS Shell Dlg 2"
     id="g3432"
     font-style="normal"
     font-weight="400"
     font-size="32.5"
     transform="translate(271.82266,-1121.8036)" />
</svg>
