<?xml version="1.0" encoding="UTF-8" standalone="no"?>
<svg
   xmlns:dc="http://purl.org/dc/elements/1.1/"
   xmlns:cc="http://creativecommons.org/ns#"
   xmlns:rdf="http://www.w3.org/1999/02/22-rdf-syntax-ns#"
   xmlns:svg="http://www.w3.org/2000/svg"
   xmlns="http://www.w3.org/2000/svg"
   xmlns:sodipodi="http://sodipodi.sourceforge.net/DTD/sodipodi-0.dtd"
   xmlns:inkscape="http://www.inkscape.org/namespaces/inkscape"
   width="400.10001"
   height="500"
   viewBox="0 0 1333.6667 1666.6693"
   version="1.2"
   id="svg3336"
   inkscape:version="0.48.4 r9939"
   sodipodi:docname="ribeiraSacra.svg">
  <metadata
     id="metadata3436">
    <rdf:RDF>
      <cc:Work
         rdf:about="">
        <dc:format>image/svg+xml</dc:format>
        <dc:type
           rdf:resource="http://purl.org/dc/dcmitype/StillImage" />
        <dc:title>BISBARRAS</dc:title>
      </cc:Work>
    </rdf:RDF>
  </metadata>
  <sodipodi:namedview
     pagecolor="#ffffff"
     bordercolor="#666666"
     borderopacity="1"
     objecttolerance="10"
     gridtolerance="10"
     guidetolerance="10"
     inkscape:pageopacity="0.01960784"
     inkscape:pageshadow="2"
     inkscape:window-width="1873"
     inkscape:window-height="1056"
     id="namedview3434"
     showgrid="false"
     inkscape:zoom="1.543472"
     inkscape:cx="107.38467"
     inkscape:cy="152.69313"
     inkscape:window-x="47"
     inkscape:window-y="24"
     inkscape:window-maximized="1"
     inkscape:current-layer="svg3336" />
  <title
     id="title3338">BISBARRAS</title>
  <desc
     id="desc3340">Generated with Qt</desc>
  <defs
     id="defs3342" />
  <g
     style="font-size:32.5px;font-style:normal;font-weight:400;fill:none;stroke:#000000;stroke-width:1;stroke-linecap:square;stroke-linejoin:bevel;stroke-opacity:1;font-family:MS Shell Dlg 2"
     id="g3346"
     font-style="normal"
     font-weight="400"
     font-size="32.5"
     transform="translate(271.82266,-1121.8036)" />
  <g
     style="font-size:32.5px;font-style:normal;font-weight:400;fill:none;stroke:#000000;stroke-width:1;stroke-linecap:square;stroke-linejoin:bevel;stroke-opacity:1;font-family:MS Shell Dlg 2"
     id="g3348"
     font-style="normal"
     font-weight="400"
     font-size="32.5"
     transform="matrix(11.8081,0,0,11.8081,271.82266,-1121.8036)" />
  <g
     style="font-size:32.5px;font-style:normal;font-weight:400;fill:#ffffff;fill-opacity:1;fill-rule:evenodd;stroke:none;font-family:MS Shell Dlg 2"
     id="g3350"
     font-style="normal"
     font-weight="400"
     font-size="32.5"
     transform="matrix(0.999751,0,0,0.999751,271.82266,-1121.8036)" />
  <g
     style="font-size:32.5px;font-style:normal;font-weight:400;fill:none;stroke:#000000;stroke-width:1;stroke-linecap:square;stroke-linejoin:bevel;stroke-opacity:1;font-family:MS Shell Dlg 2"
     id="g3354"
     font-style="normal"
     font-weight="400"
     font-size="32.5"
     transform="matrix(11.8081,0,0,11.8081,271.82266,-1121.8036)" />
  <g
     style="font-size:32.5px;font-style:normal;font-weight:400;fill:none;stroke:#000000;stroke-width:1;stroke-linecap:square;stroke-linejoin:bevel;stroke-opacity:1;font-family:MS Shell Dlg 2"
     id="g3356"
     font-style="normal"
     font-weight="400"
     font-size="32.5"
     transform="matrix(11.8081,0,0,11.8081,271.82266,-1121.8036)" />
  <g
     style="font-size:32.5px;font-style:normal;font-weight:400;fill:none;stroke:#000000;stroke-width:1;stroke-linecap:square;stroke-linejoin:bevel;stroke-opacity:1;font-family:MS Shell Dlg 2"
     id="g3358"
     font-style="normal"
     font-weight="400"
     font-size="32.5"
     transform="matrix(11.8081,0,0,11.8081,306.93866,-1058.8735)" />
  <g
     style="font-size:32.5px;font-style:normal;font-weight:400;fill:none;stroke:#000000;stroke-width:1;stroke-linecap:square;stroke-linejoin:bevel;stroke-opacity:1;font-family:MS Shell Dlg 2"
     id="g3360"
     font-style="normal"
     font-weight="400"
     font-size="32.5"
     transform="matrix(11.8081,0,0,11.8081,306.93866,-1058.8735)" />
  <g
     style="font-size:32.5px;font-style:normal;font-weight:400;fill:#ffffff;fill-opacity:1;fill-rule:evenodd;stroke:none;font-family:MS Shell Dlg 2"
     id="g3362"
     font-style="normal"
     font-weight="400"
     font-size="32.5"
     transform="matrix(11.8081,0,0,11.8081,306.93866,-1058.8735)" />
  <g
     style="font-size:32.5px;font-style:normal;font-weight:400;fill:none;stroke:#000000;stroke-width:1;stroke-linecap:square;stroke-linejoin:bevel;stroke-opacity:1;font-family:MS Shell Dlg 2"
     id="g3366"
     font-style="normal"
     font-weight="400"
     font-size="32.5"
     transform="matrix(11.8081,0,0,11.8081,306.93866,-1058.8735)" />
  <g
     style="font-size:32.5px;font-style:normal;font-weight:400;fill:#000000;fill-opacity:0;fill-rule:evenodd;stroke:none;font-family:MS Shell Dlg 2"
     id="g3368"
     font-style="normal"
     font-weight="400"
     font-size="32.5"
     transform="matrix(0.999751,0,0,0.999751,306.93866,-1058.8735)">
    <path
       style="fill-rule:evenodd"
       inkscape:connector-curvature="0"
       id="path3370"
       d="m 0,0 3438,0 0,2354 L 0,2354 0,0"
       vector-effect="non-scaling-stroke" />
  </g>
  <path
     vector-effect="none"
     d="m 826.41729,741.31701 1.61341,0.71918 1.30284,2.51382 1.22863,0.56852 0.14171,1.19179 1.16114,0.86992 1.11383,0.0959 1.80915,-1.1028 3.65894,3.61662 3.17276,-0.94528 3.99634,0.66444 0.50628,0.31509 1.8227,3.50015 5.09671,2.39735 1.51206,-0.89733 1.89019,-0.0206 0.62782,1.79457 0.67513,0.65074 0.0475,1.45206 1.9104,0.6165 1.44464,1.08908 -1.14084,6.14414 0.66831,2.048 -0.10798,1.8563 2.22092,2.51382 0.56033,-0.63018 -0.3713,-1.59596 0.21595,-0.19868 1.65395,1.00694 0.83704,0.95206 0.64137,2.459 -1.49196,3.27413 0.0138,4.34271 -0.52658,3.14393 -0.64801,0.86993 -2.25469,0.90416 0.21596,1.07538 2.89605,-1.13704 5.06968,2.36994 1.57965,-0.81511 4.25285,0.93159 2.07247,3.63031 3.01757,-0.61647 3.63859,-2.20559 2.53148,-0.84936 1.07335,0.8288 1.82942,0.29455 2.32891,1.67131 4.7525,0.0206 12.24559,-3.29466 -1.42438,5.76052 -1.6877,3.28097 -2.62599,-1.52065 -1.21508,0.21924 -0.83039,5.73998 -4.13804,5.15775 0.82356,1.43843 1.35015,0.65067 0.70205,1.61658 4.70521,-0.85621 3.21995,0.18492 0.52659,1.43843 -0.45227,2.52753 -1.08682,0.10954 -0.22285,1.54121 -0.55351,0.93836 -0.0138,2.41791 0.38469,1.07538 -0.43198,1.65761 -1.66743,1.23297 -1.88337,2.61652 -10.70651,10.56215 3.15256,2.60974 4.77942,1.80828 3.46976,5.34958 3.36187,2.66449 0.52657,3.30836 0.20248,5.73998 0.4388,1.35623 4.97518,2.63023 1.30285,1.45898 3.84115,2.46586 2.92971,3.21253 2.53148,0.67808 1.01931,1.15759 2.61261,-0.18491 1.23527,0.52057 0.9249,1.58909 2.0049,1.36307 2.34246,0.29454 1.92394,0.89047 4.67136,5.00017 2.12651,3.69197 0.76281,3.09605 -2.69348,2.41791 -1.51215,2.7878 0.0878,0.72603 0.13499,0.7877 3.43609,4.63034 9.27533,1.1439 1.60666,-2.34938 3.26054,-2.6303 1.84289,-2.28773 0.20929,-1.69186 1.81589,-3.34949 6.46031,-3.26727 2.56528,-0.15066 -0.14854,1.75347 2.49091,5.30848 0.32409,1.92475 -0.48602,1.50688 1.97789,3.11659 -0.99912,2.15763 6.52116,3.71253 2.20738,2.40419 3.11209,1.03429 3.03777,-0.73289 2.08594,-1.31511 2.23448,-0.25343 6.46706,-2.644 3.17274,0.20547 4.4285,3.35634 1.8699,2.02067 0.9112,3.11656 1.8025,1.52062 1.4649,-0.0133 1.2827,1.19183 0.7222,2.09592 0.4455,3.63031 2.8286,1.91106 3.0716,4.39751 1.5188,3.34949 0.3511,3.6166 -0.4321,2.0753 -0.7628,1.6029 -0.7426,0.4658 -0.3172,1.3769 -2.4439,2.0547 -1.0463,-0.452 0.2566,0.8767 -0.2633,0.4863 1.1207,2.6371 -4.1045,3.3838 -1.7889,2.6851 -1.0396,0.013 -2.8623,1.7056 0.02,0.7397 1.654,2.1508 -0.1486,1.7467 0.6009,1.2946 -3.3214,1.733 0.6143,1.4383 3.1796,0.1165 1.026,1.7262 7.4662,3.6783 5.4816,-1.6988 1.9373,-1.3836 -0.027,-0.9385 1.8564,0.5754 5.8258,-0.3767 0.8235,-0.8836 1.2423,-0.4178 0.06,-2.1989 1.161,-2.6781 3.9761,-0.5068 4.5094,-3.1578 1.1004,-2.3699 2.4505,-1.87 1.7754,-2.1507 0.8707,-2.096 2.9906,-0.4042 4.8673,-1.8562 0.5872,-0.7603 1.7821,-5.1784 1.2219,-1.3288 -0.053,-1.0137 4.8941,-1.8357 4.0504,-0.8837 4.5905,0.2124 0.8303,0.4521 1.1881,-3.05499 2.0251,-1.77397 0.8035,-2.05489 0.5129,0.10953 0.5738,-2.08224 2.5383,-1.71241 3.733,-0.0551 0.5333,-1.26042 1.0667,-0.9932 0.4456,-1.95893 3.247,0.17803 1.1678,-1.51379 1.006,-0.0199 1.8969,-1.25357 2.9094,0.44525 0.7426,1.79459 0.7493,0.76035 0.048,1.49317 0.8438,1.60288 0.6817,0.4178 0.2364,1.48632 2.1737,0.8905 0.5333,-0.22599 0.8439,1.01371 1.4918,0.72606 1.6404,-0.27397 0.5333,2.17818 -0.6346,0.26714 -0.7831,1.36301 0.1755,1.24665 1.627,1.0822 0.1553,1.4043 0.9452,0.5479 0.5871,1.1713 0.061,1.9179 -1.3974,3.8975 -0.4524,4.4386 3.4024,4.2878 -2.8488,-1.1165 1.8159,1.7467 0.4388,1.5754 -3.2066,7.2538 1.573,1.0616 1.3905,-1.0684 1.5189,0.493 0.6818,5.0277 -0.9989,1.7809 -0.9249,0.7603 -2.2209,4.5412 -0.3849,3.1988 -0.6818,1.2946 -2.7812,1.9318 0.2295,0.6986 -0.4861,1.0753 0.8439,3.3495 -0.1823,2.1987 -3.7804,4.1989 -1.4986,3.2467 -0.2969,2.6918 -2.3965,5.3908 -3.2201,2.93851 0.4928,4.1782 -0.2497,1.6233 -6.582,1.2604 -3.3685,3.1782 -1.0532,1.9727 -2.9837,1.3768 -0.7021,2.3974 0.2296,1.178 -0.5469,0.2604 -2.4639,-0.7673 -5.5423,3.603 -1.188,2.6713 0.095,3.5345 0.6683,1.9863 1.3298,0.4247 0.2094,0.5343 -5.3804,5.4797 -0.068,1.4041 -1.6606,0.9453 -1.87,3.2673 0.8507,1.6096 -0.5672,2.3152 0.1958,1.5274 -0.4118,1.7331 -0.5939,-0.1507 -0.1824,0.589 -1.9172,8.473 -2.5652,1.8768 -0.9722,-0.3014 -1.2353,0.459 -1.6673,2.9865 1.5728,3.6576 -3.8073,1.0206 -2.4235,7.3154 0.8304,5.0687 -0.1148,1.322 -1.7957,6.1167 -1.7282,2.411 -0.4117,2.2262 -5.4546,-4.9386 -1.5189,-2.2398 -3.4833,-8.6853 -2.1669,-3.7811 -0.513,-1.6918 0.041,-1.5755 1.2288,-1.7739 0.5874,-4.1236 -1.2423,-2.7535 -0.02,-0.9248 2.6193,-4.2467 2.8758,-0.9521 -1.0329,-1.5479 -1.2758,-0.1645 -4.5094,-2.1439 -0.2295,-0.5823 -2.7813,0.9042 -4.0975,0.2534 -2.7206,-3.3836 -1.0261,-3.0139 -1.8497,-2.048 -0.1957,-1.6508 -2.1332,-1.1781 -0.9857,-3.1166 -1.134,-1.5892 -2.8015,1.8975 -7.1422,-1.6713 -1.1004,-1.918 -0.088,-1.0068 -1.2894,-1.5139 -0.27,-1.2191 -1.5594,-1.2125 -0.8844,-1.5548 -2.2951,-1.0685 -3.92894,0.9795 -1.07332,1.0479 -2.86896,-0.9726 -4.02343,0.3631 -1.14758,-0.6988 -4.28659,-0.8424 -1.84972,0.3768 1.00586,1.7809 -1.47167,-0.6577 -4.36764,0.4453 -2.50446,1.9726 -2.74077,1.3632 -0.51977,0.7122 2.13316,3.0961 2.6057,2.5619 1.99152,0.3904 1.49188,1.4384 0.14853,0.7808 2.20747,0.5274 -0.10806,0.8493 -0.89788,1.0343 -1.08682,2.3837 0.12825,1.9933 2.50456,0.4314 3.7128,2.6715 0.24296,1.226 -1.11383,2.3289 0.71559,1.7535 -0.37804,0.9042 -2.22775,0.3219 -0.65475,0.8426 -0.41861,1.6437 1.15441,0.8357 0.89788,-0.3767 0.99231,0.5617 0.0605,1.8563 -2.76098,3.1645 0.009,0.5616 -2.08596,0.9315 -3.68587,0.5275 -1.80241,2.0206 2.815,3.9044 -0.28353,1.5342 2.22093,6.0962 -7.54039,3.8564 -15.83692,3.8015 -7.99949,6.055 -3.71954,5.5894 -0.76953,1.863 -1.60002,1.5138 0,1.2741 0.72241,0.6712 -0.33755,1.2741 2.10614,2.3699 -0.90453,0.822 -1.41092,0.1164 -1.94414,3.0549 0.26999,1.9522 -0.47246,10.6306 1.23526,0.2398 -0.89779,1.0205 -0.37131,1.8699 -0.76953,1.0343 0.60079,1.2262 -2.54493,13.9389 -4.34745,-0.137 -1.99817,1.233 -2.64626,-0.3699 -2.9027,1.4727 -0.6954,0.7877 2.70704,5.3975 4.12458,3.4316 3.01758,4.555 1.86317,4.2946 0.0535,1.2536 1.10719,1.4316 -0.91817,0.9795 1.30968,1.37 0.90452,2.4247 0.009,1.363 0.58052,0.8906 -1.0126,0.9177 0.40506,1.2398 0.91135,0.4384 0.0198,2.2604 -0.67503,-0.1096 -1.74165,-2.3015 -1.21516,-0.5343 -0.57379,-2.1987 -0.99231,-1.5616 -3.6724,-3.6578 -1.49179,5.1988 -1.90375,3.8152 -1.16785,0.1165 -5.09671,-1.7672 -0.60081,-0.8904 -1.96441,-1.1781 -0.39151,-0.548 0.0544,-4.1372 -2.82855,-2.7261 -4.34745,-2.5001 -4.00307,-7.1168 -0.0605,-5.9729 -0.66156,-2.87 -9.12005,-2.5959 -0.3915,-3.3769 -7.46626,-5.4865 -4.64443,-2.5206 -0.12826,-6.1921 -1.10028,-2.514 -6.79114,-0.267 -0.27007,-5.7674 -3.18621,-9.7128 3.57771,-8.24 -0.44552,-0.9864 0.49282,-1.0343 -1.20833,-0.2192 -6.46705,1.1644 -0.57388,-2.0206 -1.38381,-1.2877 -11.95542,12.8911 -5.38023,3.0274 -1.34333,-0.8836 -8.85688,1.1439 -3.96259,-4.3906 -3.97605,-9.9457 -1.9374,-0.034 -4.13823,3.9112 -3.94229,0.5 -6.93296,4.0071 -0.34428,-1.0619 -1.57283,-1.7534 -5.73134,-0.096 -7.45262,-1.6027 -1.49188,-1.0617 0,0.9314 -0.57379,0.5617 -0.0742,0.9317 -0.63464,0.3766 -0.52649,-1.0616 -1.05988,0.6712 -1.45814,0.1233 -0.45899,-2.5 -0.009,-3.514 2.39648,-4.6646 1.06663,-1.2603 2.50446,0.3768 1.74165,-1.7398 1.87673,-0.8084 0.45226,0.3015 2.03191,-2.5207 -0.39149,-1.2466 2.67319,-6.4524 -0.2768,-3.2261 -2.07912,-5.2812 -0.44554,-3.9865 -7.44596,-1.6917 -0.54005,0.4383 -3.13228,-0.3973 -4.0369,1.5687 -7.15563,1.4109 -1.18813,1.2946 -0.89781,-2.2741 -0.28344,-2.2536 -1.62694,-3.5069 -2.34928,-1.1988 -1.01259,-1.8766 -0.91135,-0.6166 -0.13499,-1.0275 2.75433,-2.6233 4.09084,-5.925 4.46888,-0.4451 1.3366,0.7671 1.25564,1.6165 0.31055,-0.2329 -0.30382,-0.5068 0.78309,-0.137 -0.45226,-0.7809 -0.2768,-2.8084 -1.43784,-2.4248 -2.61253,1.3015 -3.63858,-0.8631 -0.71558,-0.4657 -0.20249,-2.6233 -3.38879,-2.8289 -1.73492,-0.8906 -1.51889,0.1987 -3.28755,-7.2195 -0.80329,-0.061 -0.36457,-1.1097 -3.79386,-2.5275 0.0946,-2.1577 -0.39159,-1.5205 -1.4041,-2.1508 -1.30958,-3.1371 -8.21551,0.9726 -1.97116,-0.9316 -1.01266,0.069 -0.24298,-2.0891 0.47929,-0.1505 -0.70879,-0.8427 -5.18455,0.5687 -0.42525,-0.7742 -1.53244,-0.7397 0.19584,-8.3154 0.93827,-4.1647 -0.17547,-2.7261 0.59408,0.021 0.0605,-1.28071 0.56697,-1.0549 4.27995,-4.8975 1.79568,-2.9727 0.81684,-3.0482 -0.3713,-3.7193 -1.05989,-1.0274 -1.26228,0.089 -3.26737,-1.6235 -3.07151,-2.137 -2.53148,0.1165 -3.7399,1.2878 -1.35006,-0.4521 -0.76955,-2.377 1.91713,-2.952 -1.36362,-0.4315 -5.27217,0.5479 -2.0793,1.4178 -1.22853,1.8563 -1.51215,-0.8425 -2.40323,0.2329 -0.0268,-0.4178 -3.65878,-0.7192 1.14085,-2.6165 3.73982,-1.3222 0.49956,-4.3631 -10.41624,-2.3563 5.58952,-1.4589 2.09268,-2.3151 2.194,1.2534 1.1746,-1.6782 -0.86414,-2.1919 0.49956,-0.7876 3.19978,-1.9453 2.22775,0.226 0.27679,0.5274 0.10125,-2.1371 -0.70887,-5.5893 -5.00892,-2.4042 -4.98873,-1.3562 -2.72722,-3.5961 -1.7754,-4.3015 -1.80924,-2.5344 -0.45226,-2.329 -0.87078,-1.6096 -1.28266,-0.048 5.33301,-3.66457 3.03778,-4.71261 -0.43207,-3.32889 0.61427,-2.58914 2.27505,-2.05488 -0.0674,-0.8905 0.80338,-1.50685 0.58051,-2.38376 0.47928,0 -0.0876,-1.47255 0.78301,-0.76729 -0.10797,-1.41784 0.61425,-1.02743 0.95192,-0.48631 1.14759,-3.45903 1.82943,-2.92483 0.12826,-2.3494 -0.52659,-3.27412 0.60753,-1.12334 0.14855,-3.6303 1.34333,-4.08923 -0.38469,-2.62343 1.01933,-2.94533 -0.66839,-3.05494 -1.46485,-3.10291 -0.2295,-4.60292 0.5063,-1.34252 0.74925,-0.1438 0.0879,-2.39057 1.11384,-1.72605 5.83249,-2.02753 0.22277,-1.13704 -0.99913,-0.6713 -0.20248,-1.08223 0.39824,-1.81513 1.01933,-1.60279 0.86412,-0.0274 1.23536,0.82196 1.21507,-0.20547 2.4438,-4.95227 -2.45725,-4.5756 0.14853,-4.68516 1.47833,-1.65075 0.41186,0.67129 5.43426,3.33577 7.37831,-0.71239 4.1787,-3.8358 5.91354,2.92485 -0.0544,0.71918 3.36861,-1.4864 2.24121,-3.52755 0.40497,-4.43855 -0.2768,-6.39752 4.77951,-4.92486 -6.04179,-4.37012 4.38791,-4.36321 -0.24977,-2.16446 2.78789,-0.25345 3.81414,1.12335 5.33983,-1.02743 3.03769,-10.48678 0.39159,-11.31559 -1.90365,-4.3632 2.70693,0.58908 -0.90461,-9.73335 2.20074,-2.71929 -1.74166,-2.57548 1.21508,-5.24683 1.16785,-2.02058 0.20932,-2.14392 3.08506,0.97945 3.12546,-4.56181 5.87307,-1.28093 5.65701,-2.30828 -0.18228,-4.73309 0.95183,0.3562 2.22775,-0.39047 5.33974,-2.53438 2.58542,-1.86308 1.65388,0.24658 0.16209,-2.65763 1.81589,0.58908 0.0811,-0.65074 0.43198,-0.17122"
     id="path3390"
     inkscape:connector-curvature="0"
     style="font-size:medium;font-style:normal;font-weight:400;fill:#777777;fill-opacity:0.94117647;fill-rule:evenodd;stroke:#000000;stroke-width:2.08817314999999981;stroke-linecap:square;stroke-linejoin:bevel;stroke-opacity:1;font-family:MS Shell Dlg 2" />
  <g
     style="font-size:32.5px;font-style:normal;font-weight:400;fill:none;stroke:#000000;stroke-width:1;stroke-linecap:square;stroke-linejoin:bevel;stroke-opacity:1;font-family:MS Shell Dlg 2"
     id="g3412"
     font-style="normal"
     font-weight="400"
     font-size="32.5"
     transform="matrix(11.8081,0,0,11.8081,306.93866,-1058.8735)" />
  <g
     style="font-size:32.5px;font-style:normal;font-weight:400;fill:none;stroke:#000000;stroke-width:1;stroke-linecap:square;stroke-linejoin:bevel;stroke-opacity:1;font-family:MS Shell Dlg 2"
     id="g3414"
     font-style="normal"
     font-weight="400"
     font-size="32.5"
     transform="matrix(11.8081,0,0,11.8081,306.93866,-1058.8735)" />
  <g
     style="font-size:32.5px;font-style:normal;font-weight:400;fill:none;stroke:#000000;stroke-width:1;stroke-linecap:square;stroke-linejoin:bevel;stroke-opacity:1;font-family:MS Shell Dlg 2"
     id="g3416"
     font-style="normal"
     font-weight="400"
     font-size="32.5"
     transform="matrix(11.8081,0,0,11.8081,306.93866,-1058.8735)" />
  <g
     style="font-size:32.5px;font-style:normal;font-weight:400;fill:none;stroke:#000000;stroke-width:1;stroke-linecap:square;stroke-linejoin:bevel;stroke-opacity:1;font-family:MS Shell Dlg 2"
     id="g3418"
     font-style="normal"
     font-weight="400"
     font-size="32.5"
     transform="translate(271.82266,-1121.8036)" />
  <g
     style="font-size:32.5px;font-style:normal;font-weight:400;fill:none;stroke:#000000;stroke-width:1;stroke-linecap:square;stroke-linejoin:bevel;stroke-opacity:1;font-family:MS Shell Dlg 2"
     id="g3420"
     font-style="normal"
     font-weight="400"
     font-size="32.5"
     transform="matrix(11.8081,0,0,11.8081,306.93866,-1058.8735)" />
  <g
     style="font-size:32.5px;font-style:normal;font-weight:400;fill:none;stroke:#000000;stroke-width:1;stroke-linecap:square;stroke-linejoin:bevel;stroke-opacity:1;font-family:MS Shell Dlg 2"
     id="g3422"
     font-style="normal"
     font-weight="400"
     font-size="32.5"
     transform="matrix(11.8081,0,0,11.8081,306.93866,-1058.8735)" />
  <g
     style="font-size:32.5px;font-style:normal;font-weight:400;fill:none;stroke:#000000;stroke-width:1;stroke-linecap:square;stroke-linejoin:bevel;stroke-opacity:1;font-family:MS Shell Dlg 2"
     id="g3424"
     font-style="normal"
     font-weight="400"
     font-size="32.5"
     transform="matrix(11.8081,0,0,11.8081,306.93866,-1058.8735)" />
  <g
     style="font-size:32.5px;font-style:normal;font-weight:400;fill:none;stroke:#000000;stroke-width:1;stroke-linecap:square;stroke-linejoin:bevel;stroke-opacity:1;font-family:MS Shell Dlg 2"
     id="g3426"
     font-style="normal"
     font-weight="400"
     font-size="32.5"
     transform="matrix(11.8081,0,0,11.8081,306.93866,-1058.8735)" />
  <g
     style="font-size:32.5px;font-style:normal;font-weight:400;fill:none;stroke:#000000;stroke-width:1;stroke-linecap:square;stroke-linejoin:bevel;stroke-opacity:1;font-family:MS Shell Dlg 2"
     id="g3428"
     font-style="normal"
     font-weight="400"
     font-size="32.5"
     transform="matrix(11.8081,0,0,11.8081,271.82266,-1121.8036)" />
  <g
     style="font-size:32.5px;font-style:normal;font-weight:400;fill:none;stroke:#000000;stroke-width:1;stroke-linecap:square;stroke-linejoin:bevel;stroke-opacity:1;font-family:MS Shell Dlg 2"
     id="g3430"
     font-style="normal"
     font-weight="400"
     font-size="32.5"
     transform="matrix(11.8081,0,0,11.8081,271.82266,-1121.8036)" />
  <g
     style="font-size:32.5px;font-style:normal;font-weight:400;fill:none;stroke:#000000;stroke-width:1;stroke-linecap:square;stroke-linejoin:bevel;stroke-opacity:1;font-family:MS Shell Dlg 2"
     id="g3432"
     font-style="normal"
     font-weight="400"
     font-size="32.5"
     transform="translate(271.82266,-1121.8036)" />
</svg>
