<?xml version="1.0" encoding="UTF-8" standalone="no"?>
<svg
   xmlns:dc="http://purl.org/dc/elements/1.1/"
   xmlns:cc="http://creativecommons.org/ns#"
   xmlns:rdf="http://www.w3.org/1999/02/22-rdf-syntax-ns#"
   xmlns:svg="http://www.w3.org/2000/svg"
   xmlns="http://www.w3.org/2000/svg"
   xmlns:sodipodi="http://sodipodi.sourceforge.net/DTD/sodipodi-0.dtd"
   xmlns:inkscape="http://www.inkscape.org/namespaces/inkscape"
   width="400.10001"
   height="500"
   viewBox="0 0 1333.6667 1666.6693"
   version="1.2"
   id="svg3336"
   inkscape:version="0.48.4 r9939"
   sodipodi:docname="lugoTerraCha.svg">
  <metadata
     id="metadata3436">
    <rdf:RDF>
      <cc:Work
         rdf:about="">
        <dc:format>image/svg+xml</dc:format>
        <dc:type
           rdf:resource="http://purl.org/dc/dcmitype/StillImage" />
        <dc:title>BISBARRAS</dc:title>
      </cc:Work>
    </rdf:RDF>
  </metadata>
  <sodipodi:namedview
     pagecolor="#ffffff"
     bordercolor="#666666"
     borderopacity="1"
     objecttolerance="10"
     gridtolerance="10"
     guidetolerance="10"
     inkscape:pageopacity="0.01960784"
     inkscape:pageshadow="2"
     inkscape:window-width="1873"
     inkscape:window-height="1056"
     id="namedview3434"
     showgrid="false"
     inkscape:zoom="1.543472"
     inkscape:cx="279.39946"
     inkscape:cy="233.59934"
     inkscape:window-x="47"
     inkscape:window-y="24"
     inkscape:window-maximized="1"
     inkscape:current-layer="svg3336" />
  <title
     id="title3338">BISBARRAS</title>
  <desc
     id="desc3340">Generated with Qt</desc>
  <defs
     id="defs3342" />
  <g
     style="font-size:32.5px;font-style:normal;font-weight:400;fill:none;stroke:#000000;stroke-width:1;stroke-linecap:square;stroke-linejoin:bevel;stroke-opacity:1;font-family:MS Shell Dlg 2"
     id="g3346"
     font-style="normal"
     font-weight="400"
     font-size="32.5"
     transform="translate(271.82266,-1121.8036)" />
  <g
     style="font-size:32.5px;font-style:normal;font-weight:400;fill:none;stroke:#000000;stroke-width:1;stroke-linecap:square;stroke-linejoin:bevel;stroke-opacity:1;font-family:MS Shell Dlg 2"
     id="g3348"
     font-style="normal"
     font-weight="400"
     font-size="32.5"
     transform="matrix(11.8081,0,0,11.8081,271.82266,-1121.8036)" />
  <g
     style="font-size:32.5px;font-style:normal;font-weight:400;fill:#ffffff;fill-opacity:1;fill-rule:evenodd;stroke:none;font-family:MS Shell Dlg 2"
     id="g3350"
     font-style="normal"
     font-weight="400"
     font-size="32.5"
     transform="matrix(0.999751,0,0,0.999751,271.82266,-1121.8036)" />
  <g
     style="font-size:32.5px;font-style:normal;font-weight:400;fill:none;stroke:#000000;stroke-width:1;stroke-linecap:square;stroke-linejoin:bevel;stroke-opacity:1;font-family:MS Shell Dlg 2"
     id="g3354"
     font-style="normal"
     font-weight="400"
     font-size="32.5"
     transform="matrix(11.8081,0,0,11.8081,271.82266,-1121.8036)" />
  <g
     style="font-size:32.5px;font-style:normal;font-weight:400;fill:none;stroke:#000000;stroke-width:1;stroke-linecap:square;stroke-linejoin:bevel;stroke-opacity:1;font-family:MS Shell Dlg 2"
     id="g3356"
     font-style="normal"
     font-weight="400"
     font-size="32.5"
     transform="matrix(11.8081,0,0,11.8081,271.82266,-1121.8036)" />
  <g
     style="font-size:32.5px;font-style:normal;font-weight:400;fill:none;stroke:#000000;stroke-width:1;stroke-linecap:square;stroke-linejoin:bevel;stroke-opacity:1;font-family:MS Shell Dlg 2"
     id="g3358"
     font-style="normal"
     font-weight="400"
     font-size="32.5"
     transform="matrix(11.8081,0,0,11.8081,306.93866,-1058.8735)" />
  <g
     style="font-size:32.5px;font-style:normal;font-weight:400;fill:none;stroke:#000000;stroke-width:1;stroke-linecap:square;stroke-linejoin:bevel;stroke-opacity:1;font-family:MS Shell Dlg 2"
     id="g3360"
     font-style="normal"
     font-weight="400"
     font-size="32.5"
     transform="matrix(11.8081,0,0,11.8081,306.93866,-1058.8735)" />
  <g
     style="font-size:32.5px;font-style:normal;font-weight:400;fill:#ffffff;fill-opacity:1;fill-rule:evenodd;stroke:none;font-family:MS Shell Dlg 2"
     id="g3362"
     font-style="normal"
     font-weight="400"
     font-size="32.5"
     transform="matrix(11.8081,0,0,11.8081,306.93866,-1058.8735)" />
  <g
     style="font-size:32.5px;font-style:normal;font-weight:400;fill:none;stroke:#000000;stroke-width:1;stroke-linecap:square;stroke-linejoin:bevel;stroke-opacity:1;font-family:MS Shell Dlg 2"
     id="g3366"
     font-style="normal"
     font-weight="400"
     font-size="32.5"
     transform="matrix(11.8081,0,0,11.8081,306.93866,-1058.8735)" />
  <g
     style="font-size:32.5px;font-style:normal;font-weight:400;fill:#000000;fill-opacity:0;fill-rule:evenodd;stroke:none;font-family:MS Shell Dlg 2"
     id="g3368"
     font-style="normal"
     font-weight="400"
     font-size="32.5"
     transform="matrix(0.999751,0,0,0.999751,306.93866,-1058.8735)">
    <path
       style="fill-rule:evenodd"
       inkscape:connector-curvature="0"
       id="path3370"
       d="m 0,0 3438,0 0,2354 L 0,2354 0,0"
       vector-effect="non-scaling-stroke" />
  </g>
  <path
     vector-effect="none"
     d="m 495.78572,523.4304 -0.54004,12.7403 -5.306,17.47339 15.74918,-2.34942 7.80363,6.2263 -0.54003,8.94561 1.32314,2.43849 6.86536,3.82893 5.68404,-5.5893 4.81991,-0.47948 2.82855,-7.60992 5.18448,1.65761 6.9193,5.04132 -0.65474,9.98675 3.75336,4.04814 12.25233,-3.51386 2.57196,-7.15785 4.9145,-0.1096 3.38206,1.02059 10.78074,9.98675 3.13901,-3.84949 11.46932,-3.30151 7.38513,11.10323 1.94422,-7.28115 8.5327,-13.33623 2.96355,-2.52065 3.55762,0.0548 6.85864,-5.70574 8.50569,3.25357 3.82758,4.13033 5.29254,-4.09607 3.23353,-9.2333 4.7052,-0.26714 -5.441,4.08238 5.5828,4.71255 11.46932,-4.53446 1.99808,-4.37007 -1.00577,-1.8357 1.48505,-6.43178 6.11611,4.66458 13.55526,0.9932 3.03777,-3.94538 7.45263,0.75345 3.49685,3.56866 -0.66157,8.63053 6.87883,33.78235 9.65345,14.98013 -12.17137,13.39787 5.54223,12.19232 0.81011,8.32915 1.34333,0 5.42753,17.32266 0.25651,6.44554 4.03008,8.70584 -1.32313,22.001 -3.78704,12.20605 -10.34875,6.02081 -2.20064,3.60976 3.63183,8.9388 -8.62056,9.10994 -0.98558,3.1166 -10.08543,4.52764 -7.27715,11.68542 0.77637,1.4453 -1.49197,4.10977 -13.57545,2.23298 -4.75915,5.70572 -3.23361,0.17806 -1.76193,4.08929 -4.34062,-0.84251 -0.0475,-2.7878 -4.37437,0.28769 -0.36458,-2.29465 1.94423,-0.19862 0.14845,-1.66446 -3.52378,-1.42474 -3.28755,-5.01394 -6.39282,-0.21918 -5.44773,4.13034 -1.37716,-1.56855 -0.29708,2.78781 -3.3617,-1.10964 -2.30206,3.80152 -1.97115,-6.00026 -8.57326,4.7399 -0.93829,-2.52746 -4.74577,0.31502 -2.21419,-2.66449 -3.32804,-0.32879 -1.13402,-2.67134 -8.18177,-3.07548 -7.04766,5.69201 -3.28755,5.15097 -3.46984,-1.95216 -3.63857,1.30142 3.69934,6.55507 3.18631,1.20557 -0.59408,4.54127 -8.58,-0.26028 -4.38793,-4.68515 -4.9145,3.37689 -1.00576,-0.98631 0.89779,-2.74672 -3.98959,-2.11657 -10.36896,9.67853 1.26911,5.55505 -2.98374,1.36993 -3.71289,-4.51394 -5.11699,-0.65066 0.26334,-3.68513 2.5855,-3.19874 -7.83748,-0.52742 -0.12152,-5.42496 -2.57868,-4.48644 -3.9222,9.28806 -1.38381,-0.58222 -1.22189,-6.42497 -2.25468,2.00695 -2.167,-0.93836 -2.76096,3.02069 1.37707,4.8084 3.96941,-1.11649 1.71464,1.85623 0.21603,3.00706 -1.99817,3.10968 1.88346,4.30845 -1.55944,6.74685 0.90461,3.96597 -7.52693,3.58235 0.009,3.17134 -3.20651,3.27412 -2.92306,-3.0892 -8.69479,-0.31502 -1.61341,-0.77406 0.12154,-2.69189 -4.25285,0.0959 1.53908,5.45229 -1.24209,2.69188 -3.80731,-2.56857 -2.44379,5.79472 -4.53645,3.24678 -0.35768,1.80142 4.02335,4.62349 -0.25651,1.65761 -7.13543,-0.19863 -4.19209,5.32904 -7.02746,-1.37677 -10.936,2.87681 -10.84824,-8.28806 -7.98601,0.70555 -3.33477,2.81514 -5.90819,-3.23986 -1.38916,2.80151 -5.52471,-1.07537 -1.10779,-4.281 -2.51197,-0.74666 -2.93782,2.69875 2.51326,5.91811 -0.88641,1.21926 -12.26112,3.04117 -8.02176,-1.19864 -3.55484,11.30873 1.56946,5.56186 -4.14954,1.54804 -1.73492,-2.87001 -3.29903,2.97956 -12.53594,-9.56205 -1.70445,1.76723 -0.17962,3.78098 -7.92723,1.22611 0.1998,-3.22622 2.73198,0.95213 -0.12894,-3.4454 1.98133,-0.0754 1.20764,-2.55491 -6.8052,-4.47968 -1.16587,-2.56172 -13.25889,-7.43869 -13.80901,12.78821 -11.76977,-3.19875 -5.18784,-8.82233 -6.8532,-4.67144 -0.38071,-2.28094 1.94413,-2.82206 -6.77966,-0.86992 4.09499,-4.43849 3.68915,-1.1576 1.83012,-4.82903 -5.22901,-12.65811 2.95612,-7.2126 2.24924,-1.44529 -1.07671,-3.67827 0.50828,-3.11654 1.42644,0.39725 -1.51146,-2.50013 -10.18607,-0.95206 -7.22778,-7.18526 -12.82352,-3.1166 -6.82411,-7.00028 -0.77576,1.29456 -4.8867,-6.7811 -1.21852,0.80139 -0.63862,-10.89779 0.9634,-0.87677 -1.71542,-2.23291 2.1366,-9.48677 1.86517,-2.45901 -5.99251,-0.82881 -2.18114,4.7468 -2.53481,-2.98642 -9.61898,-0.98639 -2.2095,6.6099 -2.30867,-1.9453 2.02919,-3.42478 -1.80846,-7.72638 5.09399,-3.89745 9.42325,0.0137 1.11041,-4.37006 -2.52266,-4.14402 0.93628,-1.86995 -1.60665,-8.55518 -2.52197,-1.58232 1.73082,-3.66451 -3.02903,-7.11673 1.83285,-2.71931 -2.3945,-4.25365 4.70858,-5.21256 -2.12509,-5.49338 -3.87081,-0.2877 0.85531,-5.03449 -2.70767,-0.34244 -2.48289,-3.42484 -0.71757,-6.58248 2.67189,-2.62341 -2.18653,-3.93168 8.33767,-12.60332 2.80692,0 0.64269,-2.56176 2.0839,-0.76029 0.48467,-12.71292 6.44346,-6.56879 1.75452,-12.11699 13.22039,3.29469 1.47235,3.38371 5.22418,-0.0754 4.50341,-12.27451 2.69823,-0.73975 7.92386,3.87002 9.42456,-2.50696 0.95045,5.57559 10.42773,-1.93844 -3.18968,5.06188 0.92076,1.36992 3.69527,1.68501 3.49419,-1.65761 14.68791,4.50019 7.3392,5.43176 -0.67899,-9.41138 -3.55426,-7.39759 0.65216,-1.8631 9.087,-6.06878 11.72643,3.01384 7.61272,10.9046 6.26319,-7.39759 0.93966,-5.87698 2.81103,-2.68505 1.90702,-7.17841 5.89732,-1.38361 5.439,-6.93184 0.47652,-1.6576 -5.24447,-4.04129 -0.84652,-2.29462 1.29067,-1.01374 15.07002,-2.63024 1.17805,-3.43853 9.61762,-5.54135 4.6093,3.95909 8.6273,-14.35682 11.70556,-4.32895 7.95218,1.93844 3.56435,-4.32896 1.19488,-5.51396 2.815,-4.19882 20.35987,-0.44522 5.28572,7.81542"
     id="path3404"
     inkscape:connector-curvature="0"
     style="font-size:medium;font-style:normal;font-weight:400;fill:#5ab780;fill-opacity:0.94117856;fill-rule:evenodd;stroke:#000000;stroke-width:2.08817314999999981;stroke-linecap:square;stroke-linejoin:bevel;stroke-opacity:1;font-family:MS Shell Dlg 2" />
  <g
     style="font-size:32.5px;font-style:normal;font-weight:400;fill:none;stroke:#000000;stroke-width:1;stroke-linecap:square;stroke-linejoin:bevel;stroke-opacity:1;font-family:MS Shell Dlg 2"
     id="g3412"
     font-style="normal"
     font-weight="400"
     font-size="32.5"
     transform="matrix(11.8081,0,0,11.8081,306.93866,-1058.8735)" />
  <g
     style="font-size:32.5px;font-style:normal;font-weight:400;fill:none;stroke:#000000;stroke-width:1;stroke-linecap:square;stroke-linejoin:bevel;stroke-opacity:1;font-family:MS Shell Dlg 2"
     id="g3414"
     font-style="normal"
     font-weight="400"
     font-size="32.5"
     transform="matrix(11.8081,0,0,11.8081,306.93866,-1058.8735)" />
  <g
     style="font-size:32.5px;font-style:normal;font-weight:400;fill:none;stroke:#000000;stroke-width:1;stroke-linecap:square;stroke-linejoin:bevel;stroke-opacity:1;font-family:MS Shell Dlg 2"
     id="g3416"
     font-style="normal"
     font-weight="400"
     font-size="32.5"
     transform="matrix(11.8081,0,0,11.8081,306.93866,-1058.8735)" />
  <g
     style="font-size:32.5px;font-style:normal;font-weight:400;fill:none;stroke:#000000;stroke-width:1;stroke-linecap:square;stroke-linejoin:bevel;stroke-opacity:1;font-family:MS Shell Dlg 2"
     id="g3418"
     font-style="normal"
     font-weight="400"
     font-size="32.5"
     transform="translate(271.82266,-1121.8036)" />
  <g
     style="font-size:32.5px;font-style:normal;font-weight:400;fill:none;stroke:#000000;stroke-width:1;stroke-linecap:square;stroke-linejoin:bevel;stroke-opacity:1;font-family:MS Shell Dlg 2"
     id="g3420"
     font-style="normal"
     font-weight="400"
     font-size="32.5"
     transform="matrix(11.8081,0,0,11.8081,306.93866,-1058.8735)" />
  <g
     style="font-size:32.5px;font-style:normal;font-weight:400;fill:none;stroke:#000000;stroke-width:1;stroke-linecap:square;stroke-linejoin:bevel;stroke-opacity:1;font-family:MS Shell Dlg 2"
     id="g3422"
     font-style="normal"
     font-weight="400"
     font-size="32.5"
     transform="matrix(11.8081,0,0,11.8081,306.93866,-1058.8735)" />
  <g
     style="font-size:32.5px;font-style:normal;font-weight:400;fill:none;stroke:#000000;stroke-width:1;stroke-linecap:square;stroke-linejoin:bevel;stroke-opacity:1;font-family:MS Shell Dlg 2"
     id="g3424"
     font-style="normal"
     font-weight="400"
     font-size="32.5"
     transform="matrix(11.8081,0,0,11.8081,306.93866,-1058.8735)" />
  <g
     style="font-size:32.5px;font-style:normal;font-weight:400;fill:none;stroke:#000000;stroke-width:1;stroke-linecap:square;stroke-linejoin:bevel;stroke-opacity:1;font-family:MS Shell Dlg 2"
     id="g3426"
     font-style="normal"
     font-weight="400"
     font-size="32.5"
     transform="matrix(11.8081,0,0,11.8081,306.93866,-1058.8735)" />
  <g
     style="font-size:32.5px;font-style:normal;font-weight:400;fill:none;stroke:#000000;stroke-width:1;stroke-linecap:square;stroke-linejoin:bevel;stroke-opacity:1;font-family:MS Shell Dlg 2"
     id="g3428"
     font-style="normal"
     font-weight="400"
     font-size="32.5"
     transform="matrix(11.8081,0,0,11.8081,271.82266,-1121.8036)" />
  <g
     style="font-size:32.5px;font-style:normal;font-weight:400;fill:none;stroke:#000000;stroke-width:1;stroke-linecap:square;stroke-linejoin:bevel;stroke-opacity:1;font-family:MS Shell Dlg 2"
     id="g3430"
     font-style="normal"
     font-weight="400"
     font-size="32.5"
     transform="matrix(11.8081,0,0,11.8081,271.82266,-1121.8036)" />
  <g
     style="font-size:32.5px;font-style:normal;font-weight:400;fill:none;stroke:#000000;stroke-width:1;stroke-linecap:square;stroke-linejoin:bevel;stroke-opacity:1;font-family:MS Shell Dlg 2"
     id="g3432"
     font-style="normal"
     font-weight="400"
     font-size="32.5"
     transform="translate(271.82266,-1121.8036)" />
</svg>
